<?xml version="1.0" encoding="utf-8"?>
<!-- Generator: Adobe Illustrator 26.0.3, SVG Export Plug-In . SVG Version: 6.00 Build 0)  -->
<svg version="1.1" xmlns="http://www.w3.org/2000/svg" xmlns:xlink="http://www.w3.org/1999/xlink" x="0px" y="0px"
	 viewBox="0 0 200 200" style="enable-background:new 0 0 200 200;" xml:space="preserve">
<style type="text/css">
	.st0{fill:#3C388E;}
	.st1{fill:#FFFFFF;}
	.st2{fill:#F5F5F6;}
	.st3{fill:#206095;}
	.st4{fill:#E4EAED;}
	.st5{opacity:0.2;fill:#FFFFFF;}
	.st6{fill:#2D2A6B;}
	.st7{fill:#7674B0;}
	.st8{fill:#BCBCBD;}
	.st9{fill:#F0F762;}
	.st10{fill:#FA6401;}
	.st11{fill:#FBC900;}
	.st12{fill:#E2E2E3;}
	.st13{fill:#B1AFD2;}
	.st14{fill:#FCD94C;}
	.st15{fill:#C2D175;}
	.st16{fill:#FB924D;}
	.st17{fill:#00A3A6;}
	.st18{fill:#4CBFC1;}
	.st19{fill:none;stroke:#4CBFC1;stroke-width:2;stroke-linecap:round;stroke-linejoin:round;}
	.st20{fill:none;stroke:#4CBFC1;stroke-width:2;stroke-linecap:round;stroke-linejoin:round;stroke-dasharray:3.9699,3.9699;}
	.st21{fill:#6390B5;}
	.st22{fill:#A6BFD5;}
	.st23{fill:#F4F991;}
	.st24{fill:#99B1BC;}
	.st25{fill:#003C57;}
	.st26{fill:#4C7689;}
	.st27{fill:#57A77B;}
	.st28{fill:none;stroke:#0F8243;stroke-miterlimit:10;}
	.st29{fill:#A8BD3A;}
	.st30{fill:none;stroke:#003C57;stroke-width:2.5996;stroke-linecap:round;stroke-linejoin:round;stroke-miterlimit:10;}
	.st31{fill:#6F0734;}
	.st32{fill:#A40E4E;}
	.st33{fill:#F1A1C3;}
	.st34{fill:none;stroke:#FBE3ED;stroke-width:0.6358;stroke-miterlimit:10;}
	.st35{fill:none;stroke:#FBE3ED;stroke-width:0.6358;stroke-miterlimit:10;stroke-dasharray:3.3413,3.3413;}
	.st36{fill:none;stroke:#FBE3ED;stroke-width:0.6358;stroke-miterlimit:10;stroke-dasharray:3.3781,3.3781;}
	.st37{fill:none;stroke:#FBE3ED;stroke-width:0.6358;stroke-miterlimit:10;stroke-dasharray:3.3225,3.3225;}
	.st38{fill:none;stroke:#206095;stroke-width:0.913;stroke-miterlimit:10;}
	.st39{fill:none;stroke:#206095;stroke-width:4.5651;stroke-linecap:round;stroke-miterlimit:10;}
	.st40{fill:none;stroke:#003C57;stroke-width:10.9564;stroke-linecap:round;stroke-miterlimit:10;}
	.st41{fill:none;stroke:#A6BFD5;stroke-width:1.8261;stroke-linecap:round;stroke-miterlimit:10;}
	.st42{fill:none;stroke:#BCBCBD;stroke-width:1.8261;stroke-linecap:round;stroke-miterlimit:10;}
	.st43{fill:#043C56;}
	.st44{fill:#4F7787;}
	.st45{fill:#D1EDED;}
	.st46{fill:#075253;}
	.st47{fill:#19A3A5;}
	.st48{fill:#EDF8F8;}
	.st49{fill:none;stroke:#6390B5;stroke-width:0.8076;stroke-linecap:round;stroke-miterlimit:10;}
	.st50{fill:none;stroke:#6390B5;stroke-width:0.8076;stroke-linecap:round;stroke-linejoin:round;stroke-miterlimit:10;}
	.st51{fill:none;stroke:#A6BFD5;stroke-width:1.6461;stroke-linecap:round;stroke-miterlimit:10;}
	.st52{fill:none;stroke:#003C57;stroke-width:4.9384;stroke-miterlimit:10;}
	.st53{fill:#47B5B7;}
	.st54{fill:none;stroke:#A6BFD5;stroke-width:1.6461;stroke-miterlimit:10;}
	.st55{fill:none;stroke:#A6BFD5;stroke-width:0.8231;stroke-miterlimit:10;}
	.st56{fill:#D1EDED;stroke:#003C57;stroke-width:1.6461;stroke-linecap:round;stroke-miterlimit:10;}
	.st57{fill:#47B5B7;stroke:#003C57;stroke-width:1.6461;stroke-linecap:round;stroke-miterlimit:10;}
	.st58{fill:#99B0BA;}
</style>
<g id="Background">
</g>
<g id="Source_1_line">
</g>
<g id="Source_2_lines">
</g>
<g id="Artwork">
</g>
<g id="Slanty_background">
</g>
<g id="Text">
	<g id="Circle_00000116236840272347474950000008441795358864442264_">
		<circle class="st4" cx="100" cy="100" r="98.1"/>
	</g>
	<g id="Artwork_64x64_00000101813116182035699400000003201939863910416809_">
		<path class="st3" d="M53.2,122.3h93.6c3.7,0,6.7-3,6.7-6.7v-58c0-3.7-3-6.7-6.7-6.7H53.2c-3.7,0-6.7,3-6.7,6.7v58
			C46.5,119.3,49.5,122.3,53.2,122.3z"/>
		<path class="st3" d="M117.8,126.8c0,2.5-2,4.5-4.5,4.5H86.6c-2.5,0-4.5-2-4.5-4.5H37.6c0,7.4,6,13.4,13.4,13.4l0,0h98.1
			c7.4,0,13.4-6,13.4-13.4l0,0H117.8z"/>
		<rect x="55.5" y="59.9" class="st1" width="89.2" height="53.5"/>
		<path class="st22" d="M73.2,100v44.6c0,2.5-2,4.5-4.5,4.5H42c-2.5,0-4.5-2-4.5-4.5V100c0-2.5,2-4.5,4.5-4.5h26.8
			C71.2,95.5,73.2,97.5,73.2,100z"/>
		<rect x="44.3" y="102.2" class="st1" width="22.3" height="35.7"/>
		<circle class="st1" cx="55.4" cy="143.5" r="2.2"/>
		<path class="st43" d="M133.4,90.8v54.1c0,2.3-1.9,4.1-4.1,4.1H84.1c-2.3,0-4.1-1.9-4.1-4.1V90.8c0-2.3,1.9-4.1,4.1-4.1h45.2
			C131.6,86.6,133.4,88.5,133.4,90.8z"/>
		<rect x="86.6" y="93.3" class="st1" width="40.1" height="44.6"/>
		<circle class="st1" cx="106.1" cy="143.5" r="2.2"/>
	</g>
</g>
</svg>
