<?xml version="1.0" encoding="utf-8"?>
<!-- Generator: Adobe Illustrator 26.1.0, SVG Export Plug-In . SVG Version: 6.00 Build 0)  -->
<svg version="1.1" xmlns="http://www.w3.org/2000/svg" xmlns:xlink="http://www.w3.org/1999/xlink" x="0px" y="0px"
	 viewBox="0 0 200 200" style="enable-background:new 0 0 200 200;" xml:space="preserve">
<style type="text/css">
	.st0{fill:#3C388E;}
	.st1{fill:#FFFFFF;}
	.st2{fill:#F5F5F6;}
	.st3{fill:#206095;}
	.st4{fill:#E4EAED;}
	.st5{opacity:0.2;fill:#FFFFFF;}
	.st6{fill:#2D2A6B;}
	.st7{fill:#7674B0;}
	.st8{fill:#BCBCBD;}
	.st9{fill:#F0F762;}
	.st10{fill:#FA6401;}
	.st11{fill:#FBC900;}
	.st12{fill:#E2E2E3;}
	.st13{fill:#B1AFD2;}
	.st14{fill:#FCD94C;}
	.st15{fill:#C2D175;}
	.st16{fill:#FB924D;}
	.st17{fill:#00A3A6;}
	.st18{fill:#4CBFC1;}
	.st19{fill:none;stroke:#4CBFC1;stroke-width:2;stroke-linecap:round;stroke-linejoin:round;}
	.st20{fill:none;stroke:#4CBFC1;stroke-width:2;stroke-linecap:round;stroke-linejoin:round;stroke-dasharray:3.9699,3.9699;}
	.st21{fill:#6390B5;}
	.st22{fill:#A6BFD5;}
	.st23{fill:#F4F991;}
	.st24{fill:#99B1BC;}
	.st25{fill:#003C57;}
	.st26{fill:#4C7689;}
	.st27{fill:#57A77B;}
	.st28{fill:none;stroke:#0F8243;stroke-miterlimit:10;}
	.st29{fill:#A8BD3A;}
	.st30{fill:none;stroke:#003C57;stroke-width:2.5996;stroke-linecap:round;stroke-linejoin:round;stroke-miterlimit:10;}
	.st31{fill:#6F0734;}
	.st32{fill:#A40E4E;}
	.st33{fill:#F1A1C3;}
	.st34{fill:none;stroke:#FBE3ED;stroke-width:0.6358;stroke-miterlimit:10;}
	.st35{fill:none;stroke:#FBE3ED;stroke-width:0.6358;stroke-miterlimit:10;stroke-dasharray:3.3413,3.3413;}
	.st36{fill:none;stroke:#FBE3ED;stroke-width:0.6358;stroke-miterlimit:10;stroke-dasharray:3.3781,3.3781;}
	.st37{fill:none;stroke:#FBE3ED;stroke-width:0.6358;stroke-miterlimit:10;stroke-dasharray:3.3225,3.3225;}
	.st38{fill:none;stroke:#206095;stroke-width:0.913;stroke-miterlimit:10;}
	.st39{fill:none;stroke:#206095;stroke-width:4.5651;stroke-linecap:round;stroke-miterlimit:10;}
	.st40{fill:none;stroke:#003C57;stroke-width:10.9564;stroke-linecap:round;stroke-miterlimit:10;}
	.st41{fill:none;stroke:#A6BFD5;stroke-width:1.8261;stroke-linecap:round;stroke-miterlimit:10;}
	.st42{fill:none;stroke:#BCBCBD;stroke-width:1.8261;stroke-linecap:round;stroke-miterlimit:10;}
	.st43{fill:#043C56;}
	.st44{fill:#4F7787;}
	.st45{fill:#D1EDED;}
	.st46{fill:#075253;}
	.st47{fill:#19A3A5;}
	.st48{fill:#EDF8F8;}
	.st49{fill:none;stroke:#6390B5;stroke-width:0.8076;stroke-linecap:round;stroke-miterlimit:10;}
	.st50{fill:none;stroke:#6390B5;stroke-width:0.8076;stroke-linecap:round;stroke-linejoin:round;stroke-miterlimit:10;}
	.st51{fill:none;stroke:#A6BFD5;stroke-width:1.6461;stroke-linecap:round;stroke-miterlimit:10;}
	.st52{fill:none;stroke:#003C57;stroke-width:4.9384;stroke-miterlimit:10;}
	.st53{fill:#47B5B7;}
	.st54{fill:none;stroke:#A6BFD5;stroke-width:1.6461;stroke-miterlimit:10;}
	.st55{fill:none;stroke:#A6BFD5;stroke-width:0.8231;stroke-miterlimit:10;}
	.st56{fill:#D1EDED;stroke:#003C57;stroke-width:1.6461;stroke-linecap:round;stroke-miterlimit:10;}
	.st57{fill:#47B5B7;stroke:#003C57;stroke-width:1.6461;stroke-linecap:round;stroke-miterlimit:10;}
	.st58{fill:#99B0BA;}
</style>
<g id="Background">
</g>
<g id="Source_1_line">
</g>
<g id="Source_2_lines">
</g>
<g id="Artwork">
</g>
<g id="Slanty_background">
</g>
<g id="Text">
	<g id="Circle">
		<circle class="st4" cx="100" cy="100" r="98.1"/>
	</g>
	<g id="Artwork_64x64_00000074429707665098717540000006337832301740849295_">
		<path class="st22" d="M107.6,34.5c-4.3-3.9-10.9-3.9-15.3,0L46.6,76.1l45.8,41.5c4.3,3.9,10.9,3.9,15.3,0l45.8-41.5L107.6,34.5z"
			/>
		<path class="st43" d="M58.6,58.3h82.8c1.7,0,3.1,1.4,3.1,3.1v42.7c0,1.7-1.4,3.1-3.1,3.1H58.6c-1.7,0-3.1-1.4-3.1-3.1V61.4
			C55.5,59.7,56.9,58.3,58.6,58.3z"/>
		<circle class="st1" cx="100" cy="82.7" r="15.6"/>
		<path class="st43" d="M100.9,73.4c1.5,0,3,0.3,4.5,0.9l-1.1,2.6c-1-0.4-2-0.7-3.1-0.7c-0.5,0-1,0.2-1.4,0.5
			c-0.3,0.4-0.5,0.9-0.5,1.4v2.2h4.3v2.5h-4.3v1.6c0.1,1.2-0.6,2.3-1.6,2.8h8.1v2.9h-12v-2.8c0.6-0.2,1.2-0.6,1.6-1.2
			c0.3-0.5,0.5-1.2,0.4-1.8v-1.6h-2v-2.5h2v-2.2c-0.1-1.3,0.4-2.6,1.3-3.5C98.3,73.8,99.6,73.3,100.9,73.4z"/>
		<rect x="126.7" y="62.7" class="st1" width="13.4" height="4.5"/>
		<rect x="135.6" y="62.7" class="st1" width="4.5" height="13.4"/>
		<rect x="59.9" y="62.7" class="st1" width="4.5" height="13.4"/>
		<rect x="59.9" y="62.7" class="st1" width="13.4" height="4.5"/>
		<rect x="59.9" y="98.3" class="st1" width="13.4" height="4.5"/>
		<rect x="59.9" y="89.4" class="st1" width="4.5" height="13.4"/>
		<rect x="135.6" y="89.4" class="st1" width="4.5" height="13.4"/>
		<rect x="126.7" y="98.3" class="st1" width="13.4" height="4.5"/>
		<path class="st3" d="M46.6,151.7c0,2.5,2,4.5,4.5,4.5H149c2.5,0,4.5-2,4.5-4.5V76.1l-45.8,41.5c-4.3,3.9-10.9,3.9-15.3,0
			L46.6,76.1V151.7z"/>
		<path class="st22" d="M100,120.6c-2.8,0-5.4-1-7.5-2.9l-46-41.6l2.6-2.2l45.6,41.4c3,2.7,7.5,2.7,10.5,0l45.7-41.4l2.5,2.2
			l-46,41.6C105.4,119.5,102.8,120.6,100,120.6z"/>
	</g>
</g>
</svg>
