<?xml version="1.0" encoding="utf-8"?>
<!-- Generator: Adobe Illustrator 26.0.3, SVG Export Plug-In . SVG Version: 6.00 Build 0)  -->
<svg version="1.1" xmlns="http://www.w3.org/2000/svg" xmlns:xlink="http://www.w3.org/1999/xlink" x="0px" y="0px"
	 viewBox="0 0 200 200" style="enable-background:new 0 0 200 200;" xml:space="preserve">
<style type="text/css">
	.st0{fill:#3C388E;}
	.st1{fill:#FFFFFF;}
	.st2{fill:#F5F5F6;}
	.st3{fill:#206095;}
	.st4{fill:#E4EAED;}
	.st5{opacity:0.2;fill:#FFFFFF;}
	.st6{fill:#2D2A6B;}
	.st7{fill:#7674B0;}
	.st8{fill:#BCBCBD;}
	.st9{fill:#F0F762;}
	.st10{fill:#FA6401;}
	.st11{fill:#FBC900;}
	.st12{fill:#E2E2E3;}
	.st13{fill:#B1AFD2;}
	.st14{fill:#FCD94C;}
	.st15{fill:#C2D175;}
	.st16{fill:#FB924D;}
	.st17{fill:#00A3A6;}
	.st18{fill:#4CBFC1;}
	.st19{fill:none;stroke:#4CBFC1;stroke-width:2;stroke-linecap:round;stroke-linejoin:round;}
	.st20{fill:none;stroke:#4CBFC1;stroke-width:2;stroke-linecap:round;stroke-linejoin:round;stroke-dasharray:3.9699,3.9699;}
	.st21{fill:#6390B5;}
	.st22{fill:#A6BFD5;}
	.st23{fill:#F4F991;}
	.st24{fill:#99B1BC;}
	.st25{fill:#003C57;}
	.st26{fill:#4C7689;}
	.st27{fill:#57A77B;}
	.st28{fill:none;stroke:#0F8243;stroke-miterlimit:10;}
	.st29{fill:#A8BD3A;}
	.st30{fill:none;stroke:#003C57;stroke-width:2.5996;stroke-linecap:round;stroke-linejoin:round;stroke-miterlimit:10;}
	.st31{fill:#6F0734;}
	.st32{fill:#A40E4E;}
	.st33{fill:#F1A1C3;}
	.st34{fill:none;stroke:#FBE3ED;stroke-width:0.6358;stroke-miterlimit:10;}
	.st35{fill:none;stroke:#FBE3ED;stroke-width:0.6358;stroke-miterlimit:10;stroke-dasharray:3.3413,3.3413;}
	.st36{fill:none;stroke:#FBE3ED;stroke-width:0.6358;stroke-miterlimit:10;stroke-dasharray:3.3781,3.3781;}
	.st37{fill:none;stroke:#FBE3ED;stroke-width:0.6358;stroke-miterlimit:10;stroke-dasharray:3.3225,3.3225;}
	.st38{fill:none;stroke:#206095;stroke-width:0.913;stroke-miterlimit:10;}
	.st39{fill:none;stroke:#206095;stroke-width:4.5651;stroke-linecap:round;stroke-miterlimit:10;}
	.st40{fill:none;stroke:#003C57;stroke-width:10.9564;stroke-linecap:round;stroke-miterlimit:10;}
	.st41{fill:none;stroke:#A6BFD5;stroke-width:1.8261;stroke-linecap:round;stroke-miterlimit:10;}
	.st42{fill:none;stroke:#BCBCBD;stroke-width:1.8261;stroke-linecap:round;stroke-miterlimit:10;}
	.st43{fill:#043C56;}
	.st44{fill:#4F7787;}
	.st45{fill:#D1EDED;}
	.st46{fill:#075253;}
	.st47{fill:#19A3A5;}
	.st48{fill:#EDF8F8;}
	.st49{fill:none;stroke:#6390B5;stroke-width:0.8076;stroke-linecap:round;stroke-miterlimit:10;}
	.st50{fill:none;stroke:#6390B5;stroke-width:0.8076;stroke-linecap:round;stroke-linejoin:round;stroke-miterlimit:10;}
	.st51{fill:none;stroke:#A6BFD5;stroke-width:1.6461;stroke-linecap:round;stroke-miterlimit:10;}
	.st52{fill:none;stroke:#003C57;stroke-width:4.9384;stroke-miterlimit:10;}
	.st53{fill:#47B5B7;}
	.st54{fill:none;stroke:#A6BFD5;stroke-width:1.6461;stroke-miterlimit:10;}
	.st55{fill:none;stroke:#A6BFD5;stroke-width:0.8231;stroke-miterlimit:10;}
	.st56{fill:#D1EDED;stroke:#003C57;stroke-width:1.6461;stroke-linecap:round;stroke-miterlimit:10;}
	.st57{fill:#47B5B7;stroke:#003C57;stroke-width:1.6461;stroke-linecap:round;stroke-miterlimit:10;}
	.st58{fill:#99B0BA;}
</style>
<g id="Background">
</g>
<g id="Source_1_line">
</g>
<g id="Source_2_lines">
</g>
<g id="Artwork">
</g>
<g id="Slanty_background">
</g>
<g id="Text">
	<g id="Circle_00000069384590303350220190000002231974664432572033_">
		<circle class="st4" cx="100" cy="100" r="98.1"/>
	</g>
	<g id="Artwork_64x64">
		<path class="st3" d="M143,49h-9.6c-2.6,0-4.8,2.1-4.8,4.8v19.7l-23.9-23.6C102,47,97.5,47,94.7,49.8c0,0,0,0-0.1,0.1L52.2,92.5
			v57.3c0,5.3,4.3,9.6,9.6,9.6h42.9l0-28.7h19.1l0,28.7h14.4c5.3,0,9.6-4.3,9.6-9.6V53.7C147.8,51.1,145.6,49,143,49z M76.1,125.4
			h-9.6v-9.6h9.6V125.4z M76.1,111.1h-9.6v-9.6h9.6V111.1z M90.4,125.4h-9.6v-9.6h9.6V125.4z M90.4,111.1h-9.6v-9.6h9.6V111.1z"/>
		<rect x="104.7" y="130.8" class="st4" width="19.1" height="28.7"/>
		<path class="st25" d="M153,107.8l-50.1-50.1c-1.7-1.7-4.4-1.7-6,0c0,0,0,0,0,0l-50.1,50.1c-1.7,1.7-4.4,1.7-6.1,0l-2.8-3.1
			c-1.7-1.7-1.7-4.4,0-6c0,0,0,0,0,0l52.9-53.1c5-5,13.1-5,18.2,0l53.1,53.1c1.7,1.7,1.7,4.4,0,6c0,0,0,0,0,0l-3,3.1
			C157.4,109.5,154.7,109.5,153,107.8z"/>
	</g>
</g>
</svg>
