<?xml version="1.0" encoding="utf-8"?>
<!-- Generator: Adobe Illustrator 26.0.3, SVG Export Plug-In . SVG Version: 6.00 Build 0)  -->
<svg version="1.1" xmlns="http://www.w3.org/2000/svg" xmlns:xlink="http://www.w3.org/1999/xlink" x="0px" y="0px"
	 viewBox="0 0 200 200" style="enable-background:new 0 0 200 200;" xml:space="preserve">
<style type="text/css">
	.st0{fill:#3C388E;}
	.st1{fill:#FFFFFF;}
	.st2{fill:#F5F5F6;}
	.st3{fill:#206095;}
	.st4{fill:#E4EAED;}
	.st5{opacity:0.2;fill:#FFFFFF;}
	.st6{fill:#2D2A6B;}
	.st7{fill:#7674B0;}
	.st8{fill:#BCBCBD;}
	.st9{fill:#F0F762;}
	.st10{fill:#FA6401;}
	.st11{fill:#FBC900;}
	.st12{fill:#E2E2E3;}
	.st13{fill:#B1AFD2;}
	.st14{fill:#FCD94C;}
	.st15{fill:#C2D175;}
	.st16{fill:#FB924D;}
	.st17{fill:#00A3A6;}
	.st18{fill:#4CBFC1;}
	.st19{fill:none;stroke:#4CBFC1;stroke-width:2;stroke-linecap:round;stroke-linejoin:round;}
	.st20{fill:none;stroke:#4CBFC1;stroke-width:2;stroke-linecap:round;stroke-linejoin:round;stroke-dasharray:3.9699,3.9699;}
	.st21{fill:#6390B5;}
	.st22{fill:#A6BFD5;}
	.st23{fill:#F4F991;}
	.st24{fill:#99B1BC;}
	.st25{fill:#003C57;}
	.st26{fill:#4C7689;}
	.st27{fill:#57A77B;}
	.st28{fill:none;stroke:#0F8243;stroke-miterlimit:10;}
	.st29{fill:#A8BD3A;}
	.st30{fill:none;stroke:#003C57;stroke-width:2.5996;stroke-linecap:round;stroke-linejoin:round;stroke-miterlimit:10;}
	.st31{fill:#6F0734;}
	.st32{fill:#A40E4E;}
	.st33{fill:#F1A1C3;}
	.st34{fill:none;stroke:#FBE3ED;stroke-width:0.6358;stroke-miterlimit:10;}
	.st35{fill:none;stroke:#FBE3ED;stroke-width:0.6358;stroke-miterlimit:10;stroke-dasharray:3.3413,3.3413;}
	.st36{fill:none;stroke:#FBE3ED;stroke-width:0.6358;stroke-miterlimit:10;stroke-dasharray:3.3781,3.3781;}
	.st37{fill:none;stroke:#FBE3ED;stroke-width:0.6358;stroke-miterlimit:10;stroke-dasharray:3.3225,3.3225;}
	.st38{fill:none;stroke:#206095;stroke-width:0.913;stroke-miterlimit:10;}
	.st39{fill:none;stroke:#206095;stroke-width:4.5651;stroke-linecap:round;stroke-miterlimit:10;}
	.st40{fill:none;stroke:#003C57;stroke-width:10.9564;stroke-linecap:round;stroke-miterlimit:10;}
	.st41{fill:none;stroke:#A6BFD5;stroke-width:1.8261;stroke-linecap:round;stroke-miterlimit:10;}
	.st42{fill:none;stroke:#BCBCBD;stroke-width:1.8261;stroke-linecap:round;stroke-miterlimit:10;}
	.st43{fill:#043C56;}
	.st44{fill:#4F7787;}
	.st45{fill:#D1EDED;}
	.st46{fill:#075253;}
	.st47{fill:#19A3A5;}
	.st48{fill:#EDF8F8;}
	.st49{fill:none;stroke:#6390B5;stroke-width:0.8076;stroke-linecap:round;stroke-miterlimit:10;}
	.st50{fill:none;stroke:#6390B5;stroke-width:0.8076;stroke-linecap:round;stroke-linejoin:round;stroke-miterlimit:10;}
	.st51{fill:none;stroke:#A6BFD5;stroke-width:1.6461;stroke-linecap:round;stroke-miterlimit:10;}
	.st52{fill:none;stroke:#003C57;stroke-width:4.9384;stroke-miterlimit:10;}
	.st53{fill:#47B5B7;}
	.st54{fill:none;stroke:#A6BFD5;stroke-width:1.6461;stroke-miterlimit:10;}
	.st55{fill:none;stroke:#A6BFD5;stroke-width:0.8231;stroke-miterlimit:10;}
	.st56{fill:#D1EDED;stroke:#003C57;stroke-width:1.6461;stroke-linecap:round;stroke-miterlimit:10;}
	.st57{fill:#47B5B7;stroke:#003C57;stroke-width:1.6461;stroke-linecap:round;stroke-miterlimit:10;}
	.st58{fill:#99B0BA;}
</style>
<g id="Background">
</g>
<g id="Source_1_line">
</g>
<g id="Source_2_lines">
</g>
<g id="Artwork">
</g>
<g id="Slanty_background">
</g>
<g id="Text">
	<g id="Circle">
		<circle class="st4" cx="100" cy="100" r="98.1"/>
	</g>
	<g>
		<rect x="65.3" y="130.2" class="st3" width="60.5" height="6.9"/>
		<path class="st3" d="M129.4,137.2l28.8-84.7h12.2c2.1,0,3.7-1.7,3.7-3.7s-1.7-3.7-3.7-3.7h-14.9c-1.6,0-3,1-3.5,2.5l-6.6,19.3
			H45.8c-1.2,0-2.3,0.6-3,1.5c-0.7,1-0.9,2.2-0.5,3.4l14.3,43.5c0.5,1.5,1.9,2.6,3.5,2.6h67.9l-4.9,14.4 M138,88.6h-22l1.9-14.3
			h24.9L138,88.6z M88.2,110.4l-1.9-14.3h21.2l-1.9,14.3H88.2z M85.2,88.6l-1.9-14.3h27.1l-1.9,14.3H85.2z M75.8,74.4l1.9,14.3h-22
			L51,74.4H75.8z M58.2,96.1h20.6l1.9,14.3H62.9L58.2,96.1z M113.1,110.4l1.9-14.3h20.5l-4.9,14.3H113.1z"/>
		<circle class="st25" cx="125.7" cy="142.6" r="12.4"/>
		<circle class="st25" cx="65.5" cy="142.6" r="12.4"/>
		<circle class="st1" cx="125.8" cy="142.4" r="4.9"/>
		<circle class="st1" cx="65.7" cy="142.4" r="4.9"/>
	</g>
</g>
</svg>
