<?xml version="1.0" encoding="utf-8"?>
<!-- Generator: Adobe Illustrator 26.0.3, SVG Export Plug-In . SVG Version: 6.00 Build 0)  -->
<svg version="1.1" xmlns="http://www.w3.org/2000/svg" xmlns:xlink="http://www.w3.org/1999/xlink" x="0px" y="0px"
	 viewBox="0 0 200 200" style="enable-background:new 0 0 200 200;" xml:space="preserve">
<style type="text/css">
	.st0{fill:#3C388E;}
	.st1{fill:#FFFFFF;}
	.st2{fill:#F5F5F6;}
	.st3{fill:#206095;}
	.st4{fill:#E4EAED;}
	.st5{opacity:0.2;fill:#FFFFFF;}
	.st6{fill:#2D2A6B;}
	.st7{fill:#7674B0;}
	.st8{fill:#BCBCBD;}
	.st9{fill:#F0F762;}
	.st10{fill:#FA6401;}
	.st11{fill:#FBC900;}
	.st12{fill:#E2E2E3;}
	.st13{fill:#B1AFD2;}
	.st14{fill:#FCD94C;}
	.st15{fill:#C2D175;}
	.st16{fill:#FB924D;}
	.st17{fill:#00A3A6;}
	.st18{fill:#4CBFC1;}
	.st19{fill:none;stroke:#4CBFC1;stroke-width:2;stroke-linecap:round;stroke-linejoin:round;}
	.st20{fill:none;stroke:#4CBFC1;stroke-width:2;stroke-linecap:round;stroke-linejoin:round;stroke-dasharray:3.9699,3.9699;}
	.st21{fill:#6390B5;}
	.st22{fill:#A6BFD5;}
	.st23{fill:#F4F991;}
	.st24{fill:#99B1BC;}
	.st25{fill:#003C57;}
	.st26{fill:#4C7689;}
	.st27{fill:#57A77B;}
	.st28{fill:none;stroke:#0F8243;stroke-miterlimit:10;}
	.st29{fill:#A8BD3A;}
	.st30{fill:none;stroke:#003C57;stroke-width:2.5996;stroke-linecap:round;stroke-linejoin:round;stroke-miterlimit:10;}
	.st31{fill:#6F0734;}
	.st32{fill:#A40E4E;}
	.st33{fill:#F1A1C3;}
	.st34{fill:none;stroke:#FBE3ED;stroke-width:0.6358;stroke-miterlimit:10;}
	.st35{fill:none;stroke:#FBE3ED;stroke-width:0.6358;stroke-miterlimit:10;stroke-dasharray:3.3413,3.3413;}
	.st36{fill:none;stroke:#FBE3ED;stroke-width:0.6358;stroke-miterlimit:10;stroke-dasharray:3.3781,3.3781;}
	.st37{fill:none;stroke:#FBE3ED;stroke-width:0.6358;stroke-miterlimit:10;stroke-dasharray:3.3225,3.3225;}
	.st38{fill:none;stroke:#206095;stroke-width:0.913;stroke-miterlimit:10;}
	.st39{fill:none;stroke:#206095;stroke-width:4.5651;stroke-linecap:round;stroke-miterlimit:10;}
	.st40{fill:none;stroke:#003C57;stroke-width:10.9564;stroke-linecap:round;stroke-miterlimit:10;}
	.st41{fill:none;stroke:#A6BFD5;stroke-width:1.8261;stroke-linecap:round;stroke-miterlimit:10;}
	.st42{fill:none;stroke:#BCBCBD;stroke-width:1.8261;stroke-linecap:round;stroke-miterlimit:10;}
	.st43{fill:#043C56;}
	.st44{fill:#4F7787;}
	.st45{fill:#D1EDED;}
	.st46{fill:#075253;}
	.st47{fill:#19A3A5;}
	.st48{fill:#EDF8F8;}
	.st49{fill:none;stroke:#6390B5;stroke-width:0.8076;stroke-linecap:round;stroke-miterlimit:10;}
	.st50{fill:none;stroke:#6390B5;stroke-width:0.8076;stroke-linecap:round;stroke-linejoin:round;stroke-miterlimit:10;}
	.st51{fill:none;stroke:#A6BFD5;stroke-width:1.6461;stroke-linecap:round;stroke-miterlimit:10;}
	.st52{fill:none;stroke:#003C57;stroke-width:4.9384;stroke-miterlimit:10;}
	.st53{fill:#47B5B7;}
	.st54{fill:none;stroke:#A6BFD5;stroke-width:1.6461;stroke-miterlimit:10;}
	.st55{fill:none;stroke:#A6BFD5;stroke-width:0.8231;stroke-miterlimit:10;}
	.st56{fill:#D1EDED;stroke:#003C57;stroke-width:1.6461;stroke-linecap:round;stroke-miterlimit:10;}
	.st57{fill:#47B5B7;stroke:#003C57;stroke-width:1.6461;stroke-linecap:round;stroke-miterlimit:10;}
	.st58{fill:#99B0BA;}
</style>
<g id="Background">
</g>
<g id="Source_1_line">
</g>
<g id="Source_2_lines">
</g>
<g id="Artwork">
</g>
<g id="Slanty_background">
</g>
<g id="Text">
	<g id="Circle_00000161599644146892062670000008953051794903420038_">
		<circle class="st4" cx="100" cy="100" r="98.1"/>
	</g>
	<g id="Artwork_64x64_00000026154434770506139500000012814547258547497613_">
		<path class="st43" d="M135.7,126.8h8.9c2.5,0,4.5,2,4.5,4.5v17.8c0,2.5-2,4.5-4.5,4.5h-8.9c-2.5,0-4.5-2-4.5-4.5v-17.8
			C131.2,128.8,133.2,126.8,135.7,126.8z"/>
		<path class="st43" d="M55.4,126.8h8.9c2.5,0,4.5,2,4.5,4.5v17.8c0,2.5-2,4.5-4.5,4.5h-8.9c-2.5,0-4.5-2-4.5-4.5v-17.8
			C50.9,128.8,52.9,126.8,55.4,126.8z"/>
		<path class="st43" d="M155.7,86.6h-6.7c-1.1,0-2.2,0.4-3,1.2L139,60c-2-7.9-9.1-13.5-17.3-13.5H78.3c-8.2,0-15.3,5.6-17.3,13.5
			l-7,27.8c-0.8-0.8-1.9-1.2-3-1.2h-6.7c-3.7,0-6.7,3-6.7,6.7v2.2c0,2.5,2,4.5,4.5,4.5h8.9c2.5,0,4.5-2,4.5-4.5v-4.5
			c2.4-1.8,5-3.1,7.9-3.8l6.3-25.2c1-3.9,4.6-6.7,8.7-6.7h43.5c4.1,0,7.6,2.7,8.7,6.7l6.3,25.2c2.9,0.7,5.5,2,7.9,3.8v4.5
			c0,2.5,2,4.5,4.5,4.5h8.9c2.5,0,4.5-2,4.5-4.5v-2.2C162.4,89.6,159.4,86.6,155.7,86.6z"/>
		<path class="st3" d="M68.8,86.6h62.4c12.3,0,22.3,10,22.3,22.3v22.3c0,4.9-4,8.9-8.9,8.9H55.4c-4.9,0-8.9-4-8.9-8.9v-22.3
			C46.5,96.6,56.5,86.6,68.8,86.6z"/>
		<path class="st1" d="M131.2,86.6c1.9,0,3.7,0.2,5.5,0.7l-6.3-25.2c-1-3.9-4.6-6.7-8.7-6.7H78.3c-4.1,0-7.6,2.7-8.7,6.7l-6.3,25.2
			c1.8-0.5,3.6-0.7,5.5-0.7H131.2z"/>
		<circle class="st1" cx="64.3" cy="115.6" r="8.9"/>
		<circle class="st1" cx="135.7" cy="115.6" r="8.9"/>
		<rect x="82.2" y="117.8" class="st1" width="35.7" height="8.9"/>
	</g>
</g>
</svg>
