<?xml version="1.0" encoding="utf-8"?>
<!-- Generator: Adobe Illustrator 26.0.3, SVG Export Plug-In . SVG Version: 6.00 Build 0)  -->
<svg version="1.1" xmlns="http://www.w3.org/2000/svg" xmlns:xlink="http://www.w3.org/1999/xlink" x="0px" y="0px"
	 viewBox="0 0 200 200" style="enable-background:new 0 0 200 200;" xml:space="preserve">
<style type="text/css">
	.st0{fill:#3C388E;}
	.st1{fill:#FFFFFF;}
	.st2{fill:#F5F5F6;}
	.st3{fill:#206095;}
	.st4{fill:#E4EAED;}
	.st5{opacity:0.2;fill:#FFFFFF;}
	.st6{fill:#2D2A6B;}
	.st7{fill:#7674B0;}
	.st8{fill:#BCBCBD;}
	.st9{fill:#F0F762;}
	.st10{fill:#FA6401;}
	.st11{fill:#FBC900;}
	.st12{fill:#E2E2E3;}
	.st13{fill:#B1AFD2;}
	.st14{fill:#FCD94C;}
	.st15{fill:#C2D175;}
	.st16{fill:#FB924D;}
	.st17{fill:#00A3A6;}
	.st18{fill:#4CBFC1;}
	.st19{fill:none;stroke:#4CBFC1;stroke-width:2;stroke-linecap:round;stroke-linejoin:round;}
	.st20{fill:none;stroke:#4CBFC1;stroke-width:2;stroke-linecap:round;stroke-linejoin:round;stroke-dasharray:3.9699,3.9699;}
	.st21{fill:#6390B5;}
	.st22{fill:#A6BFD5;}
	.st23{fill:#F4F991;}
	.st24{fill:#99B1BC;}
	.st25{fill:#003C57;}
	.st26{fill:#4C7689;}
	.st27{fill:#57A77B;}
	.st28{fill:none;stroke:#0F8243;stroke-miterlimit:10;}
	.st29{fill:#A8BD3A;}
	.st30{fill:none;stroke:#003C57;stroke-width:2.5996;stroke-linecap:round;stroke-linejoin:round;stroke-miterlimit:10;}
	.st31{fill:#6F0734;}
	.st32{fill:#A40E4E;}
	.st33{fill:#F1A1C3;}
	.st34{fill:none;stroke:#FBE3ED;stroke-width:0.6358;stroke-miterlimit:10;}
	.st35{fill:none;stroke:#FBE3ED;stroke-width:0.6358;stroke-miterlimit:10;stroke-dasharray:3.3413,3.3413;}
	.st36{fill:none;stroke:#FBE3ED;stroke-width:0.6358;stroke-miterlimit:10;stroke-dasharray:3.3781,3.3781;}
	.st37{fill:none;stroke:#FBE3ED;stroke-width:0.6358;stroke-miterlimit:10;stroke-dasharray:3.3225,3.3225;}
	.st38{fill:none;stroke:#206095;stroke-width:0.913;stroke-miterlimit:10;}
	.st39{fill:none;stroke:#206095;stroke-width:4.5651;stroke-linecap:round;stroke-miterlimit:10;}
	.st40{fill:none;stroke:#003C57;stroke-width:10.9564;stroke-linecap:round;stroke-miterlimit:10;}
	.st41{fill:none;stroke:#A6BFD5;stroke-width:1.8261;stroke-linecap:round;stroke-miterlimit:10;}
	.st42{fill:none;stroke:#BCBCBD;stroke-width:1.8261;stroke-linecap:round;stroke-miterlimit:10;}
	.st43{fill:#043C56;}
	.st44{fill:#4F7787;}
	.st45{fill:#D1EDED;}
	.st46{fill:#075253;}
	.st47{fill:#19A3A5;}
	.st48{fill:#EDF8F8;}
	.st49{fill:none;stroke:#6390B5;stroke-width:0.8076;stroke-linecap:round;stroke-miterlimit:10;}
	.st50{fill:none;stroke:#6390B5;stroke-width:0.8076;stroke-linecap:round;stroke-linejoin:round;stroke-miterlimit:10;}
	.st51{fill:none;stroke:#A6BFD5;stroke-width:1.6461;stroke-linecap:round;stroke-miterlimit:10;}
	.st52{fill:none;stroke:#003C57;stroke-width:4.9384;stroke-miterlimit:10;}
	.st53{fill:#47B5B7;}
	.st54{fill:none;stroke:#A6BFD5;stroke-width:1.6461;stroke-miterlimit:10;}
	.st55{fill:none;stroke:#A6BFD5;stroke-width:0.8231;stroke-miterlimit:10;}
	.st56{fill:#D1EDED;stroke:#003C57;stroke-width:1.6461;stroke-linecap:round;stroke-miterlimit:10;}
	.st57{fill:#47B5B7;stroke:#003C57;stroke-width:1.6461;stroke-linecap:round;stroke-miterlimit:10;}
	.st58{fill:#99B0BA;}
</style>
<g id="Background">
</g>
<g id="Source_1_line">
</g>
<g id="Source_2_lines">
</g>
<g id="Artwork">
</g>
<g id="Slanty_background">
</g>
<g id="Text">
	<g id="Circle_00000127009215582470964920000007540161550839518119_">
		<circle class="st4" cx="100" cy="100" r="98.1"/>
	</g>
	<g>
		<g id="Artwork_64x64_00000126284536083736422290000013533446004870602664_">
			<path class="st3" d="M55.4,42V158c0,2.5,2,4.5,4.5,4.5h80.3c2.5,0,4.5-2,4.5-4.5V64.3l-26.8-26.8h-58
				C57.4,37.6,55.4,39.6,55.4,42z"/>
			<path class="st43" d="M122.3,64.3h22.3l-26.8-26.8v22.3C117.8,62.3,119.8,64.3,122.3,64.3z"/>
			<path class="st1" d="M127.8,139.3H73.2c-1.8,0-3.3-1.5-3.3-3.3s1.5-3.3,3.3-3.3h54.6c1.8,0,3.3,1.5,3.3,3.3
				S129.7,139.3,127.8,139.3z"/>
			<path class="st1" d="M127.8,123.7H73.2c-1.8,0-3.3-1.5-3.3-3.3s1.5-3.3,3.3-3.3h54.6c1.8,0,3.3,1.5,3.3,3.3
				S129.7,123.7,127.8,123.7z"/>
			<path class="st1" d="M127.8,108.1H73.2c-1.8,0-3.3-1.5-3.3-3.3c0-1.8,1.5-3.3,3.3-3.3h54.6c1.8,0,3.3,1.5,3.3,3.3
				C131.2,106.6,129.7,108.1,127.8,108.1z"/>
			<path class="st1" d="M110,92.5H73.2c-1.8,0-3.3-1.5-3.3-3.3s1.5-3.3,3.3-3.3H110c1.8,0,3.3,1.5,3.3,3.3S111.8,92.5,110,92.5z"/>
		</g>
		<g>
			<path class="st1" d="M78.4,50.1c1.8,0,3.6,0.4,5.4,1.1l-1.3,3.2c-1.4-0.6-2.7-0.9-3.8-0.9c-0.7,0-1.3,0.2-1.7,0.6
				c-0.4,0.4-0.6,1-0.6,1.8l0,2.7h5.2v3l-5.2,0v2c0,1.6-0.7,2.7-2.1,3.4l9.9,0v3.6l-14.5,0v-3.4c0.9-0.4,1.6-0.9,2-1.4
				c0.4-0.5,0.5-1.2,0.5-2.2v-2l-2.5,0v-3l2.5,0v-2.7c0-1.9,0.5-3.3,1.6-4.3C75,50.6,76.5,50.1,78.4,50.1z"/>
		</g>
	</g>
</g>
</svg>
