<?xml version="1.0" encoding="utf-8"?>
<!-- Generator: Adobe Illustrator 26.4.0, SVG Export Plug-In . SVG Version: 6.00 Build 0)  -->
<svg version="1.1" id="Layer_1" xmlns="http://www.w3.org/2000/svg" xmlns:xlink="http://www.w3.org/1999/xlink" x="0px" y="0px" width="260px" height="152px"
	 viewBox="0 0 400 211.8" style="enable-background:new 0 0 400 211.8;" xml:space="preserve" preserveAspectRatio="none">
<style type="text/css">
	.st0{fill:#D3D8DD;}
	.st1{fill:#F5F5F6;}
	.st2{fill:#3D6092;}
	.st3{fill:#6390B5;}
	.st4{fill:#00A3A6;}
	.st5{fill:#99B1BC;}
	.st6{fill:#FFFFFF;}
	.st7{fill:none;}
	.st8{fill-rule:evenodd;clip-rule:evenodd;fill:#3D6092;}
	.st9{fill:none;stroke:#99B1BC;stroke-width:6.7328;stroke-linecap:round;stroke-miterlimit:10;}
	.st10{fill:#E2E2E3;}
	.st11{fill:#A7B2BC;}
	.st12{fill:#233E57;}
	.st13{fill:#B2BFD3;}
	.st14{fill:#707071;}
	.st15{fill:#657889;}
	.st16{fill:#5EA77D;}
	.st17{fill:#A8BC45;}
	.st18{fill:#198145;}
	.st19{fill:#E9ECEE;}
	.st20{fill:none;stroke:#198145;stroke-miterlimit:10;}
	.st21{fill:none;stroke:#99B1BC;stroke-width:7.62;stroke-linecap:round;stroke-miterlimit:10;}
</style>
<g>
	<g>
		<g>
			<path class="st0" d="M4.1,209l0-185.7C4.1,11.5,13.6,2,25.4,2L376,2c11.8,0,21.3,9.5,21.3,21.3l0,185.7L4.1,209z"/>
			<path class="st1" d="M356.8,135.2l-312.1,0c-4.7,0-8.5-3.8-8.5-8.5l0-81.8c0-4.7,3.8-8.5,8.5-8.5l312.1,0c4.7,0,8.5,3.8,8.5,8.5
				l0,81.8C365.3,131.3,361.5,135.2,356.8,135.2z"/>
			<g id="_x3C_Grid_Repeat_x3E__00000054984797651928966280000003070163411208396707_">
				<path class="st2" d="M105.7,209l0-30.7c0-2.4-1.9-4.3-4.3-4.3l-61.1,0c-2.4,0-4.3,1.9-4.3,4.3l0,30.7L105.7,209z"/>
			</g>
			<g id="_x3C_Grid_Repeat_x3E__00000025400313188252438840000016998598183369390732_">
				<path class="st2" d="M191.6,209l0-30.7c0-2.4-1.9-4.3-4.3-4.3l-61.1,0c-2.4,0-4.3,1.9-4.3,4.3l0,30.7L191.6,209z"/>
			</g>
			<g id="_x3C_Grid_Repeat_x3E__00000048467031557056498650000014976915184867870888_">
				<path class="st2" d="M277.5,209l0-30.7c0-2.4-1.9-4.3-4.3-4.3l-61.1,0c-2.4,0-4.3,1.9-4.3,4.3l0,30.7L277.5,209z"/>
			</g>
			<g id="_x3C_Grid_Repeat_x3E__00000070797046805135658720000017047722457718833847_">
				<path class="st4" d="M363.4,209l0-30.7c0-2.4-1.9-4.3-4.3-4.3l-61.1,0c-2.4,0-4.3,1.9-4.3,4.3l0,30.7L363.4,209z"/>
			</g>
		</g>
	</g>
	<g>
		<defs>
			<path id="SVGID_00000030470154732038319230000012311208677153433993_" d="M356.8,135.2l-312.1,0c-4.7,0-8.5-3.8-8.5-8.5l0-81.8
				c0-4.7,3.8-8.5,8.5-8.5l312.1,0c4.7,0,8.5,3.8,8.5,8.5l0,81.8C365.3,131.3,361.5,135.2,356.8,135.2z"/>
		</defs>
		<clipPath id="SVGID_00000027605662398425533440000011878576180344143535_">
			<use xlink:href="#SVGID_00000030470154732038319230000012311208677153433993_"  style="overflow:visible;"/>
		</clipPath>
	</g>
</g>
</svg>
