<?xml version="1.0" encoding="utf-8"?>
<!-- Generator: Adobe Illustrator 26.4.0, SVG Export Plug-In . SVG Version: 6.00 Build 0)  -->
<svg version="1.1" id="Layer_1" xmlns="http://www.w3.org/2000/svg" xmlns:xlink="http://www.w3.org/1999/xlink" x="0px" y="0px"
	 viewBox="0 0 181.9 215.7" style="enable-background:new 0 0 181.9 215.7;" xml:space="preserve">
<style type="text/css">
	.st0{fill:#D3D8DD;}
	.st1{fill:#F5F5F6;}
	.st2{fill:#3D6092;}
	.st3{fill:#6390B5;}
	.st4{fill:#00A3A6;}
	.st5{fill:#99B1BC;}
	.st6{fill:#FFFFFF;}
	.st7{fill:none;}
	.st8{fill-rule:evenodd;clip-rule:evenodd;fill:#3D6092;}
	.st9{fill:none;stroke:#99B1BC;stroke-width:6.7328;stroke-linecap:round;stroke-miterlimit:10;}
	.st10{fill:#E2E2E3;}
	.st11{fill:#A7B2BC;}
	.st12{fill:#233E57;}
	.st13{fill:#B2BFD3;}
	.st14{fill:#707071;}
	.st15{fill:#657889;}
	.st16{fill:#5EA77D;}
	.st17{fill:#A8BC45;}
	.st18{fill:#198145;}
	.st19{fill:#E9ECEE;}
	.st20{fill:none;stroke:#198145;stroke-miterlimit:10;}
	.st21{fill:none;stroke:#99B1BC;stroke-width:7.62;stroke-linecap:round;stroke-miterlimit:10;}
</style>
<g>
	<g>
		<g>
			<path class="st0" d="M169.8,213.6l-157.7,0c-5.3,0-9.6-4.3-9.6-9.6l0-192.3c0-5.3,4.3-9.6,9.6-9.6l157.7,0c5.3,0,9.6,4.3,9.6,9.6
				l0,192.3C179.3,209.3,175,213.6,169.8,213.6z"/>
			<path class="st1" d="M161.1,62L20.7,62c-2.1,0-3.8-1.7-3.8-3.8l0-36.8c0-2.1,1.7-3.8,3.8-3.8l140.4,0c2.1,0,3.8,1.7,3.8,3.8
				l0,36.8C164.9,60.3,163.2,62,161.1,62z"/>
			<g id="_x3C_Grid_Repeat_x3E__00000024698652867533234770000015063393356197284031_">
				<path class="st2" d="M46.3,103.8l-27.5,0c-1.1,0-1.9-0.9-1.9-1.9l0-20.4c0-1.1,0.9-1.9,1.9-1.9l27.5,0c1.1,0,1.9,0.9,1.9,1.9
					l0,20.4C48.2,102.9,47.3,103.8,46.3,103.8z"/>
			</g>
			<g id="_x3C_Grid_Repeat_x3E__00000049907777028985377350000013547572763822431146_">
				<path class="st2" d="M84.9,103.8l-27.5,0c-1.1,0-1.9-0.9-1.9-1.9l0-20.4c0-1.1,0.9-1.9,1.9-1.9l27.5,0c1.1,0,1.9,0.9,1.9,1.9
					l0,20.4C86.8,102.9,85.9,103.8,84.9,103.8z"/>
			</g>
			<g id="_x3C_Grid_Repeat_x3E__00000036943291122463028800000007474388659265883071_">
				<path class="st2" d="M123.5,103.8l-27.5,0c-1.1,0-1.9-0.9-1.9-1.9l0-20.4c0-1.1,0.9-1.9,1.9-1.9l27.5,0c1.1,0,1.9,0.9,1.9,1.9
					l0,20.4C125.4,102.9,124.6,103.8,123.5,103.8z"/>
			</g>
			<g id="_x3C_Grid_Repeat_x3E__00000131345800285340871130000000881622418922138782_">
				<path class="st2" d="M162.1,103.8l-27.5,0c-1.1,0-1.9-0.9-1.9-1.9l0-20.4c0-1.1,0.9-1.9,1.9-1.9l27.5,0c1.1,0,1.9,0.9,1.9,1.9
					l0,20.4C164.1,102.9,163.2,103.8,162.1,103.8z"/>
			</g>
			<g id="_x3C_Grid_Repeat_x3E__00000151524435917787396160000002206402370058965671_">
				<path class="st3" d="M46.3,137.8l-27.5,0c-1.1,0-1.9-0.9-1.9-1.9l0-20.4c0-1.1,0.9-1.9,1.9-1.9l27.5,0c1.1,0,1.9,0.9,1.9,1.9
					l0,20.4C48.2,136.9,47.3,137.8,46.3,137.8z"/>
			</g>
			<g id="_x3C_Grid_Repeat_x3E__00000047019481235906076730000012912859765968847795_">
				<path class="st3" d="M84.9,137.8l-27.5,0c-1.1,0-1.9-0.9-1.9-1.9l0-20.4c0-1.1,0.9-1.9,1.9-1.9l27.5,0c1.1,0,1.9,0.9,1.9,1.9
					l0,20.4C86.8,136.9,85.9,137.8,84.9,137.8z"/>
			</g>
			<g id="_x3C_Grid_Repeat_x3E__00000047020032947968350780000013580890288311293869_">
				<path class="st3" d="M123.5,137.8l-27.5,0c-1.1,0-1.9-0.9-1.9-1.9l0-20.4c0-1.1,0.9-1.9,1.9-1.9l27.5,0c1.1,0,1.9,0.9,1.9,1.9
					l0,20.4C125.4,136.9,124.6,137.8,123.5,137.8z"/>
			</g>
			<g id="_x3C_Grid_Repeat_x3E__00000021830254983738721010000012721631402991549627_">
				<path class="st3" d="M162.1,137.8l-27.5,0c-1.1,0-1.9-0.9-1.9-1.9l0-20.4c0-1.1,0.9-1.9,1.9-1.9l27.5,0c1.1,0,1.9,0.9,1.9,1.9
					l0,20.4C164.1,136.9,163.2,137.8,162.1,137.8z"/>
			</g>
			<g id="_x3C_Grid_Repeat_x3E__00000173848914850810528790000000129691406835440523_">
				<path class="st3" d="M46.3,169.8l-27.5,0c-1.1,0-1.9-0.9-1.9-1.9l0-20.4c0-1.1,0.9-1.9,1.9-1.9l27.5,0c1.1,0,1.9,0.9,1.9,1.9
					l0,20.4C48.2,169,47.3,169.8,46.3,169.8z"/>
			</g>
			<g id="_x3C_Grid_Repeat_x3E__00000132060300729742866950000003087515053888922288_">
				<path class="st3" d="M84.9,169.8l-27.5,0c-1.1,0-1.9-0.9-1.9-1.9l0-20.4c0-1.1,0.9-1.9,1.9-1.9l27.5,0c1.1,0,1.9,0.9,1.9,1.9
					l0,20.4C86.8,169,85.9,169.8,84.9,169.8z"/>
			</g>
			<g id="_x3C_Grid_Repeat_x3E__00000113315880715771883920000000483203014077797515_">
				<path class="st3" d="M123.5,169.8l-27.5,0c-1.1,0-1.9-0.9-1.9-1.9l0-20.4c0-1.1,0.9-1.9,1.9-1.9l27.5,0c1.1,0,1.9,0.9,1.9,1.9
					l0,20.4C125.4,169,124.6,169.8,123.5,169.8z"/>
			</g>
			<g id="_x3C_Grid_Repeat_x3E__00000077301835747997326900000008345159741159587762_">
				<path class="st3" d="M46.3,201.8l-27.5,0c-1.1,0-1.9-0.9-1.9-1.9l0-20.4c0-1.1,0.9-1.9,1.9-1.9l27.5,0c1.1,0,1.9,0.9,1.9,1.9
					l0,20.4C48.2,201,47.3,201.8,46.3,201.8z"/>
			</g>
			<g id="_x3C_Grid_Repeat_x3E__00000023251698611967235960000009074321028187521432_">
				<path class="st3" d="M84.9,201.8l-27.5,0c-1.1,0-1.9-0.9-1.9-1.9l0-20.4c0-1.1,0.9-1.9,1.9-1.9l27.5,0c1.1,0,1.9,0.9,1.9,1.9
					l0,20.4C86.8,201,85.9,201.8,84.9,201.8z"/>
			</g>
			<g id="_x3C_Grid_Repeat_x3E__00000110461059235617397980000002917709541813074611_">
				<path class="st3" d="M123.5,201.8l-27.5,0c-1.1,0-1.9-0.9-1.9-1.9l0-20.4c0-1.1,0.9-1.9,1.9-1.9l27.5,0c1.1,0,1.9,0.9,1.9,1.9
					l0,20.4C125.4,201,124.6,201.8,123.5,201.8z"/>
			</g>
			<g id="_x3C_Grid_Repeat_x3E__00000088833527084644041230000002042593891782196156_">
				<path class="st4" d="M162.1,201.8l-27.5,0c-1.1,0-1.9-0.9-1.9-1.9l0-52.4c0-1.1,0.9-1.9,1.9-1.9l27.5,0c1.1,0,1.9,0.9,1.9,1.9
					l0,52.4C164.1,201,163.2,201.8,162.1,201.8z"/>
			</g>
		</g>
	</g>
	<g>
		<defs>
			<path id="SVGID_1_" d="M161.1,62L20.7,62c-2.1,0-3.8-1.7-3.8-3.8l0-36.8c0-2.1,1.7-3.8,3.8-3.8l140.4,0c2.1,0,3.8,1.7,3.8,3.8
				l0,36.8C164.9,60.3,163.2,62,161.1,62z"/>
		</defs>
		<clipPath id="SVGID_00000098206076917029954620000000173595357696856728_">
			<use xlink:href="#SVGID_1_"  style="overflow:visible;"/>
		</clipPath>
	</g>
</g>
</svg>
