<?xml version="1.0" encoding="utf-8"?>
<!-- Generator: Adobe Illustrator 26.4.0, SVG Export Plug-In . SVG Version: 6.00 Build 0)  -->
<svg version="1.1" id="Layer_1" xmlns="http://www.w3.org/2000/svg" xmlns:xlink="http://www.w3.org/1999/xlink" x="0px" y="0px"
	 viewBox="0 0 600 425.5" style="enable-background:new 0 0 600 425.5;" xml:space="preserve">
<style type="text/css">
	.st0{fill:#D3D8DD;}
	.st1{fill:#F5F5F6;}
	.st2{fill:#3D6092;}
	.st3{fill:#6390B5;}
	.st4{fill:#00A3A6;}
	.st5{fill:#99B1BC;}
	.st6{fill:#FFFFFF;}
	.st7{fill:none;}
	.st8{fill-rule:evenodd;clip-rule:evenodd;fill:#3D6092;}
	.st9{fill:none;stroke:#99B1BC;stroke-width:6.7328;stroke-linecap:round;stroke-miterlimit:10;}
	.st10{fill:#A7B2BC;}
	.st11{fill:#233E57;}
	.st12{fill:#B2BFD3;}
	.st13{fill:#707071;}
	.st14{fill:#657889;}
	.st15{fill:#5EA77D;}
	.st16{fill:#A8BC45;}
	.st17{fill:#198145;}
	.st18{fill:#E9ECEE;}
	.st19{fill:none;stroke:#198145;stroke-miterlimit:10;}
	.st20{fill:#A6BFD5;}
	.st21{fill:none;stroke:#198145;stroke-width:0.5843;stroke-miterlimit:10;}
	.st22{fill:none;stroke:#99B1BC;stroke-width:7.62;stroke-linecap:round;stroke-miterlimit:10;}
</style>
<path class="st20" d="M459.8,156l0-4.8l-22.6-23L323.9,16.5c-6.7-6.6-40.2-5.5-46.8,1.1L133.5,152.4l-0.1,11.5l-3.3,3.2v242.6h187.7
	l0,0h153.6V167.3L459.8,156z"/>
<g>
	<rect x="312.8" y="250.8" class="st11" width="84.1" height="158.5"/>
	<rect x="323.9" y="262.2" class="st1" width="62" height="147.1"/>
	<g>
		<rect x="336.6" y="272.9" class="st20" width="13.7" height="51.9"/>
		<rect x="359.4" y="272.9" class="st20" width="13.7" height="51.9"/>
		<g>
			<rect x="336.6" y="346.3" class="st20" width="13.7" height="51.9"/>
			<rect x="359.4" y="346.3" class="st20" width="13.7" height="51.9"/>
		</g>
	</g>
	<rect x="344.5" y="331.9" class="st13" width="20.8" height="5.9"/>
</g>
<polygon class="st11" points="470,75.9 470,149.5 456.3,135.7 434.5,113.9 434.5,75.9 "/>
<path class="st2" d="M488.3,188.6c-2.2,0-4.5-0.9-6.2-2.6L325.4,29.4c-13.6-13.6-35.7-13.6-49.3,0L119.4,186.1
	c-3.4,3.4-9,3.4-12.4,0c-3.4-3.4-3.4-9,0-12.4L263.7,17c20.4-20.4,53.7-20.4,74.1,0l156.7,156.7c3.4,3.4,3.4,9,0,12.4
	C492.8,187.8,490.5,188.6,488.3,188.6z"/>
<path class="st15" d="M96.1,417.8c0.1,0.1,0.1,0.2,0.2,0.3l0,0l-3.2-0.7c0.2-0.3,0.5-0.7,0.7-1.1c2.8-5.2,6-10.2,9.8-14.7
	c2.9-3.4,6-6.6,10.1-8.7c6.2-3.3,12.8-5.1,19.7-6.3c1.2-0.2,2.5-0.3,3.7-0.4c0.1,0.1,0.1,0.3,0.2,0.4
	C122,395.1,108.9,406.3,96.1,417.8z"/>
<path class="st16" d="M65.2,404c6.1,2.5,12.3,4.9,18.5,7.4l1.9-0.2c-0.2-0.3-0.3-0.6-0.5-0.9c-2.9-3.5-6.2-6.6-10.1-9.1
	c-6.1-3.9-12.7-5.3-19.9-3.9c-5.1,1-9.7,3.3-14,6.1c-0.3,0.2-0.4,0.5-0.7,0.8c3.9-0.6,7.7-1.2,11.5-1.7
	C56.3,402,60.8,402.2,65.2,404z"/>
<path class="st16" d="M86.2,386c0.4,4.1,1.1,8.2,1.8,12.4c0.7,4.1,1.4,8.2,2.1,12.3c0,0.2,0,0.3,0,0.5l2.7,0
	c-0.1-0.6-0.2-1.2-0.1-1.7c0.8-4.3,1.9-8.5,2.6-12.8c1.3-8.2,1.6-16.5-0.6-24.7c-2.1-7.4-4.5-14.6-6.8-21.9
	c-0.1-0.4-0.7-0.7-1.1-1.1c-0.3,0.4-0.7,0.9-0.7,1.3c-0.2,4.1-0.3,8.1-0.4,12.2c-0.1,2.8-0.2,5.5-0.2,8.3
	C85.6,375.8,85.8,380.9,86.2,386z"/>
<path class="st16" d="M93.4,411.1l2.7,0c0.2-0.4,0.4-0.8,0.6-1.2c4-6.2,8.2-12.3,11.9-18.6c5-8.4,11-15.8,18.4-22.1
	c0.2-0.2,0.4-0.4,0.5-0.7c-0.1-0.1-0.2-0.3-0.3-0.4c-4.6,2.5-9.2,4.9-13.8,7.4c-6.4,3.6-10.9,8.8-13.2,15.8
	c-2.1,6.2-4,12.3-6.1,18.5C94.1,410.2,93.7,410.7,93.4,411.1z"/>
<path class="st15" d="M86.2,410.9c-0.1,0.1-0.2,0.2-0.3,0.3l0,0l3.3-0.1c-0.2-0.4-0.3-0.8-0.5-1.2c-1.6-5.7-3.8-11.2-6.6-16.4
	c-2.1-4-4.6-7.6-8.1-10.5c-5.4-4.5-11.5-7.6-18-10.2c-1.2-0.5-2.4-0.8-3.6-1.1c-0.1,0.1-0.2,0.2-0.2,0.4
	C65.4,383.4,75.9,397.1,86.2,410.9z"/>
<path class="st17" d="M497.1,375.4c-10.6,5.4-17.2,8-20,10.8c-2.8,2.8-9.4,10.8-5.6,16.6c3.8,5.8,5,10.4,15.6,9.9
	c10.6-0.5,14.9-2,23.5-1.2c8.6,0.8,16.2-3.1,17.9-4.9c1.8-1.8,7.1-10.4,0-18C521.6,381,506.5,370.6,497.1,375.4z"/>
<path class="st17" d="M513.8,370.1c7.3-4.1,15.3-4.3,25.8,2.2c10.4,6.5,12.6,10.8,13.3,13.7c0.6,2.9,5.4,4.7,4.1,10.5
	c-1.3,5.8-13.6,11.9-21.5,12.6c-8,0.7-9.6,0-19.1-1.5c-9.5-1.5-17-3.7-20.5-10.9C492.3,389.5,506,374.4,513.8,370.1z"/>
<path class="st17" d="M513.4,379.4c-16.5,5.3-26.7,7.9-31,10.7c-4.3,2.8-14.6,10.8-8.7,16.6c5.8,5.8,7.8,10.4,24.3,10
	c16.5-0.4,23.1-1.9,36.5-1.1c13.3,0.8,25.1-3,27.9-4.8c2.8-1.8,11-10.4,0.1-18C551.5,385.2,528,374.7,513.4,379.4z"/>
<path class="st16" d="M556.3,395.7c4.2-2.1,8.8-2.2,14.8,1.1c6,3.3,7.3,5.5,7.7,6.9c0.4,1.5,3.1,2.4,2.4,5.3
	c-0.7,2.9-7.8,6-12.4,6.4c-4.6,0.4-5.5,0-11-0.7c-5.4-0.7-9.8-1.8-11.8-5.5C544,405.6,551.8,397.9,556.3,395.7z"/>
<path class="st16" d="M573.3,399.4c3.3-1.6,7-1.7,11.8,0.9c4.8,2.6,5.8,4.3,6.1,5.5c0.3,1.2,2.5,1.9,1.9,4.2
	c-0.6,2.3-6.2,4.8-9.8,5.1c-3.6,0.3-4.4,0-8.7-0.6c-4.3-0.6-7.8-1.4-9.4-4.3C563.5,407.2,569.7,401.1,573.3,399.4z"/>
<path class="st16" d="M562.3,388.5c4.2-2.1,8.8-2.2,14.8,1.1c6,3.3,7.3,5.5,7.7,6.9c0.4,1.5,3.1,2.4,2.4,5.3
	c-0.7,2.9-7.8,6-12.4,6.4c-4.6,0.4-5.5,0-11-0.7c-5.4-0.7-9.8-1.8-11.8-5.5S557.9,390.7,562.3,388.5z"/>
<g>
	<g>
		<polygon class="st1" points="351.8,174.6 249.7,174.6 249.7,99.6 299.9,99.6 351.8,99.6 		"/>
		<path class="st11" d="M353.8,176.6H247.7V97.6h106.1V176.6z M251.8,172.6h98v-70.9h-98V172.6z"/>
	</g>
	<g>
		<rect x="298.7" y="99.6" class="st11" width="4.1" height="73.4"/>
	</g>
	<rect x="242.5" y="171.2" class="st11" width="116.4" height="8.1"/>
</g>
<g>
	<g>
		<polygon class="st1" points="274,327.8 172,327.8 172,252.8 222.2,252.8 274,252.8 		"/>
		<path class="st11" d="M276,329.9H169.9v-79.1H276V329.9z M174,325.8h98v-70.9h-98V325.8z"/>
	</g>
	<g>
		<rect x="220.9" y="252.8" class="st11" width="4.1" height="73.4"/>
	</g>
	<rect x="164.8" y="324.4" class="st11" width="116.4" height="8.1"/>
</g>
<path class="st15" d="M292.1,355.9c4.5-3.1,6-7.9,5.6-10.5c-0.7-4.1-3.9-5.9-3.5-10.4c0.3-2.9,2.1-8.1,1.5-10.5
	c-1.8-6.7-4.4-6.1-5.8-10.7c-1.1-3.5,0.4-8.4-1.8-13.2c-1.9-4.3-6.7-7.7-14.1-5.6c-5.4,1.6-5.7,10.1-3.7,15.4c2,5.2,4.5,4.6,3.9,7.9
	c-0.7,3.2-2.1,8.8-0.3,13.1c2.1,5.1,6.6,6.6,7.7,8.7c1,2.1-1.7,5.9-0.3,9.9C282.4,354,285.9,360.2,292.1,355.9z"/>
<path class="st21" d="M278.2,300.7c0,0,14.5,37,10.7,85.2"/>
<path class="st16" d="M294.4,373.4c4.9,0,6.4-3.7,7.3-6c1.5-3.7,0-7,2.5-10.4c1.6-2.2,5.8-5.3,6.3-7.6c0.9-4.5-2.1-6.1-1-10.5
	c0.9-3.4,8.2-8.2,9-13.4c0.7-4.6-0.7-9.5-7.3-11.9c-4.9-1.8-11.8,4.8-12.9,10.1s1.1,6.3-1,8.5c-2.1,2.2-5.9,5.9-6.7,10.4
	c-0.9,5.3,1.8,9,1.5,11.3c-0.3,2.3-3.1,4.4-4.1,8.4C287.1,366.3,287.7,373.4,294.4,373.4z"/>
<path class="st16" d="M282.9,379.3c-4.6-0.3-5.7-3.8-6.4-6.1c-1.2-3.5,0.4-6.5-1.7-9.8c-1.4-2.2-5.1-5.3-5.4-7.5
	c-0.5-4.3,2.4-5.5,1.6-9.7c-0.6-3.2-7.2-8.1-7.5-13c-0.3-4.3,1.2-8.8,7.6-10.6c4.7-1.3,10.7,5.2,11.4,10.2c0.7,5-1.4,5.8,0.4,8
	c1.8,2.2,5.1,5.9,5.6,10.1c0.5,5-2.2,8.3-2.1,10.4c0.1,2.1,2.6,4.3,3.3,8.1C290.1,373.1,289.1,379.7,282.9,379.3z"/>
<path class="st21" d="M288.2,394.4c0,0,12.9-62.6,22.5-73.5"/>
<path class="st21" d="M285.5,393.1c0,0-2.4-45.2-12.7-62.2"/>
<g>
	<g>
		
			<rect x="285.5" y="372.7" transform="matrix(4.532686e-03 -1 1 4.532686e-03 -99.5432 671.7894)" class="st14" width="4.4" height="26.3"/>
		<polygon class="st14" points="277.6,409.7 276.3,388 298.9,388.1 297.8,409.8 		"/>
		<polygon class="st11" points="276.3,388 276.5,392 298.8,389.4 298.9,388.1 		"/>
	</g>
</g>
<path class="st15" d="M589.6,409.6H9.9c-3.3,0-6,2.7-6,6l0,0c0,3.3,2.7,6,6,6h579.7c3.3,0,6-2.7,6-6l0,0
	C595.6,412.3,592.9,409.6,589.6,409.6z"/>
</svg>
