<?xml version="1.0" encoding="utf-8"?>
<!-- Generator: Adobe Illustrator 26.4.0, SVG Export Plug-In . SVG Version: 6.00 Build 0)  -->
<svg version="1.1" id="Layer_1" xmlns="http://www.w3.org/2000/svg" xmlns:xlink="http://www.w3.org/1999/xlink" x="0px" y="0px"
	 viewBox="0 0 600 411.7" style="enable-background:new 0 0 600 411.7;" xml:space="preserve">
<style type="text/css">
	.st0{fill:#D3D8DD;}
	.st1{fill:#F5F5F6;}
	.st2{fill:#3D6092;}
	.st3{fill:#6390B5;}
	.st4{fill:#00A3A6;}
	.st5{fill:#99B1BC;}
	.st6{fill:#FFFFFF;}
	.st7{fill:none;}
	.st8{fill-rule:evenodd;clip-rule:evenodd;fill:#3D6092;}
	.st9{fill:#A6BFD5;}
	.st10{fill:#233E57;}
	.st11{fill:#707071;}
	.st12{fill:#198145;}
	.st13{fill:#A8BC45;}
	.st14{fill:#E9ECEE;}
	.st15{fill:#5EA77D;}
	.st16{fill:none;stroke:#198145;stroke-width:0.5843;stroke-miterlimit:10;}
	.st17{fill:#657889;}
	.st18{fill:#7890B3;}
	.st19{fill:#043C55;}
	.st20{fill:#B2BFD3;}
	.st21{fill:#ADECE2;}
	.st22{opacity:0.7;fill:#99B1BC;}
	.st23{fill:#BBBBBD;}
	.st24{fill:#1D8B7B;}
	.st25{fill:#31CFB6;}
	.st26{fill:#E2E2E3;}
	.st27{fill:#886F5E;}
	.st28{fill:none;stroke:#99B1BC;stroke-width:6;stroke-linecap:round;stroke-linejoin:round;stroke-miterlimit:10;}
	.st29{fill:#30A1CA;}
	.st30{fill:#BBADA3;}
	.st31{clip-path:url(#SVGID_00000132781309845172949980000012885815322953442438_);}
	.st32{fill-rule:evenodd;clip-rule:evenodd;fill:#BBADA3;}
	.st33{clip-path:url(#SVGID_00000132781309845172949980000012885815322953442438_);fill:#1D8B7B;}
</style>
<path class="st9" d="M459.8,158l0-4.8l-22.6-23L323.9,18.4c-6.7-6.6-40.2-5.5-46.8,1.1L133.5,154.4l-0.1,11.5l-3.3,3.2v242.6h187.7
	l0,0h153.6V169.3L459.8,158z"/>
<g>
	<rect x="312.8" y="253.2" class="st10" width="84.1" height="158.5"/>
	<rect x="323.9" y="264.6" class="st1" width="62" height="147.1"/>
	<g>
		<rect x="336.6" y="275.3" class="st9" width="13.7" height="51.9"/>
		<rect x="359.4" y="275.3" class="st9" width="13.7" height="51.9"/>
		<g>
			<rect x="336.6" y="348.7" class="st9" width="13.7" height="51.9"/>
			<rect x="359.4" y="348.7" class="st9" width="13.7" height="51.9"/>
		</g>
	</g>
	<rect x="344.5" y="334.3" class="st11" width="20.8" height="5.9"/>
</g>
<polygon class="st10" points="470,77.9 470,151.5 456.3,137.7 434.5,115.9 434.5,77.9 "/>
<path class="st2" d="M488.3,190.6c-2.2,0-4.5-0.9-6.2-2.6L325.4,31.3c-13.6-13.6-35.7-13.6-49.3,0L119.4,188c-3.4,3.4-9,3.4-12.4,0
	c-3.4-3.4-3.4-9,0-12.4L263.7,18.9c20.4-20.4,53.7-20.4,74.1,0l156.7,156.7c3.4,3.4,3.4,9,0,12.4
	C492.8,189.7,490.5,190.6,488.3,190.6z"/>
<path class="st12" d="M513.8,372c7.3-4.1,15.3-4.3,25.8,2.2c10.4,6.5,12.6,10.8,13.3,13.7c0.6,2.9,5.4,4.7,4.1,10.5
	c-1.3,5.8-13.6,11.9-21.5,12.6c-8,0.7-9.6,0-19.1-1.5c-9.5-1.5-17-3.7-20.5-10.9C492.3,391.4,506,376.3,513.8,372z"/>
<path class="st13" d="M562.3,390.5c4.2-2.1,8.8-2.2,14.8,1.1c6,3.3,7.3,5.5,7.7,6.9c0.4,1.5,3.1,2.4,2.4,5.3
	c-0.7,2.9-7.8,6-12.4,6.4c-4.6,0.4-5.5,0-11-0.7c-5.4-0.7-9.8-1.8-11.8-5.5S557.9,392.7,562.3,390.5z"/>
<g>
	<g>
		<polygon class="st1" points="351.8,176.6 249.7,176.6 249.7,101.6 299.9,101.6 351.8,101.6 		"/>
		<path class="st10" d="M353.8,178.6H247.7V99.6h106.1V178.6z M251.8,174.6h98v-70.9h-98V174.6z"/>
	</g>
	<g>
		<rect x="298.7" y="101.6" class="st10" width="4.1" height="73.4"/>
	</g>
	<rect x="242.5" y="173.2" class="st10" width="116.4" height="8.1"/>
</g>
<g>
	<g>
		<polygon class="st1" points="274,329.8 172,329.8 172,254.8 222.2,254.8 274,254.8 		"/>
		<path class="st10" d="M276,331.8H169.9v-79.1H276V331.8z M174,327.8h98v-70.9h-98V327.8z"/>
	</g>
	<g>
		<rect x="220.9" y="254.8" class="st10" width="4.1" height="73.4"/>
	</g>
	<rect x="164.8" y="326.4" class="st10" width="116.4" height="8.1"/>
</g>
<path class="st15" d="M292.1,357.9c4.5-3.1,6-7.9,5.6-10.5c-0.7-4.1-3.9-5.9-3.5-10.4c0.3-2.9,2.1-8.1,1.5-10.5
	c-1.8-6.7-4.4-6.1-5.8-10.7c-1.1-3.5,0.4-8.4-1.8-13.2c-1.9-4.3-6.7-7.7-14.1-5.6c-5.4,1.6-5.7,10.1-3.7,15.4c2,5.2,4.5,4.6,3.9,7.9
	c-0.7,3.2-2.1,8.8-0.3,13.1c2.1,5.1,6.6,6.6,7.7,8.7c1,2.1-1.7,5.9-0.3,9.9C282.4,355.9,285.9,362.1,292.1,357.9z"/>
<path class="st16" d="M278.2,302.7c0,0,14.5,37,10.7,85.2"/>
<path class="st13" d="M294.4,375.4c4.9,0,6.4-3.7,7.3-6c1.5-3.7,0-7,2.5-10.4c1.6-2.2,5.8-5.3,6.3-7.6c0.9-4.5-2.1-6.1-1-10.5
	c0.9-3.4,8.2-8.2,9-13.4c0.7-4.6-0.7-9.5-7.3-11.9c-4.9-1.8-11.8,4.8-12.9,10.1s1.1,6.3-1,8.5s-5.9,5.9-6.7,10.4
	c-0.9,5.3,1.8,9,1.5,11.3c-0.3,2.3-3.1,4.4-4.1,8.4C287.1,368.3,287.7,375.4,294.4,375.4z"/>
<path class="st13" d="M282.9,381.3c-4.6-0.3-5.7-3.8-6.4-6.1c-1.2-3.5,0.4-6.5-1.7-9.8c-1.4-2.2-5.1-5.3-5.4-7.5
	c-0.5-4.3,2.4-5.5,1.6-9.7c-0.6-3.2-7.2-8.1-7.5-13c-0.3-4.3,1.2-8.8,7.6-10.6c4.7-1.3,10.7,5.2,11.4,10.2s-1.4,5.8,0.4,8
	s5.1,5.9,5.6,10.1c0.5,5-2.2,8.3-2.1,10.4c0.1,2.1,2.6,4.3,3.3,8.1C290.1,375.1,289.1,381.6,282.9,381.3z"/>
<path class="st16" d="M288.2,396.4c0,0,12.9-62.6,22.5-73.5"/>
<path class="st16" d="M285.5,395c0,0-2.4-45.2-12.7-62.2"/>
<g>
	<g>
		
			<rect x="285.5" y="374.7" transform="matrix(4.532686e-03 -1 1 4.532686e-03 -101.5172 673.7546)" class="st17" width="4.4" height="26.3"/>
		<polygon class="st17" points="277.6,411.6 276.3,390 298.9,390.1 297.8,411.7 		"/>
		<polygon class="st10" points="276.3,390 276.5,394 298.8,391.4 298.9,390.1 		"/>
	</g>
</g>
<path class="st12" d="M476.6,411.7h87c3.3-3,8.3-10.3-1.2-16.9c-10.9-7.6-34.4-18.1-48.9-13.4c-16.5,5.3-26.7,7.9-31,10.7
	c-4.3,2.8-14.6,10.8-8.7,16.6C474.8,409.7,475.7,410.8,476.6,411.7z"/>
<path class="st12" d="M476.4,411.7h46.5c2.8-1,4.8-2.3,5.6-3.2c1.8-1.8,7.1-10.4,0-18c-7-7.6-22.2-18-31.5-13.2
	c-10.6,5.4-17.2,8-20,10.8c-2.8,2.8-9.4,10.8-5.6,16.6C473.3,407.5,474.5,410,476.4,411.7z"/>
<path class="st13" d="M593,411.7c0.4-2.2-1.6-2.9-1.9-4c-0.3-1.2-1.3-2.9-6.1-5.5c-4.8-2.6-8.4-2.5-11.8-0.9
	c-3.4,1.7-9.3,7.4-8.3,10.4H593z"/>
<path class="st13" d="M546.3,411.7h34.6c0.1-0.2,0.2-0.5,0.3-0.7c0.7-2.9-2-3.8-2.4-5.3c-0.4-1.5-1.6-3.6-7.7-6.9
	c-6-3.3-10.6-3.2-14.8-1.1c-4.4,2.2-12.3,9.9-10.3,13.5C546.1,411.4,546.2,411.6,546.3,411.7z"/>
<path class="st13" d="M65.2,406c4.8,2,9.6,3.8,14.4,5.7h5c-2.8-3.3-6-6.2-9.7-8.5c-6.1-3.9-12.7-5.3-19.9-3.9c-5.1,1-9.7,3.3-14,6.1
	c-0.3,0.2-0.4,0.5-0.7,0.8c3.9-0.6,7.7-1.2,11.5-1.7C56.3,403.9,60.8,404.2,65.2,406z"/>
<path class="st15" d="M85.3,411.7h3.4c-1.6-5.6-3.8-11-6.5-16.2c-2.1-4-4.6-7.6-8.1-10.5c-5.4-4.5-11.5-7.6-18-10.2
	c-1.2-0.5-2.4-0.8-3.6-1.1c-0.1,0.1-0.2,0.2-0.2,0.4C65,385.1,75.3,398.3,85.3,411.7z"/>
<path class="st13" d="M86.2,387.9c0.4,4.1,1.1,8.2,1.8,12.4c0.6,3.8,1.3,7.6,2,11.4h2.7c0-0.1,0-0.3,0-0.4c0.8-4.3,1.9-8.5,2.6-12.8
	c1.3-8.2,1.6-16.5-0.6-24.7c-2.1-7.4-4.5-14.6-6.8-21.9c-0.1-0.4-0.7-0.7-1.1-1.1c-0.3,0.4-0.7,0.9-0.7,1.3
	c-0.2,4.1-0.3,8.1-0.4,12.2c-0.1,2.8-0.2,5.5-0.2,8.3C85.6,377.8,85.8,382.9,86.2,387.9z"/>
<path class="st13" d="M96.8,411.7c4-6.2,8.1-12.2,11.9-18.5c5-8.4,11-15.8,18.4-22.1c0.2-0.2,0.4-0.4,0.5-0.7
	c-0.1-0.1-0.2-0.3-0.3-0.4c-4.6,2.5-9.2,4.9-13.8,7.4c-6.4,3.6-10.9,8.8-13.2,15.8c-2.1,6.2-4,12.3-6.1,18.5c0,0,0,0,0,0H96.8z"/>
<path class="st15" d="M105.2,411.7c10-8.6,20.4-16.6,32-23.1c-0.1-0.1-0.1-0.3-0.2-0.4c-1.2,0.1-2.5,0.2-3.7,0.4
	c-6.9,1.2-13.5,3-19.7,6.3c-4,2.1-7.2,5.2-10.1,8.7c-2.2,2.6-4.2,5.3-6,8.2H105.2z"/>
</svg>
