<?xml version="1.0" encoding="utf-8"?>
<!-- Generator: Adobe Illustrator 26.4.0, SVG Export Plug-In . SVG Version: 6.00 Build 0)  -->
<svg version="1.1" id="Layer_1" xmlns="http://www.w3.org/2000/svg" xmlns:xlink="http://www.w3.org/1999/xlink" x="0px" y="0px"
	 viewBox="0 0 400 400" style="enable-background:new 0 0 400 400;" xml:space="preserve">
<style type="text/css">
	.st0{fill:#99B1BC;}
	.st1{fill:#3D6092;}
	.st2{fill:#FFFFFF;}
	.st3{fill:none;}
	.st4{fill-rule:evenodd;clip-rule:evenodd;fill:#3D6092;}
</style>
<g>
	<g>
		<path class="st1" d="M347.9,147.6c-5.2-1.6-8.7-6.3-9.3-11.6L326.4,13.7h-57.3L256.9,136c-0.5,5.4-4.1,10-9.3,11.6
			c-11.4,3.5-19.7,14.1-19.7,26.7v209.6c0,7.7,6.3,14,14,14h111.8c7.7,0,14-6.3,14-14V174.3C367.7,161.8,359.4,151.1,347.9,147.6z"
			/>
	</g>
	<path class="st0" d="M325.7,6.7h-55.9c-5.8,0-10.5,4.7-10.5,10.5v3.5c0,3.9,3.1,7,7,7h62.9c3.9,0,7-3.1,7-7v-3.5
		C336.2,11.4,331.5,6.7,325.7,6.7z M329.2,24.1L329.2,24.1L329.2,24.1L329.2,24.1z"/>
	<rect x="248.9" y="202.3" class="st0" width="97.8" height="139.7"/>
	<g>
		<path class="st0" d="M171.1,375.7l-48-12l-0.1-94.1c33.2-8.3,56-43.6,56-71.2c0-22.2-17.2-79.3-24.6-102.8
			c-2.3-7.2-9-12.1-16.6-12.1H74c-7.6,0-14.3,4.8-16.6,12c-7.5,23.3-25,80.1-25,102.9c0,27.5,22.7,62.7,55.7,71.1l0.1,94.2l-47.9,12
			c-4.7,1.2-7.9,5.3-7.9,10.2v1.5c0,5.8,4.7,10.5,10.5,10.5h125.7c5.8,0,10.5-4.7,10.5-10.5v-1.5C179,381.1,175.8,376.9,171.1,375.7
			z"/>
		<path class="st4" d="M161.6,202.3c0,30.9-25,55.9-55.9,55.9s-55.9-25-55.9-55.9H161.6z"/>
	</g>
</g>
</svg>
