<?xml version="1.0" encoding="utf-8"?>
<!-- Generator: Adobe Illustrator 26.4.0, SVG Export Plug-In . SVG Version: 6.00 Build 0)  -->
<svg version="1.1" id="Layer_1" xmlns="http://www.w3.org/2000/svg" xmlns:xlink="http://www.w3.org/1999/xlink" x="0px" y="0px"
	 viewBox="0 0 400 400" style="enable-background:new 0 0 400 400;" xml:space="preserve">
<style type="text/css">
	.st0{fill:#99B1BC;}
	.st1{fill:#3D6092;}
	.st2{fill:#FFFFFF;}
	.st3{fill:none;}
	.st4{fill-rule:evenodd;clip-rule:evenodd;fill:#3D6092;}
</style>
<g>
	<path class="st0" d="M210.8,85.4c6.1,2.6,14,6.1,23.4,10.2c-0.3,0.4-0.6,0.8-0.9,1.3c-4.1,6.6-9.2,11.5-15.2,14.7
		c-6.6-2.9-12.6-5.6-18.1-7.9c-5.4,2.3-11.4,5-18,7.9c-6.1-3.2-11.2-8.3-15.5-15c-0.2-0.4-0.4-0.7-0.7-0.9
		c9.6-4.2,17.8-7.9,23.9-10.5c0.7-14.3,8.3-21.4,14.5-27.1c2.4-2.2,4.7-4.3,6.5-6.8c4.6-6.3,4.7-16.7,0.2-22.4
		c-1.8-2.3-6.4-4.9-11.9-5.2c-3.2-0.2-7.8,0.5-11.3,4.2c-7.5,8-4.5,13.9-2.8,16c3.6,4.7,2.8,11.3-1.8,14.9
		c-4.7,3.5-11.3,2.8-14.9-1.9c-8.3-10.7-10.2-28.3,4.2-43.6c7-7.4,16.7-11.2,27.5-10.7C210.7,3,221.3,8,227.4,15.6
		c10.5,13.1,10.6,34.3,0.2,48.2c-3,4-6.2,7-9,9.7C213.8,78,211.3,80.3,210.8,85.4z"/>
	<path class="st1" d="M369.5,152.1l-42.4,62.2l-28.2-23.1c0,0,0,152.2,0,206.7H101.2c0-54.4,0-206.8,0-206.8l-29.1,23.1l-41.5-62.1
		l80.8-55.6c0,0,4.7-2,7.1-2.1c14.7-0.2,29.4-0.1,44.1-0.1c1.5,0,2.4,0.4,3.2,1.3c0.3,0.2,0.5,0.6,0.7,0.9c4.2,6.8,9.4,11.9,15.5,15
		c5.7,3.1,12.2,4.5,19.6,4.2c6.1-0.2,11.6-1.6,16.5-4.2c6.1-3.2,11.2-8.1,15.3-14.7c0.3-0.5,0.6-0.9,0.9-1.3c0.9-1,2-1.3,3.7-1.3
		c14.6,0.1,29.2,0,43.8,0.1c2.2,0,4.6,0.6,6.4,1.8C314.9,113.9,369.5,152.1,369.5,152.1z"/>
</g>
</svg>
