<?xml version="1.0" encoding="utf-8"?>
<!-- Generator: Adobe Illustrator 26.4.0, SVG Export Plug-In . SVG Version: 6.00 Build 0)  -->
<svg version="1.1" id="Layer_1" xmlns="http://www.w3.org/2000/svg" xmlns:xlink="http://www.w3.org/1999/xlink" x="0px" y="0px"
	 viewBox="0 0 400 400" style="enable-background:new 0 0 400 400;" xml:space="preserve">
<style type="text/css">
	.st0{fill:#99B1BC;}
	.st1{fill:#3D6092;}
	.st2{fill:#FFFFFF;}
	.st3{fill:none;}
	.st4{fill-rule:evenodd;clip-rule:evenodd;fill:#3D6092;}
</style>
<g id="Artwork_64x64_00000116196675430262572470000000117650085438982328_">
	<path class="st1" d="M336.3,63H306c-8.4,0-15.1,6.8-15.1,15.1v47.3l-74.8-74.8c-8.9-8.9-23.2-8.9-32.1,0L48.5,186v189.3
		c0,12.5,10.2,22.7,22.7,22.7h257.5c12.5,0,22.7-10.2,22.7-22.7V78.1C351.5,69.8,344.7,63,336.3,63z M124.3,290.8H94v-30.3h30.3
		V290.8z M124.3,245.3H94V215h30.3V245.3z M169.7,290.8h-30.3v-30.3h30.3V290.8z M169.7,245.3h-30.3V215h30.3V245.3z"/>
	<path class="st0" d="M373.7,231.4l-163-162.7c-5.9-5.9-15.4-5.9-21.4,0l-163,162.7c-4.4,4.4-11.5,4.5-16,0.1c0,0-0.1-0.1-0.1-0.1
		l-5.4-5.3c-4.4-4.5-4.4-11.6,0-16.1l163-162.8c17.7-17.7,46.5-17.7,64.2,0l163,163c4.4,4.5,4.4,11.6,0,16.1l-5.4,5.3
		c-4.4,4.4-11.6,4.3-16-0.1C373.8,231.5,373.7,231.4,373.7,231.4z"/>
	<rect x="215.1" y="307.1" class="st2" width="60.6" height="90.9"/>
</g>
</svg>
