<?xml version="1.0" encoding="utf-8"?>
<!-- Generator: Adobe Illustrator 26.4.0, SVG Export Plug-In . SVG Version: 6.00 Build 0)  -->
<svg version="1.1" id="Layer_1" xmlns="http://www.w3.org/2000/svg" xmlns:xlink="http://www.w3.org/1999/xlink" x="0px" y="0px"
	 viewBox="0 0 400 400" style="enable-background:new 0 0 400 400;" xml:space="preserve">
<style type="text/css">
	.st0{fill:#99B1BC;}
	.st1{fill:#3D6092;}
	.st2{fill:#FFFFFF;}
	.st3{fill:none;}
	.st4{fill-rule:evenodd;clip-rule:evenodd;fill:#3D6092;}
</style>
<g>
	<polygon class="st3" points="101.2,183.3 101.2,183.3 101.2,183.3 	"/>
	<g>
		<g>
			<g>
				<path class="st1" d="M303.2,179.2c-22.2,0-40.3-18.1-40.3-40.3s18.1-40.3,40.3-40.3c22.2,0,40.3,18.1,40.3,40.3
					S325.5,179.2,303.2,179.2z"/>
			</g>
			<g>
				<path class="st1" d="M387.3,148.9h-20.2c-5.6,0-10.1-4.5-10.1-10.1v0c0-5.6,4.5-10.1,10.1-10.1h20.2c5.6,0,10.1,4.5,10.1,10.1v0
					C397.3,144.4,392.8,148.9,387.3,148.9z"/>
				<path class="st1" d="M239.4,148.9h-20.2c-5.6,0-10.1-4.5-10.1-10.1v0c0-5.6,4.5-10.1,10.1-10.1h20.2c5.6,0,10.1,4.5,10.1,10.1v0
					C249.5,144.4,244.9,148.9,239.4,148.9z"/>
				<path class="st1" d="M293.1,222.9v-20.2c0-5.6,4.5-10.1,10.1-10.1l0,0c5.6,0,10.1,4.5,10.1,10.1v20.2c0,5.6-4.5,10.1-10.1,10.1
					l0,0C297.7,232.9,293.1,228.4,293.1,222.9z"/>
				<path class="st1" d="M293.1,75V54.8c0-5.6,4.5-10.1,10.1-10.1l0,0c5.6,0,10.1,4.5,10.1,10.1V75c0,5.6-4.5,10.1-10.1,10.1l0,0
					C297.7,85.1,293.1,80.6,293.1,75z"/>
				<path class="st1" d="M355.5,205.4l-14.3-14.3c-3.9-3.9-3.9-10.3,0-14.3v0c3.9-3.9,10.3-3.9,14.3,0l14.3,14.3
					c3.9,3.9,3.9,10.3,0,14.3v0C365.8,209.3,359.5,209.3,355.5,205.4z"/>
				<path class="st1" d="M250.9,100.8l-14.3-14.3c-3.9-3.9-3.9-10.3,0-14.3l0,0c3.9-3.9,10.3-3.9,14.3,0l14.3,14.3
					c3.9,3.9,3.9,10.3,0,14.3v0C261.3,104.8,254.9,104.8,250.9,100.8z"/>
				<path class="st1" d="M236.7,191.1l14.3-14.3c3.9-3.9,10.3-3.9,14.3,0v0c3.9,3.9,3.9,10.3,0,14.3l-14.3,14.3
					c-3.9,3.9-10.3,3.9-14.3,0l0,0C232.7,201.4,232.7,195.1,236.7,191.1z"/>
				<path class="st1" d="M341.3,86.6l14.3-14.3c3.9-3.9,10.3-3.9,14.3,0v0c3.9,3.9,3.9,10.3,0,14.3l-14.3,14.3
					c-3.9,3.9-10.3,3.9-14.3,0v0C337.3,96.9,337.3,90.5,341.3,86.6z"/>
			</g>
		</g>
	</g>
	<g>
		<path class="st0" d="M123.5,389.4c-4.9,0-9.2-3.6-10-8.6L97.7,271.9c-0.8-5.5,3-10.6,8.5-11.4c5.6-0.8,10.6,3,11.4,8.5l15.9,108.9
			c0.8,5.5-3,10.6-8.5,11.4C124.5,389.4,124,389.4,123.5,389.4z"/>
	</g>
	<g>
		<path class="st1" d="M325.3,397.9H56.4c-7.4,0-13.4-6-13.4-13.4S49,371,56.4,371h268.9c7.4,0,13.4,6,13.4,13.4
			S332.7,397.9,325.3,397.9z"/>
	</g>
	<g>
		<path class="st0" d="M205.2,287.4c6.5,1.2,12.5-3.9,11.6-9.9v0c-8.4-60-62.9-101.9-121.8-93.6c-58.8,8.3-99.7,63.6-91.2,123.6
			l0,0.1c0.8,5.9,7.9,9.1,13.7,6.2l21.2-10.5c1.4-0.7,3.1-0.9,4.7-0.6l28.9,5.7c3.2,0.6,6.6,0.2,9.6-1.3l26.1-13.4
			c1.5-0.8,3.2-1,4.8-0.7l28.8,5.7c3.2,0.6,6.6,0.2,9.6-1.3l26.2-13.5c1.4-0.7,3.1-1,4.7-0.7L205.2,287.4z"/>
		<path class="st1" d="M95,183.9c-21,2.9-34.9,78.3-19.7,124.8c2.3,0,4.5-0.5,6.6-1.6l26.1-13.4c1.5-0.8,3.2-1,4.8-0.7l28.8,5.7
			c2.2,0.4,4.6,0.3,6.8-0.3C150.1,249.2,116,180.9,95,183.9z"/>
	</g>
</g>
</svg>
