<?xml version="1.0" encoding="utf-8"?>
<!-- Generator: Adobe Illustrator 26.4.0, SVG Export Plug-In . SVG Version: 6.00 Build 0)  -->
<svg version="1.1" id="Layer_1" xmlns="http://www.w3.org/2000/svg" xmlns:xlink="http://www.w3.org/1999/xlink" x="0px" y="0px"
	 viewBox="0 0 400 400" style="enable-background:new 0 0 400 400;" xml:space="preserve">
<style type="text/css">
	.st0{fill:#99B1BC;}
	.st1{fill:#3D6092;}
	.st2{fill:#FFFFFF;}
	.st3{fill:none;}
	.st4{fill-rule:evenodd;clip-rule:evenodd;fill:#3D6092;}
</style>
<g>
	<circle class="st1" cx="126.8" cy="41.6" r="34.9"/>
	<path class="st1" d="M140.7,90.6h-28.2c-30.9,0-55.9,25-55.9,55.9v76.9c0,11.6,9.4,21,21,21h0.4v132.6c0,11.6,9.4,21,21,21
		c13.3,0,20.5-11,21-21c0.5-9.9,6.9-131.2,7-132.6h0c0.1,1.4,6.5,122.8,7,132.6c0.5,9.9,7.7,21,21,21c11.6,0,21-9.4,21-21V244.3
		c11.5,0,20.9-9.4,20.9-21v-76.9C196.6,115.6,171.6,90.6,140.7,90.6z"/>
</g>
<g>
	<circle class="st0" cx="271.9" cy="135.9" r="31.4"/>
	<path class="st0" d="M341.1,268.5L320,204.1c-5.8-17.8-22.6-29.8-41.5-29.8l-13,0c-18.9,0-35.6,12-41.5,29.7l-21.2,64.4
		c-2.3,7.1,1.6,14.7,8.8,17h0c7.2,2.3,14.9-1.6,17.2-8.6l4.9,9.3v95.6c0,9,7.4,16.2,16.5,16.2c10.4,0,16.1-8.5,16.5-16.2
		c0.4-7.7,5.5-95.6,5.5-95.6s5.1,87.9,5.5,95.6c0.4,7.7,6,16.2,16.5,16.2c9.1,0,16.5-7.3,16.5-16.2v-95.6v-24.6l4.8,15.3
		c2.3,7.1,10,10.9,17.2,8.6h0C339.5,283.2,343.4,275.6,341.1,268.5z"/>
</g>
</svg>
