<?xml version="1.0" encoding="utf-8"?>
<!-- Generator: Adobe Illustrator 26.4.0, SVG Export Plug-In . SVG Version: 6.00 Build 0)  -->
<svg version="1.1" id="Layer_1" xmlns="http://www.w3.org/2000/svg" xmlns:xlink="http://www.w3.org/1999/xlink" x="0px" y="0px"
	 viewBox="0 0 400 400" style="enable-background:new 0 0 400 400;" xml:space="preserve">
<style type="text/css">
	.st0{fill:#99B1BC;}
	.st1{fill:#3D6092;}
	.st2{fill:#FFFFFF;}
	.st3{fill:none;}
	.st4{fill-rule:evenodd;clip-rule:evenodd;fill:#3D6092;}
	.st5{fill:none;stroke:#99B1BC;stroke-width:6.7328;stroke-linecap:round;stroke-miterlimit:10;}
	.st6{fill:none;stroke:#99B1BC;stroke-width:7.5168;stroke-linecap:round;stroke-miterlimit:10;}
	.st7{fill:#E2E2E3;}
	.st8{fill:#A7B2BC;}
	.st9{fill:#233E57;}
	.st10{fill:#F5F5F6;}
	.st11{fill:#B2BFD3;}
	.st12{fill:#707071;}
	.st13{fill:#657889;}
	.st14{fill:#5EA77D;}
	.st15{fill:#A8BC45;}
	.st16{fill:#198145;}
	.st17{fill:#E9ECEE;}
	.st18{fill:none;stroke:#198145;stroke-miterlimit:10;}
</style>
<g>
	<path class="st0" d="M117.4,60.4l-17.6-0.1c-5.7,0-7.3,2.6-9.2,7.1L51.9,159h31l38.7-91.6C123.7,62.9,121.7,60.4,117.4,60.4z"/>
	<path class="st0" d="M268.5,60.3l17.6-0.1c5.7,0,7.3,2.6,9.2,7.1l38.7,91.6h-31l-38.7-91.6C262.2,62.9,264.2,60.3,268.5,60.3z"/>
	<path class="st1" d="M314.6,395.5H85.4C63,395.5,46.6,374,44.9,355c-1.8-19-14.1-156.9-14.1-156.9h338.4c0,0-12.3,137.5-14.1,156.9
		S337,395.5,314.6,395.5z"/>
	<path class="st1" d="M390.4,200H9.6c-3.9,0-7.1-3.2-7.1-7.1v-28.2c0-3.9,3.2-7.1,7.1-7.1h380.7c3.9,0,7.1,3.2,7.1,7.1v28.2
		C397.4,196.8,394.3,200,390.4,200z"/>
	<path class="st2" d="M233.6,226.3h7c3.9,0,7.1,3.2,7.1,7.1l-8.4,112.7c0,3.9-3.2,7.1-7.1,7.1h-7c-3.9,0-7.1-3.2-7.1-7.1l8.4-112.7
		C226.5,229.5,229.7,226.3,233.6,226.3z"/>
	<path class="st2" d="M159.4,226.3h7c3.9,0,7.1,3.2,7.1,7.1l8.5,112.7c0,3.9-3.2,7.1-7.1,7.1h-7c-3.9,0-7.1-3.2-7.1-7.1l-8.5-112.7
		C152.3,229.5,155.5,226.3,159.4,226.3z"/>
	<path class="st2" d="M298.7,226.3h7c3.9,0,7.1,3.2,7.1,7.1l-7,112.7c0,3.9-3.2,7.1-7.1,7.1h-7c-3.9,0-7.1-3.2-7.1-7.1l7-112.7
		C291.7,229.5,294.8,226.3,298.7,226.3z"/>
	<path class="st2" d="M94.3,226.3h7c3.9,0,7.1,3.2,7.1,7.1l7.1,112.7c0,3.9-3.2,7.1-7.1,7.1h-7c-3.9,0-7.1-3.2-7.1-7.1l-7.1-112.7
		C87.2,229.5,90.4,226.3,94.3,226.3z"/>
</g>
</svg>
