<?xml version="1.0" encoding="utf-8"?>
<!-- Generator: Adobe Illustrator 26.4.0, SVG Export Plug-In . SVG Version: 6.00 Build 0)  -->
<svg version="1.1" id="Layer_1" xmlns="http://www.w3.org/2000/svg" xmlns:xlink="http://www.w3.org/1999/xlink" x="0px" y="0px"
	 viewBox="0 0 400 400" style="enable-background:new 0 0 400 400;" xml:space="preserve">
<style type="text/css">
	.st0{fill:#99B1BC;}
	.st1{fill:#3D6092;}
	.st2{fill:#FFFFFF;}
	.st3{fill:none;}
	.st4{fill-rule:evenodd;clip-rule:evenodd;fill:#3D6092;}
</style>
<g>
	<path class="st0" d="M79.7,130.4v-1v-6.2c0-17.7,7.3-32.1,21.6-42.9c11.2-8.4,22.7-11.4,22.8-11.5l0,0l-3.8-15.4
		c-0.6,0.1-14.3,3.6-28,13.8c-8.2,6.1-14.7,13.3-19.5,21.4c-5.9,10.2-8.9,21.9-8.9,34.6v7.3L79.7,130.4z"/>
	<path class="st0" d="M63.9,225.9v101.9c0,4,0.8,7.9,2.3,11.6c1.5,3.5,3.6,6.7,6.4,9.4c2.7,2.7,5.9,4.9,9.4,6.4
		c3.7,1.6,7.6,2.3,11.6,2.3c4,0,7.9-0.8,11.6-2.3c3.5-1.5,6.7-3.6,9.4-6.4c2.7-2.7,4.9-5.9,6.4-9.4c1.6-3.7,2.3-7.6,2.3-11.6v-58.6
		c0-5.7,4.6-10.3,10.3-10.3h3.7v-15.9h-3.7c-3.5,0-6.9,0.7-10.2,2.1c-3.1,1.3-5.9,3.2-8.3,5.6c-2.4,2.4-4.3,5.2-5.6,8.3
		c-1.4,3.2-2.1,6.6-2.1,10.2v58.3c0,7.5-5.8,13.9-13.3,14.2c-7.9,0.3-14.4-6-14.4-13.9V225.9H63.9z"/>
	<path class="st1" d="M63.9,129.5c-5.7,0.8-10.1,5.8-10.1,11.7l6.9,87.2h3.1h15.9h12.9v-3.2h19c11.2-23.3,10.2-51-2.4-74.4H92.6
		v-8.5c0-7.1-5.8-12.9-12.9-12.9L63.9,129.5z M92.6,181c4.6,7.8,7.6,16.8,8.3,26.3c0.1,1.2,1.1,2.3,2.3,2.3h0
		c1.3,0.1,2.4-1.1,2.4-2.5c-0.1-13.9-4.7-27.3-13-38.3v-6.9c5,0,10-0.1,14.9-0.1c5.3,17.1,5.7,35.3,1.2,52.4
		c-5.4,0-10.8-0.1-16.1-0.1V181z"/>
	<path class="st1" d="M134.8,366.2c0,0.4,0,0.8,0.1,1.2h-8.6c-4,0-7.3,3.3-7.3,7.3v15.9c0,4,3.3,7.3,7.3,7.3h212.6
		c4,0,7.3-3.3,7.3-7.3v-15.9c0-4-3.3-7.3-7.3-7.3h-8.6c0-0.4,0.1-0.8,0.1-1.2V21.6c0-8.2-6.7-14.9-14.9-14.9H149.7
		c-8.2,0-14.9,6.7-14.9,14.9V366.2z M303.8,146.5H161.4V50.4h142.4V146.5z"/>
</g>
</svg>
