<?xml version="1.0" encoding="utf-8"?>
<!-- Generator: Adobe Illustrator 26.0.3, SVG Export Plug-In . SVG Version: 6.00 Build 0)  -->
<svg version="1.1" id="Artwork_16x16" xmlns="http://www.w3.org/2000/svg" xmlns:xlink="http://www.w3.org/1999/xlink" x="0px"
	 y="0px" padding-top="5px" viewBox="0 0 16 16" style="enable-background:new 0 0 16 16;" xml:space="preserve">
<style type="text/css">
	.st0{fill:#206095;}
</style>
<path class="st0" d="M8,1C4.1,1,1,4.1,1,8s3.1,7,7,7s7-3.1,7-7S11.9,1,8,1z M8,3.9c0.5,0,0.9,0.4,0.9,0.9S8.5,5.6,8,5.6
	c-0.5,0-0.9-0.4-0.9-0.9C7.1,4.3,7.5,3.9,8,3.9z M9.2,11.6c0,0.1-0.1,0.3-0.2,0.3H7c-0.1,0-0.3-0.1-0.2-0.3v-0.5
	c0-0.1,0.1-0.2,0.2-0.2h0.2V7.4H7c-0.1,0-0.3-0.1-0.2-0.3V6.6c0-0.1,0.1-0.2,0.2-0.2h1.5c0.1,0,0.2,0.1,0.2,0.2v4.3H9
	c0.1,0,0.2,0.1,0.2,0.2V11.6z"/>
</svg>
