<?xml version="1.0" encoding="utf-8"?>
<!-- Generator: Adobe Illustrator 26.4.0, SVG Export Plug-In . SVG Version: 6.00 Build 0)  -->
<svg version="1.1" id="Layer_1" xmlns="http://www.w3.org/2000/svg" xmlns:xlink="http://www.w3.org/1999/xlink" x="0px" y="0px"
	 viewBox="0 0 700 337.5" style="enable-background:new 0 0 700 337.5;" xml:space="preserve">
<style type="text/css">
	.st0{fill:#E4E8EA;}
	.st1{fill:#FBFEFE;}
	.st2{fill:#FFFFFF;}
	.st3{fill:#E2E2E3;}
	.st4{fill:#233E57;}
	.st5{fill:#9BB1BF;}
	.st6{fill:#657889;}
	.st7{fill:#1899C5;}
	.st8{fill:#E7ECF2;}
	.st9{fill:#A8BC45;}
	.st10{fill:#553119;}
	.st11{fill:#886F5E;}
	.st12{fill:#F5F5F6;}
	.st13{fill:#BBBBBD;}
	.st14{fill:#30A1CA;}
	.st15{fill:none;}
	.st16{fill:#E4E8EA;stroke:#1D1D1B;stroke-width:0.4707;stroke-miterlimit:10;}
	.st17{fill:#D3D8DD;}
	.st18{fill:#3D6092;}
	.st19{fill:#6390B5;}
	.st20{fill:#00A3A6;}
	.st21{fill:#99B1BC;}
	.st22{fill-rule:evenodd;clip-rule:evenodd;fill:#3D6092;}
	.st23{fill:#A6BFD5;}
	.st24{fill:#707071;}
	.st25{fill:#5EA77D;}
	.st26{fill:#198145;}
	.st27{fill:#E9ECEE;}
	.st28{fill:#7890B3;}
	.st29{fill:#043C55;}
	.st30{fill:#B2BFD3;}
	.st31{fill:#ADECE2;}
	.st32{opacity:0.7;fill:#99B1BC;}
	.st33{fill:#1D8B7B;}
	.st34{fill:#31CFB6;}
	.st35{fill:none;stroke:#99B1BC;stroke-width:6;stroke-linecap:round;stroke-linejoin:round;stroke-miterlimit:10;}
	.st36{fill:#BBADA3;}
	.st37{clip-path:url(#SVGID_00000037670825621656393000000011840432526828055476_);}
	.st38{fill-rule:evenodd;clip-rule:evenodd;fill:#BBADA3;}
	.st39{clip-path:url(#SVGID_00000037670825621656393000000011840432526828055476_);fill:#1D8B7B;}
	.st40{fill:none;stroke:#99B1BC;stroke-width:10.4864;stroke-linecap:round;stroke-linejoin:round;stroke-miterlimit:10;}
	.st41{fill:none;stroke:#99B1BC;stroke-width:4.657;stroke-linecap:round;stroke-linejoin:round;stroke-miterlimit:10;}
	.st42{fill:#353538;}
	.st43{fill:none;stroke:#353538;stroke-width:14.48;stroke-miterlimit:10;}
	.st44{fill:#EBEFF4;}
	.st45{fill:#A7B2BC;}
	.st46{fill:#F0BFA1;}
	.st47{fill:#F4D3BD;}
	.st48{fill:#CB8D50;}
	.st49{fill:#DBB084;}
	.st50{fill:#222222;}
	.st51{fill:#864C2F;}
	.st52{clip-path:url(#SVGID_00000116193511999768877200000003845737053594858926_);fill:#CB8D50;}
	.st53{fill-rule:evenodd;clip-rule:evenodd;fill:#F4D3BD;}
	.st54{clip-path:url(#SVGID_00000163751358305568250830000011510481924583084721_);fill:#CB8D50;}
	.st55{fill:#507690;}
	.st56{fill:#EFEFEF;}
	.st57{fill:#D2DEDE;}
	.st58{fill:#BAD4DB;}
	.st59{fill:url(#SVGID_00000014636411824014209980000012449369928641057665_);}
	.st60{fill:#B1D2DE;}
	.st61{opacity:0.2;fill:#E2E2E3;}
	.st62{opacity:0.2;fill:#BBBBBD;}
	.st63{fill:#FBD86D;}
	.st64{fill:#FDE9AB;}
	.st65{fill:#D6ECF4;}
	.st66{fill:#F1933E;}
	.st67{fill:#BAC96A;}
	.st68{fill:#B05B29;}
	.st69{fill:none;stroke:#C2D07D;stroke-width:2.1053;stroke-linecap:round;stroke-miterlimit:10;}
	.st70{fill:#FCDE81;}
	.st71{fill:url(#SVGID_00000176023351024130827770000007285732232700370849_);}
	.st72{fill:#1D1D1B;}
	.st73{fill:none;stroke:#1D8B7B;stroke-width:4.2858;stroke-linecap:round;stroke-miterlimit:10;}
	.st74{fill:#BFC028;}
	.st75{fill:#83C6DF;}
	.st76{fill:none;stroke:#1D1D1B;stroke-width:1.5288;stroke-linecap:round;stroke-linejoin:round;stroke-miterlimit:10;}
	.st77{fill:#6FBDDA;}
	.st78{fill:#6FBDDA;stroke:#30A1CA;stroke-width:1.0192;stroke-linecap:round;stroke-linejoin:round;stroke-miterlimit:10;}
	.st79{fill:#998375;}
	.st80{fill:#AA988C;}
	.st81{fill:#BBBABC;}
	.st82{fill:#CECECF;}
	.st83{fill-rule:evenodd;clip-rule:evenodd;fill:#AA988C;}
	.st84{fill:#996A49;}
	.st85{fill:#D19F6B;}
	.st86{opacity:0.7;fill:#FFFFFF;}
	.st87{fill:none;stroke:#A8BC45;stroke-width:3.7663;stroke-miterlimit:10;}
	.st88{fill:none;stroke:#000000;stroke-width:3.7483;stroke-miterlimit:10;}
	.st89{opacity:0.8;fill:#ACD9EA;}
	.st90{fill:#CE0B24;}
	.st91{fill:#FAC82E;}
	.st92{fill:#C2D07D;}
	.st93{clip-path:url(#SVGID_00000120551404285280767300000015870114292278837142_);fill:#507690;}
	.st94{fill:url(#SVGID_00000058585251121246140410000002165258491662510506_);}
	.st95{fill:#053C60;}
	.st96{fill:#02292A;}
	.st97{fill:#EDF8F8;}
	.st98{fill:#231717;}
	.st99{fill:#DAF0F1;}
	.st100{opacity:0.4;fill:url(#SVGID_00000061446873538953957980000004440841492595202697_);}
	.st101{fill:#D1EDED;}
	.st102{fill:#075253;}
	.st103{clip-path:url(#SVGID_00000100354810072910364110000000413632287653558961_);}
	.st104{clip-path:url(#SVGID_00000100354810072910364110000000413632287653558961_);fill:#DAF0F1;}
	
		.st105{opacity:0.4;clip-path:url(#SVGID_00000100354810072910364110000000413632287653558961_);fill:url(#SVGID_00000036214737775573605680000014013831824474847652_);}
	.st106{clip-path:url(#SVGID_00000100354810072910364110000000413632287653558961_);fill:#075253;}
	.st107{clip-path:url(#SVGID_00000100354810072910364110000000413632287653558961_);fill:#F1933E;}
	.st108{clip-path:url(#SVGID_00000089554512187681352550000016539556048401449641_);}
	.st109{clip-path:url(#SVGID_00000127005252529557332100000006445969208079757195_);fill:#DAF0F1;}
	.st110{fill:#107A7C;}
	.st111{fill:#414042;}
	.st112{fill:#666666;}
	.st113{clip-path:url(#SVGID_00000063605084155245940940000013333332530464555199_);fill:#507690;}
	.st114{fill:url(#SVGID_00000138554909190940090690000014565593743284937871_);}
	.st115{opacity:0.4;fill:url(#SVGID_00000147212142224187329420000017978020977881041582_);}
	.st116{clip-path:url(#SVGID_00000091732976513508894090000010445984889260984993_);}
	.st117{clip-path:url(#SVGID_00000091732976513508894090000010445984889260984993_);fill:#DAF0F1;}
	
		.st118{opacity:0.4;clip-path:url(#SVGID_00000091732976513508894090000010445984889260984993_);fill:url(#SVGID_00000179627006388319175120000004242613845987540910_);}
	.st119{clip-path:url(#SVGID_00000091732976513508894090000010445984889260984993_);fill:#075253;}
	.st120{clip-path:url(#SVGID_00000091732976513508894090000010445984889260984993_);fill:#F1933E;}
	.st121{clip-path:url(#SVGID_00000023278922195549483320000002521550121143811493_);}
	.st122{clip-path:url(#SVGID_00000110430587424773780770000015998752848239410105_);fill:#DAF0F1;}
	.st123{fill:none;stroke:#99B1BC;stroke-width:14.8621;stroke-linecap:round;stroke-linejoin:round;stroke-miterlimit:10;}
	.st124{clip-path:url(#SVGID_00000127761362894318247470000006935362507342286740_);}
	.st125{clip-path:url(#SVGID_00000127761362894318247470000006935362507342286740_);fill:#1D8B7B;}
	.st126{fill:none;stroke:#DF0667;stroke-miterlimit:10;}
	.st127{clip-path:url(#SVGID_00000018918058381487196820000012749902598629038523_);}
	.st128{clip-path:url(#SVGID_00000018918058381487196820000012749902598629038523_);fill:#1D8B7B;}
</style>
<path class="st30" d="M700,141.3C604.3,62.8,482.5,15.7,350,15.7S95.7,62.8,0,141.3v196h700V141.3z"/>
<g>
	<path class="st2" d="M116.1,337.5l0-286.4c0-3.7,3-6.8,6.8-6.8l217.2,0c3.7,0,6.8,3,6.8,6.8l0,286.4L116.1,337.5z"/>
	<path class="st31" d="M319.1,166.2l-178,0c-1.9,0-3.4-1.5-3.4-3.4l0-26.4c0-1.9,1.5-3.4,3.4-3.4l178,0c1.9,0,3.4,1.5,3.4,3.4
		l0,26.4C322.5,164.6,321,166.2,319.1,166.2z"/>
	<g>
		<path class="st33" d="M154.9,81.5c3.2,0,6.4,0.7,9.6,2l-2.3,5.6c-2.6-1-4.8-1.6-6.7-1.6c-1.3,0-2.3,0.4-2.9,1.1
			c-0.7,0.7-1,1.8-1,3.1v4.7l9.2,0v5.4l-9.2,0v3.5c0,2.8-1.2,4.8-3.7,6.1l17.6,0l0,6.4l-25.7,0l0-6.1c1.7-0.7,2.8-1.5,3.5-2.5
			c0.6-0.9,0.9-2.2,0.9-3.9v-3.6l-4.4,0l0-5.4h4.4v-4.8c0-3.3,0.9-5.8,2.8-7.6C148.8,82.3,151.5,81.5,154.9,81.5z"/>
	</g>
	<g>
		<line class="st40" x1="148.8" y1="196.8" x2="247.8" y2="196.4"/>
		<line class="st40" x1="296.2" y1="196.3" x2="314.1" y2="196.2"/>
		<line class="st40" x1="148.9" y1="228.9" x2="247.9" y2="228.5"/>
		<line class="st40" x1="296.3" y1="228.4" x2="314.2" y2="228.3"/>
		<line class="st40" x1="149" y1="261" x2="248" y2="260.7"/>
		<line class="st40" x1="296.5" y1="260.5" x2="314.3" y2="260.4"/>
		<line class="st40" x1="149.1" y1="293.1" x2="248.1" y2="292.8"/>
		<line class="st40" x1="296.6" y1="292.6" x2="314.5" y2="292.5"/>
	</g>
</g>
<g>
	<g>
		<path class="st33" d="M158.9,263.8H51.3c-3.5,0-6.5-3-6.5-6.5v-64.8c0-3.5,3-6.5,6.5-6.5h107.6c3.5,0,6.5,3,6.5,6.5v64.8
			C165.4,260.7,162.4,263.8,158.9,263.8z"/>
		<rect x="44.8" y="196.9" class="st4" width="120.6" height="14.6"/>
	</g>
	<g>
		<path class="st34" d="M138.8,296.4H31.2c-3.5,0-6.5-3-6.5-6.5v-64.8c0-3.5,3-6.5,6.5-6.5h107.6c3.5,0,6.5,3,6.5,6.5v64.8
			C145.3,293.4,142.3,296.4,138.8,296.4z"/>
		<g>
			<g>
				<rect x="37.5" y="275.8" class="st18" width="17.3" height="6.5"/>
				<rect x="63.4" y="275.8" class="st18" width="17.3" height="6.5"/>
			</g>
			<g>
				<rect x="89.3" y="275.8" class="st18" width="17.3" height="6.5"/>
			</g>
			<g>
				<rect x="115.2" y="275.8" class="st18" width="17.3" height="6.5"/>
			</g>
		</g>
		<rect x="97.8" y="233.6" class="st3" width="34.4" height="17.3"/>
	</g>
</g>
<g>
	<g>
		<path class="st12" d="M550.1,214.1l7.2,2.5c0.4,0.1,0.8,0.1,1.2,0l8-2.8c0.4-0.1,0.8-0.1,1.2,0l7.7,2.7c0.4,0.1,0.8,0.1,1.2,0
			l7.9-2.8c0.4-0.1,0.8-0.1,1.2,0l7.8,2.7c0.4,0.1,0.8,0.1,1.2,0l7.9-2.8c0.4-0.1,0.8-0.1,1.2,0l8.4,2.8c0.4,0.1,0.8,0.1,1.2,0
			l8.4-2.8c0.4-0.1,0.8-0.1,1.2,0l8,2.7c0.4,0.1,0.8,0.1,1.2,0l7.3-2.6c0.7-0.3,1.2-1,1.2-1.7l-0.6-180.6c0-1-0.8-1.8-1.8-1.8
			L550,29.9c-1,0-1.8,0.8-1.8,1.8l0.6,180.7C548.8,213.1,549.3,213.8,550.1,214.1z"/>
		<g>
			<line class="st41" x1="559.2" y1="98.6" x2="601.1" y2="98.4"/>
			<line class="st41" x1="613.2" y1="98.4" x2="629.3" y2="98.3"/>
			<line class="st41" x1="559.2" y1="113.5" x2="601.2" y2="113.4"/>
			<line class="st41" x1="613.2" y1="113.3" x2="629.3" y2="113.3"/>
			<line class="st41" x1="559.3" y1="128.5" x2="601.2" y2="128.3"/>
			<line class="st41" x1="613.3" y1="128.3" x2="629.4" y2="128.2"/>
			<line class="st41" x1="559.3" y1="143.4" x2="601.3" y2="143.3"/>
			<line class="st41" x1="613.3" y1="143.2" x2="629.4" y2="143.2"/>
			<line class="st41" x1="559.4" y1="158.3" x2="601.3" y2="158.2"/>
			<line class="st41" x1="613.4" y1="158.2" x2="629.5" y2="158.1"/>
			<line class="st41" x1="559.4" y1="173.3" x2="601.4" y2="173.1"/>
			<line class="st41" x1="613.4" y1="173.1" x2="629.5" y2="173"/>
			<line class="st41" x1="559.5" y1="188.2" x2="601.5" y2="188.1"/>
			<line class="st41" x1="613.5" y1="188" x2="629.6" y2="188"/>
		</g>
	</g>
	<g>
		<g>
			<g id="Circle_00000013184991896674474490000005958601302699472831_">
				<circle class="st34" cx="594" cy="63" r="17.5"/>
			</g>
		</g>
		<g>
			
				<rect x="588.3" y="68.1" transform="matrix(0.9998 -2.019030e-02 2.019030e-02 0.9998 -1.2656 11.9916)" class="st2" width="9.8" height="1.1"/>
			<path class="st2" d="M598.7,69.1l4.4-13.8l2,0c0.3,0,0.6-0.3,0.6-0.6c0-0.3-0.3-0.6-0.6-0.6l-2.4,0c-0.3,0-0.5,0.2-0.6,0.4
				l-1,3.2L585,58c-0.2,0-0.4,0.1-0.5,0.3c-0.1,0.2-0.1,0.4-0.1,0.5l2.5,7c0.1,0.2,0.3,0.4,0.6,0.4l11-0.2l-0.7,2.4 M600,61.2
				l-3.6,0.1l0.3-2.3l4-0.1L600,61.2z M592,64.9l-0.4-2.3l3.4-0.1l-0.3,2.3L592,64.9z M591.4,61.4l-0.4-2.3l4.4-0.1l-0.3,2.3
				L591.4,61.4z M589.8,59.1l0.4,2.3l-3.6,0.1l-0.8-2.3L589.8,59.1z M587.1,62.7l3.3-0.1l0.4,2.3l-2.9,0.1L587.1,62.7z M596,64.8
				l0.3-2.3l3.3-0.1l-0.7,2.3L596,64.8z"/>
			<circle class="st2" cx="598.2" cy="70" r="2"/>
			<circle class="st2" cx="588.4" cy="70.2" r="2"/>
		</g>
	</g>
</g>
<g>
	<path class="st14" d="M649.2,143.2c-16.5,0-29.8,13.4-29.8,29.8s13.4,29.8,29.8,29.8S679,189.5,679,173S665.7,143.2,649.2,143.2z"
		/>
	<path class="st2" d="M649.2,150.7c-12.4,0-22.4,10-22.4,22.4s10,22.4,22.4,22.4c12.4,0,22.4-10,22.4-22.4S661.5,150.7,649.2,150.7
		L649.2,150.7z"/>
	<path class="st18" d="M650.5,158.3c2.4,0,4.8,0.5,7,1.5l-1.7,4.1c-1.5-0.7-3.2-1.1-4.9-1.2c-0.8-0.1-1.6,0.2-2.1,0.8
		c-0.5,0.6-0.8,1.5-0.7,2.3v3.5h6.7v3.9h-6.7v2.6c0.1,1.9-1,3.7-2.7,4.5h12.8v4.7h-18.8v-4.5c1-0.4,1.9-1,2.5-1.8
		c0.5-0.8,0.7-1.8,0.7-2.8v-2.6h-3.1v-3.9h3.2v-3.5c-0.1-2.1,0.6-4.1,2.1-5.5C646.3,158.9,648.4,158.2,650.5,158.3z"/>
</g>
<g>
	<path class="st34" d="M270.2,6.8c-12.6,0-22.8,10.2-22.8,22.8c0,12.6,10.2,22.8,22.8,22.8c12.6,0,22.8-10.2,22.8-22.8
		S282.8,6.8,270.2,6.8z"/>
	<path class="st18" d="M270.2,48.9c-10.7,0-19.4-8.7-19.4-19.4s8.7-19.4,19.4-19.4s19.4,8.7,19.4,19.4
		C289.6,40.2,280.9,48.9,270.2,48.9z M270.2,12.5c-9.4,0-17.1,7.7-17.1,17.1s7.7,17.1,17.1,17.1c9.4,0,17.1-7.7,17.1-17.1
		S279.7,12.5,270.2,12.5L270.2,12.5z"/>
	<path class="st2" d="M271.2,18.3c1.8,0,3.7,0.4,5.4,1.1l-1.3,3.2c-1.2-0.5-2.4-0.8-3.7-0.9c-0.6,0-1.2,0.2-1.6,0.6
		c-0.4,0.5-0.6,1.1-0.6,1.8v2.6h5.1v3h-5.1v2c0.1,1.5-0.8,2.8-2.1,3.4l9.8,0v3.6h-14.4v-3.4c0.8-0.3,1.4-0.8,1.9-1.4
		c0.4-0.6,0.6-1.4,0.5-2.1v-2h-2.4v-3h2.4V24c-0.1-1.6,0.5-3.1,1.6-4.2C268,18.7,269.6,18.2,271.2,18.3z"/>
</g>
<g>
	<path class="st2" d="M66.2,120.1c-11.1,0-20,9-20,20c0,11.1,9,20,20,20s20-9,20-20C86.2,129.1,77.3,120.1,66.2,120.1z"/>
	<path class="st14" d="M66.2,125.1c-8.3,0-15,6.7-15,15c0,8.3,6.7,15,15,15s15-6.7,15-15C81.2,131.8,74.5,125.1,66.2,125.1
		L66.2,125.1z"/>
	<path class="st2" d="M67.1,130.2c1.6,0,3.2,0.4,4.7,1l-1.1,2.8c-1-0.5-2.1-0.7-3.3-0.8c-0.5,0-1.1,0.2-1.4,0.5
		c-0.4,0.4-0.5,1-0.5,1.5v2.3H70v2.6h-4.5v1.7c0.1,1.3-0.7,2.5-1.8,3h8.6v3.2H59.6v-3c0.7-0.2,1.3-0.7,1.7-1.2
		c0.3-0.6,0.5-1.2,0.5-1.9v-1.8h-2.1v-2.6h2.1v-2.4c-0.1-1.4,0.4-2.7,1.4-3.7C64.3,130.6,65.7,130.2,67.1,130.2z"/>
</g>
<g>
	<g>
		<defs>
			<rect id="SVGID_00000098909424678569609350000016714692835144189568_" x="-777.5" y="-580.5" width="700" height="917.1"/>
		</defs>
		<clipPath id="SVGID_00000001631910520224383490000017761947245431777445_">
			<use xlink:href="#SVGID_00000098909424678569609350000016714692835144189568_"  style="overflow:visible;"/>
		</clipPath>
		<g style="clip-path:url(#SVGID_00000001631910520224383490000017761947245431777445_);">
			<path class="st33" d="M69.1,382.6l-191.9-101.5c0,0-53.2,10-77.8,67c0,0,140.1,189,232.8,251.5c14.5,12,32.4,20.6,52.5,24.3
				c61.2,11.3,117.9-27.8,131.2-86.3C236.3,447.9,69.1,382.6,69.1,382.6z"/>
		</g>
	</g>
</g>
<g>
	<g>
		<rect x="317.8" y="156.8" transform="matrix(0.866 0.5 -0.5 0.866 152 -152.8479)" class="st11" width="86.9" height="100.9"/>
		<g>
			<g>
				<g>
					<path class="st17" d="M508.8,263L342,263c-5.6,0-10.1-4.5-10.1-10.1l0-242.4c0-5.6,4.5-10.1,10.1-10.1l166.9,0
						c5.6,0,10.1,4.5,10.1,10.1l0,242.4C519,258.5,514.4,263,508.8,263z"/>
					<path class="st14" d="M499.7,63.7l-148.5,0c-2.2,0-4.1-1.8-4.1-4.1l0-38.9c0-2.2,1.8-4.1,4.1-4.1l148.5,0
						c2.2,0,4.1,1.8,4.1,4.1l0,38.9C503.7,61.9,501.9,63.7,499.7,63.7z"/>
					<g id="_x3C_Grid_Repeat_x3E__00000124868858292293874010000008632789844786219413_">
						<path class="st18" d="M378.2,107.9l-29.1,0c-1.1,0-2-0.9-2-2V84.3c0-1.1,0.9-2,2-2l29.1,0c1.1,0,2,0.9,2,2l0,21.6
							C380.2,107,379.3,107.9,378.2,107.9z"/>
					</g>
					<g id="_x3C_Grid_Repeat_x3E__00000075852781630996024430000007651356000990760342_">
						<path class="st18" d="M419,107.9l-29.1,0c-1.1,0-2-0.9-2-2l0-21.6c0-1.1,0.9-2,2-2l29.1,0c1.1,0,2,0.9,2,2v21.6
							C421.1,107,420.1,107.9,419,107.9z"/>
					</g>
					<g id="_x3C_Grid_Repeat_x3E__00000012464086045930637590000000681041493940543656_">
						<path class="st18" d="M459.9,107.9l-29.1,0c-1.1,0-2-0.9-2-2l0-21.6c0-1.1,0.9-2,2-2l29.1,0c1.1,0,2,0.9,2,2l0,21.6
							C461.9,107,461,107.9,459.9,107.9z"/>
					</g>
					<g id="_x3C_Grid_Repeat_x3E__00000045579891764552326780000016335167602589859476_">
						<path class="st18" d="M500.8,107.9l-29.1,0c-1.1,0-2-0.9-2-2V84.3c0-1.1,0.9-2,2-2l29.1,0c1.1,0,2,0.9,2,2l0,21.6
							C502.8,107,501.9,107.9,500.8,107.9z"/>
					</g>
					<g id="_x3C_Grid_Repeat_x3E__00000088100413877818809790000010656418882674161032_">
						<path class="st19" d="M378.2,143.9l-29.1,0c-1.1,0-2-0.9-2-2v-21.6c0-1.1,0.9-2,2-2l29.1,0c1.1,0,2,0.9,2,2l0,21.6
							C380.2,143,379.3,143.9,378.2,143.9z"/>
					</g>
					<g id="_x3C_Grid_Repeat_x3E__00000059997064425259342720000008092407569140552621_">
						<path class="st19" d="M419,143.9l-29.1,0c-1.1,0-2-0.9-2-2l0-21.6c0-1.1,0.9-2,2-2l29.1,0c1.1,0,2,0.9,2,2v21.6
							C421.1,143,420.1,143.9,419,143.9z"/>
					</g>
					<g id="_x3C_Grid_Repeat_x3E__00000080886545478627558190000000944293497061923262_">
						<path class="st19" d="M459.9,143.9l-29.1,0c-1.1,0-2-0.9-2-2l0-21.6c0-1.1,0.9-2,2-2l29.1,0c1.1,0,2,0.9,2,2v21.6
							C461.9,143,461,143.9,459.9,143.9z"/>
					</g>
					<g id="_x3C_Grid_Repeat_x3E__00000062903799726647875890000008952778328610280371_">
						<path class="st19" d="M500.8,143.9l-29.1,0c-1.1,0-2-0.9-2-2v-21.6c0-1.1,0.9-2,2-2l29.1,0c1.1,0,2,0.9,2,2l0,21.6
							C502.8,143,501.9,143.9,500.8,143.9z"/>
					</g>
					<g id="_x3C_Grid_Repeat_x3E__00000085237877745321879410000004438192830383063204_">
						<path class="st19" d="M378.2,177.8l-29.1,0c-1.1,0-2-0.9-2-2v-21.6c0-1.1,0.9-2,2-2l29.1,0c1.1,0,2,0.9,2,2l0,21.6
							C380.2,176.9,379.3,177.8,378.2,177.8z"/>
					</g>
					<g id="_x3C_Grid_Repeat_x3E__00000000903014513229600430000007238862859129937562_">
						<path class="st19" d="M419,177.8l-29.1,0c-1.1,0-2-0.9-2-2l0-21.6c0-1.1,0.9-2,2-2l29.1,0c1.1,0,2,0.9,2,2v21.6
							C421.1,176.9,420.1,177.8,419,177.8z"/>
					</g>
					<g id="_x3C_Grid_Repeat_x3E__00000028301690090238757760000008236835670333737875_">
						<path class="st19" d="M459.9,177.8l-29.1,0c-1.1,0-2-0.9-2-2l0-21.6c0-1.1,0.9-2,2-2l29.1,0c1.1,0,2,0.9,2,2v21.6
							C461.9,176.9,461,177.8,459.9,177.8z"/>
					</g>
					<g id="_x3C_Grid_Repeat_x3E__00000062909221479709570150000003880530805849913232_">
						<path class="st19" d="M500.8,177.8l-29.1,0c-1.1,0-2-0.9-2-2v-21.6c0-1.1,0.9-2,2-2l29.1,0c1.1,0,2,0.9,2,2l0,21.6
							C502.8,176.9,501.9,177.8,500.8,177.8z"/>
					</g>
					<g id="_x3C_Grid_Repeat_x3E__00000080895603659341460560000004162899441813512350_">
						<path class="st19" d="M378.2,211.7l-29.1,0c-1.1,0-2-0.9-2-2V188c0-1.1,0.9-2,2-2l29.1,0c1.1,0,2,0.9,2,2l0,21.6
							C380.2,210.8,379.3,211.7,378.2,211.7z"/>
					</g>
					<g id="_x3C_Grid_Repeat_x3E__00000043457555310475300170000016255500124935345296_">
						<path class="st19" d="M419,211.7l-29.1,0c-1.1,0-2-0.9-2-2V188c0-1.1,0.9-2,2-2l29.1,0c1.1,0,2,0.9,2,2l0,21.6
							C421.1,210.8,420.1,211.7,419,211.7z"/>
					</g>
					<g id="_x3C_Grid_Repeat_x3E__00000109749698628348015000000000716083944250212787_">
						<path class="st19" d="M459.9,211.7l-29.1,0c-1.1,0-2-0.9-2-2l0-21.6c0-1.1,0.9-2,2-2l29.1,0c1.1,0,2,0.9,2,2v21.6
							C461.9,210.8,461,211.7,459.9,211.7z"/>
					</g>
					<g id="_x3C_Grid_Repeat_x3E__00000086671688621585483480000012885064454403939247_">
						<path class="st19" d="M378.2,245.6l-29.1,0c-1.1,0-2-0.9-2-2v-21.6c0-1.1,0.9-2,2-2l29.1,0c1.1,0,2,0.9,2,2l0,21.6
							C380.2,244.6,379.3,245.6,378.2,245.6z"/>
					</g>
					<g id="_x3C_Grid_Repeat_x3E__00000157293324437421966270000016538533321469559179_">
						<path class="st19" d="M419,245.6l-29.1,0c-1.1,0-2-0.9-2-2v-21.6c0-1.1,0.9-2,2-2l29.1,0c1.1,0,2,0.9,2,2l0,21.6
							C421.1,244.6,420.1,245.6,419,245.6z"/>
					</g>
					<g id="_x3C_Grid_Repeat_x3E__00000127723897578596665400000013575717562535066303_">
						<path class="st19" d="M459.9,245.6l-29.1,0c-1.1,0-2-0.9-2-2l0-21.6c0-1.1,0.9-2,2-2l29.1,0c1.1,0,2,0.9,2,2v21.6
							C461.9,244.6,461,245.6,459.9,245.6z"/>
					</g>
					<g id="_x3C_Grid_Repeat_x3E__00000048501590325261821400000005191489004698111669_">
						<path class="st20" d="M500.8,245.6l-29.1,0c-1.1,0-2-0.9-2-2l0-55.5c0-1.1,0.9-2,2-2l29.1,0c1.1,0,2,0.9,2,2l0,55.5
							C502.8,244.6,501.9,245.6,500.8,245.6z"/>
					</g>
				</g>
			</g>
			<g>
				<defs>
					<path id="SVGID_00000137121314889455453280000000484904877682305930_" d="M499.7,63.7l-148.5,0c-2.2,0-4.1-1.8-4.1-4.1l0-38.9
						c0-2.2,1.8-4.1,4.1-4.1l148.5,0c2.2,0,4.1,1.8,4.1,4.1l0,38.9C503.7,61.9,501.9,63.7,499.7,63.7z"/>
				</defs>
				<clipPath id="SVGID_00000000932702895958577390000009388367345950179246_">
					<use xlink:href="#SVGID_00000137121314889455453280000000484904877682305930_"  style="overflow:visible;"/>
				</clipPath>
			</g>
		</g>
		<path class="st11" d="M289.8,196.1c8.5-16.9,15.1-34.8,19.9-49.6c0.3-0.8,0.5-1.6,0.8-2.4c0.1-0.4,0.3-0.8,0.4-1.3
			c0.5-1.5,1-3.1,1.5-4.7c2.4-7.3,5.3-15.7,7.4-19.7c0.5-1,1-1.6,1.4-2c9-1.2,16.9,13.5,16.1,25.4c-0.8,13.4-9.9,25.6-10.5,46.5
			c-0.3,11.4,2.8,22.6,8.2,32.7c3.4,6.3,6.4,13.2,8.7,20.2c7.8,23.6,5.8,46.1-7.3,51.3c-12.3,4.8-28.8-7.5-38.3-28l-6.7,2.8
			C291,247.2,283.4,208.8,289.8,196.1z"/>
		<path class="st36" d="M322.1,119.3c2.4,1.2,4.7,3,5,5.9c0.3,2.9-0.3,6.5-1.5,9.1c-1.8,3.8-6.1,5.7-10,5c-1.2-0.2-2.3-0.6-3.3-1.2
			c2.4-7.3,5.3-15.7,7.4-19.7c0.7,0.2,1.4,0.3,2,0.6C321.9,119.2,322,119.3,322.1,119.3z"/>
		<path class="st11" d="M404.5,263.3c-27.3,0-63.1-2.8-91.8-3.2c-2.6,0-5,0-7.2,0.2c-8.2,0.6-13.7,2.7-14.1,7.1
			c-2.3,20.6-24.5,30.4-25,55.2c-0.1,5.2,2,10.2,5.5,14.7h75.5c6.7-12.5,13.2-27.2,23.7-30.5c16.9-5.2,27.7-17.5,32.9-24.7
			c2.3-3.3,19.7-18.8,19.7-18.8S406.9,263.3,404.5,263.3z"/>
		<path class="st33" d="M353.9,337.3l2.2-9c0,0-21.2-45.7-78.3-54.6c0,0-21.1,26-49,63.6H353.9z"/>
	</g>
	<g>
		<path class="st11" d="M546.2,211.8c-4.2-10.1-14.6-15.5-23.2-12s-12.1,14.5-7.8,24.6"/>
		
			<ellipse transform="matrix(0.9096 -0.4155 0.4155 0.9096 -38.446 249.5335)" class="st11" cx="554.2" cy="213.1" rx="16.7" ry="19.8"/>
		<path class="st11" d="M537.3,239l-71.1-68.5c0,0-19.3-20.7-29.8-11.2c-10.5,9.5,6.2,27.3,6.2,27.3s40.8,40.5,46.6,51.2
			s28.2,48.2,28.2,48.2L537.3,239z"/>
		<path class="st38" d="M438.9,175c-1-0.8-2.7-3.1-2.9-3.5c-0.5-1.4,0-3.2,0.6-4.7c0.2-0.4,0.4-0.8,0.6-1.2c0.1-0.1,0.1-0.2,0.2-0.3
			c0.5-0.8,1-1.6,1.7-2.3c0.6-0.7,1.3-1.3,2.1-1.8c0.1-0.1,0.2-0.1,0.3-0.2c0.4-0.2,0.7-0.5,1.1-0.7c1.4-0.8,3.2-1.4,4.7-1.1
			c0.4,0.1,2.8,1.6,3.8,2.4c1.9,1.6,3.8,3.4,4.1,3.9c2,3.3,1.2,7.7-1.4,10.5c-2.6,2.9-6.9,4.1-10.4,2.5
			C442.8,178.4,440.8,176.8,438.9,175z"/>
		<path class="st11" d="M674.9,337.3c2.9-10.8,2.9-23.3-2.5-37.7c0,0-24.6-8.2-32.6-17.9c-7.5-9.1-11.1-22.7-15.2-33.4
			c-6.1-15.7-11.8-30.6-22.9-43.5c-7-8.2-19-20.2-31.1-15.3c-6.5,2.6-10.1,9.6-9.6,17.2l-19.5-5l-15,3.5l-9.6,7.1l-4.9,10.4
			l3.7,51.2c-11.7-7-29.2-16.5-45-20.7c-6-1.6-12.9-2.8-18.9-0.7c-2.7,1-10.5,7.8-6.7,11.4c14.8,6.7,37.1,25.1,51.1,37.3
			c29.6,25.8,61.2,29.1,81.3,36.2H674.9z"/>
		<path class="st36" d="M445,263.8c4.6-3.1,10.2-3.6,14.9-0.3c2.3,1.6,3.9,3.5,4.3,6.4"/>
		<path class="st33" d="M700.3,337.3v-29.2l-40.9-21.6c0,0-41.9,7.9-65.5,50.9H700.3z"/>
	</g>
</g>
</svg>
