<?xml version="1.0" encoding="utf-8"?>
<!-- Generator: Adobe Illustrator 26.4.0, SVG Export Plug-In . SVG Version: 6.00 Build 0)  -->
<svg version="1.1" id="Layer_1" xmlns="http://www.w3.org/2000/svg" xmlns:xlink="http://www.w3.org/1999/xlink" x="0px" y="0px" height="191px" width="300px"
	 viewBox="0 0 400 232" style="enable-background:new 0 0 400 232;" xml:space="preserve" preserveAspectRatio="none">
<style type="text/css">
	.st0{fill:#D3D8DD;}
	.st1{fill:#F5F5F6;}
	.st2{fill:#3D6092;}
	.st3{fill:#6390B5;}
	.st4{fill:#00A3A6;}
	.st5{fill:#99B1BC;}
	.st6{fill:#FFFFFF;}
	.st7{fill:none;}
	.st8{fill-rule:evenodd;clip-rule:evenodd;fill:#3D6092;}
	.st9{fill:#A7B2BC;}
	.st10{fill:#233E57;}
	.st11{fill:#B2BFD3;}
	.st12{fill:#707071;}
	.st13{fill:#657889;}
	.st14{fill:#5EA77D;}
	.st15{fill:#A8BC45;}
	.st16{fill:#198145;}
	.st17{fill:#E9ECEE;}
	.st18{fill:none;stroke:#198145;stroke-miterlimit:10;}
	.st19{fill:#A6BFD5;}
	.st20{fill:none;stroke:#198145;stroke-width:0.5843;stroke-miterlimit:10;}
	.st21{fill:#7890B3;}
	.st22{fill:none;stroke:#233E57;stroke-width:2.8701;stroke-miterlimit:10;}
	.st23{fill:none;stroke:#233E57;stroke-width:16;stroke-linecap:round;stroke-miterlimit:10;}
	.st24{fill:none;stroke:#043C55;stroke-width:22;stroke-linecap:round;stroke-miterlimit:10;}
	.st25{fill:none;stroke:#B2BFD3;stroke-width:5;stroke-linecap:round;stroke-miterlimit:10;}
	.st26{fill:none;stroke:#4CBFC1;stroke-width:8;stroke-linecap:round;stroke-miterlimit:10;}
	.st27{fill:none;stroke:#BBBBBD;stroke-width:8;stroke-linecap:round;stroke-miterlimit:10;}
	.st28{fill:#043C55;}
</style>
<g>
	<path class="st6" d="M5.5,220.8l32.7,8.3c1.2,0.3,2.4,0.3,3.6,0l36.3-9c1.2-0.3,2.4-0.3,3.6,0l35,8.9c1.2,0.3,2.4,0.3,3.6,0l35.7-9
		c1.2-0.3,2.4-0.3,3.6,0l35.4,9c1.2,0.3,2.4,0.3,3.6,0l35.8-9c1.1-0.3,2.4-0.3,3.5,0l37.6,9c1.1,0.3,2.3,0.3,3.4,0l37.8-9
		c1.1-0.3,2.4-0.3,3.5,0l36.1,9c1.2,0.3,2.4,0.3,3.6,0l33.4-8.4c2.5-0.6,4.2-2.5,4.2-4.6l0-214.2L1.3,2l0,214.2
		C1.3,218.3,3,220.2,5.5,220.8z"/>
	<g>
		<path class="st5" d="M225.5,96.6H63.4c-2.2,0-4-1.8-4-4s1.8-4,4-4h162.1c2.2,0,4,1.8,4,4S227.7,96.6,225.5,96.6z"/>
	</g>
	<g>
		<path class="st5" d="M334.1,96.6H272c-2.2,0-4-1.8-4-4s1.8-4,4-4h62.1c2.2,0,4,1.8,4,4S336.3,96.6,334.1,96.6z"/>
	</g>
	<g>
		<path class="st5" d="M225.5,36H63.4c-2.2,0-4-1.8-4-4c0-2.2,1.8-4,4-4h162.1c2.2,0,4,1.8,4,4C229.5,34.2,227.7,36,225.5,36z"/>
	</g>
	<g>
		<path class="st5" d="M334.1,36H272c-2.2,0-4-1.8-4-4c0-2.2,1.8-4,4-4h62.1c2.2,0,4,1.8,4,4C338.1,34.2,336.3,36,334.1,36z"/>
	</g>
	<g>
		<path class="st5" d="M225.5,66.3H63.4c-2.2,0-4-1.8-4-4c0-2.2,1.8-4,4-4h162.1c2.2,0,4,1.8,4,4C229.5,64.5,227.7,66.3,225.5,66.3z
			"/>
	</g>
	<g>
		<path class="st5" d="M334.1,66.3H272c-2.2,0-4-1.8-4-4c0-2.2,1.8-4,4-4h62.1c2.2,0,4,1.8,4,4C338.1,64.5,336.3,66.3,334.1,66.3z"
			/>
	</g>
</g>
</svg>
