<?xml version="1.0" encoding="utf-8"?>
<!-- Generator: Adobe Illustrator 26.4.0, SVG Export Plug-In . SVG Version: 6.00 Build 0)  -->
<svg version="1.1" id="Layer_1" xmlns="http://www.w3.org/2000/svg" xmlns:xlink="http://www.w3.org/1999/xlink" x="0px" y="0px" height="200px" width="145px"
	 viewBox="0 0 170.8 214" style="enable-background:new 0 0 170.8 214;" xml:space="preserve" preserveAspectRatio="none">
<style type="text/css">
	.st0{fill:#D3D8DD;}
	.st1{fill:#F5F5F6;}
	.st2{fill:#3D6092;}
	.st3{fill:#6390B5;}
	.st4{fill:#00A3A6;}
	.st5{fill:#99B1BC;}
	.st6{fill:#FFFFFF;}
	.st7{fill:none;}
	.st8{fill-rule:evenodd;clip-rule:evenodd;fill:#3D6092;}
	.st9{fill:#A7B2BC;}
	.st10{fill:#233E57;}
	.st11{fill:#B2BFD3;}
	.st12{fill:#707071;}
	.st13{fill:#657889;}
	.st14{fill:#5EA77D;}
	.st15{fill:#A8BC45;}
	.st16{fill:#198145;}
	.st17{fill:#E9ECEE;}
	.st18{fill:none;stroke:#198145;stroke-miterlimit:10;}
	.st19{fill:#A6BFD5;}
	.st20{fill:none;stroke:#198145;stroke-width:0.5843;stroke-miterlimit:10;}
	.st21{fill:#7890B3;}
	.st22{fill:none;stroke:#233E57;stroke-width:2.8701;stroke-miterlimit:10;}
	.st23{fill:none;stroke:#233E57;stroke-width:16;stroke-linecap:round;stroke-miterlimit:10;}
	.st24{fill:none;stroke:#043C55;stroke-width:22;stroke-linecap:round;stroke-miterlimit:10;}
	.st25{fill:none;stroke:#B2BFD3;stroke-width:5;stroke-linecap:round;stroke-miterlimit:10;}
	.st26{fill:none;stroke:#4CBFC1;stroke-width:8;stroke-linecap:round;stroke-miterlimit:10;}
	.st27{fill:none;stroke:#BBBBBD;stroke-width:8;stroke-linecap:round;stroke-miterlimit:10;}
	.st28{fill:#043C55;}
</style>
<g>
	<path class="st6" d="M3.4,208.6l13.8,3.5c0.5,0.1,1,0.1,1.5,0l15.4-3.8c0.5-0.1,1-0.1,1.5,0l14.8,3.8c0.5,0.1,1,0.1,1.5,0l15.1-3.8
		c0.5-0.1,1-0.1,1.5,0l15,3.8c0.5,0.1,1,0.1,1.5,0l15.2-3.8c0.5-0.1,1-0.1,1.5,0l15.9,3.8c0.5,0.1,1,0.1,1.5,0l16-3.8
		c0.5-0.1,1-0.1,1.5,0l15.3,3.8c0.5,0.1,1,0.1,1.5,0l14.1-3.5c1.1-0.3,1.8-1.1,1.8-1.9l0-205.6L1.6,1.1l0,205.6
		C1.6,207.5,2.3,208.3,3.4,208.6z"/>
	<g>
		<path class="st5" d="M96.4,41.7H27.9c-1.9,0-3.5-1.6-3.5-3.5s1.6-3.5,3.5-3.5h68.5c1.9,0,3.5,1.6,3.5,3.5S98.3,41.7,96.4,41.7z"/>
	</g>
	<g>
		<path class="st5" d="M142.3,41.7H116c-1.9,0-3.5-1.6-3.5-3.5s1.6-3.5,3.5-3.5h26.3c1.9,0,3.5,1.6,3.5,3.5S144.2,41.7,142.3,41.7z"
			/>
	</g>
	<g>
		<path class="st5" d="M96.4,69.1H27.9c-1.9,0-3.5-1.6-3.5-3.5c0-1.9,1.6-3.5,3.5-3.5h68.5c1.9,0,3.5,1.6,3.5,3.5
			C99.9,67.6,98.3,69.1,96.4,69.1z"/>
	</g>
	<g>
		<path class="st5" d="M142.3,69.1H116c-1.9,0-3.5-1.6-3.5-3.5c0-1.9,1.6-3.5,3.5-3.5h26.3c1.9,0,3.5,1.6,3.5,3.5
			C145.8,67.6,144.2,69.1,142.3,69.1z"/>
	</g>
	<g>
		<path class="st5" d="M96.4,96.6H27.9c-1.9,0-3.5-1.6-3.5-3.5s1.6-3.5,3.5-3.5h68.5c1.9,0,3.5,1.6,3.5,3.5S98.3,96.6,96.4,96.6z"/>
	</g>
	<g>
		<path class="st5" d="M142.3,96.6H116c-1.9,0-3.5-1.6-3.5-3.5s1.6-3.5,3.5-3.5h26.3c1.9,0,3.5,1.6,3.5,3.5S144.2,96.6,142.3,96.6z"
			/>
	</g>
</g>
</svg>
