<?xml version="1.0" encoding="utf-8"?>
<!-- Generator: Adobe Illustrator 26.1.0, SVG Export Plug-In . SVG Version: 6.00 Build 0)  -->
<svg version="1.1" id="Artwork" xmlns="http://www.w3.org/2000/svg" xmlns:xlink="http://www.w3.org/1999/xlink" x="0px" y="0px"
	 viewBox="0 0 64 64" style="enable-background:new 0 0 64 64;" xml:space="preserve">
<style type="text/css">
	.st0{fill:#222222;}
	.st1{fill:#FFFFFF;}
</style>
<circle class="st0" cx="32" cy="32" r="28"/>
<path id="Path_2520" class="st1" d="M48.5,46.5h-6.4v-10c0-2.4,0-5.5-3.3-5.5s-3.8,2.6-3.8,5.3v10.2h-6.4V25.8h6.2v2.8h0.1
	c1.3-2.1,3.6-3.4,6.1-3.3c6.5,0,7.7,4.3,7.7,9.8L48.5,46.5z M21.2,23c-2.1,0-3.7-1.7-3.7-3.8s1.7-3.7,3.8-3.7c2,0,3.7,1.7,3.7,3.7
	C25,21.3,23.4,23,21.2,23C21.3,23,21.3,23,21.2,23L21.2,23 M24.4,46.5H18V25.8h6.4L24.4,46.5z"/>
</svg>
