<?xml version="1.0" encoding="utf-8"?>
<!-- Generator: Adobe Illustrator 26.1.0, SVG Export Plug-In . SVG Version: 6.00 Build 0)  -->
<svg version="1.1" id="Artwork" xmlns="http://www.w3.org/2000/svg" xmlns:xlink="http://www.w3.org/1999/xlink" x="0px" y="0px"
	 viewBox="0 0 64 64" style="enable-background:new 0 0 64 64;" xml:space="preserve">
<style type="text/css">
	.st0{fill:#222222;}
	.st1{fill:#FFFFFF;}
</style>
<path class="st0" d="M60,32C60,16.5,47.5,4,32,4C16.5,4,4,16.5,4,32c0,13.8,10,25.5,23.6,27.7V40.1h-7.1V32h7.1v-6.2
	c0-7,4.2-10.9,10.6-10.9c2.1,0,4.2,0.2,6.3,0.5v6.9h-3.5c-3.5,0-4.6,2.1-4.6,4.4V32h7.8l-1.2,8.1h-6.5v19.6C50,57.5,60,45.8,60,32z"
	/>
<path class="st1" d="M42.9,40.1l1.2-8.1h-7.8v-5.2c0-2.2,1.1-4.4,4.6-4.4h3.5v-6.9c-2.1-0.3-4.2-0.5-6.3-0.5
	c-6.4,0-10.6,3.9-10.6,10.9V32h-7.1v8.1h7.1v19.6c2.9,0.5,5.9,0.5,8.8,0V40.1H42.9z"/>
</svg>
