<?xml version="1.0" encoding="utf-8"?>
<!-- Generator: Adobe Illustrator 26.1.0, SVG Export Plug-In . SVG Version: 6.00 Build 0)  -->
<svg version="1.1" id="Artwork" xmlns="http://www.w3.org/2000/svg" xmlns:xlink="http://www.w3.org/1999/xlink" x="0px" y="0px"
	 viewBox="0 0 64 64" style="enable-background:new 0 0 64 64;" xml:space="preserve">
<style type="text/css">
	.st0{fill:#222222;}
	.st1{fill:#FFFFFF;}
</style>
<circle class="st0" cx="32" cy="32" r="28"/>
<path class="st1" d="M29.4,47.4c-1.8,1.8-4.1,2.6-6.4,2.6s-4.6-0.9-6.4-2.6c-3.5-3.5-3.5-9.3,0-12.8c0,0,8.8-8.8,9-8.9
	c1.7-1.4,3.7-2.1,5.8-2.1c1.1,0,2.1,0.2,3.2,0.6c0.7,0.2,1.4,0.6,2,1c0.4,0.3,0.9,0.7,1.3,1c0.4,0.4,0.7,0.8,1,1.3L35,31.4
	c-0.2-0.5-0.5-1-0.9-1.4c-0.4-0.4-0.9-0.7-1.4-0.9c-0.4-0.1-0.8-0.2-1.2-0.2c-0.7,0-1.4,0.2-2,0.6c-0.2,0.1-0.4,0.3-0.6,0.5
	l-8.4,8.4c-0.7,0.7-1.1,1.6-1.1,2.6c0,1,0.4,2,1.1,2.7c0.7,0.7,1.6,1.1,2.7,1.1c1,0,1.9-0.4,2.6-1.1l2.1-2.1h0
	c1.5,0.7,3.1,1.1,4.8,1.1c0.6,0,1.2,0,1.8-0.1L29.4,47.4L29.4,47.4z"/>
<path class="st1" d="M47.4,29.5L39,37.9c-0.2,0.2-0.4,0.4-0.6,0.5c-1.7,1.4-3.7,2.1-5.8,2.1c-1.1,0-2.1-0.2-3.2-0.6
	c-0.7-0.2-1.4-0.6-2-1c-0.4-0.3-0.9-0.7-1.3-1c-0.4-0.4-0.7-0.8-1-1.3l3.9-3.9c0.2,0.5,0.5,1,0.9,1.4c0.4,0.4,0.9,0.7,1.4,0.9
	c0.4,0.1,0.8,0.2,1.2,0.2c0.7,0,1.4-0.2,2-0.6c0.2-0.1,0.4-0.3,0.6-0.5l8.4-8.4c0.7-0.7,1.1-1.6,1.1-2.6c0-1-0.4-2-1.1-2.7
	c-0.7-0.7-1.6-1.1-2.7-1.1c-1,0-1.9,0.4-2.6,1.1l-2.1,2.1c-1.5-0.7-3.1-1.1-4.8-1.1c-0.6,0-1.2,0-1.8,0.1l4.9-4.9
	c1.8-1.8,4.1-2.6,6.4-2.6c2.3,0,4.6,0.9,6.4,2.6C50.9,20.2,50.9,26,47.4,29.5L47.4,29.5z"/>
</svg>
