<svg id="Artwork" xmlns="http://www.w3.org/2000/svg" viewBox="0 0 16 16"><defs><style>.cls-1{fill:#222222;}</style></defs><path class="cls-1" d="M8,1a7,7,0,1,0,7,7A7,7,0,0,0,8,1Zm3.52,5.67v.22a4.8,4.8,0,0,1-7.39,4,2.73,2.73,0,0,0,.41,0,3.39,3.39,0,0,0,2.09-.72A1.71,1.71,0,0,1,5.05,9.06a1.73,1.73,0,0,0,.32,0A1.68,1.68,0,0,0,5.82,9,1.68,1.68,0,0,1,4.46,7.38v0a1.8,1.8,0,0,0,.77.21,1.67,1.67,0,0,1-.75-1.41,1.63,1.63,0,0,1,.23-.84A4.77,4.77,0,0,0,8.18,7.08a1.58,1.58,0,0,1,0-.38,1.69,1.69,0,0,1,2.92-1.16,3.39,3.39,0,0,0,1.07-.41,1.64,1.64,0,0,1-.74.93,3.47,3.47,0,0,0,1-.26A3.47,3.47,0,0,1,11.52,6.67Z"/></svg>
