<?xml version="1.0" encoding="utf-8"?>
<!-- Generator: Adobe Illustrator 26.4.0, SVG Export Plug-In . SVG Version: 6.00 Build 0)  -->
<svg version="1.1" id="Layer_1" xmlns="http://www.w3.org/2000/svg" xmlns:xlink="http://www.w3.org/1999/xlink" x="0px" y="0px"
	 viewBox="0 0 600 425.5" style="enable-background:new 0 0 600 425.5;" xml:space="preserve">
<style type="text/css">
	.st0{fill:#E4E8EA;}
	.st1{fill:#E4E8EA;stroke:#1D1D1B;stroke-width:0.4707;stroke-miterlimit:10;}
	.st2{fill:#F5F5F6;}
	.st3{fill:#507690;}
	.st4{fill:#9BB1BF;}
	.st5{fill:#FFFFFF;}
	.st6{clip-path:url(#SVGID_00000029021693811429660550000015697299087630761123_);fill:#996A49;}
	.st7{clip-path:url(#SVGID_00000029021693811429660550000015697299087630761123_);fill:#D19F6B;}
	.st8{clip-path:url(#SVGID_00000029021693811429660550000015697299087630761123_);}
	.st9{fill:#A8BC45;}
	.st10{fill:#233E57;}
	.st11{opacity:0.7;fill:#FFFFFF;}
	.st12{fill:none;stroke:#A8BC45;stroke-width:3.7663;stroke-miterlimit:10;}
	.st13{fill:none;stroke:#000000;stroke-width:3.7483;stroke-miterlimit:10;}
	.st14{fill:#D19F6B;}
	.st15{fill:#996A49;}
	.st16{clip-path:url(#SVGID_00000029021693811429660550000015697299087630761123_);fill:#A8BC45;}
	.st17{opacity:0.8;fill:#ACD9EA;}
	.st18{fill:#F1933E;}
	.st19{fill:#CB8D50;}
	.st20{fill:#B05B29;}
	.st21{fill:#553119;}
	.st22{fill:#CE0B24;}
	.st23{fill:#FAC82E;}
	.st24{fill:#D3D8DD;}
	.st25{fill:#3D6092;}
	.st26{fill:#6390B5;}
	.st27{fill:#00A3A6;}
	.st28{fill:#99B1BC;}
	.st29{fill:none;}
	.st30{fill-rule:evenodd;clip-rule:evenodd;fill:#3D6092;}
	.st31{fill:#A6BFD5;}
	.st32{fill:#707071;}
	.st33{fill:#5EA77D;}
	.st34{fill:#198145;}
	.st35{fill:#E9ECEE;}
	.st36{fill:#657889;}
	.st37{fill:#7890B3;}
	.st38{fill:#043C55;}
	.st39{fill:#B2BFD3;}
	.st40{fill:#ADECE2;}
	.st41{opacity:0.7;fill:#99B1BC;}
	.st42{fill:#BBBBBD;}
	.st43{fill:#1D8B7B;}
	.st44{fill:#31CFB6;}
	.st45{fill:#E2E2E3;}
	.st46{fill:#886F5E;}
	.st47{fill:none;stroke:#99B1BC;stroke-width:6;stroke-linecap:round;stroke-linejoin:round;stroke-miterlimit:10;}
	.st48{fill:#30A1CA;}
	.st49{fill:#BBADA3;}
	.st50{clip-path:url(#SVGID_00000006696192655290859630000000877231621666588320_);}
	.st51{fill-rule:evenodd;clip-rule:evenodd;fill:#BBADA3;}
	.st52{clip-path:url(#SVGID_00000006696192655290859630000000877231621666588320_);fill:#1D8B7B;}
	.st53{fill:#353538;}
	.st54{fill:none;stroke:#353538;stroke-width:14.48;stroke-miterlimit:10;}
	.st55{fill:#EBEFF4;}
	.st56{fill:#A7B2BC;}
	.st57{fill:#F0BFA1;}
	.st58{fill:#F4D3BD;}
	.st59{fill:#DBB084;}
	.st60{fill:#222222;}
	.st61{fill:#864C2F;}
	.st62{clip-path:url(#SVGID_00000002368906096651778440000008828931219743577250_);fill:#CB8D50;}
	.st63{fill-rule:evenodd;clip-rule:evenodd;fill:#F4D3BD;}
	.st64{clip-path:url(#SVGID_00000093165363539134036420000001854873951959430544_);fill:#CB8D50;}
	.st65{fill:#EFEFEF;}
	.st66{fill:#D2DEDE;}
	.st67{fill:#BAD4DB;}
	.st68{fill:url(#SVGID_00000067923577155116898240000007552647825012879497_);}
	.st69{fill:#B1D2DE;}
	.st70{opacity:0.2;fill:#E2E2E3;}
	.st71{opacity:0.2;fill:#BBBBBD;}
	.st72{fill:#FBD86D;}
	.st73{fill:#FDE9AB;}
	.st74{fill:#D6ECF4;}
	.st75{fill:#BAC96A;}
	.st76{fill:none;stroke:#C2D07D;stroke-width:2.1053;stroke-linecap:round;stroke-miterlimit:10;}
	.st77{fill:#FCDE81;}
	.st78{fill:url(#SVGID_00000045580129264059585880000007165437025020345237_);}
	.st79{fill:#1D1D1B;}
	.st80{fill:none;stroke:#1D8B7B;stroke-width:4.2858;stroke-linecap:round;stroke-miterlimit:10;}
	.st81{fill:#BFC028;}
	.st82{fill:#83C6DF;}
	.st83{fill:none;stroke:#1D1D1B;stroke-width:1.5288;stroke-linecap:round;stroke-linejoin:round;stroke-miterlimit:10;}
	.st84{fill:#1899C5;}
	.st85{fill:#6FBDDA;}
	.st86{fill:#6FBDDA;stroke:#30A1CA;stroke-width:1.0192;stroke-linecap:round;stroke-linejoin:round;stroke-miterlimit:10;}
	.st87{fill:#998375;}
	.st88{fill:#AA988C;}
	.st89{fill:#BBBABC;}
	.st90{fill:#CECECF;}
	.st91{fill-rule:evenodd;clip-rule:evenodd;fill:#AA988C;}
	.st92{fill:#C2D07D;}
	.st93{clip-path:url(#SVGID_00000009577274510991744970000015700093396588802445_);fill:#507690;}
	.st94{fill:url(#SVGID_00000113336141636626940820000016144910888120747170_);}
	.st95{fill:#053C60;}
	.st96{fill:#02292A;}
	.st97{fill:#EDF8F8;}
	.st98{fill:#231717;}
	.st99{fill:#DAF0F1;}
	.st100{opacity:0.4;fill:url(#SVGID_00000093167932446720321860000013684752311837506745_);}
	.st101{fill:#D1EDED;}
	.st102{fill:#075253;}
	.st103{clip-path:url(#SVGID_00000161607945438564733420000005337140868253344896_);}
	.st104{clip-path:url(#SVGID_00000161607945438564733420000005337140868253344896_);fill:#DAF0F1;}
	
		.st105{opacity:0.4;clip-path:url(#SVGID_00000161607945438564733420000005337140868253344896_);fill:url(#SVGID_00000170253273073179865780000011356231882060853950_);}
	.st106{clip-path:url(#SVGID_00000161607945438564733420000005337140868253344896_);fill:#075253;}
	.st107{clip-path:url(#SVGID_00000161607945438564733420000005337140868253344896_);fill:#F1933E;}
	.st108{clip-path:url(#SVGID_00000147187458698122509240000015005043376258422203_);}
	.st109{clip-path:url(#SVGID_00000173876981676148112540000006070941682480142249_);fill:#DAF0F1;}
	.st110{fill:#107A7C;}
	.st111{fill:#414042;}
	.st112{fill:#666666;}
	.st113{clip-path:url(#SVGID_00000024716079398860513730000002211363377679312552_);fill:#507690;}
	.st114{fill:url(#SVGID_00000178888034727072106480000012840854753588565693_);}
	.st115{opacity:0.4;fill:url(#SVGID_00000007407287559017061960000016548720978079505029_);}
	.st116{clip-path:url(#SVGID_00000127725593508499616610000012951577311373135243_);}
	.st117{clip-path:url(#SVGID_00000127725593508499616610000012951577311373135243_);fill:#DAF0F1;}
	
		.st118{opacity:0.4;clip-path:url(#SVGID_00000127725593508499616610000012951577311373135243_);fill:url(#SVGID_00000142892869557098711450000006231952216478367876_);}
	.st119{clip-path:url(#SVGID_00000127725593508499616610000012951577311373135243_);fill:#075253;}
	.st120{clip-path:url(#SVGID_00000127725593508499616610000012951577311373135243_);fill:#F1933E;}
	.st121{clip-path:url(#SVGID_00000094618071317771684950000016448068755612682152_);}
	.st122{clip-path:url(#SVGID_00000114068709704543888880000005247948656262437260_);fill:#DAF0F1;}
	.st123{clip-path:url(#SVGID_00000013883835833859364850000002136132862973804452_);fill:#996A49;}
	.st124{clip-path:url(#SVGID_00000013883835833859364850000002136132862973804452_);fill:#D19F6B;}
	.st125{clip-path:url(#SVGID_00000013883835833859364850000002136132862973804452_);}
	.st126{clip-path:url(#SVGID_00000013883835833859364850000002136132862973804452_);fill:#A8BC45;}
</style>
<g>
	<g>
		<g>
			<g>
				<path class="st0" d="M130.4,318.2c2.1-11.8,32.8-117.9,69.2-139.2"/>
				<path class="st0" d="M141.2,318.2c-1.9-20.8,27.7-66.4,69.2-87.8"/>
				<path class="st0" d="M132,316.3c2.1-11.8,6.9-151.1,31.6-172.5"/>
				<path class="st0" d="M130.4,318.2C129.6,289,99.7,228,58.7,215.5"/>
				<path class="st0" d="M130.4,318.2c-2.1-11.8,1.4-117.7-23.2-139.2"/>
				<path class="st0" d="M194.3,135.1c-11.9,19.9-38.4,26-46.5,21.2c-8.1-4.8-15.4-31-3.6-50.9s46.5-21.2,46.5-21.2
					S206.1,115.2,194.3,135.1z"/>
				<path class="st0" d="M65.1,188.8c18.6,13.8,22,40.8,16.4,48.4c-5.6,7.6-32.4,12.2-51-1.5s-16.4-48.4-16.4-48.4
					S46.5,175,65.1,188.8z"/>
				<path class="st0" d="M107.7,135.9c15.5,17.2,13.5,44.3,6.6,50.6c-7,6.3-34.2,5.6-49.7-11.6S58,124.3,58,124.3
					S92.2,118.7,107.7,135.9z"/>
				<path class="st0" d="M237.3,189.3c-18.8,13.5-45.6,8.5-51.1,0.9s-1.7-34.6,17.1-48.1s51.1-0.9,51.1-0.9S256.1,175.7,237.3,189.3
					z"/>
				<path class="st0" d="M241.8,262.3c-22.9,3.4-44.4-13.3-45.8-22.6c-1.4-9.3,14.3-31.6,37.2-35c22.9-3.4,45.8,22.6,45.8,22.6
					S264.7,258.9,241.8,262.3z"/>
			</g>
			<g>
				<polygon class="st0" points="185.6,415.8 89.9,415.8 57.7,285.8 217.8,285.8 				"/>
				<path class="st0" d="M221.2,314.6H54.4c-0.7,0-1.3-0.6-1.3-1.3v-31.4c0-0.7,0.6-1.3,1.3-1.3h166.8c0.7,0,1.3,0.6,1.3,1.3v31.4
					C222.5,314,221.9,314.6,221.2,314.6z"/>
			</g>
		</g>
		<g>
			<path class="st0" d="M98.8,273.2c10.2-3.3,15.8-14.3,12.5-24.5c-0.2-0.6-0.4-1.1-0.6-1.6c0.6,0.1,1.3,0.1,1.9,0.1
				c10.8,0,19.5-8.7,19.5-19.5c0-10.8-8.7-19.5-19.5-19.5c-0.5,0-1,0-1.5,0.1c0.2-0.5,0.4-1.1,0.6-1.6c3.3-10.2-2.3-21.2-12.5-24.5
				c-10.2-3.3-21.2,2.3-24.5,12.5c-0.2,0.6-0.3,1.2-0.5,1.8c-0.5-0.4-1-0.8-1.5-1.2c-8.7-6.3-20.9-4.4-27.2,4.3
				c-6.3,8.7-4.4,20.9,4.3,27.2c0.5,0.4,1,0.7,1.6,1c-0.5,0.3-1.1,0.7-1.6,1c-8.7,6.3-10.6,18.5-4.3,27.2
				c6.3,8.7,18.5,10.6,27.2,4.3c0.4-0.3,0.8-0.7,1.2-1c0.1,0.5,0.2,1,0.4,1.5C77.6,270.9,88.6,276.5,98.8,273.2z"/>
			<path class="st2" d="M66.9,233.4c-3.2-9.8,2.2-20.3,12-23.5c9.8-3.2,20.3,2.2,23.5,12c3.2,9.8-2.2,20.3-12,23.5
				C80.6,248.6,70.1,243.2,66.9,233.4z"/>
		</g>
		<g>
			<path class="st0" d="M256.5,197.1c-2.4-10.5-12.8-17-23.3-14.7c-0.6,0.1-1.1,0.3-1.7,0.5c0.1-0.6,0.2-1.2,0.3-1.9
				c1-10.7-6.9-20.2-17.7-21.1c-10.7-1-20.2,6.9-21.1,17.7c0,0.5-0.1,1-0.1,1.6c-0.5-0.3-1-0.5-1.6-0.8c-9.9-4.2-21.3,0.4-25.6,10.3
				c-4.2,9.9,0.4,21.3,10.3,25.6c0.6,0.2,1.1,0.4,1.7,0.6c-0.5,0.4-0.9,0.9-1.3,1.4c-7.1,8.1-6.2,20.4,1.9,27.5
				c8.1,7.1,20.4,6.2,27.5-1.9c0.4-0.5,0.8-1,1.2-1.5c0.3,0.6,0.6,1.1,0.9,1.7c5.5,9.2,17.5,12.2,26.7,6.7
				c9.2-5.5,12.2-17.5,6.7-26.7c-0.3-0.5-0.6-0.9-0.9-1.3c0.5-0.1,1-0.1,1.5-0.3C252.4,218,258.9,207.5,256.5,197.1z"/>
			<path class="st2" d="M214.1,225.3c-10,2.3-20.1-4-22.4-14c-2.3-10,4-20.1,14-22.4c10-2.3,20.1,4,22.4,14
				C230.4,213,224.1,223,214.1,225.3z"/>
		</g>
		<path class="st0" d="M113,205.3c10.5,2.5,21-3.9,23.5-14.4c0.1-0.6,0.2-1.1,0.3-1.7c0.5,0.4,1,0.7,1.6,1.1
			c9.2,5.6,21.2,2.8,26.8-6.4s2.8-21.2-6.4-26.8c-0.4-0.3-0.9-0.5-1.4-0.7c0.5-0.3,0.9-0.7,1.4-1.1c8.2-7,9.2-19.3,2.2-27.5
			c-7-8.2-19.3-9.2-27.5-2.2c-0.5,0.4-0.9,0.8-1.3,1.3c-0.2-0.6-0.4-1.2-0.6-1.8c-4.1-9.9-15.5-14.7-25.4-10.6
			c-9.9,4.1-14.7,15.5-10.6,25.4c0.2,0.6,0.5,1.2,0.8,1.7c-0.6,0-1.3,0-1.9,0.1c-10.7,0.8-18.7,10.2-17.9,20.9
			c0.8,10.7,10.2,18.7,20.9,17.9c0.5,0,1.1-0.1,1.6-0.2c-0.2,0.5-0.3,1-0.4,1.4C96.2,192.3,102.6,202.8,113,205.3z"/>
		<path class="st2" d="M106.7,154.8c2.4-10,12.5-16.2,22.5-13.8c10,2.4,16.2,12.5,13.8,22.5c-2.4,10-12.5,16.2-22.5,13.8
			C110.4,174.9,104.2,164.8,106.7,154.8z"/>
	</g>
	<g>
		<g>
			
				<rect x="347.9" y="26.4" transform="matrix(-1.836970e-16 1 -1 -1.836970e-16 430.5847 -289.8474)" class="st3" width="24.7" height="87.9"/>
			<polygon class="st4" points="404.2,58 404.2,169.1 428.9,169.1 428.9,82.7 			"/>
			<polygon class="st4" points="316.3,58 316.3,169.1 291.6,169.1 291.6,82.7 			"/>
			<path class="st4" d="M486.6,409H227.2c-4,0-7.3-3.3-7.3-7.3V136.9c0-4,3.3-7.3,7.3-7.3h259.4c4,0,7.3,3.3,7.3,7.3v264.9
				C493.8,405.8,490.6,409,486.6,409z"/>
		</g>
		<circle class="st3" cx="356.9" cy="257.4" r="71.4"/>
		<g>
			<path class="st5" d="M350.4,204.7c-1,0-1.8,0.8-1.8,1.8v25.9c0,0.8-0.7,1.5-1.5,1.5c-0.8,0-1.5-0.7-1.5-1.5v-25.9
				c0-1-0.8-1.8-1.8-1.8c-1,0-1.8,0.8-1.8,1.8v25.9c0,0.8-0.7,1.5-1.5,1.5c-0.8,0-1.5-0.7-1.5-1.5v-25.9c0-1-0.8-1.8-1.8-1.8
				s-1.8,0.8-1.8,1.8v25.9c0,0.8-0.7,1.5-1.5,1.5c-0.8,0-1.5-0.7-1.5-1.5v-25.9c0-1-0.8-1.8-1.8-1.8s-1.8,0.8-1.8,1.8V234
				c0,5.3,3.6,9.8,8.4,11.2l-2.4,60.3c-0.1,2.5,1.9,4.6,4.4,4.6h2.5c2.5,0,4.5-2.1,4.4-4.6l-2.4-60.3c4.9-1.4,8.4-5.9,8.4-11.2
				v-27.4C352.2,205.6,351.4,204.7,350.4,204.7z"/>
			<path class="st5" d="M382,204.7c-5,0-9.1,3.8-9.6,8.7l-3.2,32.3c-0.7,6.6,2.8,12.5,8.2,15.5l-3.7,44c-0.2,2.6,1.8,4.7,4.4,4.7
				h2.5c2.4,0,4.4-2,4.4-4.4v-42.4v-23.4v-32.2C384.9,206,383.6,204.7,382,204.7z"/>
		</g>
	</g>
	<g>
		<defs>
			<rect id="SVGID_1_" x="35.5" y="124.7" width="407.2" height="287.7"/>
		</defs>
		<clipPath id="SVGID_00000165955434127646259570000008248755053363707065_">
			<use xlink:href="#SVGID_1_"  style="overflow:visible;"/>
		</clipPath>
		<path style="clip-path:url(#SVGID_00000165955434127646259570000008248755053363707065_);fill:#996A49;" d="M186.1,328.7
			l32.2-21.5l25.2,2.7l3,17.1l-13.5,19l-18.1,4.1c0,0-2,4.9-5.7,8.7c-3.7,3.8-8.5,1.8-10.7-0.3c-2.2-2.1,9.9-16.2,9.9-16.2
			s-1,3.2-9,6.6s-12.3-2.4-12.3-2.4l16.8-15.3c0,0-12.6,9.9-19.2,4.1C179.4,330.5,186.1,328.7,186.1,328.7z"/>
		<path style="clip-path:url(#SVGID_00000165955434127646259570000008248755053363707065_);fill:#D19F6B;" d="M199.9,296.3
			c0,0-5.8,3.3-4.1,7.6c1.7,4.2,6.5,4.2,9.7,4.1c3.2-0.1,18.6-5.7,18.6-5.7l9.5-4.5l6.1,12.2c0,0,8.8,12.1,1,24.1
			c-7.8,11.9-4.5,18.8-4.5,18.8l35-16.2l0.2-17.7l-29-36.4c0,0-2.8-5.3-13.9,0.3C217.4,288.5,199.9,296.3,199.9,296.3z"/>
		<g style="clip-path:url(#SVGID_00000165955434127646259570000008248755053363707065_);">
			<path class="st9" d="M171.8,195.7l-23.9,92.9c-1,4,1.4,8.1,5.4,9.2l53.1,13.7c4,1,8.1-1.4,9.2-5.4l23.9-92.9c1-4-1.4-8.1-5.4-9.2
				L181,190.2C176.9,189.2,172.8,191.6,171.8,195.7z"/>
			
				<rect x="141.8" y="227.8" transform="matrix(-0.2493 0.9684 -0.9684 -0.2493 490.4134 123.4622)" class="st5" width="111" height="48.1"/>
			
				<rect x="188" y="234.8" transform="matrix(-0.2493 0.9684 -0.9684 -0.2493 497.0219 88.5619)" class="st10" width="52.4" height="4.3"/>
			
				<rect x="188" y="282.9" transform="matrix(-0.2493 0.9684 -0.9684 -0.2493 528.1317 160.6523)" class="st10" width="27.5" height="4.3"/>
			
				<rect x="175.8" y="231.6" transform="matrix(-0.2493 0.9684 -0.9684 -0.2493 478.7545 96.445)" class="st10" width="52.4" height="4.3"/>
			
				<rect x="174" y="220.4" transform="matrix(-0.2493 0.9684 -0.9684 -0.2493 455.2781 92.2575)" class="st10" width="35.8" height="4.3"/>
			
				<rect x="175.9" y="279.8" transform="matrix(-0.2493 0.9684 -0.9684 -0.2493 509.9711 168.4893)" class="st10" width="27.5" height="4.3"/>
			<g>
				<path class="st11" d="M179.3,193.4c0.2,0.2,0.4,0.3,0.6,0.5c0.4-0.1,0.6-0.1,1-0.1C180.2,193.6,179.8,193.5,179.3,193.4z
					 M183.5,195.2c0,0,0.2-0.7-0.7-0.9c-0.1,0,0.1,0-0.1,0c-0.8-0.1-1.7-0.1-2.5,0c0.5,0.6,0.8,1,1.2,1.7c0.7,1.4,0.9,2.9,0.7,5.1
					L183.5,195.2z"/>
				<path class="st5" d="M181.3,201.9c0.4-2.5,0.1-4.3-0.6-5.7c-0.4-0.8-0.7-1.3-1.3-1.9c-2,0.5-4,1.9-5,4.8l0,0.1
					c0,0-0.3,0.9,0.7,1.1L181.3,201.9C181.3,202,181.3,202,181.3,201.9z M177.8,194.5c0.4-0.2,0.8-0.3,1.2-0.4
					c-0.4-0.4-0.9-0.7-1.4-1.1c-0.9-0.2-1.5-0.4-1.5-0.4L175,197C175.8,195.7,176.7,195,177.8,194.5z"/>
			</g>
		</g>
		<g style="clip-path:url(#SVGID_00000165955434127646259570000008248755053363707065_);">
			<path class="st10" d="M210.8,351.3l-89.5,8.4c-2.8,0.3-5.2-1.8-5.5-4.5l-12.1-129.3c-0.3-2.8,1.8-5.2,4.5-5.5l89.5-8.4
				c2.8-0.3,5.2,1.8,5.5,4.5l12.1,129.3C215.6,348.6,213.6,351,210.8,351.3z"/>
			<g>
				<circle class="st12" cx="159.7" cy="287.3" r="30"/>
				
					<ellipse transform="matrix(0.9957 -9.308127e-02 9.308127e-02 0.9957 -26.0486 16.1137)" class="st12" cx="159.7" cy="287.3" rx="15.8" ry="30"/>
				<line class="st12" x1="156.9" y1="257.5" x2="162.5" y2="317.1"/>
				<line class="st12" x1="189.6" y1="284.5" x2="129.9" y2="290.1"/>
				<line class="st12" x1="185.1" y1="271.3" x2="131.8" y2="276.3"/>
				<line class="st12" x1="187.6" y1="298.3" x2="134.4" y2="303.3"/>
			</g>
			<path class="st5" d="M181.9,241.1l-52.5,4.9c-2.1,0.2-3.9-1.3-4.1-3.4v0c-0.2-2.1,1.3-3.9,3.4-4.1l52.5-4.9
				c2.1-0.2,3.9,1.3,4.1,3.4v0C185.5,239,183.9,240.9,181.9,241.1z"/>
			<g>
				<path class="st5" d="M134,337.1c0.1,1.2-0.2,2.1-0.8,2.8c-0.7,0.7-1.7,1.1-3,1.2l-1,0.1l0.4,3.8l-2.3,0.2l-1-10.8l3.4-0.3
					c1.3-0.1,2.3,0.1,3.1,0.6S133.9,336,134,337.1z M129,339.3l0.8-0.1c0.7-0.1,1.2-0.3,1.5-0.6c0.3-0.3,0.5-0.7,0.4-1.3
					c0-0.5-0.2-0.9-0.5-1.1c-0.3-0.2-0.8-0.3-1.4-0.3l-1,0.1L129,339.3z"/>
				<path class="st5" d="M142.3,343.8l-1-2.5l-3.9,0.4l-0.5,2.6l-2.5,0.2l2.8-11.2l2.8-0.3l4.8,10.4L142.3,343.8z M140.6,339.5
					c-0.9-2.3-1.5-3.5-1.6-3.8s-0.2-0.5-0.3-0.7c-0.1,0.6-0.4,2.2-1,4.8L140.6,339.5z"/>
				<path class="st5" d="M152.7,339.8c0.1,1-0.2,1.8-0.8,2.4c-0.6,0.6-1.6,1-2.8,1.1c-1.1,0.1-2.2,0-3.1-0.4l-0.2-2.1
					c0.8,0.3,1.4,0.4,1.9,0.5c0.5,0.1,1,0.1,1.4,0.1c0.5,0,0.9-0.2,1.1-0.4c0.2-0.2,0.4-0.5,0.3-0.9c0-0.2-0.1-0.4-0.2-0.5
					s-0.3-0.3-0.6-0.4s-0.7-0.3-1.5-0.6c-0.7-0.2-1.2-0.5-1.6-0.8c-0.4-0.3-0.6-0.6-0.9-0.9c-0.2-0.4-0.4-0.8-0.4-1.3
					c-0.1-1,0.2-1.7,0.8-2.3c0.6-0.6,1.5-1,2.6-1.1c0.6-0.1,1.1,0,1.6,0c0.5,0.1,1.1,0.2,1.6,0.4l-0.6,1.8c-0.6-0.2-1.1-0.3-1.5-0.4
					c-0.4-0.1-0.8-0.1-1.1,0c-0.4,0-0.8,0.2-1,0.4c-0.2,0.2-0.3,0.5-0.3,0.8c0,0.2,0.1,0.4,0.2,0.5c0.1,0.1,0.3,0.3,0.5,0.4
					c0.2,0.1,0.7,0.3,1.5,0.6c1.1,0.4,1.8,0.8,2.2,1.3C152.4,338.5,152.7,339.1,152.7,339.8z"/>
				<path class="st5" d="M161.6,339c0.1,1-0.2,1.8-0.8,2.4c-0.6,0.6-1.6,1-2.8,1.1c-1.1,0.1-2.2,0-3.1-0.4l-0.2-2.1
					c0.8,0.3,1.4,0.4,1.9,0.5c0.5,0.1,1,0.1,1.4,0.1c0.5,0,0.9-0.2,1.1-0.4s0.4-0.5,0.3-0.9c0-0.2-0.1-0.4-0.2-0.5
					c-0.1-0.2-0.3-0.3-0.6-0.4c-0.2-0.1-0.7-0.3-1.5-0.6c-0.7-0.2-1.2-0.5-1.6-0.8s-0.6-0.6-0.9-0.9c-0.2-0.4-0.4-0.8-0.4-1.3
					c-0.1-1,0.2-1.7,0.8-2.3s1.5-1,2.6-1.1c0.6-0.1,1.1,0,1.6,0s1.1,0.2,1.6,0.4l-0.6,1.8c-0.6-0.2-1.1-0.3-1.5-0.4
					c-0.4-0.1-0.8-0.1-1.1,0c-0.4,0-0.8,0.2-1,0.4c-0.2,0.2-0.3,0.5-0.3,0.8c0,0.2,0.1,0.4,0.2,0.5c0.1,0.1,0.3,0.3,0.5,0.4
					c0.2,0.1,0.7,0.3,1.5,0.6c1.1,0.4,1.8,0.8,2.2,1.3S161.5,338.3,161.6,339z"/>
				<path class="st5" d="M170.8,333.7c0.1,1.2-0.2,2.1-0.8,2.8c-0.7,0.7-1.7,1.1-3,1.2l-1,0.1l0.4,3.8l-2.3,0.2l-1-10.8l3.4-0.3
					c1.3-0.1,2.3,0.1,3.1,0.6C170.2,331.8,170.7,332.6,170.8,333.7z M165.8,335.9l0.8-0.1c0.7-0.1,1.2-0.3,1.5-0.6
					c0.3-0.3,0.5-0.7,0.4-1.3c0-0.5-0.2-0.9-0.5-1.1c-0.3-0.2-0.8-0.3-1.4-0.3l-1,0.1L165.8,335.9z"/>
				<path class="st5" d="M182.7,334.6c0.2,1.8-0.1,3.2-0.9,4.2c-0.8,1-2,1.6-3.7,1.8c-1.6,0.2-3-0.2-3.9-1.1c-1-0.9-1.5-2.2-1.7-4
					s0.1-3.2,0.9-4.2c0.8-1,2-1.6,3.7-1.8c1.7-0.2,3,0.2,3.9,1.1C181.9,331.5,182.5,332.8,182.7,334.6z M174.8,335.3
					c0.1,1.2,0.4,2.1,0.9,2.7s1.2,0.8,2.1,0.7c1.8-0.2,2.6-1.5,2.4-3.9c-0.2-2.4-1.2-3.6-3.1-3.4c-0.9,0.1-1.6,0.5-2,1.1
					C174.9,333.2,174.7,334.1,174.8,335.3z"/>
				<path class="st5" d="M187,335.5l0.4,4.1l-2.3,0.2l-1-10.8l3.1-0.3c1.5-0.1,2.6,0,3.3,0.5s1.2,1.2,1.3,2.3
					c0.1,0.6-0.1,1.2-0.4,1.7c-0.3,0.5-0.8,1-1.4,1.3c1.8,2.3,3,3.7,3.6,4.4l-2.5,0.2l-3-3.9L187,335.5z M186.8,333.6l0.7-0.1
					c0.7-0.1,1.2-0.2,1.6-0.5c0.3-0.3,0.5-0.7,0.4-1.2c0-0.5-0.3-0.9-0.6-1c-0.4-0.2-0.9-0.2-1.7-0.2l-0.7,0.1L186.8,333.6z"/>
				<path class="st5" d="M199.4,338.5l-2.3,0.2l-0.8-8.9l-2.9,0.3l-0.2-1.9l8.1-0.8l0.2,1.9l-2.9,0.3L199.4,338.5z"/>
			</g>
		</g>
		<g style="clip-path:url(#SVGID_00000165955434127646259570000008248755053363707065_);">
			<path class="st14" d="M194.3,298.1c1-1,2.4-1.8,4.2-2.2c6-1.4,10.8,3.1,14.3,7.4c8,9.7,10.7,24.1,19.6,32.7c0,0,1.8,1.6,3.9,3.3
				l6-9l29-11.2c0,0,4.4,5.3,4,14.9c-0.4,9.6,1.4,43.8,1.4,43.8s-0.9,8.6,7.9,20.7c8.8,12.1,31.5,54,31.5,54l-51.9,0.5l-11.8-30.8
				c0,0-5.6-12.7-9.4-16.9c-3.8-4.2-20.1-18.3-28.3-55.1c-3.7-11.9-16.3-32.1-18.5-34.8C192.5,310.7,190.3,302.3,194.3,298.1z"/>
			<g>
				<path class="st15" d="M206.8,301.6c-0.6-0.6-1.1-1.2-1.8-1.7c0.2,0.2,0.4,0.4,0.5,0.5c3.5,3.9,4.1,9.1,1.4,11.5
					c-2.7,2.4-7.8,1.2-11.3-2.7c-0.1-0.1-0.1-0.1-0.1-0.2c0.3,0.5,0.7,1,1.2,1.5c3.6,4,8.7,5.3,11.5,2.8
					C211,310.9,210.4,305.6,206.8,301.6z"/>
			</g>
		</g>
		<path style="clip-path:url(#SVGID_00000165955434127646259570000008248755053363707065_);fill:#A8BC45;" d="M343.2,453.8
			l-65.9-72.4c0,0-15,28-41.7,16.9c0,0,29.6,101.8,58.8,142.4c4.2,7.3,10.4,13.7,18.2,18.3c23.9,14.1,53.6,6,68.2-17
			C403.2,506.9,343.2,453.8,343.2,453.8z"/>
	</g>
	<g>
		<path class="st17" d="M572.8,312.6c-6.2-7.5-13.4-7.3-21-7.2c-0.4,0-0.8,0-1.2,0c-0.1-1.3-0.1-2.5-0.2-3.8c-0.5-8.3-0.9-14-0.9-14
			c-0.1-1.3-1.2-2.3-2.5-2.3h-88.1c-1.3,0-2.4,1-2.5,2.3c-1.6,19.2-3.4,60.6,0.7,80.3c7.1,33.9,8.8,41.3,17.7,41.3
			c6,0,50.4,0,56.4,0c7.8,0,9.9-6.8,13.5-21.9c0.4-1.4,0.8-2.9,1.2-4.4c12.3-1.2,22.6-8.2,27.6-19.1c2.1-4.5,2.2-6.1,3.4-22
			c0.3-3.5,0.6-7.6,1-12.7C578.3,323.1,576.5,317.1,572.8,312.6z M566.5,329.5c-0.4,4.9-0.7,8.8-1,12.1c-1.1,13.7-1.1,14.2-2.3,16.7
			c-0.7,1.6-1.6,3-2.5,4.2c-0.9,1.2-2,2.2-3.2,3.1c-1.2,0.9-2.6,1.7-4,2.2c-1.5,0.6-3.1,1-4.8,1.3c2.4-14.9,3.1-31.2,2.4-51.6h5.6
			c2.6,0,5,1.1,6.8,3.1C565.7,322.9,566.8,326.2,566.5,329.5z"/>
		<g>
			<path class="st18" d="M477,331.9c3.3,0,6-2.7,6-6V321c0-3.3-2.7-6-6-6h-4.3c-3.3,0-6,2.7-6,6v4.9c0,3.3,2.7,6,6,6H477z"/>
			<path class="st18" d="M475.4,363.4c-5,0-7,2.1-5.9,7.4c3.1,14,3.4,20.8,11,20.8c7,0,5.5-3.4,3.8-20.3
				C483.8,366.6,482.1,363.4,475.4,363.4z"/>
			<path class="st18" d="M490.6,339.6h-4.3c-3.3,0-6,2.7-6,6v4.9c0,3.3,2.7,6,6,6h4.3c3.3,0,6-2.7,6-6v-4.9
				C496.6,342.3,493.9,339.6,490.6,339.6z"/>
			<path class="st18" d="M500.8,331.9h4.3c3.3,0,6-2.7,6-6V321c0-3.3-2.7-6-6-6h-4.3c-3.3,0-6,2.7-6,6v4.9
				C494.9,329.2,497.5,331.9,500.8,331.9z"/>
			<path class="st18" d="M503,363.4c-9.6,0-7.4,6.8-6.5,20.3c0.4,5.7,2.2,7.8,6.6,7.8c7.5,0,6.4-5.8,7.2-20.5
				C510.7,365.7,509.1,363.4,503,363.4z"/>
			<path class="st18" d="M529,331.9h4.3c3.3,0,6-2.7,6-6V321c0-3.3-2.7-6-6-6H529c-3.3,0-6,2.7-6,6v4.9
				C523,329.2,525.7,331.9,529,331.9z"/>
			<path class="st18" d="M462.8,356.4c3.3,0,6-2.7,6-6v-4.9c0-3.3-2.7-6-6-6H459c0.1,6,0.4,11.7,0.9,16.8H462.8z"/>
			<path class="st18" d="M525.1,350.4v-4.9c0-3.3-2.7-6-6-6h-4.3c-3.3,0-6,2.7-6,6v4.9c0,3.3,2.7,6,6,6h4.3
				C522.4,356.4,525.1,353.7,525.1,350.4z"/>
			<path class="st18" d="M537.4,345.6v4.9c0,3.3,2.7,6,6,6h2.7c0.5-5.1,0.7-10.9,0.8-16.8h-3.6C540,339.6,537.4,342.3,537.4,345.6z"
				/>
			<path class="st18" d="M543.3,359.6c-5,0-9.1-4.1-9.1-9.1v-4.9c0-5,4.1-9.1,9.1-9.1h3.6c0.1-9.6-0.2-19.6-0.6-28.6h-86.8
				c-0.4,9-0.7,19-0.6,28.6h3.8c5,0,9.1,4.1,9.1,9.1v4.9c0,5-4.1,9.1-9.1,9.1h-2.6c0.3,2.7,0.7,5.2,1.2,7.5
				c3.1,14.8,5.1,23.8,6.8,29.4c0.4,1.3,1.7,2.3,3.1,2.3h63.5c1.4,0,2.7-0.9,3.1-2.3c1.7-5.6,3.7-14.6,6.8-29.4
				c0.5-2.2,0.9-4.8,1.2-7.5H543.3z M519.8,321c0-5,4.1-9.1,9.1-9.1h4.3c5,0,9.1,4.1,9.1,9.1v4.9c0,5-4.1,9.1-9.1,9.1H529
				c-5,0-9.1-4.1-9.1-9.1V321z M491.7,321c0-5,4.1-9.1,9.1-9.1h4.3c5,0,9.1,4.1,9.1,9.1v4.9c0,5-4.1,9.1-9.1,9.1h-4.3
				c-5,0-9.1-4.1-9.1-9.1V321z M463.6,325.9V321c0-5,4.1-9.1,9.1-9.1h4.3c5,0,9.1,4.1,9.1,9.1v4.9c0,5-4.1,9.1-9.1,9.1h-4.3
				C467.7,335.1,463.6,331,463.6,325.9z M487.1,392.4c-3,3.4-14.9,5.1-17.8-8.2c-3-13.2-4.6-17.3-1.7-21c1.6-2,4.2-3,7.7-3
				c13.2,0,11.9,9.9,13.3,23.4C489,386.7,489.2,390.2,487.1,392.4z M486.3,359.6c-5,0-9.1-4.1-9.1-9.1v-4.9c0-5,4.1-9.1,9.1-9.1h4.3
				c5,0,9.1,4.1,9.1,9.1v4.9c0,5-4.1,9.1-9.1,9.1H486.3z M513.5,371.2c-0.7,13.4,0.6,23.5-10.4,23.5c-11,0-9.7-10.1-10.6-23.5
				c-0.9-13.8,15.1-12.2,18.8-8.2C513.6,365.4,513.7,368.6,513.5,371.2z M505.7,350.4v-4.9c0-5,4.1-9.1,9.1-9.1h4.3
				c5,0,9.1,4.1,9.1,9.1v4.9c0,5-4.1,9.1-9.1,9.1h-4.3C509.8,359.6,505.7,355.5,505.7,350.4z M536.8,384.2
				c-3.1,13.7-15.1,11.2-17.8,8.2c-2.8-3.1-1.7-7.2-0.3-21.4c0.5-4.6,2.2-10.7,12-10.7c3.6,0,6.2,1,7.7,3
				C541.4,367,539.7,371.2,536.8,384.2z"/>
			<path class="st18" d="M530.7,363.4c-6.7,0-8.4,3.1-8.9,7.9c-1.7,16.6-3.3,20.3,3.8,20.3c4.3,0,6.9-2.6,8.1-8.1
				c2.9-12.9,4.1-16,2.3-18.3C535,364,533.3,363.4,530.7,363.4z"/>
		</g>
	</g>
	<g>
		<path class="st19" d="M479.3,409.7C479.3,409.7,479.3,409.7,479.3,409.7l0.1-16.8h-115v17.2c0,0,0,0,0.1,0
			c1.8,2,26.8,3.5,57.4,3.5c31.8,0,57.5-1.7,57.5-3.7C479.3,409.8,479.3,409.8,479.3,409.7z"/>
		<ellipse class="st20" cx="421.8" cy="393.1" rx="57.5" ry="3.7"/>
		<path class="st21" d="M474.2,394H370.6c-2.5,0-4.5-2-4.5-4.5v-11.9c0-2.5,2-4.5,4.5-4.5h103.6c2.5,0,4.5,2,4.5,4.5v11.9
			C478.7,392,476.7,394,474.2,394z"/>
		<path class="st18" d="M364.3,377.1c-0.1,2.2,2.8,2.5,4.6,2.8c2.9,0.4,5.6-0.6,8.2,0.3c1.7,0.6,4.1,2.2,5.9,2.2
			c3.6,0,4.9-1.4,8.4-1.3c2.7,0.1,6.3,3,10.4,2.9c3.6-0.1,7.6-1.1,9.7-4.2c1.5-2.3-3.5-4.9-7.8-4.9c-4.2-0.1-5,1-6.8,0.3
			c-1.7-0.7-4.6-2.2-8.2-2.2c-4.2,0-7.2,1.5-9,1.6c-1.8,0.1-3.5-1-6.6-1.1C370.2,373.3,364.5,374.1,364.3,377.1z"/>
		<path class="st22" d="M475.6,368.5H368.9c-1.4,0-2.5-1.1-2.5-2.5v-0.5c0-1.4,1.1-2.5,2.5-2.5h106.7c1.4,0,2.5,1.1,2.5,2.5v0.5
			C478,367.4,476.9,368.5,475.6,368.5z"/>
		<path class="st19" d="M482.5,361.8c-1.1-19.4-28.1-34.9-61.1-34.9c-33.1,0-60,15.5-61.1,34.9h0c0,0,0,0.1,0,0.1
			c0,1.6,27.4,2.8,61.1,2.8S482.5,363.5,482.5,361.8C482.5,361.9,482.4,361.9,482.5,361.8L482.5,361.8z"/>
		<polygon class="st23" points="368,372.4 368,374 424,389.2 476.5,374 476.5,372.4 		"/>
		<polygon class="st23" points="426.9,374.2 426.9,375.1 453.1,384 477.8,375.1 477.8,374.2 		"/>
		<path class="st9" d="M362.1,372.5c-0.2,2.1,3.5,2.2,5.8,2.2c3.7,0.1,7.1-1.1,10.5-0.6c2.2,0.4,5.1,1.7,7.5,1.5
			c4.6-0.3,6.3-1.9,10.8-2.1c3.4-0.2,8,2.3,13.3,1.8c4.7-0.4,9.8-1.8,12.5-5c2-2.4-4.4-4.3-9.8-4c-5.4,0.4-6.5,1.5-8.7,0.9
			c-2.2-0.5-5.8-1.6-10.4-1.3c-5.4,0.4-9.3,2.2-11.6,2.4s-4.4-0.6-8.4-0.4C369.8,368.2,362.5,369.6,362.1,372.5z"/>
		<path class="st9" d="M403.4,372.2c-0.2,2.2,3.5,2.3,5.9,2.4c3.7,0.1,7.1-1.1,10.5-0.5c2.2,0.4,5.2,1.8,7.6,1.6
			c4.6-0.3,6.3-1.9,10.8-2.1c3.5-0.1,8.1,2.5,13.3,2c4.7-0.4,9.8-1.8,12.5-5.2c2-2.5-4.5-4.6-9.9-4.3s-6.5,1.5-8.7,0.9
			c-2.2-0.6-5.8-1.8-10.4-1.4c-5.4,0.4-9.3,2.2-11.6,2.4c-2.3,0.2-4.4-0.7-8.4-0.5C411,367.7,403.7,369.1,403.4,372.2z"/>
		<path class="st9" d="M420.7,370.9c-0.5,1.8,3.3,2,5.6,2.2c3.7,0.2,7.2-0.6,10.5,0.1c2.2,0.4,4.9,1.7,7.4,1.7
			c4.6-0.1,6.5-1.3,11-1.2c3.5,0,7.8,2.3,13.1,2.2c4.7-0.1,9.9-1,13-3.7c2.3-1.9-3.9-3.9-9.3-3.9c-5.4,0-6.6,0.9-8.8,0.4
			c-2.1-0.6-5.6-1.7-10.2-1.6c-5.4,0.1-9.5,1.4-11.8,1.5s-4.3-0.8-8.3-0.8C428.8,367.7,421.3,368.5,420.7,370.9z"/>
		<path class="st9" d="M376.3,373c-0.1,2.2,2.8,2.5,4.6,2.8c2.9,0.4,5.6-0.6,8.2,0.3c1.7,0.6,4.1,2.2,5.9,2.2c3.6,0,4.9-1.4,8.4-1.3
			c2.7,0.1,6.3,3,10.4,2.9c3.6-0.1,7.6-1.1,9.7-4.2c1.5-2.3-3.5-4.9-7.8-4.9c-4.2-0.1-5,1-6.8,0.3c-1.7-0.7-4.6-2.2-8.2-2.2
			c-4.2,0-7.2,1.5-9,1.6c-1.8,0.1-3.5-1-6.6-1.1C382.2,369.2,376.5,370,376.3,373z"/>
	</g>
</g>
<path class="st3" d="M589.6,409.6H9.9c-3.3,0-6,2.7-6,6l0,0c0,3.3,2.7,6,6,6h579.7c3.3,0,6-2.7,6-6l0,0
	C595.6,412.3,592.9,409.6,589.6,409.6z"/>
</svg>
