<?xml version="1.0" encoding="utf-8"?>
<!-- Generator: Adobe Illustrator 26.4.0, SVG Export Plug-In . SVG Version: 6.00 Build 0)  -->
<svg version="1.1" id="Layer_1" xmlns="http://www.w3.org/2000/svg" xmlns:xlink="http://www.w3.org/1999/xlink" x="0px" y="0px"
	 viewBox="0 0 600 425.5" style="enable-background:new 0 0 600 425.5;" xml:space="preserve">
<style type="text/css">
	.st0{fill:#E4E8EA;}
	.st1{fill:#E4E8EA;stroke:#1D1D1B;stroke-width:0.6594;stroke-miterlimit:10;}
	.st2{fill:#E4E8EA;stroke:#1D1D1B;stroke-width:0.4707;stroke-miterlimit:10;}
	.st3{fill:#F5F5F6;}
	.st4{fill:#507690;}
	.st5{fill:#9BB1BF;}
	.st6{fill:#FFFFFF;}
	.st7{clip-path:url(#SVGID_00000007392366797852433410000015432297056923348631_);fill:#996A49;}
	.st8{clip-path:url(#SVGID_00000007392366797852433410000015432297056923348631_);fill:#D19F6B;}
	.st9{clip-path:url(#SVGID_00000007392366797852433410000015432297056923348631_);}
	.st10{fill:#A8BC45;}
	.st11{fill:#233E57;}
	.st12{opacity:0.7;fill:#FFFFFF;}
	.st13{fill:none;stroke:#A8BC45;stroke-width:3.7663;stroke-miterlimit:10;}
	.st14{fill:none;stroke:#000000;stroke-width:3.7483;stroke-miterlimit:10;}
	.st15{fill:#D19F6B;}
	.st16{fill:#996A49;}
	.st17{clip-path:url(#SVGID_00000007392366797852433410000015432297056923348631_);fill:#A8BC45;}
	.st18{opacity:0.8;fill:#ACD9EA;}
	.st19{fill:#F1933E;}
	.st20{fill:#CB8D50;}
	.st21{fill:#B05B29;}
	.st22{fill:#553119;}
	.st23{fill:#CE0B24;}
	.st24{fill:#FAC82E;}
	.st25{fill:#D3D8DD;}
	.st26{fill:#3D6092;}
	.st27{fill:#6390B5;}
	.st28{fill:#00A3A6;}
	.st29{fill:#99B1BC;}
	.st30{fill:none;}
	.st31{fill-rule:evenodd;clip-rule:evenodd;fill:#3D6092;}
	.st32{fill:#A6BFD5;}
	.st33{fill:#707071;}
	.st34{fill:#5EA77D;}
	.st35{fill:#198145;}
	.st36{fill:#E9ECEE;}
	.st37{fill:#657889;}
	.st38{fill:#7890B3;}
	.st39{fill:#043C55;}
	.st40{fill:#B2BFD3;}
	.st41{fill:#ADECE2;}
	.st42{opacity:0.7;fill:#99B1BC;}
	.st43{fill:#BBBBBD;}
	.st44{fill:#1D8B7B;}
	.st45{fill:#31CFB6;}
	.st46{fill:#E2E2E3;}
	.st47{fill:#886F5E;}
	.st48{fill:none;stroke:#99B1BC;stroke-width:6;stroke-linecap:round;stroke-linejoin:round;stroke-miterlimit:10;}
	.st49{fill:#30A1CA;}
	.st50{fill:#BBADA3;}
	.st51{clip-path:url(#SVGID_00000019663294918632908760000002788248934543735193_);}
	.st52{fill-rule:evenodd;clip-rule:evenodd;fill:#BBADA3;}
	.st53{clip-path:url(#SVGID_00000019663294918632908760000002788248934543735193_);fill:#1D8B7B;}
	.st54{fill:#353538;}
	.st55{fill:none;stroke:#353538;stroke-width:14.48;stroke-miterlimit:10;}
	.st56{fill:#EBEFF4;}
	.st57{fill:#A7B2BC;}
	.st58{fill:#F0BFA1;}
	.st59{fill:#F4D3BD;}
	.st60{fill:#DBB084;}
	.st61{fill:#222222;}
	.st62{fill:#864C2F;}
	.st63{clip-path:url(#SVGID_00000099640952706047790550000006136955906184046495_);fill:#CB8D50;}
	.st64{fill-rule:evenodd;clip-rule:evenodd;fill:#F4D3BD;}
	.st65{clip-path:url(#SVGID_00000047052588064416725690000007558371567606626694_);fill:#CB8D50;}
	.st66{fill:#EFEFEF;}
	.st67{fill:#D2DEDE;}
	.st68{fill:#BAD4DB;}
	.st69{fill:url(#SVGID_00000061430022885401614780000013989257550778058658_);}
	.st70{fill:#B1D2DE;}
	.st71{opacity:0.2;fill:#E2E2E3;}
	.st72{opacity:0.2;fill:#BBBBBD;}
	.st73{fill:#FBD86D;}
	.st74{fill:#FDE9AB;}
	.st75{fill:#D6ECF4;}
	.st76{fill:#BAC96A;}
	.st77{fill:none;stroke:#C2D07D;stroke-width:2.1053;stroke-linecap:round;stroke-miterlimit:10;}
	.st78{fill:#FCDE81;}
	.st79{fill:url(#SVGID_00000118365166244422089030000011646599610609866654_);}
	.st80{fill:#1D1D1B;}
	.st81{fill:none;stroke:#1D8B7B;stroke-width:4.2858;stroke-linecap:round;stroke-miterlimit:10;}
	.st82{fill:#BFC028;}
	.st83{fill:#83C6DF;}
	.st84{fill:none;stroke:#1D1D1B;stroke-width:1.5288;stroke-linecap:round;stroke-linejoin:round;stroke-miterlimit:10;}
	.st85{fill:#1899C5;}
	.st86{fill:#6FBDDA;}
	.st87{fill:#6FBDDA;stroke:#30A1CA;stroke-width:1.0192;stroke-linecap:round;stroke-linejoin:round;stroke-miterlimit:10;}
	.st88{fill:#998375;}
	.st89{fill:#AA988C;}
	.st90{fill:#BBBABC;}
	.st91{fill:#CECECF;}
	.st92{fill-rule:evenodd;clip-rule:evenodd;fill:#AA988C;}
	.st93{fill:#C2D07D;}
	.st94{clip-path:url(#SVGID_00000054981897435987496470000015468217093538551206_);fill:#507690;}
	.st95{fill:url(#SVGID_00000042010657137958496620000007129606526174071463_);}
	.st96{fill:#053C60;}
	.st97{fill:#02292A;}
	.st98{fill:#EDF8F8;}
	.st99{fill:#231717;}
	.st100{fill:#DAF0F1;}
	.st101{opacity:0.4;fill:url(#SVGID_00000038377466475028997670000015384474687095333567_);}
	.st102{fill:#D1EDED;}
	.st103{fill:#075253;}
	.st104{clip-path:url(#SVGID_00000155143361213337494340000006841440980089934495_);}
	.st105{clip-path:url(#SVGID_00000155143361213337494340000006841440980089934495_);fill:#DAF0F1;}
	
		.st106{opacity:0.4;clip-path:url(#SVGID_00000155143361213337494340000006841440980089934495_);fill:url(#SVGID_00000159439241323922990180000004553335170080079744_);}
	.st107{clip-path:url(#SVGID_00000155143361213337494340000006841440980089934495_);fill:#075253;}
	.st108{clip-path:url(#SVGID_00000155143361213337494340000006841440980089934495_);fill:#F1933E;}
	.st109{clip-path:url(#SVGID_00000150061821367448337390000005789562600447609252_);}
	.st110{clip-path:url(#SVGID_00000147183199092307575710000015526202386563649951_);fill:#DAF0F1;}
	.st111{fill:#107A7C;}
	.st112{fill:#414042;}
	.st113{fill:#666666;}
	.st114{clip-path:url(#SVGID_00000130647300075482157660000013974776419827905945_);fill:#507690;}
	.st115{fill:url(#SVGID_00000039096843663874646810000014528426963123517586_);}
	.st116{opacity:0.4;fill:url(#SVGID_00000096742302118722277000000016940594723605818278_);}
	.st117{clip-path:url(#SVGID_00000098196682478450427470000018130202357468597172_);}
	.st118{clip-path:url(#SVGID_00000098196682478450427470000018130202357468597172_);fill:#DAF0F1;}
	
		.st119{opacity:0.4;clip-path:url(#SVGID_00000098196682478450427470000018130202357468597172_);fill:url(#SVGID_00000101804122135100487210000007628668937248026002_);}
	.st120{clip-path:url(#SVGID_00000098196682478450427470000018130202357468597172_);fill:#075253;}
	.st121{clip-path:url(#SVGID_00000098196682478450427470000018130202357468597172_);fill:#F1933E;}
	.st122{clip-path:url(#SVGID_00000057107354744283928660000000291250547205614483_);}
	.st123{clip-path:url(#SVGID_00000079469092508197523010000015297564844920764598_);fill:#DAF0F1;}
	.st124{clip-path:url(#SVGID_00000001646252766466639580000016358176320891764926_);fill:#996A49;}
	.st125{clip-path:url(#SVGID_00000001646252766466639580000016358176320891764926_);fill:#D19F6B;}
	.st126{clip-path:url(#SVGID_00000001646252766466639580000016358176320891764926_);}
	.st127{clip-path:url(#SVGID_00000001646252766466639580000016358176320891764926_);fill:#A8BC45;}
</style>
<path class="st4" d="M589.6,409.6H9.9c-3.3,0-6,2.7-6,6l0,0c0,3.3,2.7,6,6,6h579.7c3.3,0,6-2.7,6-6l0,0
	C595.6,412.3,592.9,409.6,589.6,409.6z"/>
<g>
	<path class="st0" d="M87.4,194.9l26.1,169.9c2.1,13.6,14.7,23.6,29.5,23.6h280.2c14.8,0,27.4-10.1,29.5-23.6l26.1-169.9H87.4z
		 M137.6,282.5c-4.6-2.5-7.1-7-7.1-11.6c0-2.3,0.7-4.7,2-6.9l14.9-23.2c4.1-6.4,13.1-8.5,20-4.7c4.6,2.5,7.1,7,7.1,11.6
		c0,2.3-0.7,4.7-2,6.9l-14.9,23.2C153.5,284.2,144.5,286.3,137.6,282.5z M173.6,351.6c-2.4,0-4.8-0.6-7-1.8
		c-6.6-3.6-8.8-11.4-4.9-17.5l59.9-94.2c2.6-4.1,7.2-6.3,12-6.3c2.4,0,4.8,0.6,7,1.8c6.6,3.6,8.8,11.4,4.9,17.5l-59.9,94.2
		C183,349.3,178.4,351.6,173.6,351.6z M252.4,351.6c-2.4,0-4.8-0.6-7-1.8c-6.6-3.6-8.8-11.4-4.9-17.5l59.9-94.2
		c2.6-4.1,7.2-6.3,11.9-6.3c2.4,0,4.8,0.6,7,1.8c6.6,3.6,8.8,11.4,4.9,17.5l-59.9,94.2C261.8,349.3,257.1,351.6,252.4,351.6z
		 M331.2,351.6c-2.4,0-4.8-0.6-7-1.8c-6.6-3.6-8.8-11.4-4.9-17.5l59.9-94.2c2.6-4.1,7.2-6.3,11.9-6.3c2.4,0,4.8,0.6,7,1.8
		c6.6,3.6,8.8,11.4,4.9,17.5l-59.9,94.2C340.6,349.3,335.9,351.6,331.2,351.6z M432.2,321.8L417.3,345c-4.1,6.4-13.1,8.5-20,4.7
		c-4.6-2.5-7.1-7-7.1-11.6c0-2.3,0.7-4.7,2-6.9l14.9-23.2c4.1-6.4,13-8.5,20-4.7c4.6,2.5,7.2,7,7.2,11.6
		C434.2,317.2,433.6,319.6,432.2,321.8z"/>
	<path class="st0" d="M86.2,128.8h392.2c4.3,0,7.8,3.5,7.8,7.8v50.4c0,4.3-3.5,7.8-7.8,7.8H86.2c-4.3,0-7.8-3.5-7.8-7.8v-50.4
		C78.3,132.4,81.8,128.8,86.2,128.8z"/>
	<g>
		<g>
			<path class="st0" d="M418.8,199.8l-22.5-18.8c-2.9-2.4-3.3-6.7-0.8-9.6L499.3,47.6c2.4-2.9,6.7-3.3,9.6-0.8l22.5,18.8
				c2.9,2.4,3.3,6.7,0.8,9.6L428.4,198.9C426,201.8,421.7,202.2,418.8,199.8z"/>
			<circle class="st0" cx="359.5" cy="175" r="10"/>
		</g>
		<g>
			<path class="st0" d="M139.6,199.8l22.5-18.8c2.9-2.4,3.3-6.7,0.8-9.6L59.2,47.6c-2.4-2.9-6.7-3.3-9.6-0.8L27.1,65.6
				c-2.9,2.4-3.3,6.7-0.8,9.6L130,198.9C132.5,201.8,136.8,202.2,139.6,199.8z"/>
			<circle class="st3" cx="123.2" cy="160.6" r="10"/>
		</g>
	</g>
</g>
<g>
	<path class="st11" d="M244.7,257.9c-4.3-1.3-9.4-2.1-15.6-2.1c-0.1,0-0.2,0-0.3,0c-6,0-11.1,0.8-15.3,2.1
		c-21.6,6.5-21.4,26.4-21.4,26.4v122.6c0,2,1.6,3.6,3.6,3.6h33h0.3h33.3c2,0,3.6-1.6,3.6-3.6V284.3
		C266.1,284.3,266.3,264.4,244.7,257.9z"/>
	<path class="st66" d="M248.9,301H229h-19.5c-1.1,0-2,1-2,2.3v78.5c0,1.3,0.9,2.3,2,2.3H229h19.9c1.1,0,2-1,2-2.3v-78.5
		C250.9,302.1,250,301,248.9,301z"/>
	<path class="st6" d="M250.5,268.2h-42.6c-8.7,6.2-8.8,15.6-8.8,16.1v119.5h60.2V284.3C259.3,283.8,259.2,274.4,250.5,268.2z"/>
	<g>
		<path class="st11" d="M235.2,232.8c-0.2,0-0.4,0-0.6,0h-5.7h-5.2c-0.4,0-0.7,0-1.1,0.1c-5.1,0.6-9,5.6-9,11.6v12.4
			c0,0.3,0,0.7,0,1c4.2-1.3,9.3-2.1,15.3-2.1c0.1,0,0.2,0,0.3,0c6.2,0,11.3,0.8,15.6,2.1c0-0.3,0-0.7,0-1v-12.4
			C244.8,238.2,240.6,233.1,235.2,232.8z"/>
		<path class="st11" d="M228.9,220.9c-1.2-0.3-2.3-0.7-3.3-1.1c-1-0.3-2-0.7-3-1v13.9c0.4,0,0.7-0.1,1.1-0.1h5.2h5.7
			c0.2,0,0.4,0,0.6,0v-10.5C232.8,221.9,230.7,221.5,228.9,220.9z"/>
	</g>
	<path class="st34" d="M228.9,220.9c1.8,0.5,3.8,1,6.3,1.3c1.5,0.2,3.2,0.3,5.1,0.3c0.3,0,0.7,0,1,0l-0.1-6.7
		c-5.7,0.1-9.1-0.8-12.3-1.8c-0.6-0.2-1.1-0.4-1.7-0.6c-2-0.7-4.1-1.4-6.6-1.9c-7.6-1.4-17.6,4.4-18,4.6l2.6,6
		c2.4-1.4,9.7-4.9,14.5-4c1,0.2,1.9,0.4,2.9,0.7c1,0.3,2,0.6,3,1C226.7,220.2,227.7,220.6,228.9,220.9z"/>
	<path class="st11" d="M248.9,301H229h-19.5c-1.1,0-2,1-2,2.3v78.5c0,1.3,0.9,2.3,2,2.3H229h19.9c1.1,0,2-1,2-2.3v-78.5
		C250.9,302.1,250,301,248.9,301z"/>
	<g>
		<rect x="224.3" y="325.6" class="st34" width="9.8" height="34"/>
		
			<rect x="224.3" y="325.6" transform="matrix(-1.836970e-16 1 -1 -1.836970e-16 571.8043 113.4322)" class="st34" width="9.8" height="34"/>
	</g>
</g>
<g>
	<ellipse class="st6" cx="174.6" cy="359.4" rx="15.9" ry="52.2"/>
	<ellipse class="st67" cx="87.1" cy="359.4" rx="15.9" ry="52.2"/>
	<g>
		<path class="st68" d="M174.6,307.1L174.6,307.1C174.6,307.1,174.6,307.1,174.6,307.1L174.6,307.1z"/>
		
			<linearGradient id="SVGID_00000000214708118291255180000008353271083429109673_" gradientUnits="userSpaceOnUse" x1="2949.3013" y1="-564.8333" x2="3053.7856" y2="-564.8333" gradientTransform="matrix(4.489700e-11 -1 -1 -4.489700e-11 -445.6039 3360.8987)">
			<stop  offset="0.328" style="stop-color:#BAD4DB"/>
			<stop  offset="0.5699" style="stop-color:#A4C3CD"/>
		</linearGradient>
		<path style="fill:url(#SVGID_00000000214708118291255180000008353271083429109673_);" d="M174.6,411.6
			C174.6,411.6,174.6,411.6,174.6,411.6c-8.8,0-16-23.4-16-52.2c0-28.9,7.1-52.2,15.9-52.2H79.8v51.1H63.9c0,0.4,0,0.8,0,1.1
			c0,28.9,7.1,52.2,15.9,52.2v0L174.6,411.6L174.6,411.6z"/>
	</g>
	<path class="st70" d="M174.6,415.2L174.6,415.2C174.6,415.2,174.6,415.2,174.6,415.2L174.6,415.2z"/>
	<ellipse class="st11" cx="175.7" cy="359.4" rx="6.3" ry="21"/>
	<path class="st6" d="M151.3,353.5c6.1-7.7,9.5-23.7,9.5-23.7l0,0c3.1-13.8,8.1-22.6,13.7-22.6H80.9v0c0,0,0,0,0,0
		c-5.9,0-11.1,9.9-14.2,24.8c-1.2,4.4-4.3,15.7-9,21.6c-5.6,7-12.1,9.8-12.1,9.8h18.2H98h41.2C139.2,363.3,145.7,360.5,151.3,353.5z
		"/>
</g>
<g>
	<path class="st6" d="M552.6,411.6l-125.8-1c-4.6,0-8.3-3.9-8.1-8.5l1.3-38.8c0.1-2.5,0.1-5,0.1-7.5l-0.8-39.3c-0.1-2.5,0-5,0-7.5
		l1.4-43.3c0.1-2.8,0.1-5.5,0-8.3l-0.8-31.1c-0.1-2,1.6-3.6,3.6-3.5l24,0.7c3.4,0.2,6.8,0.2,10.2,0.1l26.1-0.1
		c3.4-0.1,14.2-0.2,17.5,0l22.4,0.1c3.8,0.2,7.7,0.2,11.5,0.1l24.5,0.2c1.4,0,2.6,1.1,2.6,2.6l-1.4,33.7c-0.1,1.6-0.1,3.3-0.1,4.9
		l0.8,53.4l-1.6,48.1c-0.1,1.6-0.1,3.2,0,4.9l0.7,31.8C561,407.8,557.3,411.6,552.6,411.6z"/>
	<path class="st71" d="M554.1,226.5l-125.8-1c-4.6,0-8.3-0.2-8.2-0.3l1-1.1c0.1-0.1,0.1-0.1,0-0.2l-1.1-1.1c-0.1-0.1-0.1-0.1,0-0.2
		l1.1-1.2c0.1-0.1,0.1-0.2,0-0.2l-0.9-0.7c-0.2-0.1,3.8-0.2,8.5-0.2l18.9,0.2c3.4,0,6.8,0.1,10.2,0.1l33.6,0.2
		c3.4,0,6.7,0.1,10.1,0.1l22.4,0.2c3.8,0,7.7,0.1,11.5,0.1l18.3,0.1c4.8,0,8.7,0.2,8.5,0.3l-0.9,0.8c-0.1,0-0.1,0.1,0,0.1l1.2,1.5
		l-1.2,1.3c0,0,0,0.1,0,0.1l1,0.9C562.4,226.5,558.7,226.5,554.1,226.5z"/>
	<path class="st72" d="M554.1,222.2l-125.8-1c-4.6,0-8.3-0.2-8.2-0.3l1-1.1c0.1-0.1,0.1-0.1,0-0.2l-1.1-1.1c-0.1-0.1-0.1-0.1,0-0.2
		l1.1-1.2c0.1-0.1,0.1-0.2,0-0.2l-0.9-0.7c-0.2-0.1,3.8-0.2,8.5-0.2l18.9,0.2c3.4,0,6.8,0.1,10.2,0.1l33.6,0.2
		c3.4,0,6.7,0.1,10.1,0.1l22.4,0.2c3.8,0,7.7,0.1,11.5,0.1l18.3,0.1c4.8,0,8.7,0.2,8.5,0.3l-0.9,0.8c-0.1,0-0.1,0.1,0,0.1l1.2,1.5
		l-1.2,1.3c0,0,0,0.1,0,0.1l1,0.9C562.5,222.2,558.8,222.3,554.1,222.2z"/>
	<path class="st6" d="M554.1,219.2l-125.8-1c-4.6,0-8.3-0.2-8.2-0.3l1-1.1c0.1-0.1,0.1-0.1,0-0.2l-1.1-1.1c-0.1-0.1-0.1-0.1,0-0.2
		l1.1-1.2c0.1-0.1,0.1-0.2,0-0.2l-0.9-0.7c-0.2-0.1,3.8-0.2,8.5-0.2l18.9,0.2c3.4,0,6.8,0.1,10.2,0.1l33.6,0.2
		c3.4,0,6.7,0.1,10.1,0.1l22.4,0.2c3.8,0,7.7,0.1,11.5,0.1l18.3,0.1c4.8,0,8.7,0.2,8.5,0.3l-0.9,0.8c-0.1,0-0.1,0.1,0,0.1l1.2,1.5
		l-1.2,1.3c0,0,0,0.1,0,0.1l1,0.9C562.5,219.1,558.8,219.2,554.1,219.2z"/>
	<g>
		<path class="st73" d="M540.5,356.1c0.6-0.1,1.1,0.3,1.2,0.9c0.7,6.5-2,12.2-7.3,15.6c-6.8,4.5-16.8,4.5-23.8,0
			c-5.5-3.5-8.3-9.2-7.8-15.8c0.1-0.6,0.6-1,1.2-0.9l10.3,1.4c0.5,0.1,0.9,0.5,0.9,1c0,1.7,0.6,2.8,2.1,3.7
			c2.8,1.8,7.7,1.8,10.4,0.1c1.3-0.8,1.9-1.9,1.8-3.5c0-0.5,0.4-1,0.9-1.1L540.5,356.1z"/>
	</g>
	<g>
		<path class="st73" d="M517.2,388.1c-0.6-0.2-0.9-0.8-0.6-1.3c2.4-6.1,7.3-9.9,13.7-10.6c8.1-0.9,17,3.7,21.2,10.8
			c3.3,5.7,3.2,12-0.3,17.6c-0.3,0.5-1,0.6-1.5,0.3l-8.5-6c-0.4-0.3-0.6-0.9-0.3-1.3c0.8-1.5,0.7-2.8-0.1-4.3
			c-1.7-2.9-6-5.1-9.2-4.8c-1.5,0.2-2.5,0.9-3.2,2.3c-0.2,0.5-0.8,0.7-1.3,0.6L517.2,388.1z"/>
	</g>
	<g>
		<path class="st73" d="M523.5,397.2c0.5,0.2,0.8,0.8,0.6,1.4c-2.5,6-7.6,9.7-13.9,10.2c-8.1,0.6-16.9-4.2-20.9-11.4
			c-3.2-5.8-2.9-12.1,0.8-17.6c0.3-0.5,1-0.6,1.5-0.2l8.3,6.2c0.4,0.3,0.5,0.9,0.3,1.3c-0.8,1.4-0.8,2.8,0,4.3
			c1.6,2.9,5.8,5.3,9.1,5c1.5-0.1,2.5-0.8,3.3-2.2c0.2-0.5,0.8-0.7,1.3-0.5L523.5,397.2z"/>
	</g>
	<g>
		<path class="st73" d="M529.9,383.3c-0.1,0.6-0.6,1-1.2,0.9c-6.4-1.2-11.1-5.4-12.9-11.5c-2.3-7.8,0.5-17.4,6.7-22.8
			c5-4.3,11.2-5.4,17.4-3c0.5,0.2,0.8,0.9,0.5,1.4l-4.3,9.5c-0.2,0.5-0.8,0.7-1.3,0.6c-1.6-0.5-2.9-0.2-4.2,0.9
			c-2.5,2.2-3.9,6.8-3,9.9c0.4,1.5,1.3,2.3,2.8,2.7c0.5,0.1,0.8,0.6,0.8,1.1L529.9,383.3z"/>
	</g>
	<g>
		<path class="st73" d="M449.3,361.9c0.1,0.6-0.2,1.1-0.8,1.3c-6.4,1.1-12.3-1.1-16.1-6.2c-4.9-6.5-5.7-16.5-1.8-23.8
			c3.1-5.8,8.6-9,15.2-8.9c0.6,0,1,0.5,1,1.1l-0.7,10.4c0,0.5-0.5,0.9-1,1c-1.7,0.1-2.8,0.8-3.6,2.3c-1.6,2.9-1.2,7.8,0.7,10.3
			c0.9,1.2,2,1.7,3.6,1.5c0.5-0.1,1,0.3,1.1,0.8L449.3,361.9z"/>
	</g>
	<g>
		<path class="st73" d="M536.6,313c-0.1,0.6,0.2,1.2,0.8,1.3c6.4,1.2,12.3-0.9,16.2-5.9c5-6.4,5.9-16.4,2.2-23.7
			c-3-5.8-8.5-9.1-15-9.1c-0.6,0-1,0.5-1,1.1l0.5,10.4c0,0.5,0.4,0.9,1,1c1.7,0.1,2.7,0.9,3.5,2.4c1.5,3,1.1,7.8-0.9,10.3
			c-1,1.2-2.1,1.7-3.6,1.5c-0.5-0.1-1,0.3-1.1,0.8L536.6,313z"/>
	</g>
	<g>
		<path class="st73" d="M536.1,371.4c-0.1,0.6,0.2,1.2,0.8,1.3c6.4,1.2,12.3-0.9,16.2-5.9c5-6.4,5.9-16.4,2.2-23.7
			c-3-5.8-8.5-9.1-15-9.1c-0.6,0-1,0.5-1,1.1l0.5,10.4c0,0.5,0.4,0.9,1,1c1.7,0.1,2.7,0.9,3.5,2.4c1.5,3,1.1,7.8-0.9,10.3
			c-1,1.2-2.1,1.7-3.6,1.5c-0.5-0.1-1,0.3-1.1,0.8L536.1,371.4z"/>
	</g>
	<g>
		<path class="st73" d="M448,316.3c0.1,0.6-0.2,1.1-0.8,1.3c-6.4,1.1-12.3-1.1-16.1-6.2c-4.9-6.5-5.7-16.5-1.8-23.8
			c3.1-5.8,8.6-9,15.2-8.9c0.6,0,1,0.5,1,1.1l-0.7,10.4c0,0.5-0.5,0.9-1,1c-1.7,0.1-2.8,0.8-3.6,2.3c-1.6,2.9-1.2,7.8,0.7,10.3
			c0.9,1.2,2,1.7,3.6,1.5c0.5-0.1,1,0.3,1.1,0.8L448,316.3z"/>
	</g>
	<g>
		<path class="st73" d="M517.6,391.3c0.3,0.5,0.1,1.2-0.4,1.4c-5.7,3.1-12,2.9-17.3-0.7c-6.7-4.6-10.6-13.8-9.3-21.9
			c1.1-6.5,5.3-11.3,11.6-13.3c0.6-0.2,1.1,0.2,1.3,0.7l2.7,10.1c0.1,0.5-0.1,1-0.6,1.2c-1.5,0.6-2.3,1.7-2.6,3.4
			c-0.6,3.3,1.3,7.8,4,9.6c1.3,0.9,2.5,1,3.9,0.3c0.5-0.2,1-0.1,1.3,0.4L517.6,391.3z"/>
	</g>
	<g>
		<path class="st73" d="M505.1,345.9c0.6,0.1,1,0.6,0.9,1.2c-1.2,6.4-5.4,11.1-11.5,12.9c-7.8,2.3-17.4-0.6-22.8-6.8
			c-4.3-5-5.3-11.2-2.9-17.4c0.2-0.5,0.9-0.8,1.4-0.5l9.4,4.3c0.5,0.2,0.7,0.8,0.5,1.3c-0.5,1.6-0.2,2.9,0.9,4.2
			c2.2,2.5,6.8,3.9,9.9,3c1.5-0.4,2.3-1.3,2.7-2.8c0.1-0.5,0.6-0.8,1.1-0.8L505.1,345.9z"/>
	</g>
	<g>
		<path class="st73" d="M468.4,404.8c-0.2,0.5,0.1,1.2,0.6,1.4c6.2,2.1,12.3,0.8,16.9-3.6c5.9-5.6,8.2-15.4,5.5-23.2
			c-2.2-6.2-7.1-10.2-13.6-11.2c-0.6-0.1-1.1,0.4-1.2,0.9l-0.9,10.4c0,0.5,0.3,1,0.8,1.1c1.6,0.4,2.6,1.2,3.2,2.9
			c1.1,3.2,0,7.9-2.3,10.1c-1.1,1.1-2.3,1.4-3.8,1c-0.5-0.1-1,0.1-1.2,0.6L468.4,404.8z"/>
	</g>
	<g>
		<path class="st73" d="M423.8,372.7c-0.6-0.1-1-0.7-0.8-1.2c1.5-6.3,5.9-10.8,12.1-12.3c7.9-1.9,17.4,1.4,22.5,7.9
			c4.1,5.2,4.8,11.5,2.1,17.5c-0.2,0.5-0.9,0.7-1.4,0.5l-9.2-4.8c-0.5-0.2-0.7-0.8-0.5-1.3c0.6-1.6,0.3-2.9-0.7-4.2
			c-2.1-2.6-6.6-4.3-9.8-3.5c-1.5,0.4-2.4,1.2-2.9,2.7c-0.2,0.5-0.7,0.8-1.2,0.7L423.8,372.7z"/>
	</g>
	<g>
		<path class="st73" d="M474.1,377.5c0.6,0,1.1,0.5,1.1,1c-0.2,6.5-3.6,11.8-9.4,14.5c-7.4,3.5-17.3,2.1-23.6-3.2
			c-5-4.2-7-10.3-5.5-16.7c0.1-0.6,0.7-0.9,1.3-0.7l10,2.8c0.5,0.1,0.8,0.6,0.7,1.2c-0.3,1.6,0.2,2.9,1.5,4
			c2.6,2.2,7.3,2.8,10.3,1.5c1.4-0.7,2.1-1.6,2.3-3.2c0.1-0.5,0.5-0.9,1-0.9L474.1,377.5z"/>
	</g>
	<g>
		<path class="st73" d="M425.2,392.7c-0.6-0.2-0.9-0.8-0.6-1.3c2.4-6.1,7.3-9.9,13.7-10.5c8.1-0.8,17,3.8,21.2,10.9
			c3.3,5.7,3.2,12-0.4,17.6c-0.3,0.5-1,0.6-1.5,0.3l-8.5-6c-0.4-0.3-0.6-0.9-0.3-1.3c0.8-1.5,0.7-2.8-0.1-4.3
			c-1.7-2.9-6-5.1-9.2-4.8c-1.5,0.2-2.5,0.8-3.2,2.3c-0.2,0.5-0.8,0.7-1.3,0.5L425.2,392.7z"/>
	</g>
	<g>
		<path class="st73" d="M494,359c0.6,0.1,1,0.7,0.8,1.2c-1.5,6.3-5.9,10.8-12.1,12.3c-7.9,1.9-17.4-1.4-22.5-7.9
			c-4.1-5.2-4.8-11.5-2.1-17.5c0.2-0.5,0.9-0.7,1.4-0.5l9.2,4.8c0.5,0.2,0.7,0.8,0.5,1.3c-0.6,1.6-0.3,2.9,0.7,4.2
			c2.1,2.6,6.6,4.3,9.8,3.5c1.5-0.4,2.4-1.2,2.9-2.7c0.2-0.5,0.7-0.8,1.2-0.7L494,359z"/>
	</g>
	<g>
		<path class="st73" d="M470.3,278.6c0.6,0.2,0.9,0.8,0.6,1.3c-2.4,6.1-7.3,9.9-13.7,10.6c-8.1,0.9-17-3.7-21.2-10.8
			c-3.3-5.7-3.2-12,0.3-17.6c0.3-0.5,1-0.6,1.5-0.3l8.5,6c0.4,0.3,0.6,0.9,0.3,1.3c-0.8,1.5-0.7,2.8,0.1,4.3c1.7,2.9,6,5.1,9.2,4.8
			c1.5-0.2,2.5-0.9,3.2-2.3c0.2-0.5,0.8-0.7,1.3-0.6L470.3,278.6z"/>
	</g>
	<g>
		<path class="st73" d="M459.6,266.8c-0.3-0.5-0.1-1.2,0.4-1.4c5.7-3.1,12-2.9,17.3,0.7c6.7,4.6,10.6,13.8,9.3,21.9
			c-1.1,6.5-5.3,11.3-11.6,13.3c-0.6,0.2-1.1-0.2-1.3-0.7l-2.7-10.1c-0.1-0.5,0.1-1,0.6-1.2c1.5-0.6,2.3-1.7,2.6-3.4
			c0.6-3.3-1.3-7.8-4-9.6c-1.3-0.9-2.5-1-3.9-0.3c-0.5,0.2-1,0.1-1.3-0.4L459.6,266.8z"/>
	</g>
	<g>
		<path class="st73" d="M426.9,321.9c-0.6-0.1-1.1,0.3-1.2,0.9c-0.8,6.5,1.8,12.2,7.1,15.8c6.7,4.6,16.8,4.7,23.8,0.4
			c5.6-3.4,8.5-9.1,8-15.7c0-0.6-0.6-1-1.2-0.9l-10.3,1.3c-0.5,0.1-0.9,0.5-0.9,1c0,1.7-0.7,2.8-2.1,3.7c-2.8,1.7-7.7,1.7-10.4-0.1
			c-1.3-0.9-1.8-1.9-1.7-3.5c0-0.5-0.3-1-0.9-1.1L426.9,321.9z"/>
	</g>
	<g>
		<path class="st73" d="M504.4,251.4c0.6-0.2,0.9-0.8,0.7-1.3c-2.3-6.1-7.2-10-13.5-10.8c-8.1-1-17.1,3.4-21.4,10.5
			c-3.4,5.6-3.4,12,0,17.6c0.3,0.5,1,0.6,1.5,0.3l8.6-5.8c0.4-0.3,0.6-0.9,0.3-1.3c-0.8-1.5-0.7-2.8,0.2-4.3c1.7-2.9,6.1-5,9.3-4.6
			c1.5,0.2,2.5,0.9,3.2,2.3c0.2,0.5,0.8,0.7,1.3,0.6L504.4,251.4z"/>
	</g>
	<g>
		<path class="st73" d="M493.5,263c-0.3,0.5-0.2,1.2,0.3,1.4c5.7,3.2,11.9,3.1,17.3-0.4c6.8-4.5,10.9-13.6,9.6-21.8
			c-1-6.5-5.1-11.3-11.3-13.5c-0.6-0.2-1.1,0.1-1.3,0.7l-2.8,10c-0.1,0.5,0.1,1,0.6,1.2c1.5,0.6,2.3,1.7,2.6,3.4
			c0.5,3.3-1.4,7.7-4.1,9.5c-1.3,0.8-2.5,0.9-3.9,0.2c-0.5-0.2-1-0.1-1.3,0.4L493.5,263z"/>
	</g>
	<g>
		<path class="st73" d="M465.5,229.9c0.5-0.2,1.2,0.1,1.3,0.6c2,6.2,0.6,12.3-4,16.8c-5.8,5.8-15.6,7.8-23.3,4.9
			c-6.2-2.3-10.1-7.3-10.9-13.9c-0.1-0.6,0.4-1.1,1-1.1l10.4-0.7c0.5,0,1,0.3,1.1,0.8c0.3,1.6,1.2,2.6,2.8,3.2
			c3.1,1.2,7.9,0.2,10.1-2.1c1.1-1.1,1.4-2.3,1-3.8c-0.1-0.5,0.1-1,0.6-1.2L465.5,229.9z"/>
	</g>
	<g>
		<path class="st73" d="M549.3,253.3c0.3-0.5,0.9-0.7,1.4-0.4c5.5,3.5,8.3,9.1,7.8,15.4c-0.7,8.1-6.9,16-14.7,18.8
			c-6.2,2.2-12.4,0.9-17.2-3.6c-0.4-0.4-0.4-1.1,0-1.5l7.5-7.2c0.4-0.4,1-0.4,1.4-0.1c1.3,1,2.6,1.2,4.2,0.7
			c3.1-1.1,6.2-4.9,6.4-8.1c0.1-1.5-0.4-2.6-1.6-3.6c-0.4-0.3-0.6-0.9-0.3-1.3L549.3,253.3z"/>
	</g>
	<g>
		<path class="st73" d="M493.1,239.2c0.3-0.5,0.9-0.7,1.4-0.4c5.5,3.5,8.3,9.1,7.8,15.4c-0.7,8.1-6.9,16-14.7,18.8
			c-6.2,2.2-12.4,0.9-17.2-3.6c-0.4-0.4-0.4-1.1,0-1.5l7.5-7.2c0.4-0.4,1-0.4,1.4-0.1c1.3,1,2.6,1.2,4.2,0.7
			c3.1-1.1,6.2-4.9,6.4-8.1c0.1-1.5-0.4-2.6-1.6-3.6c-0.4-0.3-0.6-0.9-0.3-1.3L493.1,239.2z"/>
	</g>
	<g>
		<path class="st73" d="M543.7,263.4c0.3,0.5,0.3,1.1-0.2,1.5c-5.4,3.6-11.7,3.9-17.3,0.9c-7.1-3.9-11.8-12.8-11.2-21
			c0.5-6.5,4.2-11.7,10.3-14.3c0.5-0.2,1.2,0.1,1.4,0.6l3.6,9.8c0.2,0.5,0,1-0.5,1.3c-1.5,0.8-2.2,1.9-2.3,3.6
			c-0.3,3.3,2,7.6,4.8,9.2c1.3,0.7,2.6,0.7,3.9,0c0.5-0.3,1-0.2,1.4,0.3L543.7,263.4z"/>
	</g>
	<g>
		<path class="st73" d="M515.4,249.4c0.3-0.5,0.9-0.7,1.4-0.4c5.5,3.5,8.3,9.1,7.8,15.4c-0.7,8.1-6.9,16-14.7,18.8
			c-6.2,2.2-12.4,0.9-17.2-3.6c-0.4-0.4-0.4-1.1,0-1.5l7.5-7.2c0.4-0.4,1-0.4,1.4-0.1c1.3,1,2.6,1.2,4.2,0.7
			c3.1-1.1,6.2-4.9,6.4-8.1c0.1-1.5-0.4-2.6-1.6-3.6c-0.4-0.3-0.6-0.9-0.3-1.3L515.4,249.4z"/>
	</g>
	<g>
		<path class="st73" d="M519.7,348.7c-0.6,0.1-1.2-0.2-1.3-0.8c-1.3-6.4,0.8-12.3,5.8-16.3c6.4-5.1,16.3-6,23.7-2.3
			c5.9,3,9.2,8.4,9.2,15c0,0.6-0.5,1-1.1,1l-10.4-0.5c-0.5,0-0.9-0.4-1-1c-0.1-1.7-0.9-2.7-2.4-3.5c-3-1.5-7.8-1.1-10.3,0.9
			c-1.2,1-1.7,2.1-1.5,3.6c0.1,0.5-0.3,1-0.8,1.1L519.7,348.7z"/>
	</g>
	<g>
		<path class="st73" d="M430,285.3c-0.6,0.1-1.2-0.2-1.3-0.8c-1.3-6.4,0.8-12.3,5.8-16.3c6.4-5.1,16.3-6,23.7-2.3
			c5.9,3,9.2,8.4,9.2,15c0,0.6-0.5,1-1.1,1l-10.4-0.5c-0.5,0-0.9-0.4-1-1c-0.1-1.7-0.9-2.7-2.4-3.5c-3-1.5-7.8-1.1-10.3,0.9
			c-1.2,1-1.7,2.1-1.5,3.6c0.1,0.5-0.3,1-0.8,1.1L430,285.3z"/>
	</g>
	<g>
		<path class="st73" d="M520.4,258.7c-0.6,0.1-1.2-0.2-1.3-0.8c-1.3-6.4,0.8-12.3,5.8-16.3c6.4-5.1,16.3-6,23.7-2.3
			c5.9,3,9.2,8.4,9.2,15c0,0.6-0.5,1-1.1,1l-10.4-0.5c-0.5,0-0.9-0.4-1-1c-0.1-1.7-0.9-2.7-2.4-3.5c-3-1.5-7.8-1.1-10.3,0.9
			c-1.2,1-1.7,2.1-1.5,3.6c0.1,0.5-0.3,1-0.8,1.1L520.4,258.7z"/>
	</g>
	<g>
		<path class="st73" d="M520.5,279.4c-0.4-0.4-0.4-1.1,0-1.5c4.8-4.4,10.9-5.7,16.9-3.5c7.7,2.8,13.7,10.8,14.3,19
			c0.5,6.5-2.4,12.2-8,15.7c-0.5,0.3-1.2,0.1-1.4-0.4l-5-9.1c-0.3-0.5-0.1-1,0.3-1.3c1.3-1,1.9-2.2,1.7-3.9
			c-0.3-3.3-3.1-7.2-6.2-8.3c-1.4-0.5-2.6-0.3-3.9,0.7c-0.4,0.3-1,0.3-1.4-0.1L520.5,279.4z"/>
	</g>
	<g>
		<path class="st74" d="M428.6,403.5c-0.6,0.1-1.1-0.3-1.2-0.9c-0.7-6.5,2-12.2,7.3-15.6c6.8-4.5,16.8-4.5,23.8,0
			c5.5,3.5,8.3,9.2,7.8,15.8c-0.1,0.6-0.6,1-1.2,0.9l-10.3-1.4c-0.5-0.1-0.9-0.5-0.9-1c0-1.7-0.6-2.8-2.1-3.7
			c-2.8-1.8-7.7-1.8-10.4-0.1c-1.3,0.8-1.9,1.9-1.8,3.5c0,0.5-0.4,1-0.9,1.1L428.6,403.5z"/>
	</g>
	<g>
		<path class="st74" d="M510.2,378.6c-0.6,0.1-1.1-0.3-1.2-0.9c-0.7-6.5,2-12.2,7.3-15.6c6.8-4.5,16.8-4.5,23.8,0
			c5.5,3.5,8.3,9.2,7.8,15.8c-0.1,0.6-0.6,1-1.2,0.9l-10.3-1.4c-0.5-0.1-0.9-0.5-0.9-1c0-1.7-0.6-2.8-2.1-3.7
			c-2.8-1.8-7.7-1.8-10.4-0.1c-1.3,0.8-1.9,1.9-1.8,3.5c0,0.5-0.4,1-0.9,1.1L510.2,378.6z"/>
	</g>
	<g>
		<path class="st74" d="M459.6,368.3c-0.3-0.5-0.1-1.2,0.4-1.4c5.7-3.1,12-2.9,17.3,0.7c6.7,4.6,10.6,13.8,9.3,21.9
			c-1.1,6.5-5.3,11.3-11.6,13.3c-0.6,0.2-1.1-0.2-1.3-0.7L471,392c-0.1-0.5,0.1-1,0.6-1.2c1.5-0.6,2.3-1.7,2.6-3.4
			c0.6-3.3-1.3-7.8-4-9.6c-1.3-0.9-2.5-1-3.9-0.3c-0.5,0.2-1,0.1-1.3-0.4L459.6,368.3z"/>
	</g>
	<g>
		<path class="st74" d="M531.8,306c-0.3-0.5-0.1-1.2,0.4-1.4c5.7-3.1,12-2.9,17.3,0.7c6.7,4.6,10.6,13.8,9.3,21.9
			c-1.1,6.5-5.3,11.3-11.6,13.3c-0.6,0.2-1.1-0.2-1.3-0.7l-2.7-10.1c-0.1-0.5,0.1-1,0.6-1.2c1.5-0.6,2.3-1.7,2.6-3.4
			c0.6-3.3-1.3-7.8-4-9.6c-1.3-0.9-2.5-1-3.9-0.3c-0.5,0.2-1,0.1-1.3-0.4L531.8,306z"/>
	</g>
	<g>
		<path class="st74" d="M497.6,391.7c-0.6-0.2-0.9-0.8-0.6-1.3c2.4-6.1,7.3-9.9,13.7-10.6c8.1-0.9,17,3.7,21.2,10.8
			c3.3,5.7,3.2,12-0.3,17.6c-0.3,0.5-1,0.6-1.5,0.3l-8.5-6c-0.4-0.3-0.6-0.9-0.3-1.3c0.8-1.5,0.7-2.8-0.1-4.3
			c-1.7-2.9-6-5.1-9.2-4.8c-1.5,0.2-2.5,0.9-3.2,2.3c-0.2,0.5-0.8,0.7-1.3,0.6L497.6,391.7z"/>
	</g>
	<g>
		<path class="st74" d="M430.2,241.7c-0.6-0.2-0.9-0.8-0.6-1.3c2.4-6.1,7.3-9.9,13.7-10.6c8.1-0.9,17,3.7,21.2,10.8
			c3.3,5.7,3.2,12-0.3,17.6c-0.3,0.5-1,0.6-1.5,0.3l-8.5-6c-0.4-0.3-0.6-0.9-0.3-1.3c0.8-1.5,0.7-2.8-0.1-4.3
			c-1.7-2.9-6-5.1-9.2-4.8c-1.5,0.2-2.5,0.9-3.2,2.3c-0.2,0.5-0.8,0.7-1.3,0.6L430.2,241.7z"/>
	</g>
	<g>
		<path class="st74" d="M478.9,314.1c0.3-0.5,1-0.6,1.5-0.3c5.2,3.9,7.7,9.6,6.7,15.9c-1.3,8-8,15.5-16,17.7
			c-6.3,1.7-12.4,0-16.9-4.9c-0.4-0.4-0.3-1.1,0.1-1.5l8-6.7c0.4-0.3,1-0.3,1.4,0c1.2,1.1,2.5,1.4,4.2,1c3.2-0.9,6.5-4.5,7-7.6
			c0.2-1.5-0.2-2.7-1.4-3.7c-0.4-0.3-0.5-0.9-0.2-1.4L478.9,314.1z"/>
	</g>
	<g>
		<path class="st74" d="M431.7,360.7c-0.6,0.1-1.1-0.3-1.2-0.9c-0.7-6.5,2-12.2,7.3-15.6c6.8-4.5,16.8-4.5,23.8,0
			c5.5,3.5,8.3,9.2,7.8,15.8c-0.1,0.6-0.6,1-1.2,0.9l-10.3-1.4c-0.5-0.1-0.9-0.5-0.9-1c0-1.7-0.6-2.8-2.1-3.7
			c-2.8-1.8-7.7-1.8-10.4-0.1c-1.3,0.8-1.9,1.9-1.8,3.5c0,0.5-0.4,1-0.9,1.1L431.7,360.7z"/>
	</g>
	<g>
		<path class="st74" d="M461.9,334c-0.3-0.5-0.1-1.2,0.4-1.4c5.7-3.1,12-2.9,17.3,0.7c6.7,4.6,10.6,13.8,9.3,21.9
			c-1.1,6.5-5.3,11.3-11.6,13.3c-0.6,0.2-1.1-0.2-1.3-0.7l-2.7-10.1c-0.1-0.5,0.1-1,0.6-1.2c1.5-0.6,2.3-1.7,2.6-3.4
			c0.6-3.3-1.3-7.8-4-9.6c-1.3-0.9-2.5-1-3.9-0.3c-0.5,0.2-1,0.1-1.3-0.4L461.9,334z"/>
	</g>
	<g>
		<path class="st74" d="M548.7,308.3c0.6-0.1,1.1,0.3,1.2,0.9c0.7,6.5-2,12.2-7.3,15.6c-6.8,4.5-16.8,4.5-23.8,0
			c-5.5-3.5-8.3-9.2-7.8-15.8c0.1-0.6,0.6-1,1.2-0.9l10.3,1.4c0.5,0.1,0.9,0.5,0.9,1c0,1.7,0.6,2.8,2.1,3.7
			c2.8,1.8,7.7,1.8,10.4,0.1c1.3-0.8,1.9-1.9,1.8-3.5c0-0.5,0.4-1,0.9-1.1L548.7,308.3z"/>
	</g>
	<g>
		<path class="st74" d="M556.3,292.7c0.6,0.1,1.1-0.3,1.2-0.9c0.8-6.5-1.8-12.2-7.1-15.8c-6.7-4.6-16.8-4.7-23.8-0.4
			c-5.6,3.4-8.5,9.1-8,15.7c0,0.6,0.6,1,1.2,0.9l10.3-1.3c0.5-0.1,0.9-0.5,0.9-1c0-1.7,0.7-2.8,2.1-3.7c2.8-1.7,7.7-1.7,10.4,0.1
			c1.3,0.9,1.8,1.9,1.7,3.5c0,0.5,0.3,1,0.9,1.1L556.3,292.7z"/>
	</g>
	<g>
		<path class="st74" d="M521.8,354.6c-0.6-0.2-0.9-0.8-0.6-1.3c2.4-6.1,7.3-9.9,13.7-10.6c8.1-0.9,17,3.7,21.2,10.8
			c3.3,5.7,3.2,12-0.3,17.6c-0.3,0.5-1,0.6-1.5,0.3l-8.5-6c-0.4-0.3-0.6-0.9-0.3-1.3c0.8-1.5,0.7-2.8-0.1-4.3
			c-1.7-2.9-6-5.1-9.2-4.8c-1.5,0.2-2.5,0.9-3.2,2.3c-0.2,0.5-0.8,0.7-1.3,0.6L521.8,354.6z"/>
	</g>
	<g>
		<path class="st74" d="M521.5,353.3c0.3,0.5,0.1,1.2-0.4,1.4c-5.7,3.1-12,2.9-17.3-0.7c-6.7-4.6-10.6-13.8-9.3-21.9
			c1.1-6.5,5.3-11.3,11.6-13.3c0.6-0.2,1.1,0.2,1.3,0.7l2.7,10.1c0.1,0.5-0.1,1-0.6,1.2c-1.5,0.6-2.3,1.7-2.6,3.4
			c-0.6,3.3,1.3,7.8,4,9.6c1.3,0.9,2.5,1,3.9,0.3c0.5-0.2,1-0.1,1.3,0.4L521.5,353.3z"/>
	</g>
	<g>
		<path class="st74" d="M431.9,324.9c-0.6-0.1-1-0.7-0.8-1.2c1.5-6.3,5.9-10.8,12.1-12.3c7.9-1.9,17.4,1.4,22.5,7.9
			c4.1,5.2,4.8,11.5,2.1,17.5c-0.2,0.5-0.9,0.7-1.4,0.5l-9.2-4.8c-0.5-0.2-0.7-0.8-0.5-1.3c0.6-1.6,0.3-2.9-0.7-4.2
			c-2.1-2.6-6.6-4.3-9.8-3.5c-1.5,0.4-2.4,1.2-2.9,2.7c-0.2,0.5-0.7,0.8-1.2,0.7L431.9,324.9z"/>
	</g>
	<g>
		<path class="st74" d="M502.1,311.2c0.6,0.1,1,0.7,0.8,1.2c-1.5,6.3-5.9,10.8-12.1,12.3c-7.9,1.9-17.4-1.4-22.5-7.9
			c-4.1-5.2-4.8-11.5-2.1-17.5c0.2-0.5,0.9-0.7,1.4-0.5l9.2,4.8c0.5,0.2,0.7,0.8,0.5,1.3c-0.6,1.6-0.3,2.9,0.7,4.2
			c2.1,2.6,6.6,4.3,9.8,3.5c1.5-0.4,2.4-1.2,2.9-2.7c0.2-0.5,0.7-0.8,1.2-0.7L502.1,311.2z"/>
	</g>
	<g>
		<path class="st74" d="M544.4,264.3c0.6-0.1,1.1,0.3,1.2,0.9c0.7,6.5-2,12.2-7.3,15.6c-6.8,4.5-16.8,4.5-23.8,0
			c-5.5-3.5-8.3-9.2-7.8-15.8c0.1-0.6,0.6-1,1.2-0.9l10.3,1.4c0.5,0.1,0.9,0.5,0.9,1c0,1.7,0.6,2.8,2.1,3.7
			c2.8,1.8,7.7,1.8,10.4,0.1c1.3-0.8,1.9-1.9,1.8-3.5c0-0.5,0.4-1,0.9-1.1L544.4,264.3z"/>
	</g>
	<g>
		<path class="st74" d="M513.4,299.5c0.3,0.5,0.1,1.2-0.4,1.4c-5.7,3.1-12,2.9-17.3-0.7c-6.7-4.6-10.6-13.8-9.3-21.9
			c1.1-6.5,5.3-11.3,11.6-13.3c0.6-0.2,1.1,0.2,1.3,0.7l2.7,10.1c0.1,0.5-0.1,1-0.6,1.2c-1.5,0.6-2.3,1.7-2.6,3.4
			c-0.6,3.3,1.3,7.8,4,9.6c1.3,0.9,2.5,1,3.9,0.3c0.5-0.2,1-0.1,1.3,0.4L513.4,299.5z"/>
	</g>
	<g>
		<path class="st74" d="M432.5,311.7c-0.6,0.1-1.1-0.3-1.2-0.9c-0.7-6.5,2-12.2,7.3-15.6c6.8-4.5,16.8-4.5,23.8,0
			c5.5,3.5,8.3,9.2,7.8,15.8c-0.1,0.6-0.6,1-1.2,0.9l-10.3-1.4c-0.5-0.1-0.9-0.5-0.9-1c0-1.7-0.6-2.8-2.1-3.7
			c-2.8-1.8-7.7-1.8-10.4-0.1c-1.3,0.8-1.9,1.9-1.8,3.5c0,0.5-0.4,1-0.9,1.1L432.5,311.7z"/>
	</g>
	<g>
		<path class="st74" d="M549.2,295.2c0.6,0.1,1,0.7,0.8,1.2c-1.5,6.3-5.9,10.8-12.1,12.3c-7.9,1.9-17.4-1.4-22.5-7.9
			c-4.1-5.2-4.8-11.5-2.1-17.5c0.2-0.5,0.9-0.7,1.4-0.5l9.2,4.8c0.5,0.2,0.7,0.8,0.5,1.3c-0.6,1.6-0.3,2.9,0.7,4.2
			c2.1,2.6,6.6,4.3,9.8,3.5c1.5-0.4,2.4-1.2,2.9-2.7c0.2-0.5,0.7-0.8,1.2-0.7L549.2,295.2z"/>
	</g>
	<g>
		<path class="st74" d="M547,367.3c0.2-0.6,0.8-0.9,1.3-0.7c6.1,2.3,10,7.2,10.7,13.6c0.9,8.1-3.6,17-10.7,21.3
			c-5.6,3.4-12,3.3-17.6-0.1c-0.5-0.3-0.6-1-0.3-1.5l5.9-8.6c0.3-0.4,0.9-0.6,1.3-0.3c1.5,0.8,2.8,0.7,4.3-0.2
			c2.9-1.7,5.1-6,4.7-9.2c-0.2-1.5-0.9-2.5-2.3-3.2c-0.5-0.2-0.7-0.8-0.6-1.3L547,367.3z"/>
	</g>
	<g>
		<path class="st74" d="M509.6,361.2c0.2-0.5,0-1.2-0.5-1.4c-6.1-2.4-12.2-1.5-17.1,2.7c-6.2,5.3-9,14.9-6.7,22.9
			c1.8,6.3,6.5,10.6,13,11.9c0.6,0.1,1.1-0.3,1.2-0.9l1.5-10.3c0.1-0.5-0.3-1-0.8-1.1c-1.6-0.4-2.5-1.4-3-3c-0.9-3.2,0.4-7.9,2.8-10
			c1.2-1,2.4-1.2,3.9-0.8c0.5,0.2,1-0.1,1.3-0.5L509.6,361.2z"/>
	</g>
	<g>
		<path class="st74" d="M515.8,252c-0.6,0.1-1,0.7-0.8,1.2c1.4,6.4,5.7,10.9,11.9,12.5c7.9,2.1,17.4-1.1,22.6-7.5
			c4.1-5.1,5-11.4,2.4-17.4c-0.2-0.5-0.9-0.8-1.4-0.5l-9.3,4.6c-0.5,0.2-0.7,0.8-0.5,1.3c0.6,1.6,0.3,2.9-0.8,4.2
			c-2.1,2.6-6.7,4.2-9.8,3.3c-1.5-0.4-2.4-1.2-2.8-2.7c-0.2-0.5-0.6-0.8-1.2-0.7L515.8,252z"/>
	</g>
	<g>
		<path class="st74" d="M557.6,237.5c0.5-0.3,0.7-1,0.3-1.4c-3.6-5.4-9.3-8.1-15.6-7.4c-8.1,0.9-15.8,7.3-18.4,15.2
			c-2,6.3-0.5,12.4,4.1,17.1c0.4,0.4,1.1,0.4,1.5,0l7-7.7c0.4-0.4,0.4-1,0-1.4c-1.1-1.3-1.3-2.6-0.8-4.2c1-3.2,4.7-6.3,7.9-6.7
			c1.5-0.2,2.6,0.3,3.6,1.5c0.3,0.4,0.9,0.5,1.4,0.3L557.6,237.5z"/>
	</g>
	<g>
		<path class="st74" d="M424.1,369.9c-0.6,0.2-0.9,0.8-0.7,1.3c2.2,6.1,7,10.1,13.3,11c8.1,1.1,17.1-3.2,21.5-10.2
			c3.5-5.6,3.6-11.9,0.2-17.6c-0.3-0.5-1-0.6-1.5-0.3l-8.7,5.7c-0.4,0.3-0.6,0.9-0.3,1.3c0.7,1.5,0.6,2.8-0.3,4.3
			c-1.8,2.8-6.1,4.9-9.3,4.5c-1.5-0.2-2.5-0.9-3.1-2.4c-0.2-0.5-0.7-0.7-1.2-0.6L424.1,369.9z"/>
	</g>
	<g>
		<path class="st74" d="M520.9,269.8c0.3,0.5,1,0.6,1.5,0.3c5.3-3.8,7.8-9.5,6.9-15.8c-1.2-8.1-7.8-15.6-15.7-17.9
			c-6.3-1.8-12.4-0.2-17,4.6c-0.4,0.4-0.4,1.1,0.1,1.5l7.9,6.8c0.4,0.3,1,0.3,1.4,0c1.2-1.1,2.5-1.4,4.2-0.9
			c3.2,0.9,6.4,4.6,6.9,7.7c0.2,1.5-0.2,2.7-1.4,3.7c-0.4,0.3-0.5,0.9-0.2,1.4L520.9,269.8z"/>
	</g>
	<g>
		<path class="st74" d="M469.7,309.5c0,0.6-0.5,1-1.1,1c-6.5-0.6-11.6-4.3-14-10.2c-3.1-7.5-1.2-17.4,4.5-23.4
			c4.5-4.8,10.7-6.4,17-4.6c0.6,0.2,0.9,0.8,0.7,1.3l-3.4,9.8c-0.2,0.5-0.7,0.8-1.2,0.7c-1.6-0.3-2.9,0.1-4.1,1.3
			c-2.3,2.4-3.2,7.2-2,10.2c0.6,1.4,1.5,2.2,3.1,2.4c0.5,0.1,0.9,0.5,0.9,1.1L469.7,309.5z"/>
	</g>
	<g>
		<path class="st74" d="M444.4,266.1c0.3-0.5,0.9-0.7,1.4-0.4c5.5,3.5,8.3,9.1,7.8,15.4c-0.7,8.1-6.9,16-14.7,18.8
			c-6.2,2.2-12.4,0.9-17.2-3.6c-0.4-0.4-0.4-1.1,0-1.5l7.5-7.2c0.4-0.4,1-0.4,1.4-0.1c1.3,1,2.6,1.2,4.2,0.7
			c3.1-1.1,6.2-4.9,6.4-8.1c0.1-1.5-0.4-2.6-1.6-3.6c-0.4-0.3-0.6-0.9-0.3-1.3L444.4,266.1z"/>
	</g>
	<g>
		<path class="st74" d="M430.7,274.4c-0.5,0.2-1.2-0.1-1.3-0.6c-2-6.2-0.6-12.3,4-16.8c5.8-5.8,15.6-7.8,23.3-4.9
			c6.2,2.3,10.1,7.3,10.9,13.9c0.1,0.6-0.4,1.1-1,1.1l-10.4,0.7c-0.5,0-1-0.3-1.1-0.8c-0.3-1.6-1.2-2.6-2.8-3.2
			c-3.1-1.2-7.9-0.2-10.1,2.1c-1.1,1.1-1.4,2.3-1,3.8c0.1,0.5-0.1,1-0.6,1.2L430.7,274.4z"/>
	</g>
	<g>
		<path class="st74" d="M467.7,257c-0.5,0.4-1.1,0.3-1.5-0.2c-3.8-5.3-4.3-11.5-1.4-17.2c3.7-7.3,12.4-12.3,20.6-11.9
			c6.6,0.3,11.8,3.9,14.6,9.8c0.2,0.5,0,1.2-0.6,1.4l-9.6,3.9c-0.5,0.2-1,0-1.3-0.5c-0.8-1.5-1.9-2.1-3.7-2.2
			c-3.3-0.1-7.5,2.2-9,5.1c-0.7,1.4-0.7,2.6,0.2,3.9c0.3,0.4,0.2,1-0.2,1.4L467.7,257z"/>
	</g>
	<g>
		<path class="st74" d="M518.4,244.7c0.5-0.2,1.2,0.1,1.3,0.6c2,6.2,0.6,12.3-4,16.8c-5.8,5.8-15.6,7.8-23.3,4.9
			c-6.2-2.3-10.1-7.3-10.9-13.9c-0.1-0.6,0.4-1.1,1-1.1l10.4-0.7c0.5,0,1,0.3,1.1,0.8c0.3,1.6,1.2,2.6,2.8,3.2
			c3.1,1.2,7.9,0.2,10.1-2.1c1.1-1.1,1.4-2.3,1-3.8c-0.1-0.5,0.1-1,0.6-1.2L518.4,244.7z"/>
	</g>
	<g>
		<path class="st74" d="M479,308.8c-0.6-0.1-1-0.7-0.8-1.2c1.5-6.3,5.9-10.8,12.1-12.3c7.9-1.9,17.4,1.4,22.5,7.9
			c4.1,5.2,4.8,11.5,2.1,17.5c-0.2,0.5-0.9,0.7-1.4,0.5l-9.2-4.8c-0.5-0.2-0.7-0.8-0.5-1.3c0.6-1.6,0.3-2.9-0.7-4.2
			c-2.1-2.6-6.6-4.3-9.8-3.5c-1.5,0.4-2.4,1.2-2.9,2.7c-0.2,0.5-0.7,0.8-1.2,0.7L479,308.8z"/>
	</g>
	
		<rect x="442.5" y="270.6" transform="matrix(1 7.808872e-03 -7.808872e-03 1 2.3992 -3.8269)" class="st10" width="97.5" height="69.4"/>
	<g>
		<path class="st6" d="M466.5,299.9c0,2.1-0.7,3.6-2,4.7c-1.3,1.1-3.1,1.6-5.5,1.6l-1.7,0l-0.1,6.8l-4,0l0.1-19.1l6.1,0
			c2.3,0,4.1,0.5,5.3,1.5C465.9,296.4,466.5,297.9,466.5,299.9z M457.3,302.8l1.3,0c1.2,0,2.2-0.2,2.8-0.7c0.6-0.5,0.9-1.2,0.9-2.1
			c0-0.9-0.2-1.7-0.8-2.1c-0.5-0.5-1.3-0.7-2.4-0.7l-1.8,0L457.3,302.8z"/>
		<path class="st6" d="M481.1,313.1l-1.3-4.6l-7-0.1l-1.4,4.5l-4.4,0l6.9-19.1l4.9,0l6.6,19.2L481.1,313.1z M478.8,305.2
			c-1.2-4.1-1.9-6.5-2.1-7c-0.2-0.5-0.3-1-0.3-1.3c-0.3,1.1-1.1,3.9-2.5,8.2L478.8,305.2z"/>
		<path class="st6" d="M498.6,308c0,1.7-0.6,3.1-1.9,4.1c-1.2,1-3,1.5-5.2,1.4c-2,0-3.8-0.4-5.4-1.2l0-3.8c1.3,0.6,2.4,1,3.3,1.2
			c0.9,0.2,1.7,0.4,2.4,0.4c0.9,0,1.6-0.2,2-0.5s0.7-0.8,0.7-1.5c0-0.4-0.1-0.7-0.3-1c-0.2-0.3-0.5-0.6-0.9-0.8s-1.2-0.7-2.5-1.3
			c-1.2-0.6-2-1.1-2.6-1.6c-0.6-0.5-1-1.1-1.4-1.8c-0.3-0.7-0.5-1.5-0.5-2.4c0-1.7,0.6-3,1.7-4c1.2-1,2.7-1.4,4.8-1.4
			c1,0,1.9,0.1,2.8,0.4c0.9,0.2,1.8,0.6,2.8,1l-1.3,3.1c-1-0.4-1.9-0.7-2.5-0.9c-0.7-0.2-1.3-0.3-2-0.3c-0.8,0-1.4,0.2-1.8,0.5
			c-0.4,0.4-0.6,0.8-0.6,1.4c0,0.4,0.1,0.7,0.2,0.9s0.4,0.5,0.8,0.8s1.2,0.7,2.6,1.4c1.8,0.9,3,1.7,3.6,2.6
			C498.3,305.7,498.6,306.7,498.6,308z"/>
		<path class="st6" d="M508.9,313.4l-4,0l0.1-15.7l-5.2,0l0-3.4l14.4,0.1l0,3.4l-5.2,0L508.9,313.4z"/>
		<path class="st6" d="M528.1,313.5l-1.3-4.6l-7-0.1l-1.4,4.5l-4.4,0l6.9-19.1l4.9,0l6.6,19.2L528.1,313.5z M525.9,305.5
			c-1.2-4.1-1.9-6.5-2.1-7c-0.2-0.5-0.3-1-0.3-1.3c-0.3,1.1-1.1,3.9-2.5,8.2L525.9,305.5z"/>
	</g>
</g>
<g>
	<path class="st5" d="M259.8,404.7l0-187.7l120.9,0l0,187.7c0,2.9-2.3,5.2-5.2,5.2l-110.4,0C262.1,409.9,259.8,407.6,259.8,404.7z"
		/>
	<polygon class="st4" points="259.8,217 273.8,188.2 367.8,188.2 380.6,217 	"/>
	<path class="st11" d="M273.3,188.2l0-13.4c0-2.9,2.3-5.2,5.2-5.2l84,0c2.9,0,5.2,2.3,5.2,5.2l0,13.4L273.3,188.2z"/>
	<g>
		<g>
			<path class="st6" d="M353.4,182.1l0-7.3c0-0.7,0.5-1.2,1.2-1.2c0.7,0,1.2,0.5,1.2,1.2l0,7.3c0,0.7-0.5,1.2-1.2,1.2
				C354,183.4,353.4,182.8,353.4,182.1z"/>
		</g>
		<g>
			<path class="st6" d="M342.4,182.1l0-7.3c0-0.7,0.5-1.2,1.2-1.2s1.2,0.5,1.2,1.2l0,7.3c0,0.7-0.5,1.2-1.2,1.2
				C343,183.4,342.4,182.8,342.4,182.1z"/>
		</g>
		<g>
			<path class="st6" d="M330.8,182.1l0-7.3c0-0.7,0.5-1.2,1.2-1.2c0.7,0,1.2,0.5,1.2,1.2v7.3c0,0.7-0.5,1.2-1.2,1.2
				S330.8,182.8,330.8,182.1z"/>
		</g>
		<g>
			<path class="st6" d="M308.2,182.1v-7.3c0-0.7,0.5-1.2,1.2-1.2c0.7,0,1.2,0.5,1.2,1.2v7.3c0,0.7-0.5,1.2-1.2,1.2
				S308.2,182.8,308.2,182.1z"/>
		</g>
		<g>
			<path class="st6" d="M319.8,182.1l0-7.3c0-0.7,0.5-1.2,1.2-1.2c0.7,0,1.2,0.5,1.2,1.2l0,7.3c0,0.7-0.5,1.2-1.2,1.2
				S319.8,182.8,319.8,182.1z"/>
		</g>
		<g>
			<path class="st6" d="M296.6,182.1v-7.3c0-0.7,0.5-1.2,1.2-1.2c0.7,0,1.2,0.5,1.2,1.2v7.3c0,0.7-0.5,1.2-1.2,1.2
				S296.6,182.8,296.6,182.1z"/>
		</g>
		<g>
			<path class="st6" d="M285.6,182.1v-7.3c0-0.7,0.5-1.2,1.2-1.2c0.7,0,1.2,0.5,1.2,1.2v7.3c0,0.7-0.5,1.2-1.2,1.2
				S285.6,182.8,285.6,182.1z"/>
		</g>
	</g>
	<g>
		<g>
			<rect x="273.4" y="239.9" class="st75" width="93.5" height="26.3"/>
		</g>
		<g>
			<rect x="273.4" y="319.8" class="st75" width="93.5" height="26.3"/>
		</g>
		<g>
			<path class="st6" d="M310.9,303.6c0,0.1,0,0.2-0.1,0.3c0,0.1-0.1,0.1-0.3,0.2c-0.1,0-0.3,0.1-0.5,0.1c-0.2,0-0.4,0-0.7,0
				c-0.3,0-0.5,0-0.7,0c-0.2,0-0.4-0.1-0.5-0.1c-0.1,0-0.2-0.1-0.2-0.2c0-0.1-0.1-0.2-0.1-0.3l0-20.2h0l-8.2,20.3
				c0,0.1-0.1,0.2-0.2,0.2c-0.1,0.1-0.2,0.1-0.3,0.2c-0.1,0-0.3,0.1-0.4,0.1c-0.2,0-0.4,0-0.6,0c-0.3,0-0.5,0-0.6,0
				c-0.2,0-0.3-0.1-0.4-0.1c-0.1,0-0.2-0.1-0.3-0.2c-0.1-0.1-0.1-0.1-0.1-0.2l-7.8-20.3h0l0,20.2c0,0.1,0,0.2-0.1,0.3
				c0,0.1-0.1,0.1-0.3,0.2c-0.1,0-0.3,0.1-0.5,0.1c-0.2,0-0.4,0-0.8,0c-0.3,0-0.5,0-0.7,0c-0.2,0-0.4-0.1-0.5-0.1
				c-0.1,0-0.2-0.1-0.2-0.2c0-0.1-0.1-0.2-0.1-0.3l0-21.3c0-0.5,0.1-0.9,0.4-1.1c0.3-0.2,0.6-0.3,0.9-0.3h1.9c0.4,0,0.7,0,1,0.1
				c0.3,0.1,0.5,0.2,0.8,0.3c0.2,0.2,0.4,0.4,0.5,0.6c0.1,0.2,0.3,0.5,0.4,0.8l6.6,16.8h0.1l6.9-16.7c0.1-0.4,0.3-0.7,0.4-0.9
				c0.2-0.3,0.3-0.5,0.5-0.6c0.2-0.1,0.4-0.3,0.6-0.3c0.2-0.1,0.5-0.1,0.8-0.1h2c0.2,0,0.4,0,0.5,0.1c0.2,0.1,0.3,0.1,0.4,0.3
				c0.1,0.1,0.2,0.3,0.3,0.4c0.1,0.2,0.1,0.4,0.1,0.6L310.9,303.6z"/>
			<path class="st6" d="M320.2,303.6c0,0.1,0,0.2-0.1,0.3c0,0.1-0.1,0.1-0.3,0.2c-0.1,0-0.3,0.1-0.5,0.1c-0.2,0-0.4,0-0.7,0
				c-0.3,0-0.5,0-0.7,0c-0.2,0-0.4-0.1-0.5-0.1c-0.1,0-0.2-0.1-0.3-0.2c0-0.1-0.1-0.2-0.1-0.3l0-22.2c0-0.1,0-0.2,0.1-0.3
				c0.1-0.1,0.1-0.1,0.3-0.2c0.1,0,0.3-0.1,0.5-0.1c0.2,0,0.4,0,0.7,0c0.3,0,0.5,0,0.7,0c0.2,0,0.4,0.1,0.5,0.1
				c0.1,0,0.2,0.1,0.3,0.2c0,0.1,0.1,0.2,0.1,0.3L320.2,303.6z"/>
			<path class="st6" d="M338.4,302.7c0,0.2,0,0.4,0,0.6c0,0.2-0.1,0.3-0.1,0.4c-0.1,0.1-0.1,0.2-0.2,0.3c-0.1,0.1-0.2,0.1-0.3,0.1
				l-10.2,0c-0.3,0-0.5-0.1-0.8-0.3c-0.2-0.2-0.4-0.5-0.4-1l0-21.5c0-0.1,0-0.2,0.1-0.3c0-0.1,0.1-0.1,0.3-0.2
				c0.1,0,0.3-0.1,0.5-0.1c0.2,0,0.4,0,0.7,0c0.3,0,0.5,0,0.7,0c0.2,0,0.4,0.1,0.5,0.1c0.1,0,0.2,0.1,0.3,0.2c0,0.1,0.1,0.2,0.1,0.3
				l0,20l8.3,0c0.1,0,0.2,0,0.3,0.1c0.1,0.1,0.1,0.1,0.2,0.2c0.1,0.1,0.1,0.2,0.1,0.4C338.3,302.3,338.4,302.5,338.4,302.7z"/>
			<path class="st6" d="M356.9,303.5c0,0.1,0,0.2-0.1,0.3c0,0.1-0.1,0.1-0.2,0.2c-0.1,0-0.3,0.1-0.5,0.1c-0.2,0-0.5,0-0.8,0
				c-0.4,0-0.8,0-1-0.1s-0.5-0.1-0.6-0.2c-0.1-0.1-0.2-0.2-0.3-0.3l-8.5-11.6v11.6c0,0.1,0,0.2-0.1,0.2c0,0.1-0.1,0.1-0.3,0.2
				c-0.1,0-0.3,0.1-0.5,0.1c-0.2,0-0.4,0-0.7,0c-0.3,0-0.5,0-0.7,0c-0.2,0-0.4-0.1-0.5-0.1c-0.1,0-0.2-0.1-0.3-0.2
				c0-0.1-0.1-0.2-0.1-0.2l0-22.2c0-0.1,0-0.2,0.1-0.3c0-0.1,0.1-0.1,0.3-0.2c0.1,0,0.3-0.1,0.5-0.1c0.2,0,0.4,0,0.7,0
				c0.3,0,0.5,0,0.7,0c0.2,0,0.4,0.1,0.5,0.1c0.1,0,0.2,0.1,0.3,0.2c0,0.1,0.1,0.2,0.1,0.3l0,10.3l8.2-10.3c0.1-0.1,0.2-0.2,0.3-0.3
				c0.1-0.1,0.2-0.1,0.3-0.2c0.1,0,0.3-0.1,0.5-0.1c0.2,0,0.5,0,0.8,0c0.3,0,0.6,0,0.8,0c0.2,0,0.3,0.1,0.5,0.1
				c0.1,0,0.2,0.1,0.2,0.2c0,0.1,0.1,0.1,0.1,0.2c0,0.2,0,0.3-0.1,0.5c-0.1,0.2-0.2,0.4-0.4,0.6l-7.7,9.2l8.3,11
				c0.2,0.3,0.3,0.5,0.4,0.6C356.8,303.4,356.9,303.5,356.9,303.5z"/>
		</g>
	</g>
</g>
<g>
	<path class="st46" d="M433.8,409.5c0,6.1-74.6,6.1-74.6,0l0-112.8c0-5,74.6-5,74.6,0L433.8,409.5z"/>
	<path class="st11" d="M433.8,404c0,6.5-74.6,6.5-74.6,0l0-103.1c0-3.9,74.6-3.9,74.6,0L433.8,404z"/>
	<rect x="365.4" y="326.3" class="st19" width="62.2" height="54.3"/>
	<g>
		<path class="st6" d="M372.6,339.8h3.5c1.6,0,2.7,0.2,3.4,0.7c0.7,0.4,1.1,1.2,1.1,2.1c0,0.7-0.2,1.2-0.5,1.6
			c-0.3,0.4-0.7,0.7-1.2,0.8v0.1c0.7,0.2,1.2,0.5,1.5,0.9c0.3,0.4,0.5,1,0.5,1.7c0,1-0.4,1.8-1.1,2.4c-0.7,0.6-1.7,0.9-3,0.9h-4.2
			L372.6,339.8z M375,344.2h1.4c0.6,0,1.1-0.1,1.4-0.3c0.3-0.2,0.4-0.5,0.4-1c0-0.4-0.2-0.7-0.5-0.9c-0.3-0.2-0.8-0.3-1.5-0.3H375
			L375,344.2z M375,346.1v2.9h1.5c0.6,0,1.1-0.1,1.4-0.4c0.3-0.2,0.5-0.6,0.5-1.1c0-0.9-0.7-1.4-2-1.4H375z"/>
		<path class="st6" d="M389.3,350.9l-0.8-2.6h-4.1l-0.8,2.6h-2.5l3.9-11.2h2.9l3.9,11.2L389.3,350.9z M387.9,346.3
			c-0.7-2.4-1.2-3.8-1.3-4.1s-0.2-0.6-0.2-0.7c-0.2,0.6-0.6,2.3-1.4,4.8L387.9,346.3z"/>
		<path class="st6" d="M401.8,350.9h-2.7l-2.9-4.7l-1,0.7v4h-2.4v-11.1h2.4l0,5.1l0.9-1.3l3-3.8h2.6l-3.9,4.9L401.8,350.9z"/>
		<path class="st6" d="M409.3,350.9l-6.4,0l0-11.1l6.4,0l0,1.9l-4,0v2.4h3.8v1.9h-3.8v2.9h4V350.9z"/>
		<path class="st6" d="M420.3,345.3c0,1.8-0.5,3.2-1.6,4.2c-1,1-2.5,1.5-4.5,1.5H411l0-11.1h3.5c1.8,0,3.2,0.5,4.2,1.4
			C419.8,342.2,420.3,343.5,420.3,345.3z M417.8,345.3c0-2.4-1.1-3.6-3.2-3.6h-1.3l0,7.2h1C416.7,349,417.8,347.8,417.8,345.3z"/>
		<path class="st6" d="M372.8,355.9h3.5c1.6,0,2.7,0.2,3.4,0.7s1.1,1.2,1.1,2.1c0,0.7-0.2,1.2-0.5,1.6c-0.3,0.4-0.7,0.7-1.2,0.8v0.1
			c0.7,0.2,1.2,0.5,1.5,0.9c0.3,0.4,0.5,1,0.5,1.7c0,1-0.4,1.8-1.1,2.4c-0.7,0.6-1.7,0.9-3,0.9h-4.2V355.9z M375.1,360.3h1.4
			c0.6,0,1.1-0.1,1.4-0.3s0.4-0.5,0.4-1c0-0.4-0.2-0.7-0.5-0.9c-0.3-0.2-0.8-0.3-1.5-0.3h-1.2V360.3z M375.1,362.2v2.9h1.5
			c0.6,0,1.1-0.1,1.4-0.4c0.3-0.2,0.5-0.6,0.5-1.1c0-0.9-0.7-1.4-2-1.4H375.1z"/>
		<path class="st6" d="M388.7,367l-6.4,0v-11.1l6.4,0v1.9l-4,0v2.4h3.8v1.9h-3.8v2.9h4V367z"/>
		<path class="st6" d="M397.8,367l-0.8-2.6H393l-0.8,2.6h-2.5l3.9-11.2h2.9l3.9,11.2H397.8z M396.5,362.4c-0.7-2.4-1.2-3.8-1.3-4.1
			c-0.1-0.3-0.2-0.6-0.2-0.7c-0.2,0.6-0.6,2.3-1.4,4.8H396.5z"/>
		<path class="st6" d="M411.3,367h-3l-4.8-8.4h-0.1c0.1,1.5,0.1,2.5,0.1,3.2v5.2h-2.1v-11.1h3l4.8,8.3h0.1c-0.1-1.4-0.1-2.5-0.1-3.1
			v-5.3h2.1L411.3,367z"/>
		<path class="st6" d="M420.4,363.9c0,1-0.4,1.8-1.1,2.4c-0.7,0.6-1.7,0.9-3,0.9c-1.2,0-2.2-0.2-3.1-0.7v-2.2
			c0.8,0.3,1.4,0.6,1.9,0.7c0.5,0.1,1,0.2,1.4,0.2c0.5,0,0.9-0.1,1.2-0.3s0.4-0.5,0.4-0.9c0-0.2-0.1-0.4-0.2-0.6
			c-0.1-0.2-0.3-0.3-0.5-0.5c-0.2-0.2-0.7-0.4-1.4-0.8c-0.7-0.3-1.2-0.6-1.5-0.9c-0.3-0.3-0.6-0.6-0.8-1s-0.3-0.8-0.3-1.4
			c0-1,0.3-1.8,1-2.3s1.6-0.8,2.8-0.8c0.6,0,1.1,0.1,1.7,0.2c0.5,0.1,1.1,0.3,1.6,0.6l-0.8,1.8c-0.6-0.2-1.1-0.4-1.5-0.5
			c-0.4-0.1-0.8-0.1-1.1-0.1c-0.4,0-0.8,0.1-1,0.3c-0.2,0.2-0.4,0.5-0.4,0.8c0,0.2,0,0.4,0.1,0.5s0.2,0.3,0.5,0.4
			c0.2,0.1,0.7,0.4,1.5,0.8c1,0.5,1.8,1,2.1,1.5C420.2,362.6,420.4,363.2,420.4,363.9z"/>
	</g>
</g>
<g>
	<path class="st76" d="M496.2,377.7c-2.6,20.2-11.5,33.8-24,36.5c-9.6,2.1-8.6-1.7-13.7-1.9c-4.9-0.2-7.9,3.8-14.7,1
		c-14.4-5.9-21.2-20.7-22.2-38.6c-1.4-26,18.2-36.6,38.8-35.8S499.9,349,496.2,377.7z"/>
	<path class="st21" d="M469.8,332c-2.4,2-8.5,11.3-8.4,15.5c0,0.5,2.5,0.9,2.7,0.4c3.6-6.9,9.9-12.1,11.9-14.1
		C476.8,333,471.5,330.7,469.8,332z"/>
	<path class="st77" d="M453.6,345.3c1.3,1.5,4,2.9,9.1,3.1c5.1,0.2,7.4-0.8,9.4-2.4"/>
</g>
<g>
	<path class="st74" d="M207.1,391l3.4,18.3c0.8,2.4,3,4.1,5.5,4.2l34.3,0.7c0.4-2.3,2-4.4,4.4-5.2c3.5-1.2,7.2,0.7,8.3,4.2
		c0.2,0.5,0.3,0.9,0.3,1.4l66,2.3c2.4,0.1,4.1-2.2,3.3-4.4l-2.6-18.6L207.1,391z"/>
	<path class="st73" d="M329.2,392.8l-7-2.6c-0.8,0.3-1.6,0.5-2.5,0.7c-3.5,0.6-6.5-0.3-6.8-2c-0.1-0.6,0.2-1.3,0.8-1.9l-23.7-8.9
		c-1.3,0.5-2.8,0.9-4.3,1.2c-5.8,0.9-10.8-0.6-11.3-3.3c-0.2-1.1,0.4-2.2,1.4-3.2l-13.5-5.1c-2.4-0.9-6.3-0.6-9.1,0.8l-28.8,14.1
		c0.6,0.4,1,0.9,1,1.4c0.3,1.8-2.5,3.8-6.3,4.4c-2.2,0.4-4.3,0.2-5.7-0.4l-5.3,2.6c-2.3,1.1-1.6,2.8,1.2,2.9l117.3,1.6
		C329.2,395.1,330.9,393.4,329.2,392.8z"/>
	
		<ellipse transform="matrix(0.9872 -0.1595 0.1595 0.9872 -59.5301 47.4882)" class="st74" cx="266" cy="394.6" rx="10.6" ry="5.1"/>
	
		<ellipse transform="matrix(0.9872 -0.1595 0.1595 0.9872 -57.6988 44.7931)" class="st74" cx="250.2" cy="381.8" rx="10.6" ry="5.1"/>
	<ellipse transform="matrix(0.9872 -0.1595 0.1595 0.9872 -58.1063 52.1171)" class="st74" cx="295.6" cy="388" rx="6.9" ry="3.3"/>
	<circle class="st78" cx="304.1" cy="407.7" r="5.2"/>
	<circle class="st78" cx="223.2" cy="404.1" r="6.4"/>
</g>
<circle class="st3" cx="442.6" cy="160.6" r="10"/>
</svg>
