<?xml version="1.0" encoding="utf-8"?>
<!-- Generator: Adobe Illustrator 26.4.0, SVG Export Plug-In . SVG Version: 6.00 Build 0)  -->
<svg version="1.1" id="Layer_1" xmlns="http://www.w3.org/2000/svg" xmlns:xlink="http://www.w3.org/1999/xlink" x="0px" y="0px"
	 viewBox="0 0 600 425.5" style="enable-background:new 0 0 600 425.5;" xml:space="preserve">
<style type="text/css">
	.st0{fill:#E4E8EA;}
	.st1{fill:#E4E8EA;stroke:#1D1D1B;stroke-width:0.6594;stroke-miterlimit:10;}
	.st2{fill:#E4E8EA;stroke:#1D1D1B;stroke-width:0.4707;stroke-miterlimit:10;}
	.st3{fill:#F5F5F6;}
	.st4{fill:#507690;}
	.st5{fill:#9BB1BF;}
	.st6{fill:#FFFFFF;}
	.st7{clip-path:url(#SVGID_00000021813494586283309310000003918608898941429163_);fill:#996A49;}
	.st8{clip-path:url(#SVGID_00000021813494586283309310000003918608898941429163_);fill:#D19F6B;}
	.st9{clip-path:url(#SVGID_00000021813494586283309310000003918608898941429163_);}
	.st10{fill:#A8BC45;}
	.st11{fill:#233E57;}
	.st12{opacity:0.7;fill:#FFFFFF;}
	.st13{fill:none;stroke:#A8BC45;stroke-width:3.7663;stroke-miterlimit:10;}
	.st14{fill:none;stroke:#000000;stroke-width:3.7483;stroke-miterlimit:10;}
	.st15{fill:#D19F6B;}
	.st16{fill:#996A49;}
	.st17{clip-path:url(#SVGID_00000021813494586283309310000003918608898941429163_);fill:#A8BC45;}
	.st18{opacity:0.8;fill:#ACD9EA;}
	.st19{fill:#F1933E;}
	.st20{fill:#CB8D50;}
	.st21{fill:#B05B29;}
	.st22{fill:#553119;}
	.st23{fill:#CE0B24;}
	.st24{fill:#FAC82E;}
	.st25{fill:#D3D8DD;}
	.st26{fill:#3D6092;}
	.st27{fill:#6390B5;}
	.st28{fill:#00A3A6;}
	.st29{fill:#99B1BC;}
	.st30{fill:none;}
	.st31{fill-rule:evenodd;clip-rule:evenodd;fill:#3D6092;}
	.st32{fill:#A6BFD5;}
	.st33{fill:#707071;}
	.st34{fill:#5EA77D;}
	.st35{fill:#198145;}
	.st36{fill:#E9ECEE;}
	.st37{fill:#657889;}
	.st38{fill:#7890B3;}
	.st39{fill:#043C55;}
	.st40{fill:#B2BFD3;}
	.st41{fill:#ADECE2;}
	.st42{opacity:0.7;fill:#99B1BC;}
	.st43{fill:#BBBBBD;}
	.st44{fill:#1D8B7B;}
	.st45{fill:#31CFB6;}
	.st46{fill:#E2E2E3;}
	.st47{fill:#886F5E;}
	.st48{fill:none;stroke:#99B1BC;stroke-width:6;stroke-linecap:round;stroke-linejoin:round;stroke-miterlimit:10;}
	.st49{fill:#30A1CA;}
	.st50{fill:#BBADA3;}
	.st51{clip-path:url(#SVGID_00000004544622219622726550000008063587896232697252_);}
	.st52{fill-rule:evenodd;clip-rule:evenodd;fill:#BBADA3;}
	.st53{clip-path:url(#SVGID_00000004544622219622726550000008063587896232697252_);fill:#1D8B7B;}
	.st54{fill:#353538;}
	.st55{fill:none;stroke:#353538;stroke-width:14.48;stroke-miterlimit:10;}
	.st56{fill:#EBEFF4;}
	.st57{fill:#A7B2BC;}
	.st58{fill:#F0BFA1;}
	.st59{fill:#F4D3BD;}
	.st60{fill:#DBB084;}
	.st61{fill:#222222;}
	.st62{fill:#864C2F;}
	.st63{clip-path:url(#SVGID_00000106149324841822082980000008159185644442768280_);fill:#CB8D50;}
	.st64{fill-rule:evenodd;clip-rule:evenodd;fill:#F4D3BD;}
	.st65{clip-path:url(#SVGID_00000021824028589361954330000000524435302306936225_);fill:#CB8D50;}
	.st66{fill:#EFEFEF;}
	.st67{fill:#D2DEDE;}
	.st68{fill:#BAD4DB;}
	.st69{fill:url(#SVGID_00000161612015033793936310000008393531784684155567_);}
	.st70{fill:#B1D2DE;}
	.st71{opacity:0.2;fill:#E2E2E3;}
	.st72{opacity:0.2;fill:#BBBBBD;}
	.st73{fill:#FBD86D;}
	.st74{fill:#FDE9AB;}
	.st75{fill:#D6ECF4;}
	.st76{fill:#BAC96A;}
	.st77{fill:none;stroke:#C2D07D;stroke-width:2.1053;stroke-linecap:round;stroke-miterlimit:10;}
	.st78{fill:#FCDE81;}
	.st79{fill:url(#SVGID_00000181051185680232905700000000836063296909165205_);}
	.st80{fill:#1D1D1B;}
	.st81{fill:none;stroke:#1D8B7B;stroke-width:4.2858;stroke-linecap:round;stroke-miterlimit:10;}
	.st82{fill:#BFC028;}
	.st83{fill:#83C6DF;}
	.st84{fill:none;stroke:#1D1D1B;stroke-width:1.5288;stroke-linecap:round;stroke-linejoin:round;stroke-miterlimit:10;}
	.st85{fill:#1899C5;}
	.st86{fill:#6FBDDA;}
	.st87{fill:#6FBDDA;stroke:#30A1CA;stroke-width:1.0192;stroke-linecap:round;stroke-linejoin:round;stroke-miterlimit:10;}
	.st88{fill:#998375;}
	.st89{fill:#AA988C;}
	.st90{fill:#BBBABC;}
	.st91{fill:#CECECF;}
	.st92{fill-rule:evenodd;clip-rule:evenodd;fill:#AA988C;}
	.st93{fill:#C2D07D;}
	.st94{clip-path:url(#SVGID_00000158014816672829522330000003442852161884924835_);fill:#507690;}
	.st95{fill:url(#SVGID_00000004513334849668620500000007547791566163077782_);}
	.st96{fill:#053C60;}
	.st97{fill:#02292A;}
	.st98{fill:#EDF8F8;}
	.st99{fill:#231717;}
	.st100{fill:#DAF0F1;}
	.st101{opacity:0.4;fill:url(#SVGID_00000130634583517176277340000010799719285650612668_);}
	.st102{fill:#D1EDED;}
	.st103{fill:#075253;}
	.st104{clip-path:url(#SVGID_00000127027298612540610810000001153648906844991919_);}
	.st105{clip-path:url(#SVGID_00000127027298612540610810000001153648906844991919_);fill:#DAF0F1;}
	
		.st106{opacity:0.4;clip-path:url(#SVGID_00000127027298612540610810000001153648906844991919_);fill:url(#SVGID_00000085245371975123313420000010362026107250142127_);}
	.st107{clip-path:url(#SVGID_00000127027298612540610810000001153648906844991919_);fill:#075253;}
	.st108{clip-path:url(#SVGID_00000127027298612540610810000001153648906844991919_);fill:#F1933E;}
	.st109{clip-path:url(#SVGID_00000062886972941309437480000000884192074410230207_);}
	.st110{clip-path:url(#SVGID_00000175308192072368563270000004458974096102814132_);fill:#DAF0F1;}
	.st111{fill:#107A7C;}
	.st112{fill:#414042;}
	.st113{fill:#666666;}
	.st114{clip-path:url(#SVGID_00000062160599333282840340000016956440150187877541_);fill:#507690;}
	.st115{fill:url(#SVGID_00000160191878893832729380000000662263822483489212_);}
	.st116{opacity:0.4;fill:url(#SVGID_00000044887625374197325650000007631385788167728042_);}
	.st117{clip-path:url(#SVGID_00000168111150357039160290000016948927587332010129_);}
	.st118{clip-path:url(#SVGID_00000168111150357039160290000016948927587332010129_);fill:#DAF0F1;}
	
		.st119{opacity:0.4;clip-path:url(#SVGID_00000168111150357039160290000016948927587332010129_);fill:url(#SVGID_00000117673753668953255400000007800570685846381202_);}
	.st120{clip-path:url(#SVGID_00000168111150357039160290000016948927587332010129_);fill:#075253;}
	.st121{clip-path:url(#SVGID_00000168111150357039160290000016948927587332010129_);fill:#F1933E;}
	.st122{clip-path:url(#SVGID_00000155135017550861896050000000296009023150053550_);}
	.st123{clip-path:url(#SVGID_00000079469969793125104330000011504031511610800029_);fill:#DAF0F1;}
	.st124{clip-path:url(#SVGID_00000074413677239580072670000013209708181481634978_);fill:#996A49;}
	.st125{clip-path:url(#SVGID_00000074413677239580072670000013209708181481634978_);fill:#D19F6B;}
	.st126{clip-path:url(#SVGID_00000074413677239580072670000013209708181481634978_);}
	.st127{clip-path:url(#SVGID_00000074413677239580072670000013209708181481634978_);fill:#A8BC45;}
</style>
<path class="st4" d="M589.6,409.6H9.9c-3.3,0-6,2.7-6,6l0,0c0,3.3,2.7,6,6,6h579.7c3.3,0,6-2.7,6-6l0,0
	C595.6,412.3,592.9,409.6,589.6,409.6z"/>
<path class="st47" d="M462.8,159.4c0,0-2.1,8.8-1.9,15.2c0.4,8.5,2.2,17,5.1,25c0.6,1.7,6.5,17.9,6.6,17.8c0,0-56.8,14.9-56.9,14.9
	c-1.8,0.5-7.6-18.1-8.1-19.6c-1.5-4.2-2.9-8.5-4.3-12.8c-0.8-2.5-4.1-10.3-3-12c0,0,37-58.5,37-58.5l26.3,17.8L462.8,159.4z"/>
<path class="st22" d="M431,151.5c0,0,7.3-4.8,6.4-4.8c-0.6,7.4,0,25.2-5.2,33.7c-1.8,3-14.6,13.6-29.8,16.5l-2.1-9L431,151.5z"/>
<path class="st47" d="M365.2,156.9c1.2,2.1,3.7,5.1,7.9,6c0,0,3.2,3.1,1.5,7.3c0,0,0,0,0,0l0,0c0,0,0,0,0,0c0,0,0,0,0,0.1l0,0
	c0,0.2,0,0.8,0.3,1.5c0.4,0.7,2.9,2.5,3.2,2.6l0,0c0.1,0,0.2,0.1,0.2,0.1c0,0-1.1,4.5,0.1,5.8c0.3,0.4,0.7,0.7,1,0.9
	c0.9,0.6,1.7,0.7,1.7,0.7s2.4,3.5,1.9,5.3c0,0.1-0.1,0.2-0.1,0.3c-0.5,2-1.7,6.6-1.5,7.6c0.5,2.6,8.7,7.6,13.7,7.3
	c5-0.3,41.7-16.7,45.4-31.2c0,0-2.5-28-2.1-40.2c0-0.7,0.3-3.8,0.4-4.4l1.2,0.5l17.3,6.7l0.4,0.2c0,0,1,4.1,2.3,7.9c0,0,0,0,0,0
	c0.9,2.6,2,5.2,3.1,6c0,0,0.1,0.1,0.1,0.1c0.6,0.4,1.2,0.7,1.9,1c0.2,0.1,0.4,0.1,0.6,0.2c0,0,0,0,0,0c0.3,0.1,0.6,0.2,0.9,0.3
	c0,0,0,0,0,0c1,0.3,2,0.4,2.7,0.5c0.1,0,0.2,0,0.3,0c0.1,0,0.2,0,0.3,0c0.1,0,0.1,0,0.2,0c0,0,0.1,0,0.1,0c0,0,0.1,0,0.1,0
	c0.1,0,0.1,0,0.1,0c0,0,0.1,0,0.1,0s3.1-10,7.2-19.4c4.1-9.4,5.9-27.3,2.7-36.4c-3.2-9.1-4.4-10.7-4.4-10.7s-0.5-0.8-1.6-2.2
	c0,0,0,0,0,0c-0.2-0.3-0.4-0.5-0.6-0.8c-0.3-0.4-0.6-0.8-1-1.2l0,0c-7.4-8.9-27.2-28.1-56.8-23.5c-34.8,5.4-45.7,29.7-42.2,38.6
	c0.3,0.9,0.8,1.6,1.4,2.1c0,0,0,0,0,0s-7.7,24.6-5.4,32l5.1,7.6c0,0-4,12.3-5.4,13.7c-0.8,0.8-2.4,2.7-3.7,3.9
	C364.8,154.3,364.5,155.8,365.2,156.9z"/>
<path class="st80" d="M391.2,173.1c0,0,5.2,6.2,5.1,7.9c-0.1,3.9-4.7,5.7-4.7,5.7s-2.1,1.9-8.8,0.8c-0.5,2-1.7,6.6-1.5,7.6
	c0.5,2.6,8.7,7.6,13.7,7.3c5-0.3,41.7-16.7,45.4-31.2c0,0-2.5-28-2.1-40.2c0,0-0.2-1.5,0.1-1.9c0.3-0.5,0.9-1.2,1.5-2.1
	c1.8-2.5,4.5-5.8,5.7-5.9c1.9-0.2,10.5,8.7,10.5,8.7s0.4,1.6,1.1,3.9c0.7,2.3,1.7,5.4,2.7,8c0,0,0,0,0,0c1.1,2.8,2.2,5.3,3.1,6
	c0,0,0.1,0.1,0.1,0.1c0.6,0.4,1.2,0.7,1.9,1c0.2,0.1,0.4,0.1,0.6,0.2c0,0,0,0,0,0c0.3,0.1,0.6,0.2,0.9,0.3c0,0,0,0,0,0
	c1,0.3,2,0.4,2.7,0.5c0.1,0,0.2,0,0.3,0c0.1,0,0.2,0,0.3,0c0.1,0,0.1,0,0.2,0c0,0,0.1,0,0.1,0c0,0,0.1,0,0.1,0c0.1,0,0.1,0,0.1,0
	c0,0,0.1,0,0.1,0s3.1-10,7.2-19.4c4.1-9.4,5.9-27.3,2.7-36.4c-3.2-9.1-4.4-10.7-4.4-10.7s-0.5-0.8-1.6-2.2c0,0,0,0,0,0
	c-0.2-0.3-0.4-0.5-0.6-0.8c-0.3-0.4-0.6-0.8-1-1.2l0,0l-9.6-3.4l-58.5,16.2c0,0,11,6.8,13.2,23.1c0,0,2,3.2,6.4,4.6
	c4.4,1.4,3.8,19,3.2,27c-0.6,7.9-5.9,17.4-7.3,18.6c-1.4,1.1-13.1,14.2-17.8,11.6c-4.7-2.6-9.7-10-9.7-10s-6.8-5.8-11.5-4.9
	c-4.7,0.8-8.1,1.1-8.1,1.1s3.2,3.1,1.5,7.3c0,0,0,0,0,0l0,0c0,0,0,0,0,0c0,0,0,0,0,0.1l0,0c0,0.2,0,0.8,0.3,1.5l11,0.4L391.2,173.1z
	"/>
<path class="st47" d="M449,120.3c0,0,10.1,3.7,9.3,10.1c-0.8,6.4-10,14.7-12.4,20c-1.3,2.8-7,3.2-8.9,2.7c-1.9-0.5-4.5-2.1-4.5-2.1
	l4.8-22.3C437.3,128.6,442.7,119.2,449,120.3z"/>
<path class="st80" d="M376.6,98.1c-2.5,0.9-6,1.4-7.2-0.9c-0.5-1-0.5-2.3-1.4-2.9c-0.6-0.4-1.4-0.4-2-0.7c-2.2-1.1-0.3-4.5-0.5-6.9
	c-0.1-1.6-1.1-2.9-1.4-4.4c-0.3-1.5,0.6-3.6,2.2-3.3c-2.6-1.3-1.6-5.3,0.4-7.3s4.8-3.8,5.2-6.6c0.1-1,0-2,0.5-2.8
	c0.6-0.9,1.9-1.2,2.5-2.1c0.5-0.9,0.2-2.1,0.1-3.1c-0.1-2.6,2.1-5,4.7-5.1c2.6-0.1,5,2.1,5.1,4.7c2.6,0.6,4.8-1.9,5.8-4.3
	c1.1-2.4,1.8-5.2,4-6.6c5.5-3.7,13.2,4.8,19.1,1.7c1.6-0.9,2.7-2.5,4.4-3.3c2.8-1.3,6,0.1,8.9,1.2c2.9,1.1,6.7,1.6,8.6-0.8
	c0.5-0.6,0.8-1.3,1.3-1.8c1.1-0.9,2.7-0.8,4.1-0.6c3.8,0.6,8.6,2.3,8.5,6.2c0.9-1,2.5,0,3.2,1.1c0.6,1.1,1.1,2.6,2.3,3
	c2,0.7,4-1.9,5.9-1.2c0.7,0.2,1.1,0.8,1.6,1.3c2.1,2,5,2.7,7.6,4c2.6,1.3,4.9,4.2,3.9,6.9c2.3,0,4.6,0.1,6.6,1.2
	c2,1.1,3.3,3.7,2.4,5.7c-0.5,1-1.3,1.7-1.7,2.7c-0.8,2.4,1.7,4.6,2.4,7c1,3.5-2,6.8-4.7,9.2c-1.5,1.3-3.1,2.7-5.1,2.7
	c-2,0-3.9-1.5-5.9-1c-2.3,0.6-3.1,3.4-3.4,5.8c-3.6,1.1-5.3-5-9-5.8c-1.8-0.3-3.6,0.8-5.5,0.7c-3.2-0.1-6.7-3.5-9.1-1.3
	c-1.7,1.5-1.3,4.9-3.5,5.5c-2.1,0.5-3.5-2.6-5.6-3c-1.3-0.3-2.6,0.5-3.8,1.1c-8.1,3.8-19.2-0.1-27.5-1.4
	C392.3,91.1,384.4,95.4,376.6,98.1z"/>
<path class="st22" d="M384.3,181.5c-3.3,1.2-5.5,0.7-6.7-1.7c-0.2-0.5,0-1,0.4-1.2c0.5-0.2,1,0,1.2,0.4c0.3,0.7,1.1,2.3,5.3,0.4
	c2.8-1.3,4.3-2.9,4.5-3.2c0.3-0.4,0.8-0.6,1.2-0.3c0.4,0.2,0.6,0.8,0.4,1.2c-0.2,0.4-1.8,2.3-5.3,4
	C385,181.2,384.6,181.4,384.3,181.5z"/>
<path class="st22" d="M378,160.1c0.2,0,0.3-0.1,0.4-0.3c0.2-0.3,0.1-0.7-0.2-0.9c-0.2-0.1-2.3-1.3-3.8-0.8c-0.6,0.2-1,0.6-1.2,1.2
	c-0.1,0.3,0.1,0.7,0.4,0.8c0.3,0.1,0.7-0.1,0.8-0.4c0.1-0.3,0.3-0.4,0.4-0.5c0.7-0.3,2,0.3,2.7,0.7
	C377.7,160.2,377.8,160.2,378,160.1z"/>
<g>
	<g>
		<path class="st81" d="M102.2,365.4c1-5.4,15.2-54.2,32-64"/>
		<path class="st81" d="M107.2,365.4c-0.9-9.5,12.8-30.5,32-40.4"/>
		<path class="st81" d="M103,364.5c1-5.4,3.2-69.5,14.6-79.3"/>
		<path class="st81" d="M102.2,365.4c-0.3-13.5-14.2-41.5-33.2-47.3"/>
		<path class="st81" d="M102.2,365.4c-1-5.4,0.7-54.1-10.7-64"/>
		<path class="st82" d="M131.8,281.2c-5.5,9.2-17.7,11.9-21.5,9.7c-3.7-2.2-7.1-14.3-1.6-23.4c5.5-9.2,21.5-9.7,21.5-9.7
			S137.3,272,131.8,281.2z"/>
		<path class="st82" d="M72.1,305.9c8.6,6.3,10.2,18.8,7.6,22.2c-2.6,3.5-15,5.6-23.6-0.7s-7.6-22.2-7.6-22.2S63.4,299.5,72.1,305.9
			z"/>
		<path class="st82" d="M91.8,281.5c7.2,7.9,6.3,20.4,3,23.3c-3.2,2.9-15.8,2.6-23-5.3s-3-23.3-3-23.3S84.6,273.6,91.8,281.5z"/>
		<path class="st82" d="M151.7,306.1c-8.7,6.2-21.1,3.9-23.6,0.4c-2.5-3.5-0.8-15.9,7.9-22.1s23.6-0.4,23.6-0.4
			S160.4,299.9,151.7,306.1z"/>
		<path class="st82" d="M153.7,339.7c-10.6,1.6-20.5-6.1-21.2-10.4s6.6-14.5,17.2-16.1c10.6-1.6,21.2,10.4,21.2,10.4
			S164.3,338.1,153.7,339.7z"/>
	</g>
	<g>
		<polygon class="st83" points="127.8,410.2 83.5,410.2 68.6,350.5 142.7,350.5 		"/>
		<path class="st83" d="M142.7,363.7H68.6c-1.2,0-2.1-1-2.1-2.1v-11.4c0-1.2,1-2.1,2.1-2.1h74.1c1.2,0,2.1,1,2.1,2.1v11.4
			C144.8,362.7,143.9,363.7,142.7,363.7z"/>
	</g>
</g>
<g>
	<path class="st61" d="M384.2,134.4c0.5,2.3,2.4,3.8,4.2,3.4c1.8-0.4,2.8-2.6,2.3-4.9c-0.2-0.7-0.5-1.3-0.8-1.9
		c-1.7-0.1-3.6-0.1-5.5,0.3C384.1,132.2,384,133.3,384.2,134.4z"/>
	<path class="st84" d="M382.3,132.8c0,0,4-2.6,8.2-1.8s5.6,1.9,5.6,1.9"/>
</g>
<path class="st80" d="M399.3,124.8c0,0-5.5-5.8-10.3-5.5c-4.8,0.3-16,5.4-16,5.4s1.8,3.1,5.7,3.3c3.9,0.2,10.6-3.6,12.2-4
	C392.5,123.7,399.3,124.8,399.3,124.8z"/>
<path class="st22" d="M388.8,172.7c-2.7-0.7-6.5-2.4-8.9-3.1c-2.7-0.7-5.3,0.5-5.5,0.6c0,0,0,0.1,0,0.1c-0.4,1.8-0.5,3.3,1.4,4.4
	c1.6,0.9,3.4,1.2,5.1,1.1c3.8-0.2,7.1-0.1,10.5-1.9C392.5,173.3,389.1,172.6,388.8,172.7z"/>
<path class="st85" d="M466.5,201.4c-1.9,3.8-8.9,10.8-27.3,15.5c-18.4,4.8-30.3,0.9-31.1-2.7c0,0-20.9,55.5-25.7,75.4
	c-4.8,20-3.2,120.9-3.2,120.9h151.7c0,0-5.6-124.1-7.2-135.3c-1.6-11.2-10.4-32.7-17.6-40.7C498.9,226.7,466.5,201.4,466.5,201.4z"
	/>
<path class="st86" d="M499.3,338.9c0,0,19.4-39.3,16.2-67.6c-3.2-28.3-21.2-37.1-29.9-38.7c-8.8-1.6-39.9-2.4-43.1,41.9
	c-3.2,44.3-4.4,86.2-4.4,86.2s-6.4,43.4,10.3,43.4C465.1,404,499.3,338.9,499.3,338.9z"/>
<path class="st11" d="M555.5,410.8h-33.5v-173c0-8.1,6.5-14.6,14.6-14.6h4.3c8.1,0,14.6,6.5,14.6,14.6V410.8z"/>
<path class="st80" d="M385.4,171.7c0,0,5.9,1.4,7.9,3.9s0.9-2.2,0.9-2.2l-1.8-4.6l-4.9-0.9L385.4,171.7z"/>
<path class="st87" d="M491.3,338.9c12.6-27.5,23.6-55.2,23.4-68c-0.5-29.6-17.1-40.3-25.5-42.7c-8.4-2.4-38.6-5.9-45.8,39.7"/>
<path class="st5" d="M474.6,124.4l-28.2-9.5c-2.2-0.7-4.5,0.5-5.3,2.7l-21.6,64.1c-0.7,2.2,0.4,4.6,2.6,5.3l28.2,9.5
	c2.2,0.7,4.5-0.5,5.3-2.7l21.6-64.1C478,127.5,476.8,125.2,474.6,124.4z"/>
<path class="st88" d="M447.9,223.2c-0.2-3.3,1.7-10.3,1.7-10.3l11.2-14.9c0,0-3.6-19-3.5-18.9c-2.5-15.2-2.9-30.6-3.8-45.9
	c-0.1-1.2-0.1-2.4-0.7-3.5c-1.2-2.3-4.5-3.1-6.6-1.6c-1.8,1.2-2.4,3.5-2.8,5.6c-1.8,10.4,1.3,20.5-1.1,30.8
	c-0.7,3.1-2.7,4.5-5.8,0.8c0,0-6.8-9.5-6.8-9.5c-1.6-2.4-4.9-3-7.4-1.4c-2.3,1.5-3,4.6-1.6,7c-1.8-1.4-4.3-1.6-6.3-0.3
	c-2.4,1.6-3.1,4.9-1.4,7.3l0.2,0.3c-1.2-0.5-2.5-0.7-3.8-0.3c-5.9,1.9-2.7,7.9-1.4,11.8c2.8,7.9,1.7,16.6,2.9,24.9
	c1,6.9,6.2,17.7,8.7,24.2c0.6,1.7,10.8,2.5,14.5,2.8c4.9,0.4,5.7,1.7,10.1-0.6C444.8,227.9,448.2,227,447.9,223.2z"/>
<path class="st89" d="M445.3,134.4c0.8,2,5,1.8,6.2,0.3c0.1-0.1,0.1-0.2,0.2-0.3c0-0.1,0.1-0.2,0.1-0.2l0.1,0c0.1-2.1,0.9-5.7-3-6
	c-2.3-0.2-3.4,1.5-3.6,3.5C445.2,132.5,445.1,133.8,445.3,134.4z M451.8,131.5c0,0.1,0,0.3,0,0.3
	C451.8,131.9,451.8,131.6,451.8,131.5z"/>
<g>
	<path class="st88" d="M457.8,177.3c1.9-5.3,2.1-9.7,3.9-12.8c1.6-2.8,5.4-5.1,7-3.7c0,0.1,0,0.2,0,0.4c-0.6,0-1.2,0.2-1.6,0.7
		c-0.5,0.6-0.9,1.5-1,2.3c-0.2,1.1,0.4,2.1,1.3,2.4c0,0.1,0,0.1-0.1,0.2c-0.1,0.4,0.6,3.7,0.6,3.9c0.7,3.2,2.4,3.7,1.7,8.6
		c-0.6,3.7-3.5,4.2-5.3,14.9c0,0-3.7,8-8.9,4C453.5,195.4,456,182.4,457.8,177.3z"/>
	<path class="st50" d="M466,164.2c0.1-0.8,0.5-1.6,1-2.3c0.4-0.5,1-0.7,1.6-0.7c0,0.1,0,0.1,0,0.2c-0.1,1.1-0.7,3.3-1.3,5.2
		C466.5,166.3,465.9,165.3,466,164.2z"/>
</g>
<g>
	<path class="st90" d="M144.6,404.1L144.6,404.1c0,3.5,2.8,5.6,6.3,5.6h142.3c3.5,0,6.3-2.2,6.3-5.6H144.6z"/>
	<polygon class="st91" points="148.4,404 163.6,398.3 283.3,398.3 299.5,404 	"/>
	<path class="st90" d="M94.6,280.8l50.6,125.9c1,2.4,4.6,0.5,4.6,0.5L95.8,274.1C94.2,275.8,93.6,278.4,94.6,280.8"/>
	<polygon class="st33" points="148.4,404.1 163.6,398.3 120.2,295.1 95.8,274 	"/>
	<polygon class="st33" points="180.2,402.3 170.8,402.3 176.9,398.3 184.5,398.3 	"/>
	<polygon class="st33" points="190.7,402.3 181.3,402.3 185.4,398.3 192.9,398.3 	"/>
	<polygon class="st33" points="201.3,402.3 191.9,402.3 193.8,398.3 201.4,398.3 	"/>
	<polygon class="st33" points="211.8,402.3 202.4,402.3 202.3,398.3 209.8,398.3 	"/>
	<polygon class="st33" points="222.3,402.3 212.9,402.3 210.7,398.3 218.3,398.3 	"/>
	<polygon class="st33" points="232.9,402.3 223.5,402.3 219.2,398.3 226.7,398.3 	"/>
	<path class="st33" d="M160.1,408.3h-5.7c-0.1,0-0.3-0.1-0.3-0.3v-1.9c0-0.1,0.1-0.3,0.3-0.3h5.7c0.1,0,0.3,0.1,0.3,0.3v1.9
		C160.3,408.2,160.2,408.3,160.1,408.3"/>
	<path class="st33" d="M168.6,408.3H163c-0.1,0-0.3-0.1-0.3-0.3v-1.9c0-0.1,0.1-0.3,0.3-0.3h5.7c0.1,0,0.3,0.1,0.3,0.3v1.9
		C168.9,408.2,168.8,408.3,168.6,408.3"/>
	<path class="st47" d="M307.6,371l-14.5-16.3l-3.9-5.6c-5.9,2.9-13.3,8.8-25.1,9.7c-11.6,0.9-26.3,3.3-29,5.1
		c-2.7,1.9-7.3,2.4-13.5,6.3c-6,3.8-17,11.9-20,13.6c-2.9,1.7-10.5,4-9.5,5.6c1,1.7,2.1,3.1,3.3,3.2c1.3,0.2-3.7,4.3-2.8,5.3
		c0.9,1,6.2,3.3,8.8,1c2.6-2.3,8.4-6.3,8-5.1c-0.4,1.2-4.1,6.8-2.4,6.8c1.7,0,5.6,0.2,8-2.4c2.4-2.6,3.9-3.5,6-6.9
		c2.1-3.4,7-4.3,12.5-6.7c5.6-2.4,7.6-4.1,15.4-5.7c0.6-0.1,1.3-0.3,1.9-0.4c-2.1,2.8-5,5.6-8.1,7.1c-5.4,2.7-12.9,7.6-17.8,9.9
		c-2.1,1-5.5,3.2-4.8,6.5c0.6,2.7,2.3,3.3,2.9,3.7c3.1,1.6,13.6-4,19.9-7.6c4.3-2.4,13.8-5.3,17-5.4c9.8-2.7,16.1-12.3,23.3-15.4
		c0,0,4.3-3.5,4.3-3.5c5-1.2,12.6-0.6,17.3-2C305.6,371.7,306.5,371.4,307.6,371"/>
	<path class="st85" d="M369.2,377.6l-83.6,7c0,0-19.1-8.8-22.3-27.6c0,0,73.3-37.4,115.2-44.6c6.8-1.7,14.5-2.2,22.5-0.9
		c24.4,3.7,41.3,9.8,40.1,27.8C439.1,366.8,369.2,377.6,369.2,377.6z"/>
	<path class="st22" d="M201.7,383.8c-2.9,1.7-10.5,4-9.5,5.6c1,1.7,2.1,3.1,3.3,3.2c0.1,0,0.2,0.1,0.2,0.2c0.2-2.3,3.6-7,6.9-9.6
		C202.2,383.5,201.9,383.7,201.7,383.8"/>
	<path class="st47" d="M228.6,385.3c0,0,12.1-2.1,9.1,5.9c-2.8,7.5,19-9.1,19-9.1l-14-8.1L228.6,385.3z"/>
</g>
<path class="st87" d="M418.9,231.7c-7.6,35.9-8.1,55.7-12.2,78.7c-2.3,13.1-4.1,34-5.3,49.6"/>
<path class="st86" d="M447.9,223.1c0,0-11.9,11.3-30.8,4.4c-0.1,0-1,6.5-1.1,7c-1.8,7.8-2.8,15.8-3.8,23.7
	c-2.9,22.4-8.3,42.5-9.8,65c-0.9,13.1-1.5,26.2-0.9,39.3c0.6,11.9,4.8,31.2,15.2,39.2c17,13.1,41.2,4.7,49.4-13.9
	c6.5-14.6,9-29.8,6.7-44.9c-1.8-11.8-5.6-25.8-8.7-39.9c-5.1-23.1-9.9-42.7-13.5-66C450.5,236.1,449.1,229,447.9,223.1z"/>
<line class="st87" x1="451.4" y1="241.5" x2="475" y2="356.5"/>
<path class="st92" d="M224.6,398.6c-0.4,0.2-1.3,0.9-1.3,1c-0.3,0.5-0.3,1.2-0.2,1.7c0,0.2,0.1,0.3,0.1,0.5c0,0,0,0.1,0,0.1
	c0.1,0.3,0.2,0.6,0.4,0.9c0.2,0.3,0.3,0.6,0.6,0.8c0,0,0.1,0.1,0.1,0.1c0.1,0.1,0.2,0.2,0.3,0.3c0.4,0.4,1,0.8,1.6,0.8
	c0.1,0,1.2-0.3,1.6-0.6c0.8-0.4,1.7-0.9,1.8-1.1c1-1,1.2-2.6,0.5-3.8c-0.6-1.2-2.1-2-3.5-1.7C226.3,397.7,225.4,398.1,224.6,398.6z"
	/>
<g>
	<g>
		<path class="st0" d="M313.8,117.4c-2.3,0.9-4.9,1.3-7.4,0.2c-38.5-16.6-80.3-17.6-119-2.2s-69,45.1-85,83.4
			c-2.1,4.9-7.4,7-12.3,4.9c-4.9-2.1-7-7.4-4.9-12.3c18.1-43.2,52.4-76.5,95.7-93.8s90.6-16.4,134,2.4c4.9,2.1,7,7.4,4.9,12.3
			C318.2,114.9,316.1,116.5,313.8,117.4z"/>
		<path class="st0" d="M295.3,161.4c-2.3,0.9-4.9,1.3-7.4,0.2c-26.4-11.9-56.4-12.2-83.4-1.4c-27,10.7-48,31.3-59.6,58.3
			c-2.1,4.9-7.4,7-12.3,4.9c-4.9-2.1-7-7.4-4.9-12.3c13.2-31.7,38.2-55.9,69.8-68.5s66.4-12.2,97.8,1.8c4.9,2.1,7,7.4,4.9,12.3
			C299.5,158.4,297.7,160.5,295.3,161.4z"/>
		<path class="st0" d="M184,241.7c-2.3,0.9-4.9,1.3-7.4,0.2c-4.9-2.1-7-7.4-4.9-12.3c17.6-41,64.5-59.6,105.5-42
			c4.9,2.1,7,7.4,4.9,12.3c-2.1,4.9-7.4,7-12.3,4.9c-31.1-13.4-67.5,1-80.3,31.9C187.9,239.4,186.4,240.7,184,241.7z"/>
		
			<ellipse transform="matrix(0.9291 -0.3697 0.3697 0.9291 -76.2211 107.3502)" class="st0" cx="242" cy="252.5" rx="23.3" ry="24"/>
	</g>
</g>
</svg>
