<?xml version="1.0" encoding="utf-8"?>
<!-- Generator: Adobe Illustrator 26.4.0, SVG Export Plug-In . SVG Version: 6.00 Build 0)  -->
<svg version="1.1" id="Layer_1" xmlns="http://www.w3.org/2000/svg" xmlns:xlink="http://www.w3.org/1999/xlink" x="0px" y="0px"
	 viewBox="0 0 600 411.7" style="enable-background:new 0 0 600 411.7;" xml:space="preserve">
<style type="text/css">
	.st0{fill:#E4E8EA;}
	.st1{fill:#FBFEFE;}
	.st2{fill:#FFFFFF;}
	.st3{fill:#E2E2E3;}
	.st4{fill:#233E57;}
	.st5{fill:#9BB1BF;}
	.st6{fill:#657889;}
	.st7{fill:#1899C5;}
	.st8{fill:#E7ECF2;}
	.st9{fill:#A8BC45;}
	.st10{clip-path:url(#SVGID_00000033342051024880635490000003487593373419186363_);fill:#553119;}
	.st11{clip-path:url(#SVGID_00000033342051024880635490000003487593373419186363_);fill:#886F5E;}
	.st12{clip-path:url(#SVGID_00000033342051024880635490000003487593373419186363_);}
	.st13{fill:#F5F5F6;}
	.st14{fill:#BBBBBD;}
	.st15{fill:#886F5E;}
	.st16{fill:#553119;}
	.st17{clip-path:url(#SVGID_00000033342051024880635490000003487593373419186363_);fill:#30A1CA;}
	.st18{fill:#E4E8EA;stroke:#1D1D1B;stroke-width:0.4707;stroke-miterlimit:10;}
	.st19{fill:#D3D8DD;}
	.st20{fill:#3D6092;}
	.st21{fill:#6390B5;}
	.st22{fill:#00A3A6;}
	.st23{fill:#99B1BC;}
	.st24{fill:none;}
	.st25{fill-rule:evenodd;clip-rule:evenodd;fill:#3D6092;}
	.st26{fill:#A6BFD5;}
	.st27{fill:#707071;}
	.st28{fill:#5EA77D;}
	.st29{fill:#198145;}
	.st30{fill:#E9ECEE;}
	.st31{fill:#7890B3;}
	.st32{fill:#043C55;}
	.st33{fill:#B2BFD3;}
	.st34{fill:#ADECE2;}
	.st35{opacity:0.7;fill:#99B1BC;}
	.st36{fill:#1D8B7B;}
	.st37{fill:#31CFB6;}
	.st38{fill:none;stroke:#99B1BC;stroke-width:6;stroke-linecap:round;stroke-linejoin:round;stroke-miterlimit:10;}
	.st39{fill:#30A1CA;}
	.st40{fill:#BBADA3;}
	.st41{clip-path:url(#SVGID_00000029019699775356898480000000176811333588408722_);}
	.st42{fill-rule:evenodd;clip-rule:evenodd;fill:#BBADA3;}
	.st43{clip-path:url(#SVGID_00000029019699775356898480000000176811333588408722_);fill:#1D8B7B;}
	.st44{fill:#353538;}
	.st45{fill:none;stroke:#353538;stroke-width:14.48;stroke-miterlimit:10;}
	.st46{fill:#EBEFF4;}
	.st47{fill:#A7B2BC;}
	.st48{fill:#F0BFA1;}
	.st49{fill:#F4D3BD;}
	.st50{fill:#CB8D50;}
	.st51{fill:#DBB084;}
	.st52{fill:#222222;}
	.st53{fill:#864C2F;}
	.st54{clip-path:url(#SVGID_00000031169776367236480010000005723504151798435712_);fill:#CB8D50;}
	.st55{fill-rule:evenodd;clip-rule:evenodd;fill:#F4D3BD;}
	.st56{clip-path:url(#SVGID_00000111185010636928069390000013265350282081772950_);fill:#CB8D50;}
	.st57{fill:#507690;}
	.st58{fill:#EFEFEF;}
	.st59{fill:#D2DEDE;}
	.st60{fill:#BAD4DB;}
	.st61{fill:url(#SVGID_00000109015210917859725820000013400828749567272356_);}
	.st62{fill:#B1D2DE;}
	.st63{opacity:0.2;fill:#E2E2E3;}
	.st64{opacity:0.2;fill:#BBBBBD;}
	.st65{fill:#FBD86D;}
	.st66{fill:#FDE9AB;}
	.st67{fill:#D6ECF4;}
	.st68{fill:#F1933E;}
	.st69{fill:#BAC96A;}
	.st70{fill:#B05B29;}
	.st71{fill:none;stroke:#C2D07D;stroke-width:2.1053;stroke-linecap:round;stroke-miterlimit:10;}
	.st72{fill:#FCDE81;}
	.st73{fill:url(#SVGID_00000083082103221743476080000003440956603794796433_);}
	.st74{fill:#1D1D1B;}
	.st75{fill:none;stroke:#1D8B7B;stroke-width:4.2858;stroke-linecap:round;stroke-miterlimit:10;}
	.st76{fill:#BFC028;}
	.st77{fill:#83C6DF;}
	.st78{fill:none;stroke:#1D1D1B;stroke-width:1.5288;stroke-linecap:round;stroke-linejoin:round;stroke-miterlimit:10;}
	.st79{fill:#6FBDDA;}
	.st80{fill:#6FBDDA;stroke:#30A1CA;stroke-width:1.0192;stroke-linecap:round;stroke-linejoin:round;stroke-miterlimit:10;}
	.st81{fill:#998375;}
	.st82{fill:#AA988C;}
	.st83{fill:#BBBABC;}
	.st84{fill:#CECECF;}
	.st85{fill-rule:evenodd;clip-rule:evenodd;fill:#AA988C;}
	.st86{fill:#996A49;}
	.st87{fill:#D19F6B;}
	.st88{opacity:0.7;fill:#FFFFFF;}
	.st89{fill:none;stroke:#A8BC45;stroke-width:3.7663;stroke-miterlimit:10;}
	.st90{fill:none;stroke:#000000;stroke-width:3.7483;stroke-miterlimit:10;}
	.st91{opacity:0.8;fill:#ACD9EA;}
	.st92{fill:#CE0B24;}
	.st93{fill:#FAC82E;}
	.st94{fill:#C2D07D;}
	.st95{clip-path:url(#SVGID_00000091703526834133770420000009126492975278980744_);fill:#507690;}
	.st96{fill:url(#SVGID_00000085243181695780462980000012462931789954794375_);}
	.st97{fill:#053C60;}
	.st98{fill:#02292A;}
	.st99{fill:#EDF8F8;}
	.st100{fill:#231717;}
	.st101{fill:#DAF0F1;}
	.st102{opacity:0.4;fill:url(#SVGID_00000141456785970161245060000017579240996387835017_);}
	.st103{fill:#D1EDED;}
	.st104{fill:#075253;}
	.st105{clip-path:url(#SVGID_00000124162756360102802680000003687898490710367117_);}
	.st106{clip-path:url(#SVGID_00000124162756360102802680000003687898490710367117_);fill:#DAF0F1;}
	
		.st107{opacity:0.4;clip-path:url(#SVGID_00000124162756360102802680000003687898490710367117_);fill:url(#SVGID_00000011725289894753030470000008969128420225102984_);}
	.st108{clip-path:url(#SVGID_00000124162756360102802680000003687898490710367117_);fill:#075253;}
	.st109{clip-path:url(#SVGID_00000124162756360102802680000003687898490710367117_);fill:#F1933E;}
	.st110{clip-path:url(#SVGID_00000065792506459492922000000013038297133815280513_);}
	.st111{clip-path:url(#SVGID_00000080913815729321741300000008661838087422809256_);fill:#DAF0F1;}
	.st112{fill:#107A7C;}
	.st113{fill:#414042;}
	.st114{fill:#666666;}
	.st115{clip-path:url(#SVGID_00000175283169134909813950000012144055202149290666_);fill:#507690;}
	.st116{fill:url(#SVGID_00000090988783418329696530000015968069412722412937_);}
	.st117{opacity:0.4;fill:url(#SVGID_00000038402234091902378850000001580222106006013874_);}
	.st118{clip-path:url(#SVGID_00000129926471412912088970000002758289561687490212_);}
	.st119{clip-path:url(#SVGID_00000129926471412912088970000002758289561687490212_);fill:#DAF0F1;}
	
		.st120{opacity:0.4;clip-path:url(#SVGID_00000129926471412912088970000002758289561687490212_);fill:url(#SVGID_00000072258588639593709150000010949519107941951134_);}
	.st121{clip-path:url(#SVGID_00000129926471412912088970000002758289561687490212_);fill:#075253;}
	.st122{clip-path:url(#SVGID_00000129926471412912088970000002758289561687490212_);fill:#F1933E;}
	.st123{clip-path:url(#SVGID_00000090291718732183252390000012749167055083192961_);}
	.st124{clip-path:url(#SVGID_00000101825268705307742910000016963897153965411230_);fill:#DAF0F1;}
	.st125{clip-path:url(#SVGID_00000059269158373464104780000003328816032489143196_);fill:#553119;}
	.st126{clip-path:url(#SVGID_00000059269158373464104780000003328816032489143196_);fill:#886F5E;}
	.st127{clip-path:url(#SVGID_00000059269158373464104780000003328816032489143196_);}
	.st128{clip-path:url(#SVGID_00000059269158373464104780000003328816032489143196_);fill:#30A1CA;}
</style>
<g>
	<g>
		<g>
			<g>
				<polygon class="st0" points="262.6,65.4 262.6,411.4 147.6,411.4 147.6,6.5 208.4,37.6 209.6,38.2 210.1,38.5 210.8,38.8 
					210.9,38.9 231,49.2 231.6,49.5 235,51.3 251.8,59.9 252.4,60.2 				"/>
				<polygon class="st0" points="194.6,411.4 147.6,411.4 147.6,6.5 194.6,30.6 				"/>
				<polygon class="st0" points="262.6,411.4 238.7,411.4 238.7,53.2 262.6,65.4 				"/>
				<g>
					<rect x="147.6" y="66.2" class="st0" width="115" height="0.6"/>
					<polygon class="st0" points="259.7,58.6 262.6,60.1 262.6,66.2 147.6,66.2 147.6,37.6 218.7,37.6 220,38.2 231,43.9 
						231.6,44.2 232.9,44.9 251.8,54.6 252.4,54.9 					"/>
					<rect x="147.7" y="66.8" class="st0" width="115" height="9.6"/>
					<polygon class="st0" points="251.8,54.6 252.4,54.9 252.4,66.2 251.8,66.2 					"/>
					<polygon class="st0" points="231,43.9 231.6,44.2 231.6,66.2 231,66.2 					"/>
					<rect x="210.1" y="37.6" class="st0" width="0.6" height="28.6"/>
					<rect x="189.3" y="37.6" class="st0" width="0.6" height="28.6"/>
					<rect x="168.5" y="37.6" class="st0" width="0.6" height="28.6"/>
					<rect x="147.6" y="37.6" class="st0" width="0.6" height="28.6"/>
					<polygon class="st0" points="218.7,37.6 220,38.2 147.6,38.2 147.6,37.6 					"/>
					<path class="st0" d="M262.6,62.1v4.1h-10.2V54.9l7.3,3.7C260.6,59.9,261.6,61,262.6,62.1z"/>
					<path class="st0" d="M251.8,66.2h-20.2v-22l1.4,0.7c0.5,1.9,1.2,4.1,2.1,6.4C237.9,58.5,243,66.2,251.8,66.2z"/>
					<path class="st0" d="M212.2,38.2v28h20.2C215.6,66.2,212.2,38.2,212.2,38.2z"/>
					<path class="st0" d="M191.4,38.2v28h20.2C194.7,66.2,191.4,38.2,191.4,38.2z"/>
					<path class="st0" d="M170.5,38.2v28h20.2C173.9,66.2,170.5,38.2,170.5,38.2z"/>
					<path class="st0" d="M149.7,38.2v28h20.2C153.1,66.2,149.7,38.2,149.7,38.2z"/>
				</g>
				<polygon class="st0" points="262.6,60.1 262.6,65.4 252.4,60.2 251.8,59.9 235,51.3 231.6,49.5 231,49.2 210.9,38.9 210.8,38.8 
					210.1,38.5 209.6,38.2 208.4,37.6 147.6,6.5 147.6,1.2 218.7,37.6 220,38.2 231,43.9 231.6,44.2 232.9,44.9 251.8,54.6 
					252.4,54.9 259.7,58.6 				"/>
				<g>
					<g>
						<rect x="156.8" y="363.7" class="st0" width="12.1" height="12.1"/>
						<path class="st0" d="M168.9,375.8c-10.1,0-12.1-12.1-12.1-12.1h12.1V375.8z"/>
					</g>
					<path class="st0" d="M168.9,363.7v12.1h-12.1v-12.1H168.9 M168.9,363.2h-12.1c-0.2,0-0.4,0.2-0.4,0.4v12.1
						c0,0.2,0.2,0.4,0.4,0.4h12.1c0.2,0,0.4-0.2,0.4-0.4v-12.1C169.3,363.4,169.1,363.2,168.9,363.2L168.9,363.2z"/>
					<rect x="154.8" y="375.8" class="st0" width="16.2" height="2"/>
					<rect x="154.8" y="377.8" class="st0" width="16.2" height="2"/>
				</g>
				<g>
					<g>
						<rect x="185" y="363.7" class="st0" width="12.1" height="12.1"/>
						<path class="st0" d="M197,375.8c-10.1,0-12.1-12.1-12.1-12.1H197V375.8z"/>
					</g>
					<path class="st0" d="M197,363.7v12.1H185v-12.1H197 M197,363.2H185c-0.2,0-0.4,0.2-0.4,0.4v12.1c0,0.2,0.2,0.4,0.4,0.4H197
						c0.2,0,0.4-0.2,0.4-0.4v-12.1C197.5,363.4,197.3,363.2,197,363.2L197,363.2z"/>
					<rect x="183" y="375.8" class="st0" width="16.2" height="2"/>
					<rect x="183" y="377.8" class="st0" width="16.2" height="2"/>
				</g>
				<g>
					<g>
						<rect x="156.8" y="329" class="st0" width="12.1" height="12.1"/>
						<path class="st0" d="M168.9,341.1c-10.1,0-12.1-12.1-12.1-12.1h12.1V341.1z"/>
					</g>
					<path class="st0" d="M168.9,329v12.1h-12.1V329H168.9 M168.9,328.6h-12.1c-0.2,0-0.4,0.2-0.4,0.4v12.1c0,0.2,0.2,0.4,0.4,0.4
						h12.1c0.2,0,0.4-0.2,0.4-0.4V329C169.3,328.8,169.1,328.6,168.9,328.6L168.9,328.6z"/>
					<rect x="154.8" y="341.1" class="st0" width="16.2" height="2"/>
					<rect x="154.8" y="343.1" class="st0" width="16.2" height="2"/>
				</g>
				<g>
					<g>
						<rect x="185" y="329" class="st0" width="12.1" height="12.1"/>
						<path class="st0" d="M197,341.1C187,341.1,185,329,185,329H197V341.1z"/>
					</g>
					<path class="st0" d="M197,329v12.1H185V329H197 M197,328.6H185c-0.2,0-0.4,0.2-0.4,0.4v12.1c0,0.2,0.2,0.4,0.4,0.4H197
						c0.2,0,0.4-0.2,0.4-0.4V329C197.5,328.8,197.3,328.6,197,328.6L197,328.6z"/>
					<rect x="183" y="341.1" class="st0" width="16.2" height="2"/>
					<rect x="183" y="343.1" class="st0" width="16.2" height="2"/>
				</g>
				<g>
					<g>
						<rect x="213.1" y="329" class="st0" width="12.1" height="12.1"/>
						<path class="st0" d="M225.2,341.1c-10.1,0-12.1-12.1-12.1-12.1h12.1V341.1z"/>
					</g>
					<path class="st0" d="M225.2,329v12.1h-12.1V329H225.2 M225.2,328.6h-12.1c-0.2,0-0.4,0.2-0.4,0.4v12.1c0,0.2,0.2,0.4,0.4,0.4
						h12.1c0.2,0,0.4-0.2,0.4-0.4V329C225.6,328.8,225.4,328.6,225.2,328.6L225.2,328.6z"/>
					<rect x="211.1" y="341.1" class="st0" width="16.2" height="2"/>
					<rect x="211.1" y="343.1" class="st0" width="16.2" height="2"/>
				</g>
				<g>
					<g>
						<rect x="241.3" y="329" class="st0" width="12.1" height="12.1"/>
						<path class="st0" d="M253.4,341.1c-10.1,0-12.1-12.1-12.1-12.1h12.1V341.1z"/>
					</g>
					<path class="st0" d="M253.4,329v12.1h-12.1V329H253.4 M253.4,328.6h-12.1c-0.2,0-0.4,0.2-0.4,0.4v12.1c0,0.2,0.2,0.4,0.4,0.4
						h12.1c0.2,0,0.4-0.2,0.4-0.4V329C253.8,328.8,253.6,328.6,253.4,328.6L253.4,328.6z"/>
					<rect x="239.3" y="341.1" class="st0" width="16.2" height="2"/>
					<rect x="239.3" y="343.1" class="st0" width="16.2" height="2"/>
				</g>
				<g>
					<g>
						<rect x="156.8" y="294.3" class="st0" width="12.1" height="12.1"/>
						<path class="st0" d="M168.9,306.4c-10.1,0-12.1-12.1-12.1-12.1h12.1V306.4z"/>
					</g>
					<path class="st0" d="M168.9,294.3v12.1h-12.1v-12.1H168.9 M168.9,293.9h-12.1c-0.2,0-0.4,0.2-0.4,0.4v12.1
						c0,0.2,0.2,0.4,0.4,0.4h12.1c0.2,0,0.4-0.2,0.4-0.4v-12.1C169.3,294.1,169.1,293.9,168.9,293.9L168.9,293.9z"/>
					<rect x="154.8" y="306.4" class="st0" width="16.2" height="2"/>
					<rect x="154.8" y="308.4" class="st0" width="16.2" height="2"/>
				</g>
				<g>
					<g>
						<rect x="185" y="294.3" class="st0" width="12.1" height="12.1"/>
						<path class="st0" d="M197,306.4c-10.1,0-12.1-12.1-12.1-12.1H197V306.4z"/>
					</g>
					<path class="st0" d="M197,294.3v12.1H185v-12.1H197 M197,293.9H185c-0.2,0-0.4,0.2-0.4,0.4v12.1c0,0.2,0.2,0.4,0.4,0.4H197
						c0.2,0,0.4-0.2,0.4-0.4v-12.1C197.5,294.1,197.3,293.9,197,293.9L197,293.9z"/>
					<rect x="183" y="306.4" class="st0" width="16.2" height="2"/>
					<rect x="183" y="308.4" class="st0" width="16.2" height="2"/>
				</g>
				<g>
					<g>
						<rect x="213.1" y="294.3" class="st0" width="12.1" height="12.1"/>
						<path class="st0" d="M225.2,306.4c-10.1,0-12.1-12.1-12.1-12.1h12.1V306.4z"/>
					</g>
					<path class="st0" d="M225.2,294.3v12.1h-12.1v-12.1H225.2 M225.2,293.9h-12.1c-0.2,0-0.4,0.2-0.4,0.4v12.1
						c0,0.2,0.2,0.4,0.4,0.4h12.1c0.2,0,0.4-0.2,0.4-0.4v-12.1C225.6,294.1,225.4,293.9,225.2,293.9L225.2,293.9z"/>
					<rect x="211.1" y="306.4" class="st0" width="16.2" height="2"/>
					<rect x="211.1" y="308.4" class="st0" width="16.2" height="2"/>
				</g>
				<g>
					<g>
						<rect x="241.3" y="294.3" class="st0" width="12.1" height="12.1"/>
						<path class="st0" d="M253.4,306.4c-10.1,0-12.1-12.1-12.1-12.1h12.1V306.4z"/>
					</g>
					<path class="st0" d="M253.4,294.3v12.1h-12.1v-12.1H253.4 M253.4,293.9h-12.1c-0.2,0-0.4,0.2-0.4,0.4v12.1
						c0,0.2,0.2,0.4,0.4,0.4h12.1c0.2,0,0.4-0.2,0.4-0.4v-12.1C253.8,294.1,253.6,293.9,253.4,293.9L253.4,293.9z"/>
					<rect x="239.3" y="306.4" class="st0" width="16.2" height="2"/>
					<rect x="239.3" y="308.4" class="st0" width="16.2" height="2"/>
				</g>
				<g>
					<g>
						<rect x="156.8" y="259.7" class="st0" width="12.1" height="12.1"/>
						<path class="st0" d="M168.9,271.7c-10.1,0-12.1-12.1-12.1-12.1h12.1V271.7z"/>
					</g>
					<path class="st0" d="M168.9,259.7v12.1h-12.1v-12.1H168.9 M168.9,259.2h-12.1c-0.2,0-0.4,0.2-0.4,0.4v12.1
						c0,0.2,0.2,0.4,0.4,0.4h12.1c0.2,0,0.4-0.2,0.4-0.4v-12.1C169.3,259.4,169.1,259.2,168.9,259.2L168.9,259.2z"/>
					<rect x="154.8" y="271.7" class="st0" width="16.2" height="2"/>
					<rect x="154.8" y="273.8" class="st0" width="16.2" height="2"/>
				</g>
				<g>
					<g>
						<rect x="185" y="259.7" class="st0" width="12.1" height="12.1"/>
						<path class="st0" d="M197,271.7c-10.1,0-12.1-12.1-12.1-12.1H197V271.7z"/>
					</g>
					<path class="st0" d="M197,259.7v12.1H185v-12.1H197 M197,259.2H185c-0.2,0-0.4,0.2-0.4,0.4v12.1c0,0.2,0.2,0.4,0.4,0.4H197
						c0.2,0,0.4-0.2,0.4-0.4v-12.1C197.5,259.4,197.3,259.2,197,259.2L197,259.2z"/>
					<rect x="183" y="271.7" class="st0" width="16.2" height="2"/>
					<rect x="183" y="273.8" class="st0" width="16.2" height="2"/>
				</g>
				<g>
					<g>
						<rect x="213.1" y="259.7" class="st0" width="12.1" height="12.1"/>
						<path class="st0" d="M225.2,271.7c-10.1,0-12.1-12.1-12.1-12.1h12.1V271.7z"/>
					</g>
					<path class="st0" d="M225.2,259.7v12.1h-12.1v-12.1H225.2 M225.2,259.2h-12.1c-0.2,0-0.4,0.2-0.4,0.4v12.1
						c0,0.2,0.2,0.4,0.4,0.4h12.1c0.2,0,0.4-0.2,0.4-0.4v-12.1C225.6,259.4,225.4,259.2,225.2,259.2L225.2,259.2z"/>
					<rect x="211.1" y="271.7" class="st0" width="16.2" height="2"/>
					<rect x="211.1" y="273.8" class="st0" width="16.2" height="2"/>
				</g>
				<g>
					<g>
						<rect x="241.3" y="259.7" class="st0" width="12.1" height="12.1"/>
						<path class="st0" d="M253.4,271.7c-10.1,0-12.1-12.1-12.1-12.1h12.1V271.7z"/>
					</g>
					<path class="st0" d="M253.4,259.7v12.1h-12.1v-12.1H253.4 M253.4,259.2h-12.1c-0.2,0-0.4,0.2-0.4,0.4v12.1
						c0,0.2,0.2,0.4,0.4,0.4h12.1c0.2,0,0.4-0.2,0.4-0.4v-12.1C253.8,259.4,253.6,259.2,253.4,259.2L253.4,259.2z"/>
					<rect x="239.3" y="271.7" class="st0" width="16.2" height="2"/>
					<rect x="239.3" y="273.8" class="st0" width="16.2" height="2"/>
				</g>
				<g>
					<g>
						<rect x="156.8" y="225" class="st0" width="12.1" height="12.1"/>
						<path class="st0" d="M168.9,237.1c-10.1,0-12.1-12.1-12.1-12.1h12.1V237.1z"/>
					</g>
					<path class="st0" d="M168.9,225v12.1h-12.1V225H168.9 M168.9,224.6h-12.1c-0.2,0-0.4,0.2-0.4,0.4v12.1c0,0.2,0.2,0.4,0.4,0.4
						h12.1c0.2,0,0.4-0.2,0.4-0.4V225C169.3,224.8,169.1,224.6,168.9,224.6L168.9,224.6z"/>
					<rect x="154.8" y="237.1" class="st0" width="16.2" height="2"/>
					<rect x="154.8" y="239.1" class="st0" width="16.2" height="2"/>
				</g>
				<g>
					<g>
						<rect x="185" y="225" class="st0" width="12.1" height="12.1"/>
						<path class="st0" d="M197,237.1C187,237.1,185,225,185,225H197V237.1z"/>
					</g>
					<path class="st0" d="M197,225v12.1H185V225H197 M197,224.6H185c-0.2,0-0.4,0.2-0.4,0.4v12.1c0,0.2,0.2,0.4,0.4,0.4H197
						c0.2,0,0.4-0.2,0.4-0.4V225C197.5,224.8,197.3,224.6,197,224.6L197,224.6z"/>
					<rect x="183" y="237.1" class="st0" width="16.2" height="2"/>
					<rect x="183" y="239.1" class="st0" width="16.2" height="2"/>
				</g>
				<g>
					<g>
						<rect x="213.1" y="225" class="st0" width="12.1" height="12.1"/>
						<path class="st0" d="M225.2,237.1c-10.1,0-12.1-12.1-12.1-12.1h12.1V237.1z"/>
					</g>
					<path class="st0" d="M225.2,225v12.1h-12.1V225H225.2 M225.2,224.6h-12.1c-0.2,0-0.4,0.2-0.4,0.4v12.1c0,0.2,0.2,0.4,0.4,0.4
						h12.1c0.2,0,0.4-0.2,0.4-0.4V225C225.6,224.8,225.4,224.6,225.2,224.6L225.2,224.6z"/>
					<rect x="211.1" y="237.1" class="st0" width="16.2" height="2"/>
					<rect x="211.1" y="239.1" class="st0" width="16.2" height="2"/>
				</g>
				<g>
					<g>
						<rect x="241.3" y="225" class="st0" width="12.1" height="12.1"/>
						<path class="st0" d="M253.4,237.1c-10.1,0-12.1-12.1-12.1-12.1h12.1V237.1z"/>
					</g>
					<path class="st0" d="M253.4,225v12.1h-12.1V225H253.4 M253.4,224.6h-12.1c-0.2,0-0.4,0.2-0.4,0.4v12.1c0,0.2,0.2,0.4,0.4,0.4
						h12.1c0.2,0,0.4-0.2,0.4-0.4V225C253.8,224.8,253.6,224.6,253.4,224.6L253.4,224.6z"/>
					<rect x="239.3" y="237.1" class="st0" width="16.2" height="2"/>
					<rect x="239.3" y="239.1" class="st0" width="16.2" height="2"/>
				</g>
				<g>
					<g>
						<rect x="156.8" y="190.3" class="st0" width="12.1" height="12.1"/>
						<path class="st0" d="M168.9,202.4c-10.1,0-12.1-12.1-12.1-12.1h12.1V202.4z"/>
					</g>
					<path class="st0" d="M168.9,190.3v12.1h-12.1v-12.1H168.9 M168.9,189.9h-12.1c-0.2,0-0.4,0.2-0.4,0.4v12.1
						c0,0.2,0.2,0.4,0.4,0.4h12.1c0.2,0,0.4-0.2,0.4-0.4v-12.1C169.3,190.1,169.1,189.9,168.9,189.9L168.9,189.9z"/>
					<rect x="154.8" y="202.4" class="st0" width="16.2" height="2"/>
					<rect x="154.8" y="204.4" class="st0" width="16.2" height="2"/>
				</g>
				<g>
					<g>
						<rect x="185" y="190.3" class="st0" width="12.1" height="12.1"/>
						<path class="st0" d="M197,202.4c-10.1,0-12.1-12.1-12.1-12.1H197V202.4z"/>
					</g>
					<path class="st0" d="M197,190.3v12.1H185v-12.1H197 M197,189.9H185c-0.2,0-0.4,0.2-0.4,0.4v12.1c0,0.2,0.2,0.4,0.4,0.4H197
						c0.2,0,0.4-0.2,0.4-0.4v-12.1C197.5,190.1,197.3,189.9,197,189.9L197,189.9z"/>
					<rect x="183" y="202.4" class="st0" width="16.2" height="2"/>
					<rect x="183" y="204.4" class="st0" width="16.2" height="2"/>
				</g>
				<g>
					<g>
						<rect x="213.1" y="190.3" class="st0" width="12.1" height="12.1"/>
						<path class="st0" d="M225.2,202.4c-10.1,0-12.1-12.1-12.1-12.1h12.1V202.4z"/>
					</g>
					<path class="st0" d="M225.2,190.3v12.1h-12.1v-12.1H225.2 M225.2,189.9h-12.1c-0.2,0-0.4,0.2-0.4,0.4v12.1
						c0,0.2,0.2,0.4,0.4,0.4h12.1c0.2,0,0.4-0.2,0.4-0.4v-12.1C225.6,190.1,225.4,189.9,225.2,189.9L225.2,189.9z"/>
					<rect x="211.1" y="202.4" class="st0" width="16.2" height="2"/>
					<rect x="211.1" y="204.4" class="st0" width="16.2" height="2"/>
				</g>
				<g>
					<g>
						<rect x="241.3" y="190.3" class="st0" width="12.1" height="12.1"/>
						<path class="st0" d="M253.4,202.4c-10.1,0-12.1-12.1-12.1-12.1h12.1V202.4z"/>
					</g>
					<path class="st0" d="M253.4,190.3v12.1h-12.1v-12.1H253.4 M253.4,189.9h-12.1c-0.2,0-0.4,0.2-0.4,0.4v12.1
						c0,0.2,0.2,0.4,0.4,0.4h12.1c0.2,0,0.4-0.2,0.4-0.4v-12.1C253.8,190.1,253.6,189.9,253.4,189.9L253.4,189.9z"/>
					<rect x="239.3" y="202.4" class="st0" width="16.2" height="2"/>
					<rect x="239.3" y="204.4" class="st0" width="16.2" height="2"/>
				</g>
				<g>
					<g>
						<rect x="156.8" y="155.7" class="st0" width="12.1" height="12.1"/>
						<path class="st1" d="M168.9,167.7c-10.1,0-12.1-12.1-12.1-12.1h12.1V167.7z"/>
					</g>
					<path class="st0" d="M168.9,155.7v12.1h-12.1v-12.1H168.9 M168.9,155.2h-12.1c-0.2,0-0.4,0.2-0.4,0.4v12.1
						c0,0.2,0.2,0.4,0.4,0.4h12.1c0.2,0,0.4-0.2,0.4-0.4v-12.1C169.3,155.4,169.1,155.2,168.9,155.2L168.9,155.2z"/>
					<rect x="154.8" y="167.7" class="st0" width="16.2" height="2"/>
					<rect x="154.8" y="169.8" class="st0" width="16.2" height="2"/>
				</g>
				<g>
					<g>
						<rect x="185" y="155.7" class="st2" width="12.1" height="12.1"/>
						<path class="st1" d="M197,167.7c-10.1,0-12.1-12.1-12.1-12.1H197V167.7z"/>
					</g>
					<path class="st0" d="M197,155.7v12.1H185v-12.1H197 M197,155.2H185c-0.2,0-0.4,0.2-0.4,0.4v12.1c0,0.2,0.2,0.4,0.4,0.4H197
						c0.2,0,0.4-0.2,0.4-0.4v-12.1C197.5,155.4,197.3,155.2,197,155.2L197,155.2z"/>
					<rect x="183" y="167.7" class="st0" width="16.2" height="2"/>
					<rect x="183" y="169.8" class="st0" width="16.2" height="2"/>
				</g>
				<g>
					<g>
						<rect x="213.1" y="155.7" class="st2" width="12.1" height="12.1"/>
						<path class="st2" d="M225.2,167.7c-10.1,0-12.1-12.1-12.1-12.1h12.1V167.7z"/>
					</g>
					<path class="st2" d="M225.2,155.7v12.1h-12.1v-12.1H225.2 M225.2,155.2h-12.1c-0.2,0-0.4,0.2-0.4,0.4v12.1
						c0,0.2,0.2,0.4,0.4,0.4h12.1c0.2,0,0.4-0.2,0.4-0.4v-12.1C225.6,155.4,225.4,155.2,225.2,155.2L225.2,155.2z"/>
					<rect x="211.1" y="167.7" class="st0" width="16.2" height="2"/>
					<rect x="211.1" y="169.8" class="st0" width="16.2" height="2"/>
				</g>
				<g>
					<g>
						<rect x="241.3" y="155.7" class="st0" width="12.1" height="12.1"/>
						<path class="st0" d="M253.4,167.7c-10.1,0-12.1-12.1-12.1-12.1h12.1V167.7z"/>
					</g>
					<path class="st0" d="M253.4,155.7v12.1h-12.1v-12.1H253.4 M253.4,155.2h-12.1c-0.2,0-0.4,0.2-0.4,0.4v12.1
						c0,0.2,0.2,0.4,0.4,0.4h12.1c0.2,0,0.4-0.2,0.4-0.4v-12.1C253.8,155.4,253.6,155.2,253.4,155.2L253.4,155.2z"/>
					<rect x="239.3" y="167.7" class="st0" width="16.2" height="2"/>
					<rect x="239.3" y="169.8" class="st0" width="16.2" height="2"/>
				</g>
				<g>
					<g>
						<rect x="156.8" y="121" class="st0" width="12.1" height="12.1"/>
						<path class="st1" d="M168.9,133.1c-10.1,0-12.1-12.1-12.1-12.1h12.1V133.1z"/>
					</g>
					<path class="st0" d="M168.9,121v12.1h-12.1V121H168.9 M168.9,120.6h-12.1c-0.2,0-0.4,0.2-0.4,0.4v12.1c0,0.2,0.2,0.4,0.4,0.4
						h12.1c0.2,0,0.4-0.2,0.4-0.4V121C169.3,120.8,169.1,120.6,168.9,120.6L168.9,120.6z"/>
					<rect x="154.8" y="133.1" class="st0" width="16.2" height="2"/>
					<rect x="154.8" y="135.1" class="st0" width="16.2" height="2"/>
				</g>
				<g>
					<g>
						<rect x="185" y="121" class="st2" width="12.1" height="12.1"/>
						<path class="st1" d="M197,133.1C187,133.1,185,121,185,121H197V133.1z"/>
					</g>
					<path class="st0" d="M197,121v12.1H185V121H197 M197,120.6H185c-0.2,0-0.4,0.2-0.4,0.4v12.1c0,0.2,0.2,0.4,0.4,0.4H197
						c0.2,0,0.4-0.2,0.4-0.4V121C197.5,120.8,197.3,120.6,197,120.6L197,120.6z"/>
					<rect x="183" y="133.1" class="st0" width="16.2" height="2"/>
					<rect x="183" y="135.1" class="st0" width="16.2" height="2"/>
				</g>
				<g>
					<g>
						<rect x="213.1" y="121" class="st2" width="12.1" height="12.1"/>
						<path class="st2" d="M225.2,133.1c-10.1,0-12.1-12.1-12.1-12.1h12.1V133.1z"/>
					</g>
					<path class="st2" d="M225.2,121v12.1h-12.1V121H225.2 M225.2,120.6h-12.1c-0.2,0-0.4,0.2-0.4,0.4v12.1c0,0.2,0.2,0.4,0.4,0.4
						h12.1c0.2,0,0.4-0.2,0.4-0.4V121C225.6,120.8,225.4,120.6,225.2,120.6L225.2,120.6z"/>
					<rect x="211.1" y="133.1" class="st0" width="16.2" height="2"/>
					<rect x="211.1" y="135.1" class="st0" width="16.2" height="2"/>
				</g>
				<g>
					<g>
						<rect x="241.3" y="121" class="st0" width="12.1" height="12.1"/>
						<path class="st0" d="M253.4,133.1c-10.1,0-12.1-12.1-12.1-12.1h12.1V133.1z"/>
					</g>
					<path class="st0" d="M253.4,121v12.1h-12.1V121H253.4 M253.4,120.6h-12.1c-0.2,0-0.4,0.2-0.4,0.4v12.1c0,0.2,0.2,0.4,0.4,0.4
						h12.1c0.2,0,0.4-0.2,0.4-0.4V121C253.8,120.8,253.6,120.6,253.4,120.6L253.4,120.6z"/>
					<rect x="239.3" y="133.1" class="st0" width="16.2" height="2"/>
					<rect x="239.3" y="135.1" class="st0" width="16.2" height="2"/>
				</g>
				<g>
					<g>
						<rect x="156.8" y="86.3" class="st0" width="12.1" height="12.1"/>
						<path class="st1" d="M168.9,98.4c-10.1,0-12.1-12.1-12.1-12.1h12.1V98.4z"/>
					</g>
					<path class="st0" d="M168.9,86.3v12.1h-12.1V86.3H168.9 M168.9,85.9h-12.1c-0.2,0-0.4,0.2-0.4,0.4v12.1c0,0.2,0.2,0.4,0.4,0.4
						h12.1c0.2,0,0.4-0.2,0.4-0.4V86.3C169.3,86.1,169.1,85.9,168.9,85.9L168.9,85.9z"/>
					<rect x="154.8" y="98.4" class="st0" width="16.2" height="2"/>
					<rect x="154.8" y="100.4" class="st0" width="16.2" height="2"/>
				</g>
				<g>
					<g>
						<rect x="185" y="86.3" class="st2" width="12.1" height="12.1"/>
						<path class="st1" d="M197,98.4C187,98.4,185,86.3,185,86.3H197V98.4z"/>
					</g>
					<path class="st2" d="M197,86.3v12.1H185V86.3H197 M197,85.9H185c-0.2,0-0.4,0.2-0.4,0.4v12.1c0,0.2,0.2,0.4,0.4,0.4H197
						c0.2,0,0.4-0.2,0.4-0.4V86.3C197.5,86.1,197.3,85.9,197,85.9L197,85.9z"/>
					<rect x="183" y="98.4" class="st0" width="16.2" height="2"/>
					<rect x="183" y="100.4" class="st0" width="16.2" height="2"/>
				</g>
				<g>
					<g>
						<rect x="213.1" y="86.3" class="st2" width="12.1" height="12.1"/>
						<path class="st1" d="M225.2,98.4c-10.1,0-12.1-12.1-12.1-12.1h12.1V98.4z"/>
					</g>
					<path class="st2" d="M225.2,86.3v12.1h-12.1V86.3H225.2 M225.2,85.9h-12.1c-0.2,0-0.4,0.2-0.4,0.4v12.1c0,0.2,0.2,0.4,0.4,0.4
						h12.1c0.2,0,0.4-0.2,0.4-0.4V86.3C225.6,86.1,225.4,85.9,225.2,85.9L225.2,85.9z"/>
					<rect x="211.1" y="98.4" class="st0" width="16.2" height="2"/>
					<rect x="211.1" y="100.4" class="st0" width="16.2" height="2"/>
				</g>
				<g>
					<g>
						<rect x="241.3" y="86.3" class="st2" width="12.1" height="12.1"/>
						<path class="st1" d="M253.4,98.4c-10.1,0-12.1-12.1-12.1-12.1h12.1V98.4z"/>
					</g>
					<path class="st0" d="M253.4,86.3v12.1h-12.1V86.3H253.4 M253.4,85.9h-12.1c-0.2,0-0.4,0.2-0.4,0.4v12.1c0,0.2,0.2,0.4,0.4,0.4
						h12.1c0.2,0,0.4-0.2,0.4-0.4V86.3C253.8,86.1,253.6,85.9,253.4,85.9L253.4,85.9z"/>
					<rect x="239.3" y="98.4" class="st0" width="16.2" height="2"/>
					<rect x="239.3" y="100.4" class="st0" width="16.2" height="2"/>
				</g>
				<polygon class="st0" points="166.9,411.4 41.3,411.4 41.3,129.3 166.9,65.4 				"/>
				<polygon class="st0" points="65.2,411.4 41.3,411.4 41.3,129.7 65.2,117.2 				"/>
				<g>
					<g>
						<rect x="55.7" y="288" class="st2" width="12.1" height="12.1"/>
						<path class="st1" d="M67.7,300.1c-10.1,0-12.1-12.1-12.1-12.1h12.1V300.1z"/>
					</g>
					<path class="st0" d="M67.7,288v12.1H55.7V288H67.7 M67.7,287.6H55.7c-0.2,0-0.4,0.2-0.4,0.4v12.1c0,0.2,0.2,0.4,0.4,0.4h12.1
						c0.2,0,0.4-0.2,0.4-0.4V288C68.2,287.8,68,287.6,67.7,287.6L67.7,287.6z"/>
					<rect x="53.7" y="300.1" class="st0" width="16.2" height="2"/>
					<rect x="53.7" y="302.1" class="st0" width="16.2" height="2"/>
				</g>
				<g>
					<g>
						<rect x="83.8" y="288" class="st2" width="12.1" height="12.1"/>
						<path class="st2" d="M95.9,300.1c-10.1,0-12.1-12.1-12.1-12.1h12.1V300.1z"/>
					</g>
					<path class="st0" d="M95.9,288v12.1H83.8V288H95.9 M95.9,287.6H83.8c-0.2,0-0.4,0.2-0.4,0.4v12.1c0,0.2,0.2,0.4,0.4,0.4h12.1
						c0.2,0,0.4-0.2,0.4-0.4V288C96.3,287.8,96.1,287.6,95.9,287.6L95.9,287.6z"/>
					<rect x="81.8" y="300.1" class="st0" width="16.2" height="2"/>
					<rect x="81.8" y="302.1" class="st0" width="16.2" height="2"/>
				</g>
				<g>
					<g>
						<rect x="112" y="288" class="st0" width="12.1" height="12.1"/>
						<path class="st0" d="M124.1,300.1C114,300.1,112,288,112,288h12.1V300.1z"/>
					</g>
					<path class="st2" d="M124.1,288v12.1H112V288H124.1 M124.1,287.6H112c-0.2,0-0.4,0.2-0.4,0.4v12.1c0,0.2,0.2,0.4,0.4,0.4h12.1
						c0.2,0,0.4-0.2,0.4-0.4V288C124.5,287.8,124.3,287.6,124.1,287.6L124.1,287.6z"/>
					<rect x="110" y="300.1" class="st0" width="16.2" height="2"/>
					<rect x="110" y="302.1" class="st0" width="16.2" height="2"/>
				</g>
				<g>
					<g>
						<rect x="140.1" y="288" class="st0" width="12.1" height="12.1"/>
						<path class="st0" d="M152.2,300.1c-10.1,0-12.1-12.1-12.1-12.1h12.1V300.1z"/>
					</g>
					<path class="st0" d="M152.2,288v12.1h-12.1V288H152.2 M152.2,287.6h-12.1c-0.2,0-0.4,0.2-0.4,0.4v12.1c0,0.2,0.2,0.4,0.4,0.4
						h12.1c0.2,0,0.4-0.2,0.4-0.4V288C152.7,287.8,152.5,287.6,152.2,287.6L152.2,287.6z"/>
					<rect x="138.1" y="300.1" class="st0" width="16.2" height="2"/>
					<rect x="138.1" y="302.1" class="st0" width="16.2" height="2"/>
				</g>
				<g>
					<g>
						<rect x="55.7" y="253.7" class="st2" width="12.1" height="12.1"/>
						<path class="st1" d="M67.7,265.8c-10.1,0-12.1-12.1-12.1-12.1h12.1V265.8z"/>
					</g>
					<path class="st0" d="M67.7,253.7v12.1H55.7v-12.1H67.7 M67.7,253.3H55.7c-0.2,0-0.4,0.2-0.4,0.4v12.1c0,0.2,0.2,0.4,0.4,0.4
						h12.1c0.2,0,0.4-0.2,0.4-0.4v-12.1C68.2,253.5,68,253.3,67.7,253.3L67.7,253.3z"/>
					<rect x="53.7" y="265.8" class="st0" width="16.2" height="2"/>
					<rect x="53.7" y="267.8" class="st0" width="16.2" height="2"/>
				</g>
				<g>
					<g>
						<rect x="83.8" y="253.7" class="st2" width="12.1" height="12.1"/>
						<path class="st1" d="M95.9,265.8c-10.1,0-12.1-12.1-12.1-12.1h12.1V265.8z"/>
					</g>
					<path class="st0" d="M95.9,253.7v12.1H83.8v-12.1H95.9 M95.9,253.3H83.8c-0.2,0-0.4,0.2-0.4,0.4v12.1c0,0.2,0.2,0.4,0.4,0.4
						h12.1c0.2,0,0.4-0.2,0.4-0.4v-12.1C96.3,253.5,96.1,253.3,95.9,253.3L95.9,253.3z"/>
					<rect x="81.8" y="265.8" class="st0" width="16.2" height="2"/>
					<rect x="81.8" y="267.8" class="st0" width="16.2" height="2"/>
				</g>
				<g>
					<g>
						<rect x="112" y="253.7" class="st2" width="12.1" height="12.1"/>
						<path class="st2" d="M124.1,265.8c-10.1,0-12.1-12.1-12.1-12.1h12.1V265.8z"/>
					</g>
					<path class="st2" d="M124.1,253.7v12.1H112v-12.1H124.1 M124.1,253.3H112c-0.2,0-0.4,0.2-0.4,0.4v12.1c0,0.2,0.2,0.4,0.4,0.4
						h12.1c0.2,0,0.4-0.2,0.4-0.4v-12.1C124.5,253.5,124.3,253.3,124.1,253.3L124.1,253.3z"/>
					<rect x="110" y="265.8" class="st0" width="16.2" height="2"/>
					<rect x="110" y="267.8" class="st0" width="16.2" height="2"/>
				</g>
				<g>
					<g>
						<rect x="140.1" y="253.7" class="st0" width="12.1" height="12.1"/>
						<path class="st0" d="M152.2,265.8c-10.1,0-12.1-12.1-12.1-12.1h12.1V265.8z"/>
					</g>
					<path class="st0" d="M152.2,253.7v12.1h-12.1v-12.1H152.2 M152.2,253.3h-12.1c-0.2,0-0.4,0.2-0.4,0.4v12.1
						c0,0.2,0.2,0.4,0.4,0.4h12.1c0.2,0,0.4-0.2,0.4-0.4v-12.1C152.7,253.5,152.5,253.3,152.2,253.3L152.2,253.3z"/>
					<rect x="138.1" y="265.8" class="st0" width="16.2" height="2"/>
					<rect x="138.1" y="267.8" class="st0" width="16.2" height="2"/>
				</g>
				<g>
					<g>
						<rect x="55.7" y="219.4" class="st2" width="12.1" height="12.1"/>
						<path class="st1" d="M67.7,231.5c-10.1,0-12.1-12.1-12.1-12.1h12.1V231.5z"/>
					</g>
					<path class="st0" d="M67.7,219.4v12.1H55.7v-12.1H67.7 M67.7,219H55.7c-0.2,0-0.4,0.2-0.4,0.4v12.1c0,0.2,0.2,0.4,0.4,0.4h12.1
						c0.2,0,0.4-0.2,0.4-0.4v-12.1C68.2,219.2,68,219,67.7,219L67.7,219z"/>
					<rect x="53.7" y="231.5" class="st0" width="16.2" height="2"/>
					<rect x="53.7" y="233.5" class="st0" width="16.2" height="2"/>
				</g>
				<g>
					<g>
						<rect x="83.8" y="219.4" class="st2" width="12.1" height="12.1"/>
						<path class="st1" d="M95.9,231.5c-10.1,0-12.1-12.1-12.1-12.1h12.1V231.5z"/>
					</g>
					<path class="st0" d="M95.9,219.4v12.1H83.8v-12.1H95.9 M95.9,219H83.8c-0.2,0-0.4,0.2-0.4,0.4v12.1c0,0.2,0.2,0.4,0.4,0.4h12.1
						c0.2,0,0.4-0.2,0.4-0.4v-12.1C96.3,219.2,96.1,219,95.9,219L95.9,219z"/>
					<rect x="81.8" y="231.5" class="st0" width="16.2" height="2"/>
					<rect x="81.8" y="233.5" class="st0" width="16.2" height="2"/>
				</g>
				<g>
					<g>
						<rect x="112" y="219.4" class="st2" width="12.1" height="12.1"/>
						<path class="st2" d="M124.1,231.5c-10.1,0-12.1-12.1-12.1-12.1h12.1V231.5z"/>
					</g>
					<path class="st2" d="M124.1,219.4v12.1H112v-12.1H124.1 M124.1,219H112c-0.2,0-0.4,0.2-0.4,0.4v12.1c0,0.2,0.2,0.4,0.4,0.4
						h12.1c0.2,0,0.4-0.2,0.4-0.4v-12.1C124.5,219.2,124.3,219,124.1,219L124.1,219z"/>
					<rect x="110" y="231.5" class="st0" width="16.2" height="2"/>
					<rect x="110" y="233.5" class="st0" width="16.2" height="2"/>
				</g>
				<g>
					<g>
						<rect x="140.1" y="219.4" class="st0" width="12.1" height="12.1"/>
						<path class="st0" d="M152.2,231.5c-10.1,0-12.1-12.1-12.1-12.1h12.1V231.5z"/>
					</g>
					<path class="st0" d="M152.2,219.4v12.1h-12.1v-12.1H152.2 M152.2,219h-12.1c-0.2,0-0.4,0.2-0.4,0.4v12.1c0,0.2,0.2,0.4,0.4,0.4
						h12.1c0.2,0,0.4-0.2,0.4-0.4v-12.1C152.7,219.2,152.5,219,152.2,219L152.2,219z"/>
					<rect x="138.1" y="231.5" class="st0" width="16.2" height="2"/>
					<rect x="138.1" y="233.5" class="st0" width="16.2" height="2"/>
				</g>
				<g>
					<g>
						<rect x="55.7" y="185.1" class="st2" width="12.1" height="12.1"/>
						<path class="st1" d="M67.7,197.2c-10.1,0-12.1-12.1-12.1-12.1h12.1V197.2z"/>
					</g>
					<path class="st0" d="M67.7,185.1v12.1H55.7v-12.1H67.7 M67.7,184.7H55.7c-0.2,0-0.4,0.2-0.4,0.4v12.1c0,0.2,0.2,0.4,0.4,0.4
						h12.1c0.2,0,0.4-0.2,0.4-0.4v-12.1C68.2,184.9,68,184.7,67.7,184.7L67.7,184.7z"/>
					<rect x="53.7" y="197.2" class="st0" width="16.2" height="2"/>
					<rect x="53.7" y="199.2" class="st0" width="16.2" height="2"/>
				</g>
				<g>
					<g>
						<rect x="83.8" y="185.1" class="st2" width="12.1" height="12.1"/>
						<path class="st2" d="M95.9,197.2c-10.1,0-12.1-12.1-12.1-12.1h12.1V197.2z"/>
					</g>
					<path class="st2" d="M95.9,185.1v12.1H83.8v-12.1H95.9 M95.9,184.7H83.8c-0.2,0-0.4,0.2-0.4,0.4v12.1c0,0.2,0.2,0.4,0.4,0.4
						h12.1c0.2,0,0.4-0.2,0.4-0.4v-12.1C96.3,184.9,96.1,184.7,95.9,184.7L95.9,184.7z"/>
					<rect x="81.8" y="197.2" class="st0" width="16.2" height="2"/>
					<rect x="81.8" y="199.2" class="st0" width="16.2" height="2"/>
				</g>
				<g>
					<g>
						<rect x="112" y="185.1" class="st2" width="12.1" height="12.1"/>
						<path class="st2" d="M124.1,197.2c-10.1,0-12.1-12.1-12.1-12.1h12.1V197.2z"/>
					</g>
					<path class="st2" d="M124.1,185.1v12.1H112v-12.1H124.1 M124.1,184.7H112c-0.2,0-0.4,0.2-0.4,0.4v12.1c0,0.2,0.2,0.4,0.4,0.4
						h12.1c0.2,0,0.4-0.2,0.4-0.4v-12.1C124.5,184.9,124.3,184.7,124.1,184.7L124.1,184.7z"/>
					<rect x="110" y="197.2" class="st0" width="16.2" height="2"/>
					<rect x="110" y="199.2" class="st0" width="16.2" height="2"/>
				</g>
				<g>
					<g>
						<rect x="140.1" y="185.1" class="st0" width="12.1" height="12.1"/>
						<path class="st0" d="M152.2,197.2c-10.1,0-12.1-12.1-12.1-12.1h12.1V197.2z"/>
					</g>
					<path class="st0" d="M152.2,185.1v12.1h-12.1v-12.1H152.2 M152.2,184.7h-12.1c-0.2,0-0.4,0.2-0.4,0.4v12.1
						c0,0.2,0.2,0.4,0.4,0.4h12.1c0.2,0,0.4-0.2,0.4-0.4v-12.1C152.7,184.9,152.5,184.7,152.2,184.7L152.2,184.7z"/>
					<rect x="138.1" y="197.2" class="st0" width="16.2" height="2"/>
					<rect x="138.1" y="199.2" class="st0" width="16.2" height="2"/>
				</g>
				<g>
					<g>
						<rect x="55.7" y="150.8" class="st2" width="12.1" height="12.1"/>
						<path class="st1" d="M67.7,162.9c-10.1,0-12.1-12.1-12.1-12.1h12.1V162.9z"/>
					</g>
					<path class="st2" d="M67.7,150.8v12.1H55.7v-12.1H67.7 M67.7,150.4H55.7c-0.2,0-0.4,0.2-0.4,0.4v12.1c0,0.2,0.2,0.4,0.4,0.4
						h12.1c0.2,0,0.4-0.2,0.4-0.4v-12.1C68.2,150.6,68,150.4,67.7,150.4L67.7,150.4z"/>
					<rect x="53.7" y="162.9" class="st0" width="16.2" height="2"/>
					<rect x="53.7" y="164.9" class="st0" width="16.2" height="2"/>
				</g>
				<g>
					<g>
						<rect x="83.8" y="150.8" class="st2" width="12.1" height="12.1"/>
						<path class="st1" d="M95.9,162.9c-10.1,0-12.1-12.1-12.1-12.1h12.1V162.9z"/>
					</g>
					<path class="st0" d="M95.9,150.8v12.1H83.8v-12.1H95.9 M95.9,150.4H83.8c-0.2,0-0.4,0.2-0.4,0.4v12.1c0,0.2,0.2,0.4,0.4,0.4
						h12.1c0.2,0,0.4-0.2,0.4-0.4v-12.1C96.3,150.6,96.1,150.4,95.9,150.4L95.9,150.4z"/>
					<rect x="81.8" y="162.9" class="st0" width="16.2" height="2"/>
					<rect x="81.8" y="164.9" class="st0" width="16.2" height="2"/>
				</g>
				<g>
					<g>
						<rect x="112" y="150.8" class="st2" width="12.1" height="12.1"/>
						<path class="st1" d="M124.1,162.9c-10.1,0-12.1-12.1-12.1-12.1h12.1V162.9z"/>
					</g>
					<path class="st0" d="M124.1,150.8v12.1H112v-12.1H124.1 M124.1,150.4H112c-0.2,0-0.4,0.2-0.4,0.4v12.1c0,0.2,0.2,0.4,0.4,0.4
						h12.1c0.2,0,0.4-0.2,0.4-0.4v-12.1C124.5,150.6,124.3,150.4,124.1,150.4L124.1,150.4z"/>
					<rect x="110" y="162.9" class="st0" width="16.2" height="2"/>
					<rect x="110" y="164.9" class="st0" width="16.2" height="2"/>
				</g>
				<g>
					<g>
						<rect x="140.1" y="150.8" class="st2" width="12.1" height="12.1"/>
						<path class="st1" d="M152.2,162.9c-10.1,0-12.1-12.1-12.1-12.1h12.1V162.9z"/>
					</g>
					<path class="st0" d="M152.2,150.8v12.1h-12.1v-12.1H152.2 M152.2,150.4h-12.1c-0.2,0-0.4,0.2-0.4,0.4v12.1
						c0,0.2,0.2,0.4,0.4,0.4h12.1c0.2,0,0.4-0.2,0.4-0.4v-12.1C152.7,150.6,152.5,150.4,152.2,150.4L152.2,150.4z"/>
					<rect x="138.1" y="162.9" class="st0" width="16.2" height="2"/>
					<rect x="138.1" y="164.9" class="st0" width="16.2" height="2"/>
				</g>
				<rect x="69.9" y="342.4" class="st2" width="68.7" height="63.9"/>
				<rect x="69.6" y="342.4" class="st2" width="69" height="8"/>
				<g>
					<g>
						<rect x="82.8" y="363.7" class="st0" width="21.2" height="42.5"/>
						<path class="st0" d="M104,406.1c-17.2,0-21.2-42.5-21.2-42.5H104V406.1z"/>
						<path class="st0" d="M104,406.8H82.8c-0.4,0-0.7-0.3-0.7-0.7v-42.5c0-0.4,0.3-0.7,0.7-0.7H104c0.4,0,0.7,0.3,0.7,0.7v42.5
							C104.7,406.5,104.4,406.8,104,406.8z M83.5,405.4h19.8v-41.1H83.5V405.4z"/>
					</g>
					<g>
						<rect x="104" y="363.7" class="st0" width="21.2" height="42.5"/>
						<path class="st3" d="M125.2,406.1c-17.2,0-21.2-42.5-21.2-42.5h21.2V406.1z"/>
						<path class="st3" d="M125.2,406.8H104c-0.4,0-0.7-0.3-0.7-0.7v-42.5c0-0.4,0.3-0.7,0.7-0.7h21.2c0.4,0,0.7,0.3,0.7,0.7v42.5
							C125.9,406.5,125.6,406.8,125.2,406.8z M104.7,405.4h19.8v-41.1h-19.8V405.4z"/>
					</g>
					<rect x="74.8" y="403.6" class="st0" width="58.4" height="2.7"/>
					<rect x="74.8" y="403.6" class="st2" width="58.4" height="2.7"/>
					<g>
						<rect x="61.6" y="406.1" class="st0" width="85" height="5.3"/>
						<rect x="61.6" y="406.1" class="st0" width="85" height="5.3"/>
					</g>
				</g>
				<rect x="69.6" y="323.8" class="st0" width="69" height="13.3"/>
				<rect x="69.6" y="323.8" class="st2" width="69" height="8"/>
				<g>
					
						<rect x="103.8" y="71.3" transform="matrix(-1.836970e-16 1 -1 -1.836970e-16 238.2646 30.0125)" class="st0" width="0.6" height="125.6"/>
					<polygon class="st0" points="166.9,105.2 166.9,133.8 41.3,133.8 41.3,124.4 41.9,124 46.6,121.7 62.2,113.7 62.8,113.4 
						64.2,112.7 77.5,105.8 78.7,105.2 					"/>
					
						<rect x="99.3" y="76.4" transform="matrix(6.123234e-17 -1 1 6.123234e-17 -35.1017 243.3538)" class="st0" width="9.6" height="125.6"/>
					<rect x="166.3" y="105.2" class="st0" width="0.6" height="28.6"/>
					<rect x="145.5" y="105.2" class="st0" width="0.6" height="28.6"/>
					<rect x="124.6" y="105.2" class="st0" width="0.6" height="28.6"/>
					<rect x="103.8" y="105.2" class="st0" width="0.6" height="28.6"/>
					<rect x="83" y="105.2" class="st0" width="0.6" height="28.6"/>
					<polygon class="st0" points="62.2,113.7 62.8,113.4 62.8,133.8 62.2,133.8 					"/>
					<polygon class="st0" points="41.3,124.4 41.9,124 41.9,133.8 41.3,133.8 					"/>
					<polygon class="st0" points="166.9,105.2 166.9,105.8 77.5,105.8 78.7,105.2 					"/>
					<path class="st0" d="M146.1,105.8v28h20.2C149.5,133.8,146.1,105.8,146.1,105.8z"/>
					<path class="st0" d="M125.3,105.8v28h20.2C128.6,133.8,125.3,105.8,125.3,105.8z"/>
					<path class="st0" d="M104.4,105.8v28h20.2C107.8,133.8,104.4,105.8,104.4,105.8z"/>
					<path class="st0" d="M83.6,105.8v28h20.2C87,133.8,83.6,105.8,83.6,105.8z"/>
					<path class="st0" d="M83,133.8H62.8v-20.4l1.4-0.7c0.4,1.4,0.8,3,1.4,4.6C68.3,125,73.5,133.8,83,133.8z"/>
					<path class="st0" d="M62.2,133.8H41.9V124l4.6-2.4c0.7,1.4,1.5,2.8,2.3,4.1C52,130.3,56.2,133.8,62.2,133.8z"/>
				</g>
				<polygon class="st0" points="166.9,60.1 166.9,65.4 89.1,105.2 87.9,105.8 83.9,107.9 83.6,108 83,108.4 65.6,117.3 62.8,118.7 
					62.2,119 48.9,125.8 41.9,129.4 41.3,129.7 41.3,124.4 41.9,124 46.6,121.7 62.2,113.7 62.8,113.4 64.2,112.7 77.5,105.8 
					78.7,105.2 				"/>
			</g>
			<g>
				<g>
					<rect x="219" y="365.7" class="st2" width="24.4" height="45.7"/>
				</g>
				<rect x="222.1" y="368.8" class="st2" width="18.3" height="42.6"/>
				<rect x="222" y="368.7" class="st0" width="18.4" height="0.2"/>
			</g>
			<rect x="223.4" y="358.4" class="st0" width="15.6" height="4.9"/>
		</g>
		<g>
			<path class="st2" d="M108.5,106.7c2.2,0,4.4,0.5,6.6,1.4l-1.6,3.9c-1.8-0.7-3.3-1.1-4.6-1.1c-0.9,0-1.6,0.3-2,0.8
				c-0.5,0.5-0.7,1.2-0.7,2.2l0,3.3l6.4,0v3.7l-6.4,0l0,2.4c0,1.9-0.9,3.3-2.6,4.2l12.2,0l0,4.4L98,132v-4.2c1.2-0.5,2-1.1,2.4-1.7
				c0.4-0.6,0.7-1.5,0.7-2.7v-2.5l-3,0v-3.7h3v-3.3c0-2.3,0.6-4,1.9-5.3S106.2,106.7,108.5,106.7z"/>
		</g>
		<g>
			
				<rect x="197.7" y="42.1" transform="matrix(0.9994 -3.344901e-02 3.344901e-02 0.9994 -1.7332 6.7702)" class="st2" width="7.6" height="26.3"/>
			
				<rect x="197.7" y="42.1" transform="matrix(3.344902e-02 0.9994 -0.9994 3.344902e-02 249.8971 -148.0278)" class="st2" width="7.6" height="26.3"/>
		</g>
	</g>
	<g>
		<path class="st4" d="M472.3,384.4H427v-31.3h-50.1v31.3h-45.3c-2.6,0-4.8,2.2-4.8,4.8v15.4c0,2.6,2.2,4.8,4.8,4.8h140.7
			c2.6,0,4.8-2.2,4.8-4.8v-15.4C477.1,386.6,474.9,384.5,472.3,384.4z"/>
		<path class="st4" d="M239.1,116.6h325.7c6.9,0,12.5,5.6,12.5,12.5v217.8c0,6.9-5.6,12.5-12.5,12.5H239.1
			c-6.9,0-12.5-5.6-12.5-12.5V129.1C226.6,122.2,232.2,116.6,239.1,116.6z"/>
		<rect x="251.7" y="141.6" class="st5" width="300.6" height="192.7"/>
		<path class="st6" d="M402,155.4c-14.5,0-26.3-11.8-26.3-26.3c0-14.5,11.8-26.3,26.3-26.3s26.3,11.8,26.3,26.3
			C428.2,143.6,416.5,155.3,402,155.4z"/>
		<circle class="st2" cx="401.8" cy="129.1" r="11.3"/>
		<g>
			<path class="st7" d="M332.2,306.1l-7.2-28.7c3.5-2.2,4.5-6.8,2.3-10.3c-0.7-1.1-1.7-2-2.9-2.6v-51.4h-7.8v51.4
				c-3.6,2-5,6.5-3,10.1c0.6,1.1,1.4,2,2.4,2.6l-7.2,28.7L332.2,306.1z"/>
			<path class="st4" d="M339.9,236.3v38.4c0,13,27.8,27.5,62,27.5c34.3,0,62-14.2,62-27.5v-38.4l-56.6,21.2c-3.5,1.4-7.4,1.4-10.9,0
				L339.9,236.3z"/>
			<path class="st4" d="M407,172.2l102.4,35.3c1,0.4,1.5,1.5,1.2,2.5c-0.2,0.5-0.6,1-1.2,1.2l-101.9,38.7c-3.6,1.3-7.5,1.3-11,0
				l-101.9-38.7c-1-0.4-1.5-1.5-1.2-2.5c0.2-0.5,0.6-1,1.2-1.2l102.4-35.3C400.2,171,403.8,171,407,172.2z"/>
		</g>
		<g>
			<rect x="484.7" y="268.8" class="st8" width="57.1" height="57.1"/>
			<g>
				<path class="st9" d="M509.5,307.5h7.3c10.1,0,18.4,8.2,18.4,18.3c0,0,0,0,0,0l0,0l0,0h-44.1l0,0l0,0
					C491.2,315.7,499.4,307.5,509.5,307.5L509.5,307.5z"/>
				<circle class="st9" cx="513.2" cy="292.8" r="11"/>
			</g>
		</g>
	</g>
	<g>
		<defs>
			<rect id="SVGID_00000024713411657129894500000010793613184066597270_" x="32" y="132.1" width="289" height="278.2"/>
		</defs>
		<clipPath id="SVGID_00000060747690967976112840000002849293271073409933_">
			<use xlink:href="#SVGID_00000024713411657129894500000010793613184066597270_"  style="overflow:visible;"/>
		</clipPath>
		<path style="clip-path:url(#SVGID_00000060747690967976112840000002849293271073409933_);fill:#553119;" d="M169.1,298l-28.7-9
			l-18.2,7.5l1.5,13.4l14.2,11.2l14.4-0.9c0,0,2.6,3.2,6.1,5.2c3.6,2,6.7-0.5,7.9-2.6s-10.9-10-10.9-10s1.5,2.2,8.1,3
			c6.7,0.8,8.7-4.5,8.7-4.5l-15.9-7.8c0,0,11.6,4.6,15.2-1.1C174.5,298,169.1,298,169.1,298z"/>
		<path style="clip-path:url(#SVGID_00000060747690967976112840000002849293271073409933_);fill:#886F5E;" d="M151.8,276.9
			c0,0,5.1,1.2,4.7,4.7c-0.3,3.5-3.9,4.5-6.3,5.2c-2.4,0.6-15.1-0.2-15.1-0.2l-8.1-1.3l-1.9,10.4c0,0-3.9,11,4.5,18.1
			c8.4,7.2,7.4,13.1,7.4,13.1l-29.6-4.5l-4-13.1l13.8-33.4c0,0,0.9-4.6,10.4-2.8C137,274.9,151.8,276.9,151.8,276.9z"/>
		<g style="clip-path:url(#SVGID_00000060747690967976112840000002849293271073409933_);">
			<path class="st13" d="M294.5,379.4l-143.1,20.6c-1.7,0.2-3.2-0.9-3.5-2.6l-30-208.4c-0.2-1.7,0.9-3.2,2.6-3.5L263.7,165
				c1.7-0.2,3.2,0.9,3.5,2.6l30,208.4C297.4,377.7,296.2,379.2,294.5,379.4z"/>
			<path class="st9" d="M260.8,245.8l-116.4,16.8c-0.8,0.1-1.6-0.5-1.7-1.3l-2.7-18.5c-0.1-0.8,0.5-1.6,1.3-1.7l116.4-16.8
				c0.8-0.1,1.6,0.5,1.7,1.3l2.7,18.5C262.2,244.9,261.6,245.7,260.8,245.8z"/>
			<g>
				<path class="st14" d="M221.3,277.2l-71.2,10.2c-2,0.3-3.9-1.1-4.2-3.1l-0.5-3.4c-0.3-2,1.1-3.9,3.1-4.2l71.2-10.2
					c2-0.3,3.9,1.1,4.2,3.1l0.5,3.4C224.8,275,223.4,276.9,221.3,277.2z"/>
				<path class="st14" d="M224.3,298l-71.2,10.2c-2,0.3-3.9-1.1-4.2-3.1l-0.5-3.4c-0.3-2,1.1-3.9,3.1-4.2l71.2-10.2
					c2-0.3,3.9,1.1,4.2,3.1l0.5,3.4C227.8,295.9,226.4,297.8,224.3,298z"/>
				<path class="st14" d="M227.3,318.9l-71.2,10.2c-2,0.3-3.9-1.1-4.2-3.1l-0.5-3.4c-0.3-2,1.1-3.9,3.1-4.2l71.2-10.2
					c2-0.3,3.9,1.1,4.2,3.1l0.5,3.4C230.8,316.7,229.4,318.6,227.3,318.9z"/>
				<path class="st14" d="M230.3,339.7l-71.2,10.2c-2,0.3-3.9-1.1-4.2-3.1l-0.5-3.4c-0.3-2,1.1-3.9,3.1-4.2l71.2-10.2
					c2-0.3,3.9,1.1,4.2,3.1l0.5,3.4C233.8,337.5,232.4,339.4,230.3,339.7z"/>
				<path class="st14" d="M262.3,271.3l-15.1,2.2c-2,0.3-3.9-1.1-4.2-3.1l-0.5-3.4c-0.3-2,1.1-3.9,3.1-4.2l15.1-2.2
					c2-0.3,3.9,1.1,4.2,3.1l0.5,3.4C265.7,269.1,264.3,271,262.3,271.3z"/>
				<path class="st14" d="M265.3,292.1l-15.1,2.2c-2,0.3-3.9-1.1-4.2-3.1l-0.5-3.4c-0.3-2,1.1-3.9,3.1-4.2l15.1-2.2
					c2-0.3,3.9,1.1,4.2,3.1l0.5,3.4C268.7,290,267.3,291.9,265.3,292.1z"/>
				<path class="st14" d="M268.3,313l-15.1,2.2c-2,0.3-3.9-1.1-4.2-3.1l-0.5-3.4c-0.3-2,1.1-3.9,3.1-4.2l15.1-2.2
					c2-0.3,3.9,1.1,4.2,3.1l0.5,3.4C271.7,310.8,270.3,312.7,268.3,313z"/>
				<path class="st14" d="M271.3,333.8l-15.1,2.2c-2,0.3-3.9-1.1-4.2-3.1l-0.5-3.4c-0.3-2,1.1-3.9,3.1-4.2l15.1-2.2
					c2-0.3,3.9,1.1,4.2,3.1l0.5,3.4C274.7,331.6,273.3,333.5,271.3,333.8z"/>
			</g>
			<g>
				<path class="st9" d="M266.4,342.9c2.1-0.3,4.2-0.2,6.4,0.4l-0.9,3.9c-1.8-0.4-3.2-0.6-4.5-0.4c-0.8,0.1-1.4,0.4-1.8,1
					c-0.4,0.5-0.5,1.2-0.4,2.1l0.4,3.1l5.9-0.9l0.5,3.5l-5.9,0.9l0.3,2.3c0.3,1.8-0.4,3.2-1.8,4.3l11.4-1.6l0.6,4.1l-16.6,2.4
					l-0.6-3.9c1-0.6,1.7-1.3,2-1.9c0.3-0.7,0.4-1.5,0.3-2.6l-0.3-2.3l-2.8,0.4L258,354l2.8-0.4l-0.4-3.1c-0.3-2.1,0.1-3.8,1.1-5.2
					C262.6,344,264.2,343.2,266.4,342.9z"/>
			</g>
			<g>
				<circle class="st5" cx="153.7" cy="211.4" r="18"/>
			</g>
			<g>
				<circle class="st5" cx="193.3" cy="205.7" r="18"/>
			</g>
		</g>
		<g style="clip-path:url(#SVGID_00000060747690967976112840000002849293271073409933_);">
			<path class="st15" d="M156.3,277.1c-1-0.6-2.2-0.8-3.6-0.7c-4.8,0.3-7.4,4.6-9.1,8.6c-3.8,8.9-2.7,20.3-7.5,28.6
				c0,0-1,1.6-2.2,3.3l-6.4-5.4l-24.1-2.1c0,0-2.1,4.9,0.2,12c2.4,7.1,8.5,33,8.5,33s2.5,6.2-1.4,17.2c-3.9,11-11.8,47.1-11.8,47.1
				l38.8-10.9l2.1-25.5c0,0,1.4-10.7,3.3-14.7c1.9-4,11-18,9.2-47.2c0.2-9.7,5.2-27.5,6.3-29.9C160.4,286,160.3,279.3,156.3,277.1z"
				/>
			<g>
				<path class="st16" d="M147.8,282.3c0.3-0.6,0.6-1.1,0.9-1.6c-0.1,0.2-0.2,0.3-0.3,0.5c-1.8,3.7-1.1,7.7,1.5,8.9
					c2.6,1.2,6.1-0.8,7.8-4.5c0-0.1,0-0.1,0.1-0.2c-0.1,0.5-0.3,0.9-0.5,1.4c-1.8,3.8-5.4,5.8-8,4.6S146,286.1,147.8,282.3z"/>
			</g>
		</g>
		<path style="clip-path:url(#SVGID_00000060747690967976112840000002849293271073409933_);fill:#30A1CA;" d="M79,425.4l33.5-68.3
			c0,0,17.3,17.6,34.8,3.6c0,0,0,82.3-13,118.9c-1.6,6.4-4.8,12.5-9.6,17.6c-14.8,15.7-38.7,16.1-54.6,2.1
			C45.8,478,79,425.4,79,425.4z"/>
		<g style="clip-path:url(#SVGID_00000060747690967976112840000002849293271073409933_);">
			
				<rect x="150.1" y="199.1" transform="matrix(0.9898 -0.1425 0.1425 0.9898 -28.5697 24.0632)" class="st2" width="7.1" height="24.7"/>
			
				<rect x="150.1" y="199.1" transform="matrix(0.1425 0.9898 -0.9898 0.1425 341.0331 29.1999)" class="st2" width="7.1" height="24.7"/>
		</g>
		<g style="clip-path:url(#SVGID_00000060747690967976112840000002849293271073409933_);">
			<path class="st2" d="M191.1,206.8l3.8-0.6c5.3-0.8,10.2,2.9,11,8.2c0,0,0,0,0,0l0,0l0,0l-23,3.3l0,0l0,0
				C182.2,212.5,185.9,207.6,191.1,206.8L191.1,206.8z"/>
			<circle class="st2" cx="192" cy="198.9" r="5.8"/>
		</g>
	</g>
</g>
</svg>
