<?xml version="1.0" encoding="utf-8"?>
<!-- Generator: Adobe Illustrator 26.4.0, SVG Export Plug-In . SVG Version: 6.00 Build 0)  -->
<svg version="1.1" id="Layer_1" xmlns="http://www.w3.org/2000/svg" xmlns:xlink="http://www.w3.org/1999/xlink" x="0px" y="0px"
	 viewBox="0 0 600 411.7" style="enable-background:new 0 0 600 411.7;" xml:space="preserve">
<style type="text/css">
	.st0{fill:#E4E8EA;}
	.st1{fill:#FBFEFE;}
	.st2{fill:#FFFFFF;}
	.st3{fill:#E2E2E3;}
	.st4{fill:#233E57;}
	.st5{fill:#9BB1BF;}
	.st6{fill:#657889;}
	.st7{fill:#1899C5;}
	.st8{fill:#E7ECF2;}
	.st9{fill:#A8BC45;}
	.st10{fill:#553119;}
	.st11{fill:#886F5E;}
	.st12{fill:#F5F5F6;}
	.st13{fill:#BBBBBD;}
	.st14{fill:#30A1CA;}
	.st15{fill:none;}
	.st16{fill:#E4E8EA;stroke:#1D1D1B;stroke-width:0.4707;stroke-miterlimit:10;}
	.st17{fill:#D3D8DD;}
	.st18{fill:#3D6092;}
	.st19{fill:#6390B5;}
	.st20{fill:#00A3A6;}
	.st21{fill:#99B1BC;}
	.st22{fill-rule:evenodd;clip-rule:evenodd;fill:#3D6092;}
	.st23{fill:#A6BFD5;}
	.st24{fill:#707071;}
	.st25{fill:#5EA77D;}
	.st26{fill:#198145;}
	.st27{fill:#E9ECEE;}
	.st28{fill:#7890B3;}
	.st29{fill:#043C55;}
	.st30{fill:#B2BFD3;}
	.st31{fill:#ADECE2;}
	.st32{opacity:0.7;fill:#99B1BC;}
	.st33{fill:#1D8B7B;}
	.st34{fill:#31CFB6;}
	.st35{fill:none;stroke:#99B1BC;stroke-width:6;stroke-linecap:round;stroke-linejoin:round;stroke-miterlimit:10;}
	.st36{fill:#BBADA3;}
	.st37{clip-path:url(#SVGID_00000072262422303758784230000011964031088528558778_);}
	.st38{fill-rule:evenodd;clip-rule:evenodd;fill:#BBADA3;}
	.st39{clip-path:url(#SVGID_00000072262422303758784230000011964031088528558778_);fill:#1D8B7B;}
	.st40{fill:none;stroke:#99B1BC;stroke-width:10.4864;stroke-linecap:round;stroke-linejoin:round;stroke-miterlimit:10;}
	.st41{fill:none;stroke:#99B1BC;stroke-width:4.657;stroke-linecap:round;stroke-linejoin:round;stroke-miterlimit:10;}
	.st42{fill:#353538;}
	.st43{fill:none;stroke:#353538;stroke-width:14.48;stroke-miterlimit:10;}
	.st44{fill:#EBEFF4;}
	.st45{fill:#A7B2BC;}
	.st46{fill:#507690;}
	.st47{fill:#EFEFEF;}
	.st48{fill:#D2DEDE;}
	.st49{fill:#BAD4DB;}
	.st50{fill:url(#SVGID_00000000211306916289720140000012950391863335387790_);}
	.st51{fill:#B1D2DE;}
	.st52{opacity:0.2;fill:#E2E2E3;}
	.st53{opacity:0.2;fill:#BBBBBD;}
	.st54{fill:#FBD86D;}
	.st55{fill:#FDE9AB;}
	.st56{fill:#D6ECF4;}
	.st57{fill:#F1933E;}
	.st58{fill:#BAC96A;}
	.st59{fill:#B05B29;}
	.st60{fill:none;stroke:#C2D07D;stroke-width:2.1053;stroke-linecap:round;stroke-miterlimit:10;}
	.st61{fill:#FCDE81;}
	.st62{fill:url(#SVGID_00000000213277539789821380000004572795106483832483_);}
	.st63{fill:#1D1D1B;}
	.st64{fill:none;stroke:#1D8B7B;stroke-width:4.2858;stroke-linecap:round;stroke-miterlimit:10;}
	.st65{fill:#BFC028;}
	.st66{fill:#83C6DF;}
	.st67{fill:#222222;}
	.st68{fill:none;stroke:#1D1D1B;stroke-width:1.5288;stroke-linecap:round;stroke-linejoin:round;stroke-miterlimit:10;}
	.st69{fill:#6FBDDA;}
	.st70{fill:#6FBDDA;stroke:#30A1CA;stroke-width:1.0192;stroke-linecap:round;stroke-linejoin:round;stroke-miterlimit:10;}
	.st71{fill:#998375;}
	.st72{fill:#AA988C;}
	.st73{fill:#BBBABC;}
	.st74{fill:#CECECF;}
	.st75{fill-rule:evenodd;clip-rule:evenodd;fill:#AA988C;}
	.st76{fill:#996A49;}
	.st77{fill:#D19F6B;}
	.st78{opacity:0.7;fill:#FFFFFF;}
	.st79{fill:none;stroke:#A8BC45;stroke-width:3.7663;stroke-miterlimit:10;}
	.st80{fill:none;stroke:#000000;stroke-width:3.7483;stroke-miterlimit:10;}
	.st81{opacity:0.8;fill:#ACD9EA;}
	.st82{fill:#CB8D50;}
	.st83{fill:#CE0B24;}
	.st84{fill:#FAC82E;}
	.st85{fill:#C2D07D;}
	.st86{clip-path:url(#SVGID_00000137850293266074587530000008924474586041126273_);fill:#507690;}
	.st87{fill:url(#SVGID_00000049188445291312440880000017307304145933907619_);}
	.st88{fill:#053C60;}
	.st89{fill:#02292A;}
	.st90{fill:#EDF8F8;}
	.st91{fill:#231717;}
	.st92{fill:#DAF0F1;}
	.st93{opacity:0.4;fill:url(#SVGID_00000118394348784312771760000007551058849548005016_);}
	.st94{fill:#D1EDED;}
	.st95{fill:#075253;}
	.st96{clip-path:url(#SVGID_00000107566250847049834110000008360341019817550234_);}
	.st97{clip-path:url(#SVGID_00000107566250847049834110000008360341019817550234_);fill:#DAF0F1;}
	
		.st98{opacity:0.4;clip-path:url(#SVGID_00000107566250847049834110000008360341019817550234_);fill:url(#SVGID_00000060002908782228238050000014498063182379822488_);}
	.st99{clip-path:url(#SVGID_00000107566250847049834110000008360341019817550234_);fill:#075253;}
	.st100{clip-path:url(#SVGID_00000107566250847049834110000008360341019817550234_);fill:#F1933E;}
	.st101{clip-path:url(#SVGID_00000107580507459850414420000015079817613108170114_);}
	.st102{clip-path:url(#SVGID_00000034782270029380485520000015292060882718580145_);fill:#DAF0F1;}
	.st103{fill:#107A7C;}
	.st104{fill:#414042;}
	.st105{fill:#666666;}
	.st106{clip-path:url(#SVGID_00000121999210388204185270000001475600627536194453_);fill:#507690;}
	.st107{fill:url(#SVGID_00000137854390830334127790000012985579534322170799_);}
	.st108{opacity:0.4;fill:url(#SVGID_00000181789292346906861600000007294589828948137406_);}
	.st109{clip-path:url(#SVGID_00000142865937506344262050000002101193755162739128_);}
	.st110{clip-path:url(#SVGID_00000142865937506344262050000002101193755162739128_);fill:#DAF0F1;}
	
		.st111{opacity:0.4;clip-path:url(#SVGID_00000142865937506344262050000002101193755162739128_);fill:url(#SVGID_00000153688681699289036040000006715438853960579751_);}
	.st112{clip-path:url(#SVGID_00000142865937506344262050000002101193755162739128_);fill:#075253;}
	.st113{clip-path:url(#SVGID_00000142865937506344262050000002101193755162739128_);fill:#F1933E;}
	.st114{clip-path:url(#SVGID_00000116234412943124069430000016476539554785251757_);}
	.st115{clip-path:url(#SVGID_00000049215138989907416850000014911255356360210054_);fill:#DAF0F1;}
	.st116{fill:none;stroke:#99B1BC;stroke-width:14.8621;stroke-linecap:round;stroke-linejoin:round;stroke-miterlimit:10;}
	.st117{clip-path:url(#SVGID_00000031189261554700553630000007103803740877630382_);}
	.st118{clip-path:url(#SVGID_00000031189261554700553630000007103803740877630382_);fill:#1D8B7B;}
</style>
<g>
	<path class="st0" d="M589.8,271.2c-2.3-2.1-4.8-3.9-6.4-7.2c-0.5-1-1-1.9-1.5-2.8c-4.1-17.7-20.6-31.9-37.8-41.6
		c-21.2-11.9-41.9-18.2-66.1-14.6c-19.4,2.9-32.6,14.8-39.7,32.1c-9.9,23.9-9.6,54.4,6.8,75.6c5.7,7.4,9.6,13.6,19.2,16.5
		c6.7,2,13.8,2.2,20.8,2.3c9.7,0.2,15.8-1.6,19.5-10.8c4.1-0.4,8.1-1.5,12-2.8c17.9,3.6,39.7,2.5,54.7-7c4.1-2.6,8.1-5.6,11.9-8.7
		c3.9-3.2,7.3-7.3,9.9-12.3C596.4,283.4,594.7,275.6,589.8,271.2z"/>
	<path class="st0" d="M510,407.6c-2.5,0-4.5-2-4.5-4.5V284.3c0-2.5,2-4.5,4.5-4.5s4.5,2,4.5,4.5v118.9
		C514.5,405.6,512.5,407.6,510,407.6z"/>
	<path class="st0" d="M514.9,349c-0.1,0.4-0.3,0.8-0.4,1.2c-0.4,1.3-0.7,2.6-1.1,3.8c-0.2,0.5-0.3,0.9-0.5,1.4
		c-0.3,0.5-0.5,1-0.8,1.6c-2.2-0.9-4.4-1.8-6.6-2.7c0.5-1.1,1-2.1,1.5-3.2c0.6-1.4,1.1-2.8,1.6-4.2c0.2-0.4,0.4-0.9,0.7-1.3
		c0.5-0.8,1-1.6,1.4-2.4c0.2-0.4,0.4-0.7,0.6-1.1c0.6-0.9,1.3-1.8,1.9-2.8c0.8-1.5,1.6-3,2.3-4.5c0.1-0.2,0.2-0.4,0.3-0.6
		c0.6-1,1.2-1.9,1.7-2.9c0.1-0.3,0.3-0.6,0.4-0.9c0.5-0.9,1-1.7,1.5-2.6c0.2-0.4,0.5-0.9,0.7-1.3c0.5-0.9,1-1.7,1.5-2.6
		c0.1-0.3,0.3-0.6,0.4-0.9c0.6-1.1,1.2-2.2,1.8-3.3c0.1-0.2,0.2-0.4,0.3-0.7c0.6-1.1,1.2-2.2,1.8-3.3c0.1-0.2,0.2-0.4,0.3-0.6
		c0.1-0.1,0.2-0.2,0.4-0.3c1.4,0.3,2.9,0.6,4.3,1c-0.6,1.1-1.3,2.1-1.9,3.2c-1.2,2.4-2.4,4.9-3.5,7.3c-0.6,1.2-1.1,2.3-1.6,3.5
		c0.1,0.1,0.2,0.1,0.3,0.2c0.4-0.3,0.8-0.6,1.2-0.9c1-0.9,2.1-1.7,3.1-2.6c3.3-2.9,6.6-5.8,9.9-8.7c0.3-0.2,0.3-0.8,0.4-1.2
		c1,0,1.9,0.1,2.9,0.1c-0.1,0.2-0.2,0.4-0.3,0.7c-0.7,0.8-1.4,1.6-2.1,2.3c-0.1,0.1-0.1,0.2-0.2,0.3c-1.4,1.4-2.7,2.9-4.1,4.3
		c-0.1,0.1-0.2,0.2-0.2,0.3c-0.3,0.2-0.6,0.3-0.9,0.6c-2.6,2.5-5.2,5-7.7,7.5c-1.7,1.7-3.3,3.4-5,5.1c-0.1,0.1-0.1,0.2-0.2,0.3
		c-0.5,0.5-1,0.9-1.5,1.4c-0.1,0.2-0.2,0.3-0.3,0.5c-0.9,1.7-1.8,3.5-2.7,5.2c-0.2,0.4-0.4,0.9-0.6,1.3
		C515.6,347.4,515.2,348.2,514.9,349z"/>
</g>
<g>
	<path class="st0" d="M40.6,270.7c1.9-1.9,4-3.6,5.3-6.6c0.4-0.9,0.8-1.8,1.3-2.5c3.4-16.3,17.1-29.5,31.4-38.4
		c17.6-11,34.9-16.8,55-13.5c16.1,2.7,27.1,13.6,33.1,29.6c8.2,22,8,50.2-5.7,69.7c-4.8,6.8-8,12.6-16,15.2
		c-5.6,1.8-11.5,2-17.3,2.1c-8.1,0.2-13.1-1.5-16.2-9.9c-3.4-0.4-6.7-1.4-10-2.5c-14.9,3.3-33,2.3-45.5-6.5c-3.4-2.4-6.7-5.1-9.9-8
		c-3.3-3-6.1-6.7-8.2-11.4C35,281.9,36.5,274.8,40.6,270.7z"/>
	<path class="st0" d="M108.6,411.8c-2,0-3.7-1.8-3.7-4.1V297.9c0-2.3,1.7-4.1,3.7-4.1c2,0,3.7,1.8,3.7,4.1v109.7
		C112.3,409.9,110.6,411.8,108.6,411.8z"/>
	<path class="st0" d="M71.9,330.6c1.6-0.8,3.3-1.7,4.9-2.5c6.1,4.9,12.3,9.7,18.4,14.6c-4,2-8,4-12.1,5.9c-3.7-1-7.3-1.9-11-2.9
		c-0.7-0.2-1.4-0.5-2.1-0.7c0.7-1.1,1.3-2.3,2-3.4c3,0.2,5.9,0.5,8.9,0.7c0.8,0.1,1.6,0.1,2.4,0.2c0.1-0.2,0.2-0.4,0.3-0.6
		C79.7,338.1,75.8,334.4,71.9,330.6z"/>
	<path class="st0" d="M108.4,357.1l1.5-5.2c0,0-3,0-5.1-0.6c-1.1-0.4-3.6-1.7-5.6-2.7l-4-5.9l-15.3,4.9l31.1,12.1L108.4,357.1z"/>
	<path class="st0" d="M23.6,298.4c3.2-3.1,6.8-5.9,11.1-7.9c5.6-2.6,11.4-3.6,17.5-3c7.5,0.8,14.3,3.7,20.9,7.3
		c4,2.2,7.9,4.6,11.3,7.6c2.2,1.9,4,4.1,5,7c0.8,2.5,2.7,4,4.4,5.7c3.6,3.6,3.9,9.2,0.1,13.4c-2.9,3.3-6.4,5.8-10.3,7.7
		c-3.7,1.8-7.6,3.5-11.5,4.9c-15.3,5.6-35.9,3.6-51.1-1.5c-2.1-0.7-4.2-1.5-6-2.7c-2.2-1.4-4.2-3.2-6.1-5.1
		c-2.6-2.6-3.2-5.9-2.2-9.4c1.2-4.3,3.1-8.4,6.1-11.9C16.4,306.4,19.8,302.2,23.6,298.4z"/>
</g>
<g>
	<path class="st44" d="M371.2,75.9H218.5l58.3-57.1c6.7-6.6,29.5-6.6,36.2,0L371.2,75.9z"/>
	<polygon class="st44" points="459.7,152.3 459.7,235.3 133.2,235.3 133.2,153.6 207,78.7 387.3,78.7 437.1,129.4 453.8,146.4 	"/>
	<rect x="142.2" y="232.3" class="st4" width="315.2" height="10.5"/>
	<rect x="142.2" y="243.1" class="st44" width="315.2" height="157.6"/>
	<g>
		<path class="st25" d="M281.2,362.2c3.2-2.2,4.2-5.6,3.9-7.5c-0.5-2.9-2.8-4.2-2.5-7.4c0.2-2.1,1.5-5.7,1-7.4
			c-1.3-4.7-3.2-4.4-4.2-7.6c-0.8-2.5,0.2-5.9-1.3-9.4c-1.4-3.1-4.8-5.5-10-3.9c-3.9,1.1-4,7.2-2.6,10.9c1.4,3.7,3.2,3.3,2.8,5.6
			c-0.5,2.3-1.5,6.2-0.2,9.3c1.5,3.6,4.7,4.6,5.5,6.1c0.7,1.5-1.2,4.2-0.2,7C274.2,360.8,276.8,365.2,281.2,362.2z"/>
		<g>
			<path class="st26" d="M279.3,383.5l-0.6,0c2.5-33.8-7.8-60.2-7.9-60.4l0.5-0.2C271.5,323.1,281.8,349.5,279.3,383.5z"/>
		</g>
		<path class="st9" d="M282.9,374.6c3.5,0,4.5-2.7,5.2-4.3c1.1-2.6,0-5,1.7-7.4c1.2-1.6,4.1-3.8,4.4-5.5c0.6-3.2-1.5-4.3-0.7-7.5
			c0.6-2.4,5.8-5.9,6.3-9.5c0.5-3.3-0.5-6.8-5.3-8.4c-3.5-1.2-8.4,3.5-9.2,7.3c-0.8,3.8,0.8,4.5-0.7,6.1c-1.5,1.6-4.2,4.2-4.7,7.4
			c-0.6,3.8,1.3,6.4,1.1,8c-0.2,1.6-2.2,3.2-2.9,6C277.7,369.5,278.1,374.6,282.9,374.6z"/>
		<path class="st9" d="M274.7,378.8c-3.2-0.2-4.1-2.7-4.6-4.3c-0.9-2.5,0.3-4.6-1.2-7c-1-1.5-3.6-3.7-3.8-5.3
			c-0.4-3,1.7-3.9,1.1-6.9c-0.5-2.3-5.1-5.8-5.4-9.2c-0.3-3.1,0.9-6.3,5.3-7.6c3.3-1,7.6,3.7,8.1,7.2c0.5,3.6-1,4.1,0.3,5.7
			c1.3,1.6,3.7,4.2,4,7.2c0.4,3.5-1.5,5.9-1.5,7.4c0.1,1.5,1.9,3.1,2.3,5.7C279.8,374.4,279.1,379,274.7,378.8z"/>
		<g>
			<path class="st26" d="M278.8,389.6l-0.6-0.1c0.4-1.8,9.1-44.7,15.8-52.5l0.4,0.4C287.8,345,278.9,389.1,278.8,389.6z"/>
		</g>
		<g>
			<path class="st26" d="M276.3,388.6c0-0.3-1.9-32.2-9.2-44.1l0.5-0.3c7.4,12,9.3,44,9.3,44.3L276.3,388.6z"/>
		</g>
		<g>
			<g>
				<rect x="268.7" y="381.9" class="st6" width="18.7" height="3.1"/>
				<polygon class="st6" points="271,400.4 270,385 286.1,385 285.4,400.4 				"/>
				<polygon class="st4" points="270,385 270.2,387.9 286,385.9 286.1,385 				"/>
			</g>
		</g>
	</g>
	<polygon class="st4" points="317.6,400.4 317.6,410.9 129.9,410.9 129.9,168.3 142.2,156.2 142.2,400.4 	"/>
	<polygon class="st4" points="471.2,168.5 471.2,410.9 317.6,410.9 317.6,400.4 457.4,400.4 457.4,155 	"/>
	<polygon class="st4" points="471.2,77.1 471.2,150.7 457.4,136.9 435.6,115.1 435.6,77.1 	"/>
	<polygon class="st4" points="387.5,86.4 213.4,86.4 224.1,75.9 376.8,75.9 	"/>
	<rect x="301.9" y="239" class="st4" width="9.9" height="162.1"/>
	<rect x="317.3" y="78.8" class="st4" width="9.9" height="162.1"/>
	<g>
		<rect x="363.8" y="84.8" class="st4" width="2.1" height="24.2"/>
		<path class="st9" d="M380,109.9c0,0-6.8,0-15.2,0s-15.2,0-15.2,0c0-8.4,6.8-15.2,15.2-15.2S380,101.5,380,109.9z"/>
	</g>
	<rect x="218.8" y="239.8" class="st4" width="2.1" height="24.2"/>
	<path class="st9" d="M235,269.6c0,0-6.8,0-15.2,0c-8.4,0-15.2,0-15.2,0c0-8.4,6.8-15.2,15.2-15.2C228.2,254.4,235,261.2,235,269.6z
		"/>
	<rect x="385.6" y="242" class="st4" width="2.1" height="24.2"/>
	<path class="st4" d="M391.8,270.4c0,2.9-2.3,5.2-5.2,5.2s-5.2-2.3-5.2-5.2c0-2.9,2.3-5.2,5.2-5.2S391.8,267.6,391.8,270.4z"/>
	<path class="st4" d="M389.2,260.4c-0.6-1.4-4.3-1.2-4.8,0c-0.5,1.2-2.8,8.9-2.8,8.9h10.1C391.7,269.2,389.8,261.7,389.2,260.4z"/>
	<path class="st9" d="M390.7,272c0,1.7-1.8,3.1-4,3.1s-4-1.4-4-3.1s1.8-3.1,4-3.1S390.7,270.3,390.7,272z"/>
	<rect x="150.3" y="177.8" class="st28" width="6.6" height="54.4"/>
	<rect x="244.2" y="177.8" class="st28" width="6.6" height="54.4"/>
	<path class="st6" d="M253,222.8H148.4c0,0,0-27.5,0-36.5c0-9,104.6-8.2,104.6,0C253,194.5,253,222.8,253,222.8z"/>
	<rect x="148.4" y="213.2" class="st4" width="104.6" height="9.6"/>
	<path class="st2" d="M250.2,205h-99c-1.5,0-2.8,1.2-2.8,2.8v2.6c0,1.5,1.2,2.8,2.8,2.8h99c1.5,0,2.8-1.2,2.8-2.8v-2.6
		C253,206.2,251.7,205,250.2,205z"/>
	<path class="st9" d="M195.4,205.4h-36.1c-1.9,0-3.4-1.5-3.4-3.4l0,0c0-1.9,1.5-3.4,3.4-3.4h36.1c1.9,0,3.4,1.5,3.4,3.4l0,0
		C198.7,203.9,197.2,205.4,195.4,205.4z"/>
	<path class="st9" d="M243.5,205.4h-36.1c-1.9,0-3.4-1.5-3.4-3.4l0,0c0-1.9,1.5-3.4,3.4-3.4h36.1c1.9,0,3.4,1.5,3.4,3.4l0,0
		C246.9,203.9,245.4,205.4,243.5,205.4z"/>
	<g>
		<path class="st3" d="M194.7,189.6l-3.2,15.9h0c-0.6-0.3-1-0.8-1.2-1.4l2.7-13.7C193.4,190,194,189.7,194.7,189.6z"/>
		<polygon class="st3" points="198.2,190.2 195,205.8 193,205.7 196.2,189.8 		"/>
		<polygon class="st3" points="201.9,191 198.9,206 196.5,205.9 199.6,190.5 		"/>
		<polygon class="st3" points="205.3,191.7 202.4,206.1 200.4,206 203.3,191.3 		"/>
		<polygon class="st3" points="208.7,192.4 206,206.2 203.9,206.2 206.8,192 		"/>
		<path class="st3" d="M211.8,193.9l-2.4,11.7c-0.6,0.4-1.3,0.6-2,0.7l2.7-13.6C210.9,192.9,211.5,193.3,211.8,193.9z"/>
		<path class="st18" d="M196.2,189.8l-3.2,15.9l-0.9,0c-0.2,0-0.4-0.1-0.6-0.2l3.2-15.9c0.2,0,0.5,0,0.8,0L196.2,189.8z"/>
		<path class="st18" d="M193,190.5l-2.7,13.7c-0.2-0.4-0.2-1-0.1-1.5l2.3-11C192.5,191.2,192.7,190.8,193,190.5z"/>
		<polygon class="st18" points="199.6,190.5 196.5,205.9 195,205.8 198.2,190.2 		"/>
		<polygon class="st18" points="203.3,191.3 200.4,206 198.9,206 201.9,191 		"/>
		<polygon class="st18" points="206.8,192 203.9,206.2 202.4,206.1 205.3,191.7 		"/>
		<path class="st18" d="M210.2,192.7l-2.7,13.6c-0.3,0-0.6,0-0.8,0l-0.7,0l2.8-13.8L210.2,192.7
			C210.2,192.7,210.2,192.7,210.2,192.7z"/>
		<path class="st18" d="M212.1,195.7l-1.5,8.4c-0.1,0.6-0.6,1.1-1.2,1.5l2.4-11.7C212.1,194.4,212.3,195.1,212.1,195.7z"/>
	</g>
	<path class="st9" d="M442.6,218.9h-48.8c-2.5,0-4.5-1.5-4.5-3.4l0,0c0-1.9,2-3.4,4.5-3.4h48.8c2.5,0,4.5,1.5,4.5,3.4l0,0
		C447.2,217.4,445.1,218.9,442.6,218.9z"/>
	<path class="st45" d="M415.9,400.3h30.2c4.5,0,8.1-3.6,8.1-8.1v-98.7c0-4.5-3.6-8.1-8.1-8.1h-30.2c-4.5,0-8.1,3.6-8.1,8.1v98.7
		C407.8,396.6,411.5,400.3,415.9,400.3z"/>
	
		<rect x="407.8" y="337" transform="matrix(-1 -4.494905e-11 4.494905e-11 -1 862.0535 674.8932)" class="st4" width="46.4" height="1"/>
	<path class="st45" d="M247.4,400.9h-91.5c-3.4,0-6.1-3.3-6.1-7.3l0,0c0-4,2.7-7.3,6.1-7.3h91.5c3.4,0,6.1,3.3,6.1,7.3l0,0
		C253.5,397.6,250.8,400.9,247.4,400.9z"/>
	<path class="st45" d="M242.6,355.6V377c0,4.9-3.5,8.9-7.7,8.9h-27.7c-2.2,0-4.2-1.1-5.6-2.8c-1.4,1.8-3.4,2.8-5.7,2.8h-27.7
		c-4.3,0-7.7-4-7.7-8.9v-21.4c0-4.9,3.4-8.9,7.7-8.9h27.7c2.2,0,4.2,1.1,5.7,2.9c1.4-1.8,3.4-2.9,5.6-2.9h27.7
		C239.2,346.7,242.6,350.7,242.6,355.6z"/>
	
		<rect x="438.4" y="362.2" transform="matrix(-1 -4.710289e-11 4.710289e-11 -1 880.5535 762.4349)" class="st18" width="3.8" height="38"/>
	<path class="st18" d="M489.3,189.8c-2.2,0-4.5-0.9-6.2-2.6L326.4,30.5c-13.6-13.6-35.7-13.6-49.3,0L120.4,187.2
		c-3.4,3.4-9,3.4-12.4,0c-3.4-3.4-3.4-9,0-12.4L264.7,18.1c20.4-20.4,53.7-20.4,74.1,0l156.7,156.7c3.4,3.4,3.4,9,0,12.4
		C493.8,189,491.5,189.8,489.3,189.8z"/>
	<g>
		<path class="st45" d="M165.3,374c0.1,0.6,1.1,9.3,2.1,16.2l6.1-0.8l-5.6-14.3c0,0-0.5,0-1.3,0.1c0.5-1,0.8-2,0.8-3.2
			c0-3.8-3-6.9-6.8-6.9h0l0,0C162.9,367.6,164.5,370.7,165.3,374z"/>
		<path class="st45" d="M157.7,372.4c-1.7-2.8-3.9-5.1-6.4-7.2h-1.6c-3.7,0-6.8,3.1-6.8,6.9c0,2.9,1.8,5.4,4.2,6.4c0,0,0,0,0,0
			c3.6,1.6,3.2,13.8,3.2,13.8l11.7-1.4c-0.7-1.9-1.2-4.3-1.5-7.2C160.2,379.5,159.9,376.1,157.7,372.4z"/>
		<path class="st4" d="M165.3,374c-0.8-3.3-2.4-6.4-4.7-8.8l0,0h-9.3c2.5,2.1,4.7,4.4,6.4,7.2c2.3,3.7,2.5,7.2,2.9,11.3
			c0.3,2.9,0.8,1.8,1.5,3.7l5.4-0.7C166.4,379.8,165.4,374.6,165.3,374z"/>
	</g>
	<g>
		<path class="st45" d="M237.6,373.9c-0.1,0.6-1.1,9.3-2.1,16.2l-6.1-0.8l5.6-14.3c0,0,0.5,0,1.3,0.1c-0.5-1-0.8-2-0.8-3.2
			c0-3.8,3-6.9,6.8-6.9h0l0,0C239.9,367.5,238.4,370.6,237.6,373.9z"/>
		<path class="st45" d="M245.2,372.2c1.7-2.8,3.9-5.1,6.4-7.2h1.6c3.7,0,6.8,3.1,6.8,6.9c0,2.9-1.8,5.4-4.2,6.4c0,0,0,0,0,0
			c-3.6,1.6-3.2,13.8-3.2,13.8l-11.7-1.4c0.7-1.9,1.2-4.3,1.5-7.2C242.7,379.4,242.9,375.9,245.2,372.2z"/>
		<path class="st4" d="M237.6,373.9c0.8-3.3,2.4-6.4,4.7-8.8l0,0h9.3c-2.5,2.1-4.7,4.4-6.4,7.2c-2.3,3.7-2.5,7.2-2.9,11.3
			c-0.3,2.9-0.8,1.8-1.5,3.7l-5.4-0.7C236.4,379.6,237.4,374.4,237.6,373.9z"/>
	</g>
	<g>
		<defs>
			<path id="SVGID_00000140716192848719634800000005283002939528340667_" d="M242.6,355.6V377c0,4.9-3.5,8.9-7.7,8.9h-27.7
				c-2.2,0-4.2-1.1-5.6-2.8c-1.4,1.8-3.4,2.8-5.7,2.8h-27.7c-4.3,0-7.7-4-7.7-8.9v-21.4c0-4.9,3.4-8.9,7.7-8.9h27.7
				c2.2,0,4.2,1.1,5.7,2.9c1.4-1.8,3.4-2.9,5.6-2.9h27.7C239.2,346.7,242.6,350.7,242.6,355.6z"/>
		</defs>
		<clipPath id="SVGID_00000067941531729804988070000009896876314782848187_">
			<use xlink:href="#SVGID_00000140716192848719634800000005283002939528340667_"  style="overflow:visible;"/>
		</clipPath>
	</g>
	<path class="st6" d="M199,389.2h-35.7c-1.5,0-2.6-1.2-2.6-2.6v-2.8c0-1.5,1.2-2.6,2.6-2.6H199c1.5,0,2.6,1.2,2.6,2.6v2.8
		C201.6,388,200.4,389.2,199,389.2z"/>
	<path class="st6" d="M240,389.2h-35.7c-1.5,0-2.6-1.2-2.6-2.6v-2.8c0-1.5,1.2-2.6,2.6-2.6H240c1.5,0,2.6,1.2,2.6,2.6v2.8
		C242.6,388,241.4,389.2,240,389.2z"/>
	<rect x="260.2" y="115.8" class="st4" width="50.6" height="117.6"/>
	<rect x="264.1" y="120" class="st45" width="19.3" height="109.5"/>
	<rect x="287.6" y="120" class="st45" width="19.3" height="109.5"/>
	<rect x="238.6" y="83.3" class="st4" width="2.1" height="24.2"/>
	<path class="st9" d="M254.9,108.4c0,0-6.8,0-15.2,0c-8.4,0-15.2,0-15.2,0c0-8.4,6.8-15.2,15.2-15.2
		C248.1,93.2,254.9,100,254.9,108.4z"/>
	<rect x="388.7" y="218" class="st6" width="59.5" height="9.8"/>
	<rect x="387.7" y="181.4" class="st6" width="3.6" height="50.8"/>
	<rect x="396" y="181.4" class="st6" width="3.6" height="42.4"/>
	<rect x="404.3" y="181.4" class="st6" width="3.6" height="42.4"/>
	<rect x="412.6" y="181.4" class="st6" width="3.6" height="42.4"/>
	<rect x="420.9" y="181.4" class="st6" width="3.6" height="42.4"/>
	<rect x="429.2" y="181.4" class="st6" width="3.6" height="42.4"/>
	<rect x="437.4" y="181.4" class="st6" width="3.6" height="42.4"/>
	<rect x="445.7" y="181.4" class="st6" width="3.6" height="50.8"/>
	<rect x="384" y="180.3" class="st6" width="68.8" height="5.9"/>
	<g>
		<g>
			<polygon class="st28" points="331.5,400.5 334.4,400.5 335.2,326.8 329.9,326.8 			"/>
			
				<rect x="334.4" y="372.2" transform="matrix(-1 -4.501567e-11 4.501567e-11 -1 698.337 748.2328)" class="st28" width="29.5" height="3.9"/>
			
				<rect x="359.4" y="372.2" transform="matrix(-1 -4.589630e-11 4.589630e-11 -1 721.5908 772.702)" class="st28" width="2.8" height="28.2"/>
		</g>
		
			<rect x="330.8" y="398.9" transform="matrix(-1 -4.632307e-11 4.632307e-11 -1 666.0265 799.3214)" class="st28" width="4.4" height="1.6"/>
		
			<rect x="358.6" y="398.9" transform="matrix(-1 -4.509383e-11 4.509383e-11 -1 721.5974 799.3214)" class="st28" width="4.4" height="1.6"/>
	</g>
	
		<rect x="345.1" y="362.2" transform="matrix(-1 -4.377222e-11 4.377222e-11 -1 693.9713 762.4349)" class="st18" width="3.8" height="38"/>
	<path class="st4" d="M340.4,363.2H448c1.8,0,3.3-1.5,3.3-3.3v-0.1c0-1.8-1.5-3.3-3.3-3.3H340.4c-1.8,0-3.3,1.5-3.3,3.3v0.1
		C337.1,361.7,338.5,363.2,340.4,363.2z"/>
</g>
<path class="st26" d="M513.8,372c7.3-4.1,15.3-4.3,25.8,2.2c10.4,6.5,12.6,10.8,13.3,13.7c0.6,2.9,5.4,4.7,4.1,10.5
	c-1.3,5.8-13.6,11.9-21.5,12.6c-8,0.7-9.6,0-19.1-1.5c-9.5-1.5-17-3.7-20.5-10.9C492.3,391.4,506,376.3,513.8,372z"/>
<path class="st9" d="M562.3,390.5c4.2-2.1,8.8-2.2,14.8,1.1c6,3.3,7.3,5.5,7.7,6.9c0.4,1.5,3.1,2.4,2.4,5.3c-0.7,2.9-7.8,6-12.4,6.4
	c-4.6,0.4-5.5,0-11-0.7c-5.4-0.7-9.8-1.8-11.8-5.5S557.9,392.7,562.3,390.5z"/>
<path class="st26" d="M476.6,411.7h87c3.3-3,8.3-10.3-1.2-16.9c-10.9-7.6-34.4-18.1-48.9-13.4c-16.5,5.3-26.7,7.9-31,10.7
	c-4.3,2.8-14.6,10.8-8.7,16.6C474.8,409.7,475.7,410.8,476.6,411.7z"/>
<path class="st26" d="M476.4,411.7h46.5c2.8-1,4.8-2.3,5.6-3.2c1.8-1.8,7.1-10.4,0-18c-7-7.6-22.2-18-31.5-13.2
	c-10.6,5.4-17.2,8-20,10.8c-2.8,2.8-9.4,10.8-5.6,16.6C473.3,407.5,474.5,410,476.4,411.7z"/>
<path class="st9" d="M593,411.7c0.4-2.2-1.6-2.9-1.9-4c-0.3-1.2-1.3-2.9-6.1-5.5c-4.8-2.6-8.4-2.5-11.8-0.9
	c-3.4,1.7-9.3,7.4-8.3,10.4H593z"/>
<path class="st9" d="M546.3,411.7h34.6c0.1-0.2,0.2-0.5,0.3-0.7c0.7-2.9-2-3.8-2.4-5.3c-0.4-1.5-1.6-3.6-7.7-6.9
	c-6-3.3-10.6-3.2-14.8-1.1c-4.4,2.2-12.3,9.9-10.3,13.5C546.1,411.4,546.2,411.6,546.3,411.7z"/>
<path class="st9" d="M65.2,406c4.8,2,9.6,3.8,14.4,5.7h5c-2.8-3.3-6-6.2-9.7-8.5c-6.1-3.9-12.7-5.3-19.9-3.9c-5.1,1-9.7,3.3-14,6.1
	c-0.3,0.2-0.4,0.5-0.7,0.8c3.9-0.6,7.7-1.2,11.5-1.7C56.3,403.9,60.8,404.2,65.2,406z"/>
<path class="st25" d="M85.3,411.7h3.4c-1.6-5.6-3.8-11-6.5-16.2c-2.1-4-4.6-7.6-8.1-10.5c-5.4-4.5-11.5-7.6-18-10.2
	c-1.2-0.5-2.4-0.8-3.6-1.1c-0.1,0.1-0.2,0.2-0.2,0.4C65,385.1,75.3,398.3,85.3,411.7z"/>
<path class="st9" d="M86.2,387.9c0.4,4.1,1.1,8.2,1.8,12.4c0.6,3.8,1.3,7.6,2,11.4h2.7c0-0.1,0-0.3,0-0.4c0.8-4.3,1.9-8.5,2.6-12.8
	c1.3-8.2,1.6-16.5-0.6-24.7c-2.1-7.4-4.5-14.6-6.8-21.9c-0.1-0.4-0.7-0.7-1.1-1.1c-0.3,0.4-0.7,0.9-0.7,1.3
	c-0.2,4.1-0.3,8.1-0.4,12.2c-0.1,2.8-0.2,5.5-0.2,8.3C85.6,377.8,85.8,382.9,86.2,387.9z"/>
<path class="st9" d="M96.8,411.7c4-6.2,8.1-12.2,11.9-18.5c5-8.4,11-15.8,18.4-22.1c0.2-0.2,0.4-0.4,0.5-0.7
	c-0.1-0.1-0.2-0.3-0.3-0.4c-4.6,2.5-9.2,4.9-13.8,7.4c-6.4,3.6-10.9,8.8-13.2,15.8c-2.1,6.2-4,12.3-6.1,18.5c0,0,0,0,0,0H96.8z"/>
<path class="st25" d="M105.2,411.7c10-8.6,20.4-16.6,32-23.1c-0.1-0.1-0.1-0.3-0.2-0.4c-1.2,0.1-2.5,0.2-3.7,0.4
	c-6.9,1.2-13.5,3-19.7,6.3c-4,2.1-7.2,5.2-10.1,8.7c-2.2,2.6-4.2,5.3-6,8.2H105.2z"/>
</svg>
