<?xml version="1.0" encoding="utf-8"?>
<!-- Generator: Adobe Illustrator 26.4.0, SVG Export Plug-In . SVG Version: 6.00 Build 0)  -->
<svg version="1.1" id="Layer_1" xmlns="http://www.w3.org/2000/svg" xmlns:xlink="http://www.w3.org/1999/xlink" x="0px" y="0px"
	 viewBox="0 0 600 411.7" style="enable-background:new 0 0 600 411.7;" xml:space="preserve">
<style type="text/css">
	.st0{fill:#E4E8EA;}
	.st1{fill:#E4E8EA;stroke:#1D1D1B;stroke-width:0.4707;stroke-miterlimit:10;}
	.st2{fill:#F5F5F6;}
	.st3{fill:#507690;}
	.st4{fill:#9BB1BF;}
	.st5{fill:#FFFFFF;}
	.st6{fill:#996A49;}
	.st7{fill:#D19F6B;}
	.st8{fill:#A8BC45;}
	.st9{fill:#233E57;}
	.st10{opacity:0.7;fill:#FFFFFF;}
	.st11{fill:none;stroke:#A8BC45;stroke-width:3.7663;stroke-miterlimit:10;}
	.st12{fill:none;stroke:#000000;stroke-width:3.7483;stroke-miterlimit:10;}
	.st13{opacity:0.8;fill:#ACD9EA;}
	.st14{fill:#F1933E;}
	.st15{fill:#CB8D50;}
	.st16{fill:#B05B29;}
	.st17{fill:#553119;}
	.st18{fill:#CE0B24;}
	.st19{fill:#FAC82E;}
	.st20{fill:#D3D8DD;}
	.st21{fill:#3D6092;}
	.st22{fill:#6390B5;}
	.st23{fill:#00A3A6;}
	.st24{fill:#99B1BC;}
	.st25{fill:none;}
	.st26{fill-rule:evenodd;clip-rule:evenodd;fill:#3D6092;}
	.st27{fill:#A6BFD5;}
	.st28{fill:#707071;}
	.st29{fill:#5EA77D;}
	.st30{fill:#198145;}
	.st31{fill:#E9ECEE;}
	.st32{fill:#657889;}
	.st33{fill:#7890B3;}
	.st34{fill:#043C55;}
	.st35{fill:#B2BFD3;}
	.st36{fill:#ADECE2;}
	.st37{opacity:0.7;fill:#99B1BC;}
	.st38{fill:#BBBBBD;}
	.st39{fill:#1D8B7B;}
	.st40{fill:#31CFB6;}
	.st41{fill:#E2E2E3;}
	.st42{fill:#886F5E;}
	.st43{fill:none;stroke:#99B1BC;stroke-width:6;stroke-linecap:round;stroke-linejoin:round;stroke-miterlimit:10;}
	.st44{fill:#30A1CA;}
	.st45{fill:#BBADA3;}
	.st46{clip-path:url(#SVGID_00000052075674568299824540000014835994428558476465_);}
	.st47{fill-rule:evenodd;clip-rule:evenodd;fill:#BBADA3;}
	.st48{clip-path:url(#SVGID_00000052075674568299824540000014835994428558476465_);fill:#1D8B7B;}
	.st49{fill:#353538;}
	.st50{fill:none;stroke:#353538;stroke-width:14.48;stroke-miterlimit:10;}
	.st51{fill:#EBEFF4;}
	.st52{fill:#A7B2BC;}
	.st53{fill:#F0BFA1;}
	.st54{fill:#F4D3BD;}
	.st55{fill:#DBB084;}
	.st56{fill:#222222;}
	.st57{fill:#864C2F;}
	.st58{clip-path:url(#SVGID_00000164512484908064329930000002963150512080918685_);fill:#CB8D50;}
	.st59{fill-rule:evenodd;clip-rule:evenodd;fill:#F4D3BD;}
	.st60{clip-path:url(#SVGID_00000142162261107954623080000006602661116428081028_);fill:#CB8D50;}
	.st61{fill:#EFEFEF;}
	.st62{fill:#D2DEDE;}
	.st63{fill:#BAD4DB;}
	.st64{fill:url(#SVGID_00000178200939580753463940000003569526985179406468_);}
	.st65{fill:#B1D2DE;}
	.st66{opacity:0.2;fill:#E2E2E3;}
	.st67{opacity:0.2;fill:#BBBBBD;}
	.st68{fill:#FBD86D;}
	.st69{fill:#FDE9AB;}
	.st70{fill:#D6ECF4;}
	.st71{fill:#BAC96A;}
	.st72{fill:none;stroke:#C2D07D;stroke-width:2.1053;stroke-linecap:round;stroke-miterlimit:10;}
	.st73{fill:#FCDE81;}
	.st74{fill:url(#SVGID_00000071529732098725481900000001902697236473381024_);}
	.st75{fill:#1D1D1B;}
	.st76{fill:none;stroke:#1D8B7B;stroke-width:4.2858;stroke-linecap:round;stroke-miterlimit:10;}
	.st77{fill:#BFC028;}
	.st78{fill:#83C6DF;}
	.st79{fill:none;stroke:#1D1D1B;stroke-width:1.5288;stroke-linecap:round;stroke-linejoin:round;stroke-miterlimit:10;}
	.st80{fill:#1899C5;}
	.st81{fill:#6FBDDA;}
	.st82{fill:#6FBDDA;stroke:#30A1CA;stroke-width:1.0192;stroke-linecap:round;stroke-linejoin:round;stroke-miterlimit:10;}
	.st83{fill:#998375;}
	.st84{fill:#AA988C;}
	.st85{fill:#BBBABC;}
	.st86{fill:#CECECF;}
	.st87{fill-rule:evenodd;clip-rule:evenodd;fill:#AA988C;}
	.st88{fill:#C2D07D;}
	.st89{clip-path:url(#SVGID_00000074422448048252664370000000686173473707029418_);fill:#507690;}
	.st90{fill:url(#SVGID_00000089540462337987113270000009091486390362461607_);}
	.st91{fill:#053C60;}
	.st92{fill:#02292A;}
	.st93{fill:#EDF8F8;}
	.st94{fill:#231717;}
	.st95{fill:#DAF0F1;}
	.st96{opacity:0.4;fill:url(#SVGID_00000010274515274331233030000018344321441927739823_);}
	.st97{fill:#D1EDED;}
	.st98{fill:#075253;}
	.st99{clip-path:url(#SVGID_00000070090797977950123860000012787735190229281159_);}
	.st100{clip-path:url(#SVGID_00000070090797977950123860000012787735190229281159_);fill:#DAF0F1;}
	
		.st101{opacity:0.4;clip-path:url(#SVGID_00000070090797977950123860000012787735190229281159_);fill:url(#SVGID_00000076602799693179838430000011730729177028664247_);}
	.st102{clip-path:url(#SVGID_00000070090797977950123860000012787735190229281159_);fill:#075253;}
	.st103{clip-path:url(#SVGID_00000070090797977950123860000012787735190229281159_);fill:#F1933E;}
	.st104{clip-path:url(#SVGID_00000001632078167093859250000012788299523356421310_);}
	.st105{clip-path:url(#SVGID_00000032614926519981388100000003494081562468747667_);fill:#DAF0F1;}
	.st106{fill:#107A7C;}
	.st107{fill:#414042;}
	.st108{fill:#666666;}
	.st109{clip-path:url(#SVGID_00000008128822985787467100000013540870416041016203_);fill:#507690;}
	.st110{fill:url(#SVGID_00000175301075798169022460000017404476361618218390_);}
	.st111{opacity:0.4;fill:url(#SVGID_00000140724132027066588770000009678392630438284442_);}
	.st112{clip-path:url(#SVGID_00000175298737463938680370000013592228147221556388_);}
	.st113{clip-path:url(#SVGID_00000175298737463938680370000013592228147221556388_);fill:#DAF0F1;}
	
		.st114{opacity:0.4;clip-path:url(#SVGID_00000175298737463938680370000013592228147221556388_);fill:url(#SVGID_00000173880702499063125810000018015461948702565308_);}
	.st115{clip-path:url(#SVGID_00000175298737463938680370000013592228147221556388_);fill:#075253;}
	.st116{clip-path:url(#SVGID_00000175298737463938680370000013592228147221556388_);fill:#F1933E;}
	.st117{clip-path:url(#SVGID_00000139977762761658335120000013680262379530244775_);}
	.st118{clip-path:url(#SVGID_00000181061737253769725920000011661939948701275828_);fill:#DAF0F1;}
</style>
<g>
	<g>
		<defs>
			<rect id="SVGID_00000041288462911261174270000018277664287708749960_" x="-674.8" y="-1174.5" width="700" height="951.1"/>
		</defs>
		<clipPath id="SVGID_00000039828213181221307930000016770408224632778421_">
			<use xlink:href="#SVGID_00000041288462911261174270000018277664287708749960_"  style="overflow:visible;"/>
		</clipPath>
		<g style="clip-path:url(#SVGID_00000039828213181221307930000016770408224632778421_);">
			<path class="st39" d="M253-211.4L61-312.8c0,0-53.2,10-77.8,67c0,0,140.1,189,232.8,251.5c14.5,12,32.4,20.6,52.5,24.3
				c61.2,11.3,117.9-27.8,131.2-86.3C420.2-146.1,253-211.4,253-211.4z"/>
		</g>
	</g>
</g>
<g>
	<path class="st0" d="M186.1,157.8c0-0.6,0-1.2,0-1.8c0-0.2,0-0.5,0-0.7c0-0.6-0.1-1.1-0.1-1.7c0-0.1,0-0.1,0-0.2
		c-2.7-29.1-29.5-93.5-39-115.4c-0.2-0.4-0.4-0.7-0.7-1c0,0,0,0,0,0c-0.1-0.1-0.3-0.2-0.4-0.4c-0.2-0.1-0.4-0.3-0.6-0.4
		c-0.2-0.1-0.3-0.2-0.5-0.2c-0.1,0-0.3-0.1-0.4-0.1c-0.2,0-0.3-0.1-0.5-0.1c-0.1,0-0.3,0-0.4,0c-0.2,0-0.3,0-0.5,0.1
		c-0.1,0-0.3,0.1-0.4,0.1c-0.2,0.1-0.3,0.1-0.5,0.2c-0.1,0.1-0.2,0.1-0.3,0.2c-0.2,0.1-0.3,0.3-0.5,0.4c-0.1,0.1-0.2,0.1-0.2,0.2
		c-0.2,0.3-0.4,0.5-0.5,0.9c-9.4,21.9-36.2,86.3-39,115.4c0,0.1,0,0.1,0,0.2c-0.1,0.6-0.1,1.2-0.1,1.7c0,0.2,0,0.5,0,0.7
		c0,0.6,0,1.2,0,1.8c0,0.1,0,0.2,0,0.3c0,0.1,0,0.2,0,0.3c0,21.9,16.7,40,38,42.2v20.9h8.8v-20.9c21.4-2.2,38-20.3,38-42.2
		c0-0.1,0-0.2,0-0.3C186,158,186.1,157.9,186.1,157.8z"/>
	<path class="st0" d="M290.4,164.3c0-0.3,0-0.6,0-0.9c0-0.1,0-0.3,0-0.4c0-0.3,0-0.6-0.1-0.9c0,0,0-0.1,0-0.1
		c-1.4-15.3-15.5-49.1-20.5-60.7c-0.1-0.2-0.2-0.4-0.4-0.5c0,0,0,0,0,0c-0.1-0.1-0.2-0.1-0.2-0.2c-0.1-0.1-0.2-0.1-0.3-0.2
		c-0.1,0-0.2-0.1-0.3-0.1c-0.1,0-0.1,0-0.2,0c-0.1,0-0.2,0-0.3,0c-0.1,0-0.1,0-0.2,0c-0.1,0-0.2,0-0.3,0c-0.1,0-0.1,0-0.2,0.1
		c-0.1,0-0.2,0.1-0.3,0.1c-0.1,0-0.1,0.1-0.2,0.1c-0.1,0.1-0.2,0.1-0.3,0.2c0,0-0.1,0.1-0.1,0.1c-0.1,0.1-0.2,0.3-0.3,0.5
		c-4.9,11.5-19,45.4-20.5,60.7c0,0,0,0.1,0,0.1c0,0.3-0.1,0.6-0.1,0.9c0,0.1,0,0.3,0,0.4c0,0.3,0,0.6,0,0.9c0,0.1,0,0.1,0,0.2
		c0,0.1,0,0.1,0,0.2c0,11.5,8.8,21,20,22.2v11h4.6v-11c11.2-1.2,20-10.6,20-22.2c0,0,0-0.1,0-0.2
		C290.4,164.4,290.4,164.4,290.4,164.3z"/>
	<path class="st0" d="M248.9,153.3c0-0.6,0-1.2,0-1.8c0-0.2,0-0.5,0-0.7c0-0.6-0.1-1.1-0.1-1.7c0-0.1,0-0.1,0-0.2
		c-2.7-29.1-29.5-93.5-39-115.4c-0.2-0.4-0.4-0.7-0.7-1c0,0,0,0,0,0c-0.1-0.1-0.3-0.2-0.4-0.4c-0.2-0.1-0.4-0.3-0.6-0.4
		c-0.2-0.1-0.3-0.2-0.5-0.2c-0.1,0-0.3-0.1-0.4-0.1c-0.2,0-0.3-0.1-0.5-0.1c-0.1,0-0.3,0-0.4,0c-0.2,0-0.3,0-0.5,0.1
		c-0.1,0-0.3,0.1-0.4,0.1c-0.2,0.1-0.3,0.1-0.5,0.2c-0.1,0.1-0.2,0.1-0.3,0.2c-0.2,0.1-0.3,0.3-0.5,0.4c-0.1,0.1-0.2,0.1-0.2,0.2
		c-0.2,0.3-0.4,0.5-0.5,0.9c-9.4,21.9-36.2,86.3-39,115.4c0,0.1,0,0.1,0,0.2c-0.1,0.6-0.1,1.2-0.1,1.7c0,0.2,0,0.5,0,0.7
		c0,0.6,0,1.2,0,1.8c0,0.1,0,0.2,0,0.3c0,0.1,0,0.2,0,0.3c0,21.9,16.7,40,38,42.2V217h8.8v-20.9c21.4-2.2,38-20.3,38-42.2
		c0-0.1,0-0.2,0-0.3C248.9,153.5,248.9,153.4,248.9,153.3z"/>
	<path class="st0" d="M18.6,406.8c0-117.3,111.8-212.3,249.8-212.3s249.8,95.1,249.8,212.3"/>
	<path class="st0" d="M499.7,124.1c-3.5-7.4-11.1-12.6-19.9-12.6c-0.6,0-1.3,0-1.9,0.1c-0.2,0-0.4,0-0.6,0.1c0,0,0,0,0,0
		c-0.2,0-0.4,0.1-0.6,0.1c-0.2,0-0.4,0.1-0.6,0.1c-0.6,0.1-1.2,0.2-1.8,0.4c-0.2,0.1-0.4,0.1-0.6,0.2c-0.4,0.1-0.8,0.2-1.2,0.4
		c-0.4,0.1-0.8,0.3-1.1,0.4c-0.4,0.2-0.7,0.3-1.1,0.5c0,0,0,0,0,0c-0.1-0.8-0.2-1.5-0.3-2.3c-0.1-0.4-0.1-0.9-0.2-1.3
		c-0.1-0.4-0.2-0.7-0.2-1.1c0-0.1,0-0.1-0.1-0.2c-0.1-0.4-0.2-0.8-0.3-1.1c-0.1-0.3-0.2-0.5-0.2-0.7c-0.1-0.2-0.1-0.4-0.2-0.6
		c0-0.1-0.1-0.2-0.1-0.3c-0.2-0.6-0.4-1.1-0.6-1.6c-0.1-0.3-0.2-0.5-0.3-0.8c0-0.1-0.1-0.2-0.1-0.3c0-0.1-0.1-0.2-0.1-0.3
		c-0.1-0.2-0.1-0.3-0.2-0.5c0-0.1-0.1-0.1-0.1-0.2c-0.2-0.3-0.3-0.7-0.5-1c-0.2-0.4-0.4-0.8-0.6-1.2c0-0.1-0.1-0.2-0.1-0.3
		c0-0.1-0.1-0.1-0.1-0.2c-0.3-0.4-0.5-0.9-0.8-1.3c-0.3-0.5-0.6-1-0.9-1.4c0,0,0,0,0,0c-0.1-0.1-0.1-0.2-0.2-0.2
		c-0.1-0.2-0.2-0.3-0.3-0.5c-0.2-0.2-0.3-0.5-0.5-0.7c-0.2-0.2-0.3-0.5-0.5-0.7c-0.2-0.2-0.3-0.4-0.5-0.7c-0.1-0.1-0.1-0.1-0.2-0.2
		c-0.1-0.1-0.1-0.1-0.2-0.2c-0.1-0.1-0.1-0.2-0.2-0.2c-0.2-0.2-0.4-0.4-0.6-0.6c-0.2-0.3-0.5-0.5-0.7-0.8c-0.2-0.2-0.4-0.4-0.6-0.6
		c0,0-0.1-0.1-0.1-0.1c-0.2-0.2-0.4-0.4-0.6-0.6c-0.3-0.3-0.7-0.7-1-1c-0.2-0.2-0.5-0.4-0.8-0.6c-0.3-0.2-0.5-0.4-0.8-0.6
		c-0.1-0.1-0.2-0.2-0.3-0.3c-0.2-0.1-0.4-0.3-0.5-0.4c-0.1-0.1-0.2-0.1-0.2-0.2c-0.4-0.3-0.8-0.6-1.3-0.9c0,0-0.1-0.1-0.1-0.1
		c-0.1,0-0.1-0.1-0.2-0.1c-0.1,0-0.1-0.1-0.2-0.2c-0.3-0.2-0.6-0.4-0.9-0.6c-0.2-0.2-0.5-0.3-0.7-0.4c-0.2-0.1-0.5-0.3-0.7-0.4
		c-0.1,0-0.1-0.1-0.2-0.1c-0.2-0.1-0.4-0.2-0.5-0.3c-0.3-0.1-0.6-0.3-0.8-0.4c-0.2-0.1-0.4-0.2-0.6-0.3c-0.3-0.1-0.6-0.3-0.9-0.4
		c-0.2-0.1-0.3-0.1-0.5-0.2c0,0-0.1,0-0.1-0.1c0,0-0.1,0-0.1,0c-0.2-0.1-0.5-0.2-0.7-0.3c-0.8-0.3-1.7-0.6-2.5-0.9
		c-0.1,0-0.2,0-0.3-0.1c-0.7-0.2-1.4-0.4-2.2-0.6c-0.2,0-0.4-0.1-0.6-0.1c-0.1,0-0.3-0.1-0.4-0.1c-0.1,0-0.3-0.1-0.4-0.1
		c-0.1,0-0.3-0.1-0.4-0.1c-0.2,0-0.5-0.1-0.7-0.1c-0.4-0.1-0.7-0.1-1.1-0.2c-0.2,0-0.4,0-0.6-0.1c-0.1,0-0.3,0-0.4,0
		c-0.3,0-0.5,0-0.8-0.1c-0.4,0-0.7-0.1-1.1-0.1c-0.2,0-0.3,0-0.5,0c-0.3,0-0.5,0-0.8,0c-0.3,0-0.6,0-1,0c-0.6,0-1.2,0-1.9,0
		c-0.3,0-0.7,0-1,0.1c-0.2,0-0.5,0-0.7,0.1c-0.1,0-0.3,0-0.4,0c-0.2,0-0.4,0-0.5,0.1c-0.2,0-0.4,0-0.6,0.1c-0.5,0.1-1,0.2-1.6,0.3
		c-0.2,0-0.5,0.1-0.7,0.1c-0.1,0-0.2,0-0.3,0.1c-0.1,0-0.2,0-0.3,0.1c-0.1,0-0.1,0-0.2,0c-0.4,0.1-0.8,0.2-1.2,0.3
		c-0.4,0.1-0.7,0.2-1.1,0.3c-0.2,0-0.4,0.1-0.5,0.2c0,0,0,0-0.1,0c-0.2,0.1-0.3,0.1-0.5,0.2c-0.9,0.3-1.8,0.6-2.6,1
		c-0.3,0.1-0.6,0.2-0.8,0.4c-0.2,0.1-0.4,0.2-0.6,0.3c-0.5,0.2-0.9,0.4-1.3,0.7c-0.2,0.1-0.4,0.2-0.6,0.3c-0.1,0.1-0.3,0.1-0.4,0.2
		c-0.1,0-0.2,0.1-0.3,0.1c-0.2,0.1-0.4,0.2-0.6,0.3c-0.6,0.4-1.2,0.8-1.8,1.2c0,0-0.1,0-0.1,0.1c-0.1,0.1-0.2,0.2-0.4,0.3
		c-0.2,0.2-0.5,0.3-0.7,0.5c-0.4,0.3-0.8,0.6-1.1,0.9c-0.2,0.2-0.4,0.3-0.6,0.5c-0.1,0.1-0.2,0.2-0.4,0.3c-0.1,0-0.1,0.1-0.2,0.1
		c-0.4,0.3-0.7,0.6-1.1,0.9c0,0,0,0,0,0c-0.3,0.3-0.7,0.6-1,1c0,0-0.1,0.1-0.1,0.1c-0.1,0.1-0.2,0.2-0.3,0.3c0,0-0.1,0.1-0.1,0.1
		c-0.2,0.2-0.3,0.3-0.5,0.5c-0.3,0.3-0.7,0.7-1,1.1c-0.1,0.1-0.2,0.3-0.3,0.4c-0.3,0.4-0.6,0.7-0.9,1.1c-0.4,0.5-0.8,1-1.2,1.5
		c-0.3,0.4-0.5,0.8-0.8,1.2c-0.1,0.1-0.2,0.2-0.3,0.4c-0.4,0.6-0.8,1.2-1.1,1.8c0,0.1-0.1,0.1-0.1,0.2c-0.3,0.5-0.5,1-0.8,1.5
		c-0.2,0.5-0.5,1-0.7,1.5c-0.2,0.6-0.5,1.1-0.7,1.7c-0.1,0.3-0.3,0.7-0.4,1h0c-0.3,0-0.7-0.1-1-0.1c-0.2,0-0.4,0-0.5,0
		c-0.2,0-0.4,0-0.5,0c-0.3,0-0.6,0-0.9,0c-0.1,0-0.3,0-0.4,0c0,0-0.1,0-0.1,0c-0.2,0-0.5,0-0.7,0c-0.4,0-0.8,0.1-1.1,0.1
		c-0.3,0-0.6,0.1-1,0.1c-0.4,0.1-0.8,0.1-1.2,0.2c-0.3,0.1-0.6,0.1-1,0.2c-0.4,0.1-0.7,0.2-1.1,0.3c-0.3,0.1-0.6,0.2-0.9,0.3
		c-0.3,0.1-0.6,0.2-0.9,0.3c0,0-0.1,0-0.1,0.1c-0.6,0.3-1.2,0.5-1.8,0.8c-0.9,0.5-1.8,1-2.7,1.5c-0.3,0.2-0.6,0.4-0.8,0.6
		c-0.3,0.2-0.6,0.4-0.8,0.6c0,0,0,0,0,0c-0.3,0.2-0.5,0.4-0.7,0.6c-0.1,0-0.1,0.1-0.2,0.2c-0.2,0.2-0.4,0.4-0.6,0.6
		c-0.3,0.2-0.5,0.5-0.7,0.7c-0.2,0.2-0.5,0.5-0.7,0.7c-0.2,0.2-0.5,0.5-0.7,0.8c-0.4,0.5-0.9,1.1-1.3,1.6c-0.2,0.3-0.4,0.5-0.5,0.8
		c-0.2,0.3-0.4,0.6-0.6,0.9c-0.4,0.6-0.7,1.2-1,1.8c-0.1,0.3-0.3,0.5-0.4,0.8c-0.2,0.4-0.3,0.8-0.5,1.1c-0.1,0.3-0.2,0.6-0.3,0.9
		c-0.1,0.2-0.1,0.4-0.2,0.6c0,0.1,0,0.1-0.1,0.2c-0.1,0.2-0.1,0.4-0.2,0.6c-0.1,0.2-0.1,0.4-0.2,0.6c-0.1,0.4-0.2,0.8-0.3,1.2
		c0,0.2-0.1,0.3-0.1,0.5c0,0.2-0.1,0.4-0.1,0.6c0,0.2-0.1,0.5-0.1,0.7c0,0.2-0.1,0.5-0.1,0.7c0,0.1,0,0.3,0,0.4c0,0.1,0,0.3,0,0.4
		c0,0.3,0,0.6,0,0.9c0,0.3,0,0.5,0,0.8v1.7c-0.2-0.1-0.5-0.3-0.7-0.4c-0.5-0.2-1-0.4-1.5-0.6c-0.9-0.3-1.8-0.5-2.7-0.6
		c-0.1,0-0.2,0-0.3,0c-0.1,0-0.2,0-0.3,0c-0.1,0-0.2,0-0.3,0c-0.2,0-0.3,0-0.5,0c-6.9,0-12.6,5.6-12.6,12.6s5.6,12.6,12.6,12.6h25.1
		h91c1.1,0,2.1-0.1,3.2-0.2c12.1,0.2,18.4-10,18.8-20.6c0-0.4,0-0.8,0-1.1C501.9,130.2,501.1,127,499.7,124.1z"/>
	<path class="st77" d="M520.7,396.7c6.1,2.5,12.3,4.9,18.4,7.3l1.9-0.2c-0.2-0.3-0.3-0.6-0.5-0.9c-2.9-3.5-6.2-6.6-10.1-9.1
		c-6.1-3.8-12.7-5.3-19.8-3.9c-5.1,1-9.7,3.3-14,6.1c-0.3,0.2-0.4,0.5-0.7,0.8c3.9-0.6,7.6-1.2,11.4-1.7
		C511.9,394.7,516.4,394.9,520.7,396.7z"/>
	<path class="st88" d="M541.7,378.7c0.4,4.1,1.1,8.2,1.8,12.3c0.7,4.1,1.4,8.2,2.1,12.3c0,0.2,0,0.3,0,0.5l2.7,0
		c-0.1-0.6-0.2-1.2-0.1-1.7c0.8-4.3,1.9-8.5,2.6-12.8c1.3-8.2,1.6-16.5-0.6-24.6c-2-7.3-4.5-14.6-6.8-21.8c-0.1-0.4-0.7-0.7-1.1-1.1
		c-0.3,0.4-0.7,0.9-0.7,1.3c-0.2,4.1-0.3,8.1-0.4,12.2c-0.1,2.8-0.2,5.5-0.2,8.3C541.1,368.6,541.2,373.7,541.7,378.7z"/>
	<path class="st77" d="M548.9,403.7l2.7,0c0.2-0.4,0.4-0.8,0.6-1.2c4-6.2,8.1-12.2,11.9-18.5c5-8.3,11-15.7,18.4-22.1
		c0.2-0.2,0.4-0.4,0.5-0.7c-0.1-0.1-0.2-0.3-0.3-0.4c-4.6,2.5-9.2,4.9-13.8,7.4c-6.4,3.5-10.8,8.8-13.2,15.7c-2,6.1-4,12.3-6.1,18.4
		C549.5,402.9,549.2,403.3,548.9,403.7z"/>
	<path class="st29" d="M541.6,403.6c-0.1,0.1-0.2,0.2-0.3,0.2l0,0l3.3-0.1c-0.2-0.4-0.3-0.8-0.5-1.2c-1.6-5.7-3.8-11.1-6.6-16.3
		c-2.1-3.9-4.5-7.6-8-10.5c-5.4-4.4-11.5-7.6-17.9-10.1c-1.2-0.5-2.4-0.8-3.6-1.1c-0.1,0.1-0.2,0.2-0.2,0.4
		C520.9,376.2,531.4,389.8,541.6,403.6z"/>
	<g>
		<g>
			<defs>
				<path id="SVGID_00000124848411233950116680000000285597175379052450_" d="M523.5,220.3H58.6c-8.1,0-14.7,6.6-14.7,14.7v134
					c0,8.1,6.6,14.7,14.7,14.7h464.9c8.1,0,14.7-6.6,14.7-14.7V235C538.2,226.9,531.6,220.3,523.5,220.3z"/>
			</defs>
			<use xlink:href="#SVGID_00000124848411233950116680000000285597175379052450_"  style="overflow:visible;fill:#233E57;"/>
			<clipPath id="SVGID_00000068669455015935883990000002087771031154556317_">
				<use xlink:href="#SVGID_00000124848411233950116680000000285597175379052450_"  style="overflow:visible;"/>
			</clipPath>
			<path style="clip-path:url(#SVGID_00000068669455015935883990000002087771031154556317_);fill:#507690;" d="M529.1,328.2
				c-4.6-2.5-10.4-5.6-21.1-5.6s-16.4,3.1-21.1,5.6c-3.8,2.1-6.3,3.4-12.4,3.4c-6.1,0-8.6-1.4-12.4-3.4c-4.6-2.5-10.4-5.6-21.1-5.6
				c-10.7,0-16.4,3.1-21.1,5.6c-3.8,2.1-6.3,3.4-12.4,3.4s-8.6-1.4-12.4-3.4c-4.6-2.5-10.4-5.6-21.1-5.6c-10.7,0-16.4,3.1-21.1,5.6
				c-3.8,2.1-6.3,3.4-12.4,3.4c-6.1,0-8.6-1.4-12.4-3.4c-4.6-2.5-10.4-5.6-21.1-5.6c-10.7,0-16.4,3.1-21.1,5.6
				c-3.8,2.1-6.3,3.4-12.4,3.4c-6.1,0-8.6-1.4-12.4-3.4c-4.6-2.5-10.4-5.6-21.1-5.6c-10.7,0-16.4,3.1-21.1,5.6
				c-3.8,2.1-6.3,3.4-12.4,3.4c-6.1,0-8.6-1.4-12.4-3.4c-4.6-2.5-10.4-5.6-21.1-5.6c-10.7,0-16.4,3.1-21.1,5.6
				c-3.8,2.1-6.3,3.4-12.4,3.4c-6.1,0-8.6-1.4-12.4-3.4c-4.6-2.5-10.4-5.6-21.1-5.6c-10.7,0-16.4,3.1-21.1,5.6
				c-3.8,2.1-6.3,3.4-12.4,3.4c-6.1,0-8.6-1.4-12.4-3.4c-4.6-2.5-10.4-5.6-21.1-5.6v13.6v4.5V393h501.6v-43.2v-13.6v-4.5
				C535.5,331.6,532.9,330.3,529.1,328.2z"/>
		</g>
		
			<linearGradient id="SVGID_00000158740515628034883950000013516790335098613414_" gradientUnits="userSpaceOnUse" x1="188.7879" y1="377.2513" x2="188.7879" y2="365.6197">
			<stop  offset="0" style="stop-color:#47B5B7"/>
			<stop  offset="0.5781" style="stop-color:#259092"/>
			<stop  offset="1" style="stop-color:#107A7C"/>
		</linearGradient>
		<path style="fill:url(#SVGID_00000158740515628034883950000013516790335098613414_);" d="M215.6,383.7c0-14.8-12-26.8-26.8-26.8
			s-26.8,12-26.8,26.8H215.6z"/>
		<path class="st91" d="M446.6,383.7c0-14.8-12-26.8-26.8-26.8s-26.8,12-26.8,26.8H446.6z"/>
		<g>
			<circle class="st92" cx="419.8" cy="382.7" r="21.4"/>
			<circle class="st93" cx="419.8" cy="382.7" r="13.4"/>
		</g>
		<g>
			<circle class="st92" cx="188.8" cy="383.7" r="21.4"/>
			<circle class="st93" cx="188.8" cy="383.7" r="13.4"/>
		</g>
		<g>
			<polyline class="st5" points="43.9,250.4 55.6,250.4 55.6,329.7 43.9,329.7 			"/>
			<polygon points="56,330.2 43.9,330.2 43.9,329.3 55.1,329.3 55.1,250.9 43.9,250.9 43.9,250 56,250 			"/>
		</g>
		<g>
			<rect x="61.6" y="250.9" class="st5" width="11.7" height="58.8"/>
			<path d="M73.3,250.9v58.8H61.6v-58.8H73.3 M74.2,250h-0.9H61.6h-0.9v0.9v58.8v0.9h0.9h11.7h0.9v-0.9v-58.8V250L74.2,250z"/>
		</g>
		<g>
			<path class="st3" d="M157.9,383.7H79.5V256.3c0-3.3,2.6-5.9,5.9-5.9h66.5c3.3,0,5.9,2.6,5.9,5.9V383.7z"/>
			<g>
				<rect x="86.1" y="256.8" class="st5" width="28.2" height="109.9"/>
				<path d="M114.3,256.8v109.9H86.1V256.8H114.3 M115.2,255.9h-0.9H86.1h-0.9v0.9v109.9v0.9h0.9h28.2h0.9v-0.9V256.8V255.9
					L115.2,255.9z"/>
			</g>
			<g>
				<rect x="123.1" y="256.8" class="st5" width="28.2" height="109.9"/>
				<path d="M151.3,256.8v109.9h-28.2V256.8H151.3 M152.2,255.9h-0.9h-28.2h-0.9v0.9v109.9v0.9h0.9h28.2h0.9v-0.9V256.8V255.9
					L152.2,255.9z"/>
			</g>
			<rect x="118.5" y="250.4" class="st94" width="0.5" height="133.3"/>
			<path class="st95" d="M123.1,256.8v109.9h28.2C127.8,366.7,123.1,256.8,123.1,256.8z"/>
			<path class="st95" d="M86.1,256.8v109.9h28.2C90.8,366.7,86.1,256.8,86.1,256.8z"/>
		</g>
		<g>
			<path class="st3" d="M388,383.7h-78.3V256.3c0-3.3,2.6-5.9,5.9-5.9h66.5c3.3,0,5.9,2.6,5.9,5.9V383.7z"/>
			<g>
				<rect x="316.3" y="256.8" class="st5" width="28.2" height="109.9"/>
				<path d="M344.5,256.8v109.9h-28.2V256.8H344.5 M345.4,255.9h-0.9h-28.2h-0.9v0.9v109.9v0.9h0.9h28.2h0.9v-0.9V256.8V255.9
					L345.4,255.9z"/>
			</g>
			<g>
				<rect x="353.3" y="256.8" class="st5" width="28.2" height="109.9"/>
				<path d="M381.5,256.8v109.9h-28.2V256.8H381.5 M382.4,255.9h-0.9h-28.2h-0.9v0.9v109.9v0.9h0.9h28.2h0.9v-0.9V256.8V255.9
					L382.4,255.9z"/>
			</g>
			<rect x="348.6" y="250.4" class="st94" width="0.5" height="133.3"/>
			<path class="st95" d="M353.3,256.8v109.9h28.2C358,366.7,353.3,256.8,353.3,256.8z"/>
			<path class="st95" d="M316.3,256.8v109.9h28.2C321,366.7,316.3,256.8,316.3,256.8z"/>
		</g>
		<path class="st95" d="M61.4,250.9v58.8h11.9C63.4,309.7,61.4,250.9,61.4,250.9z"/>
		<path class="st95" d="M43.9,250.9v78.4h11.7C45.9,329.4,43.9,250.9,43.9,250.9z"/>
		<g>
			<g>
				<rect x="167.2" y="250.4" class="st5" width="64.5" height="58.8"/>
				<path d="M231.7,250.4v58.8h-64.5v-58.8H231.7 M232.6,249.5h-0.9h-64.5h-0.9v0.9v58.8v0.9h0.9h64.5h0.9v-0.9v-58.8V249.5
					L232.6,249.5z"/>
			</g>
			<path class="st95" d="M167.2,250.4v58.8h64.5C177.9,309.2,167.2,250.4,167.2,250.4z"/>
		</g>
		<g>
			<g>
				<rect x="235.9" y="250.4" class="st5" width="64.5" height="58.8"/>
				<path d="M300.3,250.4v58.8h-64.5v-58.8H300.3 M301.3,249.5h-0.9h-64.5h-0.9v0.9v58.8v0.9h0.9h64.5h0.9v-0.9v-58.8V249.5
					L301.3,249.5z"/>
			</g>
			<path class="st95" d="M235.9,250.4v58.8h64.5C246.6,309.2,235.9,250.4,235.9,250.4z"/>
		</g>
		<g>
			<g>
				<rect x="396.4" y="250.4" class="st5" width="64.5" height="58.8"/>
				<path d="M460.9,250.4v58.8h-64.5v-58.8H460.9 M461.8,249.5h-0.9h-64.5h-0.9v0.9v58.8v0.9h0.9h64.5h0.9v-0.9v-58.8V249.5
					L461.8,249.5z"/>
			</g>
			<path class="st95" d="M396.4,250.4v58.8h64.5C407.2,309.2,396.4,250.4,396.4,250.4z"/>
		</g>
		<g>
			<g>
				<rect x="464.9" y="250.4" class="st5" width="64.5" height="58.8"/>
				<path d="M529.4,250.4v58.8h-64.5v-58.8H529.4 M530.3,249.5h-0.9h-64.5H464v0.9v58.8v0.9h0.9h64.5h0.9v-0.9v-58.8V249.5
					L530.3,249.5z"/>
			</g>
			<path class="st95" d="M464.9,250.4v58.8h64.5C475.7,309.2,464.9,250.4,464.9,250.4z"/>
		</g>
		
			<linearGradient id="SVGID_00000039112635176699663540000018043431081602300604_" gradientUnits="userSpaceOnUse" x1="-8275.9111" y1="779.3508" x2="-8275.9111" y2="767.5115" gradientTransform="matrix(-1 0 0 -1 -7984.8589 1009.77)">
			<stop  offset="0" style="stop-color:#75C8C9;stop-opacity:0"/>
			<stop  offset="0.6839" style="stop-color:#6D9EAD;stop-opacity:0.6839"/>
			<stop  offset="1" style="stop-color:#698AA0"/>
		</linearGradient>
		<polygon style="opacity:0.4;fill:url(#SVGID_00000039112635176699663540000018043431081602300604_);" points="43.9,230.4 
			538.2,230.4 538.2,242.3 43.9,242.3 		"/>
		<g>
			<path class="st97" d="M409,325.6h-10c-2,0-3.6-1.6-3.6-3.6v-4.2c0-2,1.6-3.6,3.6-3.6h10c2,0,3.6,1.6,3.6,3.6v4.2
				C412.7,323.9,411,325.6,409,325.6z"/>
			<circle class="st14" cx="401.1" cy="319.8" r="2.4"/>
			<circle class="st14" cx="407.1" cy="319.8" r="2.4"/>
		</g>
		<g>
			<path class="st97" d="M180.4,325.6h-10c-2,0-3.6-1.6-3.6-3.6v-4.2c0-2,1.6-3.6,3.6-3.6h10c2,0,3.6,1.6,3.6,3.6v4.2
				C184.1,323.9,182.4,325.6,180.4,325.6z"/>
			<circle class="st14" cx="172.5" cy="319.8" r="2.4"/>
			<circle class="st14" cx="178.5" cy="319.8" r="2.4"/>
		</g>
		<g>
			<rect x="167.2" y="297.8" class="st98" width="35.2" height="11.4"/>
			<path d="M202.4,297.8v11.4h-35.2v-11.4H202.4 M203.3,296.9h-0.9h-35.2h-0.9v0.9v11.4v0.9h0.9h35.2h0.9v-0.9v-11.4V296.9
				L203.3,296.9z"/>
		</g>
		<g>
			<path class="st5" d="M170.1,300.5h1.4c1,0,1.7,0.6,1.7,2.7c0,2.1-0.6,2.7-1.8,2.7h-1.3V300.5z M170.6,305.4h0.7
				c0.8,0,1.3-0.2,1.3-2.2c0-2.1-0.6-2.2-1.3-2.2h-0.7V305.4z"/>
			<path class="st5" d="M177.7,300.9h-2.2v1.9h1.6v0.5h-1.6v2.1h2.3v0.5h-2.8v-5.4h2.8V300.9z"/>
			<path class="st5" d="M181.9,301.4c-0.3-0.3-0.7-0.6-1.2-0.6c-0.5,0-0.9,0.3-0.9,0.8c0,0.3,0.1,0.5,0.8,1l0.4,0.3
				c1,0.6,1.3,0.9,1.3,1.5c0,1-0.6,1.5-1.6,1.5c-0.7,0-1.2-0.3-1.6-0.9l0.4-0.3c0.3,0.4,0.7,0.7,1.2,0.7c0.6,0,1-0.4,1-1
				c0-0.4,0-0.6-1-1.2l-0.5-0.3c-0.5-0.3-1-0.7-1-1.4c0-0.8,0.6-1.3,1.4-1.3c0.6,0,1.1,0.3,1.5,0.7L181.9,301.4z"/>
			<path class="st5" d="M186.4,300.9h-0.7v4.4h0.7v0.5h-2v-0.5h0.7v-4.4h-0.7v-0.5h2V300.9z"/>
			<path class="st5" d="M188.6,300.5h0.6l1.6,4h0v-4h0.6v5.4h-0.5l-1.8-4.3l0,0v4.3h-0.6V300.5z"/>
			<path class="st5" d="M196.5,305.8h-0.6l-0.5-1.6h-1.6l-0.5,1.6h-0.6l1.9-5.8L196.5,305.8z M193.9,303.8h1.4l-0.7-2.2L193.9,303.8
				z"/>
			<path class="st5" d="M200.1,300.9h-0.6v4.9H199v-4.9h-1.5v-0.5h2.7V300.9z"/>
		</g>
		<g>
			<path d="M37.6,267.3L37.6,267.3c-2,0-3.6-1.6-3.6-3.6v-24.8c0-2,1.6-3.6,3.6-3.6h0V267.3z"/>
			<rect x="37.6" y="238.5" width="15.9" height="0.9"/>
			<rect x="37.6" y="244.5" width="15.9" height="0.9"/>
		</g>
		<rect x="43.9" y="242.2" class="st94" width="494.3" height="0.1"/>
		<path class="st95" d="M43.9,335.6c-2.9,2.2-4.7,5.6-4.7,9.5c0,3.9,1.9,7.3,4.7,9.5V335.6z"/>
		<path class="st95" d="M43.9,356.1c-1.8,1.4-3,3.6-3,6c0,2.5,1.2,4.7,3,6V356.1z"/>
	</g>
	<g>
		<g>
			<defs>
				<path id="SVGID_00000145022537220243746760000004794840002236616076_" d="M135.9,340c12.2-8,31.4-16.7,39.2-20.1
					c2.6-1.1,5.2-2.7,8-2.7c33.6-0.7,60.4-1.3,89.6-1.3c4.1,0,8,1.8,11.5,3.9l3.9,2.4c9.3,3.1,23.6,15.9,27.5,19.4
					c0.7,0.6,1.1,1.4,1.3,2.2l2.9,40.7c0.2,2.8-1.5,5.4-4.2,6.2l-6.3,2c-3.1,1-6.3,1.5-9.5,1.5l-164,1.3v0.3H93.7l-1.1,0.1
					c-0.6,0-1.3,0-1.9-0.1h-8.3c-4.2,0-7.7-3.4-7.7-7.7v-10.9c0-15.3,11.2-28.3,26.4-30.6L135.9,340z"/>
			</defs>
			<use xlink:href="#SVGID_00000145022537220243746760000004794840002236616076_"  style="overflow:visible;fill:#A8BC45;"/>
			<clipPath id="SVGID_00000049181609729871357780000009489550803560877741_">
				<use xlink:href="#SVGID_00000145022537220243746760000004794840002236616076_"  style="overflow:visible;"/>
			</clipPath>
			<g style="clip-path:url(#SVGID_00000049181609729871357780000009489550803560877741_);">
				<path class="st5" d="M314.8,340.8c-13.5,0.1-27-9.4-31.6-13c-0.9-0.7-0.8-2,0.1-2.5l5.6-2.8l5.2-2.1l21.4,14.4L314.8,340.8z"/>
				<path d="M314.7,341.3c-13.5,0-26.7-9.2-31.8-13.1c-0.5-0.4-0.8-1.1-0.8-1.7c0-0.7,0.4-1.3,1-1.7l5.6-2.8l5.5-2.2l21.9,14.8
					l-0.8,6.8l-0.5,0C314.8,341.3,314.7,341.3,314.7,341.3z M294,321l-4.9,2l-5.6,2.8c-0.2,0.2-0.4,0.5-0.4,0.8
					c0,0.3,0.1,0.6,0.4,0.9c14.5,11.3,26.1,12.8,30.8,12.9l0.6-5.2L294,321z"/>
			</g>
			<path style="clip-path:url(#SVGID_00000049181609729871357780000009489550803560877741_);fill:#DAF0F1;" d="M315.4,340.3
				c-16.1,0.4-32.1-13.1-32.1-13.1s18.2,9.9,31.3,6.2L315.4,340.3z"/>
			
				<linearGradient id="SVGID_00000039851195170802393040000017943011506689694620_" gradientUnits="userSpaceOnUse" x1="-12300.1709" y1="478.6276" x2="-12300.1709" y2="461.0457" gradientTransform="matrix(-0.9356 1.376980e-02 1.471527e-02 0.9999 -11317.832 81.5611)">
				<stop  offset="0" style="stop-color:#1D8B7B;stop-opacity:0"/>
				<stop  offset="0.9942" style="stop-color:#1D8B7B"/>
			</linearGradient>
			
				<polygon style="opacity:0.4;clip-path:url(#SVGID_00000049181609729871357780000009489550803560877741_);fill:url(#SVGID_00000039851195170802393040000017943011506689694620_);" points="
				111.4,392 284.3,389.5 284,371.9 111.2,374.5 			"/>
			<path style="clip-path:url(#SVGID_00000049181609729871357780000009489550803560877741_);fill:#075253;" d="M78.1,355.5l0-0.1
				l24-0.8c7.5-0.2,9.6-1.6,13.6-4.1c1.7-1,3.7-2.3,6.6-3.8l13.6-6.8l0,0.1l-13.6,6.8c-2.9,1.5-4.9,2.7-6.6,3.8
				c-3.9,2.5-6.1,3.8-13.6,4.1L78.1,355.5z"/>
			<path style="clip-path:url(#SVGID_00000049181609729871357780000009489550803560877741_);fill:#075253;" d="M312.8,391.7l-0.1,0
				l5.1-19.4c0,0,1.1-3.5,0.4-9.1c-0.6-5.7,1.7-6.7,1.8-6.8l0,0.1c0,0-2.4,1.1-1.8,6.7c0.6,5.6-0.4,9.2-0.4,9.2L312.8,391.7z"/>
			<path style="clip-path:url(#SVGID_00000049181609729871357780000009489550803560877741_);fill:#F1933E;" d="M317.9,344.2
				l-14.1,1.3c-0.6,0.1-1.1,0.4-1.4,0.9l-3.3,6.6c-0.6,1.2,0.3,2.6,1.7,2.5l18.3-1.5L317.9,344.2z"/>
		</g>
		<path class="st30" d="M138.7,395.5c0.8-2.4,1.2-4.9,1.2-7.5c0-13.2-10.7-23.9-23.9-23.9S92.1,374.8,92.1,388
			c0,2.8,0.5,5.4,1.4,7.9L138.7,395.5z"/>
		<g>
			<defs>
				<path id="SVGID_00000096756055835675613170000017489081979664177816_" d="M212.7,319.9c6.6,0.3,13.8-0.4,35.5,0.1
					c0,0,7.2,0.6,13.7,5.7c3.7,2.9,7,7.2,9.2,10.5c1.3,1.9,0.1,4.5-2.2,4.6l-14.2,1.1c0,0-7.7,0.6-7.7,0.6c-1,0.1-13.2,1.5-28.3,1.5
					c-2.6,0-5.3,0.1-7.9,0.3c-14.5,1-59.4,4-70,1.6c-0.9-0.2-1.1-1.5-0.3-1.9l22.3-12.7c5.5-3.2,11.1-6.7,17-9.5
					c1.7-0.8,3.6-1.2,5.5-1.3L212.7,319.9z"/>
			</defs>
			<defs>
				<path id="SVGID_00000118382149084187723550000012530505345359511943_" d="M155.7,347.3c-6.7,0-12.1-0.2-15-0.9
					c-0.6-0.1-1.1-0.7-1.2-1.3c-0.1-0.7,0.2-1.3,0.8-1.6l22.3-12.7c1.6-0.9,3.2-1.8,4.7-2.8c3.9-2.3,8-4.7,12.3-6.8
					c1.8-0.8,3.7-1.3,5.7-1.3l27.5-0.6l0,0c2.7,0.1,5.5,0.1,9.4,0c5.6-0.1,13.3-0.2,26.1,0.1c0.3,0,7.5,0.7,14,5.8
					c3.8,2.9,7.2,7.4,9.3,10.6c0.7,1,0.8,2.4,0.3,3.5c-0.5,1.1-1.6,1.9-2.9,2l-14.2,1.1l0,0c-0.2,0-1.1,0.1-5,0.4
					c-1.5,0.1-2.7,0.2-2.8,0.2c-1.6,0.2-13.8,1.5-28.2,1.5c-0.1,0-0.1,0-0.2,0c-2.5,0-5.1,0.1-7.8,0.3
					C200.8,345.5,173.7,347.3,155.7,347.3z M212.7,320.4l-27.4,0.6c-1.9,0-3.6,0.5-5.2,1.2c-4.2,2-8.3,4.4-12.2,6.7
					c-1.6,0.9-3.2,1.9-4.8,2.8l-22.3,12.7c-0.3,0.2-0.3,0.4-0.3,0.5c0,0.1,0.1,0.3,0.4,0.4c10.5,2.3,56.1-0.7,69.8-1.6
					c2.8-0.2,5.4-0.3,7.9-0.3c0,0,0.1,0,0.1,0c15.7,0,28-1.5,28.1-1.5c0,0,0,0,2.8-0.2c1.9-0.1,4.6-0.3,4.9-0.4l0,0l14.2-1.1
					c0.9-0.1,1.6-0.6,2-1.4c0.4-0.8,0.3-1.7-0.2-2.4c-2.2-3.1-5.5-7.5-9.1-10.3c-6.3-4.9-13.3-5.6-13.4-5.6
					c-12.7-0.3-20.4-0.1-26-0.1C218.3,320.5,215.4,320.5,212.7,320.4z"/>
			</defs>
			<use xlink:href="#SVGID_00000096756055835675613170000017489081979664177816_"  style="overflow:visible;fill:#FFFFFF;"/>
			<use xlink:href="#SVGID_00000118382149084187723550000012530505345359511943_"  style="overflow:visible;"/>
			<clipPath id="SVGID_00000016768813844110489780000006368397659695979661_">
				<use xlink:href="#SVGID_00000096756055835675613170000017489081979664177816_"  style="overflow:visible;"/>
			</clipPath>
			
				<clipPath id="SVGID_00000148654139365016156190000008885925296202457260_" style="clip-path:url(#SVGID_00000016768813844110489780000006368397659695979661_);">
				<use xlink:href="#SVGID_00000118382149084187723550000012530505345359511943_"  style="overflow:visible;"/>
			</clipPath>
			<path style="clip-path:url(#SVGID_00000148654139365016156190000008885925296202457260_);fill:#DAF0F1;" d="M170.2,327.6
				l-29.8,17l0.2,0.8l24.8,2.9l45.5-4.6C175.9,343.6,170.2,327.6,170.2,327.6z"/>
			<path style="clip-path:url(#SVGID_00000148654139365016156190000008885925296202457260_);fill:#DAF0F1;" d="M220.1,319l0.2,24.4
				l11,1.6l21.8-4.4C218.1,340.6,220.1,319,220.1,319z"/>
		</g>
		<g>
			<circle class="st92" cx="116" cy="388" r="21.1"/>
			<circle class="st93" cx="116" cy="388" r="10.9"/>
		</g>
		<path class="st30" d="M257.5,394.6c-0.6-2.1-0.9-4.3-0.9-6.6c0-13.2,10.7-23.9,23.9-23.9s23.9,10.7,23.9,23.9c0,2.1-0.3,4.1-0.8,6
			l-3.7,0.3L257.5,394.6z"/>
		<g>
			<circle class="st92" cx="280.4" cy="388" r="21.1"/>
			<circle class="st93" cx="280.4" cy="388" r="10.9"/>
		</g>
		<path class="st98" d="M154.2,391.4c-2.4,0-3.7-0.7-4.5-1.4c-1-0.9-1.2-1.9-1.2-2c-1.6-4.5-2.3-14.2-2.6-21.6
			c-0.3-7.4,0.5-14.7,2.6-21.8l1.6-5.6l0.1,0l-1.6,5.6c-2.1,7.1-2.9,14.4-2.6,21.8c0.3,7.4,1.1,17.1,2.6,21.6c0,0,0.2,1,1.2,1.9
			c0.9,0.8,2.8,1.7,6.4,1.2l87.1-2c0,0,1.5,0.3,3.3-0.3c3-1,4.6-3.6,5.4-5.7c0.1-0.2,8.4-15.5,13.6-22.4c2-2.6,3.6-5.3,4.9-8
			c2.3-5,3.5-12.3,0.6-16.6l0.1-0.1c1.3,2,1.9,4.7,1.7,8c-0.2,2.9-1,6-2.3,8.7c-1.2,2.7-2.9,5.3-4.9,8c-5.2,6.9-13.5,22.3-13.6,22.4
			c-0.8,2.1-2.4,4.8-5.5,5.8c-1.8,0.6-3.3,0.3-3.4,0.3l-87.1,2C155.4,391.3,154.8,391.4,154.2,391.4z"/>
		<path class="st106" d="M158.6,351.5h-1.3c-3,0-5.4-2.4-5.4-5.4v-2.2c0-3,2.4-5.4,5.4-5.4h1.3c0.9,0,1.7,0.8,1.7,1.7v9.5
			C160.4,350.7,159.6,351.5,158.6,351.5z"/>
		<path class="st107" d="M208.8,354.7h-11.1c-0.9,0-1.6-0.7-1.6-1.6c0-0.9,0.7-1.6,1.6-1.6h11.1c0.9,0,1.6,0.7,1.6,1.6
			C210.4,354,209.7,354.7,208.8,354.7z"/>
		<path class="st107" d="M253.7,351.7c-0.8,0-1.5-0.6-1.6-1.4c-0.1-0.9,0.5-1.7,1.4-1.8l11-1.3c0.9-0.1,1.7,0.5,1.8,1.4
			c0.1,0.9-0.5,1.7-1.4,1.8l-11,1.3C253.8,351.7,253.8,351.7,253.7,351.7z"/>
		<polygon points="220.3,343.9 210.9,344.2 215.5,319.8 220.1,320.1 		"/>
		<path class="st98" d="M214,389.8l-1-20.6c-0.2-3.5,0-7.1,0.4-10.7l1.7-14.1l0.1,0l-1.7,14.1c-0.4,3.5-0.6,7.1-0.4,10.6l1,20.6
			L214,389.8z"/>
		
			<rect x="204.1" y="332" transform="matrix(0.112 -0.9937 0.9937 0.112 -137.534 510.1117)" class="st108" width="25.2" height="0.1"/>
		<path class="st95" d="M82.2,357.3c-2.3,0.3-4.5,1.7-5.7,3.9c-1.2,2.2-1.3,4.7-0.3,6.9L82.2,357.3z"/>
	</g>
	<path class="st29" d="M559.5,403.7c10.4-9,21.2-17.5,33.3-24.3c-0.1-0.1-0.1-0.3-0.2-0.4c-1.2,0.1-2.5,0.2-3.7,0.4
		c-6.8,1.2-13.4,3-19.5,6.2c-4,2.1-7.1,5.2-10,8.6c-2.5,3-4.7,6.2-6.8,9.5H559.5z"/>
</g>
</svg>
