<?xml version="1.0" encoding="utf-8"?>
<!-- Generator: Adobe Illustrator 26.4.0, SVG Export Plug-In . SVG Version: 6.00 Build 0)  -->
<svg version="1.1" id="Layer_1" xmlns="http://www.w3.org/2000/svg" xmlns:xlink="http://www.w3.org/1999/xlink" x="0px" y="0px"
	 viewBox="0 0 600 425.5" style="enable-background:new 0 0 600 425.5;" xml:space="preserve">
<style type="text/css">
	.st0{fill:#D3D8DD;}
	.st1{fill:#F5F5F6;}
	.st2{fill:#3D6092;}
	.st3{fill:#6390B5;}
	.st4{fill:#00A3A6;}
	.st5{fill:#99B1BC;}
	.st6{fill:#FFFFFF;}
	.st7{fill:none;}
	.st8{fill-rule:evenodd;clip-rule:evenodd;fill:#3D6092;}
	.st9{fill:#A7B2BC;}
	.st10{fill:#233E57;}
	.st11{fill:#B2BFD3;}
	.st12{fill:#707071;}
	.st13{fill:#657889;}
	.st14{fill:#5EA77D;}
	.st15{fill:#A8BC45;}
	.st16{fill:#198145;}
	.st17{fill:#E9ECEE;}
	.st18{fill:none;stroke:#198145;stroke-miterlimit:10;}
	.st19{fill:#A6BFD5;}
	.st20{fill:none;stroke:#198145;stroke-width:0.5843;stroke-miterlimit:10;}
	.st21{fill:#7890B3;}
	.st22{fill:#043C55;}
</style>
<path class="st10" d="M589.6,409.6H9.9c-3.3,0-6,2.7-6,6l0,0c0,3.3,2.7,6,6,6h579.7c3.3,0,6-2.7,6-6l0,0
	C595.6,412.3,592.9,409.6,589.6,409.6z"/>
<g>
	<g>
		<path class="st10" d="M421.3,1.7H309.1c-12.8,0-23.2,10.4-23.2,23.2v34.8c0,12.8,10.4,23.2,23.2,23.2h46.4v46.4h19.3V83h46.4
			c12.8,0,23.2-10.4,23.2-23.2V24.9C444.5,12.1,434.1,1.7,421.3,1.7z"/>
		<path class="st6" d="M421.3,13.3H309.1c-6.4,0-11.6,5.2-11.6,11.6v34.8c0,6.4,5.2,11.6,11.6,11.6h112.1c6.4,0,11.6-5.2,11.6-11.6
			V24.9C432.9,18.5,427.7,13.3,421.3,13.3z"/>
	</g>
	<path class="st19" d="M510.2,255H84.8l17-119.3c1.3-9.2,9.2-16,18.5-16h354.4c9.3,0,17.2,6.8,18.5,16L510.2,255z"/>
	<path class="st21" d="M518,409.8H77.1c-6.4,0-11.6-5.2-11.6-11.6V266.7c0-6.4,5.2-11.6,11.6-11.6H518c6.4,0,11.6,5.2,11.6,11.6
		v131.5C529.6,404.6,524.4,409.8,518,409.8z"/>
	<g>
		<path class="st10" d="M500.6,393H94.4c-6.7,0-12.2-5.5-12.2-12.2V284c0-6.7,5.5-12.2,12.2-12.2h406.2c6.7,0,12.2,5.5,12.2,12.2
			v96.8C512.8,387.5,507.4,393,500.6,393z M94.4,277c-3.9,0-7,3.2-7,7v96.8c0,3.9,3.2,7,7,7h406.2c3.9,0,7-3.2,7-7V284
			c0-3.9-3.2-7-7-7H94.4z"/>
	</g>
	<circle class="st6" cx="297.5" cy="332.4" r="19.3"/>
	<g>
		<path class="st10" d="M471.6,340.7h-96.7c-4.6,0-8.3-3.7-8.3-8.3s3.7-8.3,8.3-8.3h96.7c4.6,0,8.3,3.7,8.3,8.3
			S476.2,340.7,471.6,340.7z"/>
	</g>
	<g>
		<path class="st10" d="M219.9,340.7h-96.7c-4.6,0-8.3-3.7-8.3-8.3s3.7-8.3,8.3-8.3h96.7c4.6,0,8.3,3.7,8.3,8.3
			S224.5,340.7,219.9,340.7z"/>
	</g>
	<g>
		<g>
			<path class="st22" d="M258.8,189.1h-116c-6.3,0-11.4-5.1-11.4-11.4s5.1-11.4,11.4-11.4h116c6.3,0,11.4,5.1,11.4,11.4
				S265.1,189.1,258.8,189.1z"/>
		</g>
		<g>
			<path class="st5" d="M258.8,180.3h-116c-1.4,0-2.6-1.2-2.6-2.6s1.2-2.6,2.6-2.6h116c1.4,0,2.6,1.2,2.6,2.6
				S260.3,180.3,258.8,180.3z"/>
		</g>
		<rect x="142.8" y="81" class="st6" width="116" height="96.7"/>
		<g>
			<path class="st4" d="M180.4,104.5h-18.2c-2.3,0-4.2-1.9-4.2-4.2s1.9-4.2,4.2-4.2h18.2c2.3,0,4.2,1.9,4.2,4.2
				S182.7,104.5,180.4,104.5z"/>
		</g>
		<g>
			<path class="st5" d="M239.5,123.8h-77.4c-2.3,0-4.2-1.9-4.2-4.2s1.9-4.2,4.2-4.2h77.4c2.3,0,4.2,1.9,4.2,4.2
				S241.8,123.8,239.5,123.8z"/>
		</g>
		<g>
			<path class="st5" d="M239.5,143.2h-77.4c-2.3,0-4.2-1.9-4.2-4.2s1.9-4.2,4.2-4.2h77.4c2.3,0,4.2,1.9,4.2,4.2
				S241.8,143.2,239.5,143.2z"/>
		</g>
		<g>
			<path class="st5" d="M200.8,162.5h-38.7c-2.3,0-4.2-1.9-4.2-4.2s1.9-4.2,4.2-4.2h38.7c2.3,0,4.2,1.9,4.2,4.2
				S203.1,162.5,200.8,162.5z"/>
		</g>
	</g>
	<path class="st22" d="M368.9,158.4h-7.4c-3.3,0-6-2.7-6-6V145c0-3.3,2.7-6,6-6h7.4c3.3,0,6,2.7,6,6v7.4
		C374.9,155.7,372.2,158.4,368.9,158.4z"/>
	<path class="st22" d="M407.6,158.4h-7.4c-3.3,0-6-2.7-6-6V145c0-3.3,2.7-6,6-6h7.4c3.3,0,6,2.7,6,6v7.4
		C413.6,155.7,410.9,158.4,407.6,158.4z"/>
	<path class="st22" d="M446.3,158.4h-7.4c-3.3,0-6-2.7-6-6V145c0-3.3,2.7-6,6-6h7.4c3.3,0,6,2.7,6,6v7.4
		C452.2,155.7,449.6,158.4,446.3,158.4z"/>
	<path class="st22" d="M446.3,197h-7.4c-3.3,0-6-2.7-6-6v-7.4c0-3.3,2.7-6,6-6h7.4c3.3,0,6,2.7,6,6v7.4
		C452.2,194.4,449.6,197,446.3,197z"/>
	<path class="st22" d="M407.6,197h-7.4c-3.3,0-6-2.7-6-6v-7.4c0-3.3,2.7-6,6-6h7.4c3.3,0,6,2.7,6,6v7.4
		C413.6,194.4,410.9,197,407.6,197z"/>
	<path class="st22" d="M368.9,197h-7.4c-3.3,0-6-2.7-6-6v-7.4c0-3.3,2.7-6,6-6h7.4c3.3,0,6,2.7,6,6v7.4
		C374.9,194.4,372.2,197,368.9,197z"/>
	<path class="st4" d="M407.6,235.7h-46.1c-3.3,0-6-2.7-6-6v-7.4c0-3.3,2.7-6,6-6h46.1c3.3,0,6,2.7,6,6v7.4
		C413.6,233,410.9,235.7,407.6,235.7z"/>
</g>
</svg>
